<?xml version="1.0" encoding="utf-8"?>
<!-- Generator: Adobe Illustrator 21.0.2, SVG Export Plug-In . SVG Version: 6.00 Build 0)  -->
<svg version="1.1" id="Layer_1" xmlns:xml="http://www.w3.org/XML/1998/namespace"
	 xmlns="http://www.w3.org/2000/svg" xmlns:xlink="http://www.w3.org/1999/xlink" x="0px" y="0px" viewBox="0 0 480 290"
	 style="enable-background:new 0 0 480 290;" xml:space="preserve">
<style type="text/css">
	.st0{fill:#881E4A;}
	.st1{fill:#002E6E;}
	.st2{enable-background:new    ;}
	.st3{fill:#881E4A;}
</style>
<g id="surface2" transform="matrix(1,0,0,1,0,0)">
	<path class="st0" d="M234.8,161.8c5.4-5.1,9.6-10,12.5-14.8c2.9-4.8,4.8-9.4,5.8-13.9c1-4.6,1.3-9,0.9-13.4
		c-0.4-4.4-1.1-8.7-2.2-12.9c-1.1-4.3-2.3-8.5-3.4-12.7c-1.2-4.2-2.2-8.3-2.9-12.4c-0.7-4.2-0.9-8.3-0.5-12.5
		c0.4-4.2,1.6-8.4,3.7-12.7c2.1-4.3,5.3-8.6,9.7-13.1c-6.1,5.2-10.8,10.2-14,15s-5.4,9.4-6.4,13.9c-1.1,4.5-1.5,8.9-1.1,13.3
		c0.3,4.4,1,8.8,2.1,13.3c1,4.4,2,9,3,13.7s1.6,9.6,1.8,14.7c0.2,5.1-0.3,10.5-1.6,16.2C240.6,149.3,238.3,155.3,234.8,161.8"/>
	<path class="st1" d="M232.3,97.4c5.6-1.8,10.6-3.9,15-6.2c4.4-2.3,7.9-4.6,10.6-7c2.1,1,3.5,2.3,4,4c0.6,2.2-0.2,4.6-2.3,7.3
		c-2.1,2.6-5.3,5.2-9.5,7.8c-4.2,2.6-9.2,4.9-15,7C234,106,233,101.7,232.3,97.4 M269.7,88.6c-0.5-1.5-1.6-2.7-3.6-3.6
		c-1.9-0.9-4.3-1.5-7.3-1.8c1.5-1.5,2.6-2.9,3.2-4.3c0.6-1.4,0.8-2.7,0.4-3.9c-0.6-1.8-2.2-3.2-4.8-4.1c-2.6-0.9-5.9-1.4-10-1.4
		c1.9,0.5,3.4,1.2,4.6,2.1c1.2,0.8,2,1.8,2.4,3c0.6,2,0,4.2-1.8,6.6c-1.8,2.4-4.4,4.8-8.1,7.2c-3.6,2.4-7.9,4.6-12.9,6.7
		c-0.8-4.9-1-9.8-0.6-14.8c0.4-5,1.5-10.1,3.5-15.3c2-5.2,5-10.4,9.1-15.8c4.1-5.4,9.6-10.9,16.5-16.5
		c-10.8,6.9-19.2,13.8-25.3,20.6c-6,6.9-9.9,14-11.5,21.3c-1.6,7.3-1.2,15,1.2,23c-1,0.3-2,0.6-3,0.9c-3.3,1-6.4,1.8-9.5,2.4
		c-3.1,0.6-6,1-8.8,1.3c3.1,0.1,6.4-0.2,10.1-0.7c3.7-0.5,7.6-1.3,11.7-2.3c1.3,4,3.1,8.1,5.3,12.4c-0.5,0.1-0.9,0.3-1.4,0.4
		c-3.3,1-6.4,1.8-9.6,2.4c-3.1,0.6-6,1-8.8,1.3c2.9,0.1,6.1-0.1,9.6-0.6c3.5-0.4,7.1-1.1,10.9-2.1c2.3,4.1,4.9,8.4,8,12.8
		c-1.2-4.6-2.5-9.2-3.8-13.8c0.4-0.1,0.8-0.2,1.2-0.4c5.1-1.5,9.7-3.2,13.9-5.2c4.2-1.9,7.8-3.9,10.8-6.1c3-2.1,5.3-4.2,6.7-6.3
		C269.7,92.2,270.2,90.3,269.7,88.6"/>
</g>
<g id="surface4">
	<g class="st2">
		<path class="st1" d="M107.1,205.4v1.3h-14v-1.3c0.2,0.1,0.3,0.1,0.5,0.1c0.2,0,0.4,0,0.6,0c1,0,1.8-0.1,2.4-0.4
			c0.8-0.3,1.2-0.9,1.2-1.6v-14.1H77.9v13.4c0,0.9,0.3,1.6,1,2c0.7,0.4,1.5,0.7,2.5,0.7c0.3,0,0.6,0,1.1,0v1.3H68.7v-1.3
			c1,0,1.8,0,2.3-0.2c1.5-0.3,2.3-1.1,2.3-2.3v-27.2c0-0.7-0.4-1.2-1.1-1.5c-0.7-0.3-1.7-0.4-2.8-0.4c-0.3,0-0.6,0-0.7,0v-1.3h13.8
			v1.3c-1.5,0-2.5,0-3,0.1c-1.1,0.2-1.6,0.8-1.6,1.6v11.8h19.9v-11.3c0-0.8-0.5-1.3-1.5-1.7c-1-0.4-2.1-0.5-3.1-0.5v-1.3h14v1.3
			c-1.3,0-2.4,0.1-3.3,0.4c-0.9,0.3-1.3,0.9-1.3,1.8v27.3c0,0.6,0.4,1.1,1.1,1.5c0.7,0.4,1.6,0.5,2.5,0.5c0.2,0,0.3,0,0.5,0
			C106.9,205.4,107,205.4,107.1,205.4z"/>
		<path class="st1" d="M123.9,172.6v1.3c-1.8,0-3,0.2-3.6,0.6c-0.6,0.4-1,1-1,1.7v27.2c0,0.9,0.7,1.5,2.2,1.8
			c0.5,0.1,1.2,0.1,2.2,0.2v1.4h-13.9v-1.3c1.1,0,1.9-0.1,2.4-0.2c1.6-0.3,2.4-0.8,2.4-1.7v-27.3c0-1-0.5-1.7-1.6-2
			c-0.6-0.2-1.6-0.3-2.8-0.3v-1.3H123.9z"/>
		<path class="st1" d="M145.8,172.6c2,0,3.9,0.7,5.6,2c1.9,1.5,2.8,3.4,2.8,5.8c0,3-1.3,5.5-4,7.4c-2.4,1.7-5.2,2.6-8.3,2.6
			c-0.4,0-0.8,0-1.4-0.2c-0.6-0.1-0.9-0.1-0.9-0.1c-0.4-0.6-0.5-1.2-0.4-1.7c0.2,0,0.4,0.1,0.8,0.1c0.4,0,0.7,0.1,1.1,0.1
			c0.6,0,1.1,0,1.4,0c1.9,0,3.6-0.7,5-2c1.4-1.3,2.1-3,2.1-5.1c0-2.1-0.8-3.8-2.4-5.3c-1.6-1.4-3.8-2.1-6.5-2.1
			c-0.9,0-1.7,0.1-2.3,0.2c-0.6,0.2-1.2,0.4-1.9,0.8v28.3c0,1,0.8,1.6,2.3,1.8c0.7,0.1,1.4,0.2,2.3,0.2v1.3h-14.1v-1.3
			c0.6,0.1,1.1,0.1,1.6,0.1c0.9,0,1.7-0.1,2.2-0.3c0.5-0.2,0.8-0.7,0.8-1.4v-27.8c0-0.8-0.5-1.3-1.4-1.6c-0.9-0.3-2-0.4-3.2-0.4
			v-1.3H145.8z"/>
		<path class="st1" d="M194.6,189.7c0,4.7-1.5,8.7-4.6,12c-3.4,3.8-8,5.6-13.6,5.6c-6.2,0-10.9-1.9-14.1-5.6c-2.7-3.2-4-7.2-4-12.1
			c0-5.2,1.3-9.3,4-12.4c3.1-3.6,7.8-5.3,14.1-5.3c5.9,0,10.5,1.8,13.8,5.3C193.1,180.4,194.6,184.6,194.6,189.7z M189.7,189.7
			c0-4-1.1-7.5-3.4-10.7c-2.6-3.5-5.9-5.3-9.9-5.3c-4.2,0-7.5,1.6-9.9,4.9c-2.2,3-3.3,6.7-3.3,11c0,3.6,1.1,7,3.3,10.2
			c2.6,3.7,5.9,5.6,9.9,5.6c3.9,0,7.1-1.9,9.8-5.7C188.5,196.5,189.7,193.1,189.7,189.7z"/>
		<path class="st1" d="M198.2,172.6h28.2l-0.5,6.6h-1.3v-3.1c0-1.1-0.5-1.6-1.4-1.6h-8.7v29c0,0.6,0.3,1.1,1,1.4s1.5,0.5,2.4,0.5
			c0.5,0,0.9,0,1.2,0v1.3h-13.8v-1.3c0.2,0.1,0.5,0.1,1,0.1c0.9,0,1.7-0.1,2.4-0.4c0.7-0.3,1.1-0.7,1.1-1.3v-29.1h-8.7
			c-0.3,0-0.6,0.1-0.9,0.4c-0.3,0.3-0.4,0.6-0.4,1.1v3.2h-1.2L198.2,172.6z"/>
		<path class="st1" d="M255.7,199.5l-0.5,7.2h-25.6v-1.3c0.2,0.1,0.4,0.1,0.9,0.1c0.8,0,1.6-0.3,2.3-0.8c0.7-0.5,1-1.2,1-2v-26
			c0-1.1-0.5-1.9-1.6-2.3c-0.4-0.1-1.5-0.3-3.3-0.5v-1.3h25.8l0.3,0.4l-0.7,5.9h-1.4v-2.6c0-0.6-0.2-1-0.5-1.3
			c-0.4-0.4-1.1-0.5-2.1-0.5h-11.9v13.7l0.3,0.1h9.9c0.7,0,1.2-0.7,1.5-2.1c0.1-0.5,0.1-1.2,0.1-2.2h1.3v10h-1.3
			c0-0.9,0-1.5-0.1-1.9c-0.2-1.3-0.7-1.9-1.5-1.9h-9.9l-0.3,0.4v14.1h12.5c1.4,0,2.4-0.9,3-2.6c0.2-0.6,0.4-1.4,0.5-2.6H255.7z"/>
		<path class="st1" d="M292.1,203.3c0,1.1-1.5,2.1-4.5,2.9c-2.7,0.8-5.4,1.1-8,1.1c-5.1,0-9.5-1.5-13.3-4.5c-4-3.3-6-7.5-6-12.6
			c0-2.7,0.5-5.2,1.5-7.6c1.3-3.1,3.2-5.5,5.8-7.3c3.2-2.2,7.2-3.3,12-3.3c2.1,0,4.2,0.2,6.1,0.5c1.9,0.3,4.1,0.9,6.4,1.6l-1.4,6.2
			h-1.4l-0.2-3.3c-2.6-2-5.7-3-9.3-3c-4.5,0-8.1,1.5-10.8,4.5c-2.5,2.8-3.8,6.2-3.8,10.3c0,4.5,1.4,8.2,4.3,11.2
			c3,3.2,6.9,4.8,11.8,4.8c2.4,0,4.4-0.3,6-0.8c1.4-0.6,2.8-1.2,4.3-1.8c0.2,0,0.3,0.1,0.3,0.2C292.1,202.5,292.1,202.8,292.1,203.3
			z"/>
		<path class="st1" d="M331.6,206.7h-12.7v-1.3c0.5,0,1.1,0,1.7-0.1c0.6-0.1,1.3-0.3,2-0.6c0.1-0.2,0.2-0.5,0.2-0.8
			c0-0.1,0-0.3-0.1-0.4l-3.2-8.2h-14l-2.9,6.8c-0.2,0.6-0.3,1.2-0.3,1.7c0.4,0.7,0.9,1.2,1.5,1.4c0.6,0.2,1.5,0.3,2.6,0.3v1.3h-11.2
			v-1.3c0.9,0,1.6-0.1,2-0.2c0.4-0.1,0.8-0.4,1.3-1l14.4-32.1h1.6l13.1,30.8c0.7,1.6,2,2.5,3.9,2.5V206.7z M318.6,193.3l-6-14.4
			l-6.1,14.4H318.6z"/>
		<path class="st1" d="M365.7,205.4l0.2,1.3l-6.9,0l-13.3-17.3c-0.2-0.4-0.3-0.7-0.2-1c0.1,0,0.3,0,0.6,0s0.6,0,1-0.1
			c2.6,0,4.7-0.6,6.5-1.8c2-1.4,3-3.4,3-6c0-2.1-0.9-3.6-2.7-4.8c-1.6-1-3.5-1.5-5.8-1.5c-0.8,0-1.5,0.1-2.3,0.2
			c-0.8,0.1-1.5,0.3-2.3,0.6v28.6c0,0.7,0.5,1.2,1.6,1.5c0.7,0.2,1.6,0.3,2.5,0.3c0.3,0,0.4,0,0.5,0h0v1.3h-13.8v-1.3
			c0.4,0,0.6,0,0.8,0c0.9,0,1.8-0.1,2.5-0.4c0.7-0.3,1-0.7,1-1.3v-28.2c0-0.6-0.7-1-2.1-1.3c-0.5-0.1-1.2-0.2-2.2-0.3v-1.3H354
			c2.1,0,3.8,0.7,5.2,2.1c1.4,1.4,2.1,3.2,2.1,5.3c0,2.5-0.9,4.5-2.8,6.2c-1.6,1.5-3.8,2.5-6.6,3.1l12.5,16.1L365.7,205.4z"/>
		<path class="st1" d="M381.5,172.6v1.3c-1.8,0-3,0.2-3.6,0.6c-0.7,0.4-1,1-1,1.7v27.2c0,0.9,0.7,1.5,2.2,1.8
			c0.5,0.1,1.2,0.1,2.2,0.2v1.4h-13.9v-1.3c1.1,0,1.9-0.1,2.4-0.2c1.6-0.3,2.3-0.8,2.3-1.7v-27.3c0-1-0.5-1.7-1.6-2
			c-0.6-0.2-1.6-0.3-2.8-0.3v-1.3H381.5z"/>
		<path class="st1" d="M401.7,187.6c2,0.4,3.6,1.3,4.9,2.7s1.9,3.2,1.9,5.2c0,3.6-1.6,6.5-4.7,8.7c-2.8,2-6.2,3-10,3
			c-1.4,0-2.7-0.1-4-0.4c-1.3-0.3-2.8-0.7-4.4-1.3c0.1-0.9,0.2-1.9,0.3-3.1s0.1-2.3,0.1-3.5h1.3c0,2,0.8,3.6,2.3,4.6
			c1.3,0.9,3,1.3,5.2,1.3c2.9,0,5.2-0.7,6.9-2s2.6-3.1,2.6-5.4c0-1.5-0.4-2.7-1.3-3.8c-0.9-1.2-2.2-2-3.9-2.2l-8.7-1.3
			c-1.8-0.3-3.1-1.1-4-2.6c-0.9-1.5-1.4-3.2-1.4-5.3c0-3.1,1.3-5.7,4-7.8c2.5-1.9,5.3-2.9,8.5-2.9c1.5,0,2.9,0.2,4.4,0.6
			c1.5,0.4,3,0.9,4.4,1.6c-0.6,2-0.9,3.9-1.2,5.7h-1c0-1-0.2-2.1-0.5-3.3c-0.7-0.9-1.6-1.6-2.7-2s-2.3-0.7-3.6-0.7
			c-2.2,0-4.1,0.8-5.8,2.3c-1.7,1.5-2.5,3.3-2.5,5.2c0,1.2,0.2,2.3,0.6,3.3c0.4,1,1.1,1.5,2.2,1.7L401.7,187.6z"/>
	</g>
	<g class="st2">
		<path class="st3" d="M93.8,256.8h-8.9v-0.9c0.4,0,0.8,0,1.2-0.1s0.9-0.2,1.4-0.4c0.1-0.2,0.1-0.4,0.1-0.6c0-0.1,0-0.2-0.1-0.3
			l-2.2-5.7h-9.8l-2,4.8c-0.1,0.4-0.2,0.8-0.2,1.2c0.3,0.5,0.6,0.8,1,0.9c0.4,0.1,1.1,0.2,1.8,0.2v0.9h-7.8v-0.9
			c0.7,0,1.1,0,1.4-0.1c0.3-0.1,0.6-0.3,0.9-0.7l10.1-22.5h1.2l9.2,21.5c0.5,1.1,1.4,1.7,2.7,1.7V256.8z M84.7,247.5l-4.2-10.1
			l-4.3,10.1H84.7z"/>
		<path class="st3" d="M108.7,242h4.5l-0.7,1.6h-2.8c0.1,0.2,0.2,0.5,0.2,0.8c0,0.3,0.1,0.6,0.1,0.9c0,2.1-0.8,3.7-2.4,4.7
			c-1.4,0.9-3.1,1.3-5.3,1.3c-0.4,0.2-0.8,0.5-1.2,0.9s-0.5,0.8-0.5,1.2c0,0.4,0.2,0.7,0.6,1c0.4,0.2,0.8,0.3,1.4,0.3h6.5
			c1.1,0,2,0.4,2.6,1.1s1,1.6,1,2.7c0,2.5-1,4.5-2.9,5.9c-1.8,1.3-4,2-6.5,2c-1.9,0-3.5-0.4-4.8-1.3c-1.5-1-2.2-2.3-2.2-4
			c0-1.4,0.6-2.5,1.9-3.5c0.4-0.3,1-0.6,1.9-1c-1.4-0.3-2.2-1-2.2-2.2c0-0.6,0.4-1.1,1-1.8c0.6-0.6,1.3-1.1,2.1-1.5
			c-1.2-0.3-2.2-0.8-2.9-1.7c-0.7-0.8-1.1-1.8-1.1-3c0-1.9,0.8-3.4,2.4-4.6c1.5-1.1,3.2-1.6,5.1-1.6c0.8,0,1.5,0.2,2.3,0.5
			C107.2,241.1,107.9,241.5,108.7,242z M98.5,261.4c0.2,1.4,0.8,2.4,1.9,3.1c1,0.6,2.2,0.9,3.6,0.9c1.4,0,2.7-0.4,3.9-1.2
			c1.2-0.8,1.9-1.8,2.2-3.1c0.1-0.3,0.1-0.7,0.1-1c0-0.8-0.1-1.5-0.4-2c-0.4-0.6-0.9-0.9-1.5-0.9h-6.8c-0.9,0-1.6,0.4-2.1,1.1
			c-0.5,0.7-0.8,1.6-0.8,2.6C98.5,261.2,98.5,261.3,98.5,261.4z M103.6,250.4c1,0,1.9-0.4,2.6-1.2c0.7-0.8,1.1-1.9,1.1-3.1
			c0-1.1-0.3-2-0.9-2.8c-0.7-1-1.7-1.4-2.8-1.4c-1.1,0-2,0.4-2.7,1.2c-0.8,0.8-1.1,1.8-1.1,2.9c0,1.1,0.3,2.1,1,3
			C101.4,249.9,102.4,250.4,103.6,250.4z"/>
		<path class="st3" d="M124.1,240.6c1.7,0.2,3.1,0.9,4.2,2.2c1,1.1,1.7,2.6,2.1,4.5l-4.2,1.5h-7.6c0,1.5,0.4,3,1.2,4.3
			c0.9,1.5,2,2.3,3.4,2.4c0.2,0,0.3,0,0.5,0c0.1,0,0.3,0,0.5,0c0.9,0,1.7-0.1,2.5-0.3c0.7-0.2,1.6-0.6,2.6-1l0.2,0.3
			c-0.3,1-1,1.7-2,2.2c-0.9,0.4-1.9,0.7-3.1,0.7c-2.6,0-4.7-0.7-6.3-2c-1.8-1.5-2.8-3.6-2.8-6.5c0-2.2,0.7-4.1,2.2-5.8
			c1.5-1.7,3.3-2.6,5.5-2.6c0.1,0,0.3,0,0.5,0C123.7,240.5,123.9,240.5,124.1,240.6z M118.6,247.4h8.5c0-0.2,0-0.4,0-0.5
			c0-1.2-0.3-2.4-1-3.4c-0.7-1.2-1.6-1.8-2.7-1.8c-1.8,0-3.2,0.6-4,1.7C119,244.4,118.6,245.7,118.6,247.4z"/>
		<path class="st3" d="M151.9,256v0.8h-5.7v-11c0-0.9-0.4-1.7-1.2-2.3c-0.8-0.6-1.7-0.9-2.7-0.9c-1.1,0-2,0.3-2.9,0.9
			s-1.3,1.4-1.3,2.5v8.6c0,0.6,0.2,1,0.7,1.2c0.3,0.1,0.8,0.2,1.5,0.2c0.3,0,0.5,0,0.6,0v0.8h-8.5V256c0.6,0,1.1-0.1,1.4-0.1
			c0.9-0.2,1.4-0.6,1.4-1.1v-10.8c0-0.3-0.2-0.6-0.5-0.8c-0.3-0.2-0.8-0.3-1.3-0.3c-0.4,0-0.7,0-1,0.1V242c1.9-0.3,3.7-0.8,5.4-1.4
			l0.3,0.4v2.7c0.7-0.7,1.3-1.2,1.7-1.5c1.4-1,2.6-1.5,3.7-1.5c1.5,0,2.8,0.4,3.9,1.1c1.2,0.8,1.8,1.9,1.8,3.2v10
			c0,0.3,0.2,0.6,0.6,0.8S150.9,256,151.9,256z"/>
		<path class="st3" d="M159.3,241.8h4.4l-0.3,1.6h-4.1v9.7c0,0.6,0.2,1,0.5,1.3c0.3,0.3,0.7,0.4,1.3,0.4c0.8,0,1.5-0.2,2.1-0.5
			l0.6,0.5c-0.6,0.7-1.2,1.3-1.8,1.9c-0.3,0.2-0.9,0.3-1.9,0.3c-1,0-1.8-0.2-2.4-0.7c-0.8-0.5-1.2-1.3-1.2-2.3v-10.7h-2.3v-0.5
			l2.3-1.1v-4.9l2.9-1.4V241.8z"/>
		<path class="st3" d="M174.4,240.6c1.7,0.2,3.1,0.9,4.2,2.2c1,1.1,1.7,2.6,2.1,4.5l-4.2,1.5h-7.6c0,1.5,0.4,3,1.2,4.3
			c0.9,1.5,2,2.3,3.4,2.4c0.2,0,0.3,0,0.5,0c0.1,0,0.3,0,0.5,0c0.9,0,1.7-0.1,2.5-0.3c0.7-0.2,1.6-0.6,2.6-1l0.2,0.3
			c-0.3,1-1,1.7-2,2.2c-0.9,0.4-1.9,0.7-3.1,0.7c-2.6,0-4.7-0.7-6.3-2c-1.8-1.5-2.8-3.6-2.8-6.5c0-2.2,0.7-4.1,2.2-5.8
			c1.5-1.7,3.3-2.6,5.5-2.6c0.1,0,0.3,0,0.5,0C173.9,240.5,174.2,240.5,174.4,240.6z M168.9,247.4h8.5c0-0.2,0-0.4,0-0.5
			c0-1.2-0.3-2.4-1-3.4c-0.7-1.2-1.6-1.8-2.7-1.8c-1.8,0-3.2,0.6-4,1.7C169.3,244.4,168.9,245.7,168.9,247.4z"/>
		<path class="st3" d="M194.6,241.7l-0.4,3.6h-0.8c0-0.1,0-0.3,0-0.5c0-0.9-0.4-1.7-1.2-2.3c-0.8-0.6-1.7-0.9-2.8-0.9
			c-0.9,0-1.7,0.3-2.4,0.8c-0.7,0.5-1,1.2-1,2c0,0.4,0.1,0.8,0.4,1.2c0.3,0.4,0.6,0.7,0.9,0.8l5.7,1.6c0.8,0.2,1.5,0.7,1.9,1.4
			c0.5,0.7,0.7,1.5,0.7,2.3c0,1.6-0.6,3-1.9,4c-1.2,1-3,1.5-5.2,1.5c-1.8,0-3.5-0.3-5.1-0.8l0.6-4.7h0.8c0,0.8,0,1.4,0.1,1.9
			c0.1,0.5,0.2,0.9,0.2,1.1c1.4,0.9,2.8,1.3,4.3,1.3c1.2,0,2.1-0.3,2.8-0.9c0.6-0.6,1-1.3,1-2.3c0-0.6-0.1-1.1-0.4-1.5
			c-0.3-0.4-0.8-0.7-1.4-0.9l-5.4-1.4c-0.8-0.2-1.4-0.7-1.8-1.4s-0.6-1.5-0.6-2.3c0-1.4,0.6-2.6,1.9-3.5c1.3-0.9,2.7-1.3,4.3-1.3
			c1.5,0,2.7,0.2,3.7,0.6C193.8,241.2,194.2,241.4,194.6,241.7z"/>
		<path class="st3" d="M236.1,256v0.9h-9.8v-0.9c0.1,0,0.2,0.1,0.4,0.1c0.1,0,0.3,0,0.4,0c0.7,0,1.2-0.1,1.6-0.2
			c0.6-0.2,0.8-0.6,0.8-1.1v-9.9h-13.9v9.4c0,0.6,0.2,1.1,0.7,1.4c0.5,0.3,1.1,0.5,1.8,0.5c0.2,0,0.4,0,0.8,0v0.9h-9.7V256
			c0.7,0,1.3,0,1.6-0.1c1.1-0.2,1.6-0.8,1.6-1.6v-19.1c0-0.5-0.3-0.9-0.8-1c-0.5-0.2-1.2-0.3-2-0.3c-0.2,0-0.4,0-0.5,0V233h9.7v0.9
			c-1.1,0-1.8,0-2.1,0.1c-0.7,0.2-1.1,0.5-1.1,1.1v8.3h13.9v-7.9c0-0.5-0.4-0.9-1.1-1.2c-0.7-0.3-1.4-0.4-2.2-0.4V233h9.8v0.9
			c-0.9,0-1.7,0.1-2.3,0.3c-0.6,0.2-0.9,0.6-0.9,1.2v19.1c0,0.4,0.3,0.8,0.8,1s1.1,0.4,1.8,0.4c0.1,0,0.2,0,0.3,0
			C235.9,256,236,256,236.1,256z"/>
		<path class="st3" d="M246.1,256v0.8h-8.1V256c0.2,0,0.3,0,0.4,0c0.6,0,1.1-0.1,1.5-0.2c0.4-0.1,0.7-0.4,0.7-0.7v-10.7
			c0-0.5-0.2-0.9-0.5-1.2s-0.8-0.3-1.5-0.3c-0.2,0-0.4,0-0.7,0.1v-0.9c0.9-0.1,1.9-0.3,2.8-0.6c0.9-0.2,1.8-0.5,2.7-0.9l0.3,0.3
			v14.1c0,0.4,0.3,0.7,0.9,0.8C244.8,256,245.3,256,246.1,256z M242,233.2c0.5,0,0.9,0.2,1.3,0.6c0.4,0.4,0.5,0.8,0.5,1.4
			c0,0.5-0.2,0.9-0.6,1.3c-0.4,0.4-0.8,0.5-1.4,0.5c-0.5,0-1-0.2-1.3-0.6c-0.4-0.4-0.5-0.8-0.5-1.4c0-0.5,0.2-0.9,0.6-1.3
			C240.9,233.4,241.4,233.2,242,233.2z"/>
		<path class="st3" d="M259.8,240.6c1.9,0,3.4,0.7,4.7,2s1.9,2.9,1.9,4.6c0,2.5-1,4.8-2.9,6.8c-2,2-4.2,3-6.8,3
			c-0.5,0-1-0.1-1.5-0.2c-0.5-0.1-1-0.3-1.7-0.5v7.5c0,0.6,0.3,1,0.9,1.3c0.5,0.2,1.1,0.3,2,0.3v0.9h-8.8v-0.9c0.7,0,1.1,0,1.5-0.1
			c1-0.2,1.5-0.7,1.5-1.5v-20c0-0.4-0.2-0.6-0.7-0.8c-0.5-0.1-1-0.2-1.6-0.2c-0.2,0-0.3,0-0.5,0c0,0-0.1,0-0.2,0V242
			c1.1-0.1,2.1-0.3,3-0.6c1-0.2,1.9-0.5,2.8-0.8v3.4c0.7-0.8,1.4-1.3,1.9-1.7C256.8,241.2,258.3,240.6,259.8,240.6z M263.6,248.8
			c0-1.5-0.5-2.9-1.6-4.1s-2.4-1.8-3.9-1.8c-0.9,0-1.9,0.4-3,1.2c-1.1,0.8-1.6,1.4-1.6,1.9v7.4c0,0.3,0.6,0.7,1.7,1.3
			c1.1,0.5,2.1,0.8,2.9,0.8c1.5,0,2.7-0.7,3.9-2S263.6,250.5,263.6,248.8z"/>
		<path class="st3" d="M277.8,240.6c2.4,0,4.3,0.7,5.8,2.1c1.6,1.5,2.5,3.7,2.5,6.6c0,2.1-0.7,3.9-2.1,5.5c-1.6,1.8-3.6,2.7-6.1,2.7
			c-2.7,0-4.7-0.9-6.3-2.7c-1.3-1.5-2-3.4-2-5.5c0-2.9,0.8-5.1,2.4-6.6C273.4,241.2,275.4,240.6,277.8,240.6z M283,249.2
			c0-1.8-0.4-3.4-1.2-4.9c-1-1.8-2.3-2.6-4-2.6c-1.6,0-2.9,0.9-3.8,2.6c-0.9,1.5-1.3,3.2-1.3,4.9c0,2.5,0.5,4.3,1.5,5.5
			c0.9,1.1,2.1,1.6,3.7,1.6s2.8-0.5,3.7-1.6C282.5,253.5,283,251.7,283,249.2z"/>
		<path class="st3" d="M294,241.8h4.4l-0.3,1.6H294v9.7c0,0.6,0.2,1,0.5,1.3c0.3,0.3,0.7,0.4,1.3,0.4c0.8,0,1.5-0.2,2.1-0.5l0.6,0.5
			c-0.6,0.7-1.2,1.3-1.8,1.9c-0.3,0.2-0.9,0.3-1.9,0.3c-1,0-1.8-0.2-2.4-0.7c-0.8-0.5-1.2-1.3-1.2-2.3v-10.7h-2.3v-0.5l2.3-1.1v-4.9
			l2.9-1.4V241.8z"/>
		<path class="st3" d="M309.1,240.6c1.7,0.2,3.1,0.9,4.2,2.2c1,1.1,1.7,2.6,2.1,4.5l-4.2,1.5h-7.6c0,1.5,0.4,3,1.2,4.3
			c0.9,1.5,2,2.3,3.4,2.4c0.2,0,0.3,0,0.5,0c0.1,0,0.3,0,0.5,0c0.9,0,1.7-0.1,2.5-0.3c0.7-0.2,1.6-0.6,2.6-1l0.2,0.3
			c-0.3,1-1,1.7-2,2.2c-0.9,0.4-1.9,0.7-3.1,0.7c-2.6,0-4.7-0.7-6.3-2c-1.8-1.5-2.8-3.6-2.8-6.5c0-2.2,0.7-4.1,2.2-5.8
			s3.3-2.6,5.5-2.6c0.1,0,0.3,0,0.5,0C308.6,240.5,308.8,240.5,309.1,240.6z M303.6,247.4h8.5c0-0.2,0-0.4,0-0.5
			c0-1.2-0.3-2.4-1-3.4c-0.7-1.2-1.6-1.8-2.7-1.8c-1.8,0-3.2,0.6-4,1.7C303.9,244.4,303.6,245.7,303.6,247.4z"/>
		<path class="st3" d="M330.7,254.5l0.3,0.6c-0.3,0.9-1,1.5-2.3,1.8c-0.9,0.2-1.9,0.4-3.1,0.4c-2.2,0-4.1-0.7-5.6-2.2
			c-1.5-1.5-2.2-3.3-2.2-5.5c0-2.9,0.9-5.1,2.8-6.7c1.7-1.5,3.8-2.2,6.4-2.2c0.7,0,1.4,0.1,2,0.2c0.7,0.2,1.3,0.4,2,0.7l-0.4,4.4
			h-0.9l-0.3-2.2c-1-1.1-2.2-1.7-3.5-1.7c-1.6,0-2.9,0.6-3.7,1.8c-0.9,1.2-1.3,2.6-1.3,4.4c0,1.9,0.6,3.6,1.8,5.1
			c1.2,1.5,2.6,2.2,4.4,2.2C328.3,255.5,329.5,255.2,330.7,254.5z"/>
		<path class="st3" d="M348.2,256v0.8h-5.1V254c-1,0.9-1.8,1.6-2.5,2c-1,0.7-2,1-2.9,1c-1.3,0-2.4-0.3-3.2-0.9
			c-1-0.7-1.4-1.6-1.4-2.9c0-1.6,0.5-2.9,1.6-3.8c0.9-0.8,2.1-1.4,3.8-1.8c0.9-0.2,2.5-0.5,4.6-0.8v-1.9c0-0.5-0.4-1.1-1.2-1.6
			c-0.9-0.7-1.9-1-3-1c-1,0-1.8,0.3-2.4,0.8c-0.5,0.5-0.9,1.2-1.1,2.1l-1-0.2l0.1-2c0.8-0.5,1.4-0.9,1.9-1.2
			c1.5-0.8,2.8-1.2,3.8-1.2c1.4,0,2.7,0.4,3.9,1.2s1.7,1.6,1.7,2.5v10.1c0,0.5,0.1,0.9,0.4,1.1C346.7,255.8,347.3,256,348.2,256z
			 M342.7,253.2c0.1-0.1,0.2-0.3,0.3-0.5c0.1-0.2,0.2-0.4,0.2-0.6v-4c-1.8,0-3.3,0.3-4.6,1c-1.6,0.8-2.4,2-2.4,3.4
			c0,0.7,0.3,1.2,0.8,1.8c0.5,0.5,1.1,0.8,1.8,0.8c0.7,0,1.4-0.2,2-0.5S342,253.8,342.7,253.2z"/>
		<path class="st3" d="M362.3,241.2c-0.1,0.6-0.2,1.2-0.3,1.9s-0.1,1.3-0.1,2c-0.2,0.1-0.4,0.1-0.6,0c-0.3-0.4-0.6-0.7-0.8-0.9
			c-0.5-0.4-1-0.6-1.7-0.6c-0.5,0-1.1,0.2-1.7,0.7c-0.6,0.5-1,1-1.2,1.6v9.1c0,0.4,0.3,0.6,0.9,0.8c0.6,0.1,1.3,0.2,1.9,0.2
			c0.3,0,0.4,0,0.5,0c0,0,0,0,0.1,0v0.8h-9.2V256c0.6,0,1.1,0,1.4,0c0.9-0.1,1.4-0.4,1.4-0.9v-11.7c0-0.2-0.2-0.3-0.5-0.4
			c-0.3-0.1-0.7-0.1-1.2-0.1c-0.3,0-0.5,0-0.7,0c-0.1,0-0.2,0-0.3,0l0-0.9c1.8-0.2,3.6-0.7,5.5-1.5l0.3,0.4v3.5
			c0.6-0.9,1-1.5,1.4-1.9c1.2-1.3,2.5-1.9,3.9-1.9C361.7,240.6,362,240.8,362.3,241.2z"/>
		<path class="st3" d="M371.9,256v0.8h-8.1V256c0.2,0,0.3,0,0.4,0c0.6,0,1.1-0.1,1.5-0.2c0.4-0.1,0.7-0.4,0.7-0.7v-10.7
			c0-0.5-0.2-0.9-0.5-1.2c-0.4-0.2-0.8-0.3-1.5-0.3c-0.2,0-0.4,0-0.7,0.1v-0.9c0.9-0.1,1.9-0.3,2.8-0.6c0.9-0.2,1.8-0.5,2.7-0.9
			l0.3,0.3v14.1c0,0.4,0.3,0.7,0.9,0.8C370.6,256,371.1,256,371.9,256z M367.8,233.2c0.5,0,0.9,0.2,1.3,0.6c0.3,0.4,0.5,0.8,0.5,1.4
			c0,0.5-0.2,0.9-0.6,1.3c-0.4,0.4-0.8,0.5-1.4,0.5c-0.5,0-1-0.2-1.3-0.6c-0.3-0.4-0.5-0.8-0.5-1.4c0-0.5,0.2-0.9,0.6-1.3
			C366.7,233.4,367.2,233.2,367.8,233.2z"/>
		<path class="st3" d="M382.3,240.6c2.4,0,4.3,0.7,5.8,2.1c1.6,1.5,2.4,3.7,2.4,6.6c0,2.1-0.7,3.9-2.1,5.5c-1.6,1.8-3.6,2.7-6.1,2.7
			c-2.7,0-4.7-0.9-6.3-2.7c-1.3-1.5-2-3.4-2-5.5c0-2.9,0.8-5.1,2.4-6.6C377.9,241.2,379.8,240.6,382.3,240.6z M387.5,249.2
			c0-1.8-0.4-3.4-1.2-4.9c-1-1.8-2.3-2.6-4-2.6c-1.6,0-2.9,0.9-3.8,2.6c-0.9,1.5-1.3,3.2-1.3,4.9c0,2.5,0.5,4.3,1.5,5.5
			c0.9,1.1,2.1,1.6,3.7,1.6c1.6,0,2.8-0.5,3.7-1.6C387,253.5,387.5,251.7,387.5,249.2z"/>
		<path class="st3" d="M404.7,241.7l-0.4,3.6h-0.8c0-0.1,0-0.3,0-0.5c0-0.9-0.4-1.7-1.2-2.3c-0.8-0.6-1.7-0.9-2.8-0.9
			c-0.9,0-1.7,0.3-2.4,0.8s-1,1.2-1,2c0,0.4,0.1,0.8,0.4,1.2c0.3,0.4,0.6,0.7,0.9,0.8l5.7,1.6c0.8,0.2,1.5,0.7,1.9,1.4
			c0.5,0.7,0.7,1.5,0.7,2.3c0,1.6-0.6,3-1.9,4c-1.2,1-3,1.5-5.2,1.5c-1.8,0-3.5-0.3-5.1-0.8l0.6-4.7h0.8c0,0.8,0,1.4,0.1,1.9
			c0.1,0.5,0.2,0.9,0.2,1.1c1.4,0.9,2.8,1.3,4.3,1.3c1.2,0,2.1-0.3,2.8-0.9s1-1.3,1-2.3c0-0.6-0.1-1.1-0.4-1.5
			c-0.3-0.4-0.8-0.7-1.4-0.9l-5.4-1.4c-0.8-0.2-1.4-0.7-1.8-1.4s-0.6-1.5-0.6-2.3c0-1.4,0.6-2.6,1.9-3.5c1.3-0.9,2.7-1.3,4.3-1.3
			c1.5,0,2.7,0.2,3.7,0.6C404,241.2,404.3,241.4,404.7,241.7z"/>
	</g>
</g>
</svg>
