<?xml version="1.0" encoding="utf-8"?>
<!-- Generator: Adobe Illustrator 19.0.0, SVG Export Plug-In . SVG Version: 6.00 Build 0)  -->
<svg version="1.1" xmlns="http://www.w3.org/2000/svg" xmlns:xlink="http://www.w3.org/1999/xlink" x="0px" y="0px"
	 viewBox="40 248.5 692.8 297.5" style="enable-background:new 40 248.5 692.8 297.5;" xml:space="preserve">
<style type="text/css">
	.st0{fill:#F5F5F5;}
	.st1{fill:#202020;}
	.st2{fill:#B3B3B3;}
	.st3{opacity:0.15;fill:#505151;}
	.st4{fill:#4D4D4D;}
	.st5{fill:#1A1A1A;}
	.st6{fill:#505151;}
	.st7{fill:#FFFFFF;}
	.st8{fill:#999999;}
	.st9{fill:#808080;}
	.st10{fill-rule:evenodd;clip-rule:evenodd;fill:#202020;}
</style>
<g id="Capa_1" xmlns:inkscape="http://www.inkscape.org/namespaces/inkscape" xmlns:cc="http://creativecommons.org/ns#" xmlns:dc="http://purl.org/dc/elements/1.1/" xmlns:rdf="http://www.w3.org/1999/02/22-rdf-syntax-ns#" xmlns:svg="http://www.w3.org/2000/svg" xmlns:sodipodi="http://sodipodi.sourceforge.net/DTD/sodipodi-0.dtd" sodipodi:docname="database-configuration1.svg" inkscape:version="0.91 r13725">
	
		<sodipodi:namedview  inkscape:zoom="0.94445249" guidetolerance="10" gridtolerance="10" inkscape:cx="71.437974" inkscape:cy="8.2202893" showgrid="false" borderopacity="1" objecttolerance="10" pagecolor="#ffffff" bordercolor="#666666" id="namedview8207" inkscape:pageopacity="0" inkscape:current-layer="Capa_1" inkscape:window-maximized="1" inkscape:window-y="-8" inkscape:window-x="54" inkscape:window-height="1177" inkscape:window-width="1858" inkscape:pageshadow="2">
		</sodipodi:namedview>
	<g id="g8177" transform="translate(0,209.154)">
	</g>
	<g id="g8179" transform="translate(0,209.154)">
	</g>
	<g id="g8181" transform="translate(0,209.154)">
	</g>
	<g id="g8183" transform="translate(0,209.154)">
	</g>
	<g id="g8185" transform="translate(0,209.154)">
	</g>
	<g id="g8187" transform="translate(0,209.154)">
	</g>
	<g id="g8189" transform="translate(0,209.154)">
	</g>
	<g id="g8191" transform="translate(0,209.154)">
	</g>
	<g id="g8193" transform="translate(0,209.154)">
	</g>
	<g id="g8195" transform="translate(0,209.154)">
	</g>
	<g id="g8197" transform="translate(0,209.154)">
	</g>
	<g id="g8199" transform="translate(0,209.154)">
	</g>
	<g id="g8201" transform="translate(0,209.154)">
	</g>
	<g id="g8203" transform="translate(0,209.154)">
	</g>
	<g id="g8205" transform="translate(0,209.154)">
	</g>
	<rect x="40" y="248.5" class="st0" width="692.8" height="297.5"/>
	<g id="g12018" transform="matrix(1.9469401,0,0,1.9490638,274.57818,-344.1873)">
		<g id="g8167" transform="matrix(0.96186527,0,0,1,1.8717373,209.154)">
			<g id="g8169">
				<path id="path8171" inkscape:connector-curvature="0" class="st1" d="M-36.6,189.2c-3.8,0-7,3.1-7,6.8c0,3.8,3.1,6.8,7,6.8
					s7-3.1,7-6.8C-29.6,192.2-32.7,189.2-36.6,189.2L-36.6,189.2z"/>
				<path id="path8173" inkscape:connector-curvature="0" class="st1" d="M-14.3,186.3c0.1-0.5,0.2-1,0.2-1.6c0-2.2-0.9-4.3-2.5-5.8
					l-3.6-3.5c-1.9-1.9-4.8-2.7-7.6-2.2c-1.1-1.7-2.9-2.9-4.9-3.4v-12.9c0-0.4-0.1-0.7-0.2-1.1c-1.6,7.6-19.3,13.6-41.1,13.6
					s-39.5-6-41.1-13.6c-0.1,0.4-0.2,0.7-0.2,1.1v18.9c0,8.1,18.5,14.7,41.2,14.7c3.7,0,7.3-0.2,10.7-0.5c-0.4,1-0.7,2-0.7,3.2v4.3
					c-3.2,0.3-6.6,0.4-10,0.4c-21.7,0-39.5-6-41.1-13.6c-0.1,0.4-0.2,0.7-0.2,1.1v18.9c0,8.1,18.5,14.7,41.2,14.7
					c7.7,0,14.8-0.7,21-2c1.8,1.1,4.1,1.6,6.2,1.2c1.5,2.2,4.1,3.7,7,3.7h5c2.9,0,5.5-1.5,7-3.7c2.7,0.5,5.6-0.4,7.5-2.2l3.6-3.5
					c2.1-2,2.8-4.8,2.3-7.4c2.2-1.5,3.7-4,3.7-6.8v-4.9C-10.6,190.3-12.1,187.8-14.3,186.3z M-16.4,198.5c0,1-0.9,1.9-1.9,1.9h-3
					c-0.3,1.1-0.8,2.1-1.3,3.1l2.2,2.1c0.7,0.7,0.7,1.9,0,2.7l-3.6,3.5c-0.7,0.7-2,0.7-2.7,0l-2.2-2.1c-1,0.5-2.1,1-3.2,1.3v3
					c0,1-0.9,1.9-1.9,1.9h-5c-1.1,0-1.9-0.8-1.9-1.9v-3c-1.1-0.3-2.2-0.7-3.2-1.3l-2.2,2.1c-0.7,0.7-2,0.7-2.7,0l-3.6-3.5
					c-0.4-0.4-0.6-0.8-0.6-1.3c0-0.5,0.2-1,0.6-1.3l2.2-2.1c-0.6-1-1-2-1.3-3.1h-3c-1.1,0-1.9-0.8-1.9-1.9v-4.9c0-1,0.9-1.9,1.9-1.9
					h3c0.3-1.1,0.8-2.1,1.3-3.1l-2.2-2.1c-0.7-0.7-0.7-1.9,0-2.7l3.6-3.5c0.7-0.7,2-0.7,2.7,0l2.2,2.1c1-0.5,2.1-1,3.2-1.3v-3
					c0-1,0.9-1.9,1.9-1.9h5c1.1,0,1.9,0.8,1.9,1.9v3c1.1,0.3,2.2,0.7,3.2,1.3l2.2-2.1c0.7-0.7,2-0.7,2.7,0l3.6,3.5
					c0.4,0.4,0.6,0.8,0.6,1.3c0,0.5-0.2,1-0.6,1.3l-2.2,2.1c0.5,1,1,2,1.3,3.1h3c1.1,0,1.9,0.8,1.9,1.9L-16.4,198.5L-16.4,198.5z"/>
				<path id="path8175" inkscape:connector-curvature="0" class="st1" d="M-73.9,162.4c22.8,0,41.2-6.6,41.2-14.7v-12.1
					c0-8.1-18.5-14.7-41.2-14.7s-41.2,6.6-41.2,14.7v12.1C-115.1,155.8-96.7,162.4-73.9,162.4z"/>
			</g>
		</g>
		<g id="g7377" transform="matrix(0.10891426,0,0,0.1155367,114.25947,235.2782)">
			<g id="g8780" transform="matrix(0.61899718,0,0,0.25698962,-904.85454,-214.19822)">
				<path id="path6823" inkscape:connector-curvature="0" class="st0" d="M-1205.5,4066.9c0.6,0.1,1.3,0.2,1.9,0.5
					c0,0.1,0,0.2,0,0.5c0.2,0,0.5,0,0.7,0c0.2,0.5,0.5,0.8,0.7,1.3c6,4.6,4.3,13.6,6.5,21.9c0.1,1.6,0.2,3.4,0.4,5
					c1.4,5.2,1.3,11.8,2.7,16.9c0,1.2,0,2.2,0,3.4c0.1,0,0.2,0,0.4,0c0,1.2,0,2.2,0,3.4c0.1,0,0.2,0,0.4,0c0,1.3,0,2.4,0,3.7
					c0.1,0,0.2,0,0.4,0c0,1.4,0,2.8,0,4.2c0.1,0,0.2,0,0.4,0c0.1,4.2,0.2,8.2,0.4,12.4c0.1,0,0.2,0,0.4,0c0,4.6,0,9.4,0,14
					c-0.1,0-0.2,0-0.4,0c0,2.2,0,4.4,0,6.6c-0.1,0-0.2,0-0.4,0c0,1.4,0,2.8,0,4.2c-0.1,0-0.2,0-0.4,0c0,0.9,0,2,0,2.9
					c-0.1,0-0.2,0-0.4,0c0,0.9,0,2,0,2.9c-0.1,0-0.2,0-0.4,0c0,0.8,0,1.6,0,2.4c-0.1,0-0.2,0-0.4,0c0,0.7,0,1.4,0,2.1
					c-0.1,0-0.2,0-0.4,0c0,0.7,0,1.4,0,2.1c-0.1,0-0.2,0-0.4,0c0,0.6,0,1.2,0,1.6c-0.1,0-0.2,0-0.4,0c0,0.6,0,1.2,0,1.6
					c-0.1,0-0.2,0-0.4,0c-0.1,1.2-0.2,2.2-0.4,3.4c-0.1,0-0.2,0-0.4,0c0,0.5,0,0.8,0,1.3c-0.1,0-0.2,0-0.4,0c0,0.5,0,0.8,0,1.3
					c-0.1,0-0.2,0-0.4,0c-0.2,1.4-0.5,2.8-0.7,4.2c-0.1,0-0.2,0-0.4,0c0,0.2,0,0.6,0,0.8c-0.1,0-0.2,0-0.4,0c0,0.5,0,0.8,0,1.3
					c-0.1,0-0.2,0-0.4,0c-0.1,0.8-0.2,1.6-0.4,2.4c-0.1,0-0.2,0-0.4,0c-0.5,1.9,0.5,2.9,0.7,4.2c0.4,0.1,0.7,0.2,1.2,0.5
					c0.1,0.2,0.2,0.6,0.4,0.8c2.2,0.5,4.6,0.8,6.9,1.3c5.7,2.1,12.3,3.6,17.9,5.8c0.5,0,1.1,0,1.5,0c0,0.1,0,0.2,0,0.5
					c0.4,0,0.7,0,1.2,0c0,0.1,0,0.2,0,0.5c0.5,0,1.1,0,1.5,0c0,0.1,0,0.2,0,0.5c1.3,0.2,2.5,0.6,3.8,0.8c0,0.1,0,0.2,0,0.5
					c1.3,0.2,2.5,0.6,3.8,0.8c0,0.1,0,0.2,0,0.5c0.4,0,0.7,0,1.2,0c0,0.1,0,0.2,0,0.5c0.4,0,0.7,0,1.2,0c0,0.1,0,0.2,0,0.5
					c0.4,0,0.7,0,1.2,0c0,0.1,0,0.2,0,0.5c0.4,0,0.7,0,1.2,0c0,0.1,0,0.2,0,0.5c0.7,0.1,1.5,0.2,2.2,0.5c0,0.1,0,0.2,0,0.5
					c0.5,0,1.1,0,1.5,0c0,0.1,0,0.2,0,0.5c0.4,0,0.7,0,1.2,0c0,0.1,0,0.2,0,0.5c0.4,0,0.7,0,1.2,0c0,0.1,0,0.2,0,0.5
					c0.4,0,0.7,0,1.2,0c0,0.1,0,0.2,0,0.5c0.4,0,0.7,0,1.2,0c0,0.1,0,0.2,0,0.5c0.4,0,0.7,0,1.2,0c0,0.1,0,0.2,0,0.5
					c0.4,0,0.7,0,1.2,0c0,0.1,0,0.2,0,0.5c0.4,0,0.7,0,1.2,0c0,0.1,0,0.2,0,0.5c0.4,0,0.7,0,1.2,0c0,0.1,0,0.2,0,0.5
					c0.2,0,0.5,0,0.7,0c0,0.1,0,0.2,0,0.5c1.2,0.2,2.2,0.6,3.4,0.8c0,0.1,0,0.2,0,0.5c1.2,0.2,2.2,0.6,3.4,0.8c0,0.1,0,0.2,0,0.5
					c0.2,0,0.5,0,0.7,0c0,0.1,0,0.2,0,0.5c0.4,0,0.7,0,1.2,0c0,0.1,0,0.2,0,0.5c0.4,0,0.7,0,1.2,0c0,0.1,0,0.2,0,0.5
					c0.4,0,0.7,0,1.2,0c0,0.1,0,0.2,0,0.5c0.4,0,0.7,0,1.2,0c0,0.1,0,0.2,0,0.5c0.2,0,0.5,0,0.7,0c0,0.1,0,0.2,0,0.5
					c0.7,0.1,1.5,0.2,2.2,0.5c0,0.1,0,0.2,0,0.5c0.2,0,0.5,0,0.7,0c0,0.1,0,0.2,0,0.5c0.4,0,0.7,0,1.2,0c0,0.1,0,0.2,0,0.5
					c0.4,0,0.7,0,1.2,0c0,0.1,0,0.2,0,0.5c0.2,0,0.5,0,0.7,0c0,0.1,0,0.2,0,0.5c0.7,0.1,1.5,0.2,2.2,0.5c0,0.1,0,0.2,0,0.5
					c0.2,0,0.5,0,0.7,0c0,0.1,0,0.2,0,0.5c0.4,0,0.7,0,1.2,0c0,0.1,0,0.2,0,0.5c0.4,0,0.7,0,1.2,0c0,0.1,0,0.2,0,0.5
					c0.2,0,0.5,0,0.7,0c0,0.1,0,0.2,0,0.5c0.4,0,0.7,0,1.2,0c0,0.1,0,0.2,0,0.5c0.2,0,0.5,0,0.7,0c0,0.1,0,0.2,0,0.5
					c0.7,0.1,1.5,0.2,2.2,0.5c0,0.1,0,0.2,0,0.5c0.2,0,0.5,0,0.7,0c0,0.1,0,0.2,0,0.5c0.4,0,0.7,0,1.2,0c0,0.1,0,0.2,0,0.5
					c0.2,0,0.5,0,0.7,0c0,0.1,0,0.2,0,0.5c0.6,0.1,1.3,0.2,1.9,0.5c0,0.1,0,0.2,0,0.5c0.4,0,0.7,0,1.2,0c0,0.1,0,0.2,0,0.5
					c0.2,0,0.5,0,0.7,0c0,0.1,0,0.2,0,0.5c0.4,0,0.7,0,1.2,0c0,0.1,0,0.2,0,0.5c0.2,0,0.5,0,0.7,0c0,0.1,0,0.2,0,0.5
					c0.4,0,0.7,0,1.2,0c0,0.1,0,0.2,0,0.5c0.6,0.1,1.3,0.2,1.9,0.5c0,0.1,0,0.2,0,0.5c0.2,0,0.5,0,0.7,0c0,0.1,0,0.2,0,0.5
					c0.4,0,0.7,0,1.2,0c0,0.1,0,0.2,0,0.5c0.6,0.1,1.3,0.2,1.9,0.5c0,0.1,0,0.2,0,0.5c0.5,0.1,1.1,0.2,1.5,0.5c0,0.1,0,0.2,0,0.5
					c0.4,0,0.7,0,1.2,0c0,0.1,0,0.2,0,0.5c0.2,0,0.5,0,0.7,0c0,0.1,0,0.2,0,0.5c0.4,0,0.7,0,1.2,0c0,0.1,0,0.2,0,0.5
					c0.5,0.1,1.1,0.2,1.5,0.5c0,0.1,0,0.2,0,0.5c0.4,0,0.7,0,1.2,0c0,0.1,0,0.2,0,0.5c0.2,0,0.5,0,0.7,0c0,0.1,0,0.2,0,0.5
					c0.4,0,0.7,0,1.2,0c0,0.1,0,0.2,0,0.5c0.5,0.1,1.1,0.2,1.5,0.5c0,0.1,0,0.2,0,0.5c0.4,0,0.7,0,1.2,0c0,0.1,0,0.2,0,0.5
					c0.5,0.1,1.1,0.2,1.5,0.5c0,0.1,0,0.2,0,0.5c0.4,0,0.7,0,1.2,0c0,0.1,0,0.2,0,0.5c0.2,0,0.5,0,0.7,0c0,0.1,0,0.2,0,0.5
					c0.2,0,0.5,0,0.7,0c0.1,0.2,0.2,0.6,0.4,0.8c0.7,0.2,1.5,0.6,2.2,0.8c0.1,0.2,0.2,0.6,0.4,0.8c0.2,0,0.5,0,0.7,0
					c0.1,0.2,0.2,0.6,0.4,0.8c0.2,0,0.5,0,0.7,0c0.2,0.5,0.5,0.8,0.7,1.3c0.2,0,0.5,0,0.7,0c0.5,0.7,1.1,1.4,1.5,2.1
					c1.1,0.9,2,2,3.1,2.9c0,0.2,0,0.6,0,0.8c0.4,0.2,0.7,0.6,1.2,0.8c0,0.2,0,0.6,0,0.8c0.2,0.1,0.5,0.2,0.7,0.5
					c0.1,0.6,0.2,1.2,0.4,1.6c0.2,0.1,0.5,0.2,0.7,0.5c0.2,0.8,0.5,1.6,0.7,2.4c0.1,0,0.2,0,0.4,0c0,0.2,0,0.6,0,0.8
					c0.1,0,0.2,0,0.4,0c0.2,0.8,0.5,1.6,0.7,2.4c0.1,0,0.2,0,0.4,0c0,0.5,0,0.8,0,1.3c0.1,0,0.2,0,0.4,0c0,0.2,0,0.6,0,0.8
					c0.1,0,0.2,0,0.4,0c0.1,0.8,0.2,1.6,0.4,2.4c0.1,0,0.2,0,0.4,0c0,0.5,0,0.8,0,1.3c0.1,0,0.2,0,0.4,0c0,0.5,0,0.8,0,1.3
					c0.1,0,0.2,0,0.4,0c0,0.5,0,0.8,0,1.3c0.1,0,0.2,0,0.4,0c0.2,1.4,0.5,2.8,0.7,4.2c0.1,0,0.2,0,0.4,0c0,0.2,0,0.6,0,0.8
					c0.1,0,0.2,0,0.4,0c0.1,0.8,0.2,1.6,0.4,2.4c0.1,0,0.2,0,0.4,0c0.1,0.6,0.2,1.2,0.4,1.6c0.1,0,0.2,0,0.4,0c0,0.5,0,0.8,0,1.3
					c0.1,0,0.2,0,0.4,0c0.2,0.8,0.5,1.6,0.7,2.4c0.1,0,0.2,0,0.4,0c0,0.2,0,0.6,0,0.8c0.1,0,0.2,0,0.4,0c0,0.2,0,0.6,0,0.8
					c0.1,0,0.2,0,0.4,0c0,0.2,0,0.6,0,0.8c0.1,0,0.2,0,0.4,0c0,0.2,0,0.6,0,0.8c0.1,0,0.2,0,0.4,0c0,0.2,0,0.6,0,0.8
					c0.1,0,0.2,0,0.4,0c0,0.2,0,0.6,0,0.8c0.2,0.1,0.5,0.2,0.7,0.5c0.1,0.6,0.2,1.2,0.4,1.6c0.2,0.1,0.5,0.2,0.7,0.5
					c0,0.2,0,0.6,0,0.8c0.1,0,0.2,0,0.4,0c0,0.2,0,0.6,0,0.8c0.2,0.1,0.5,0.2,0.7,0.5c0,0.2,0,0.6,0,0.8c0.2,0.1,0.5,0.2,0.7,0.5
					c0,0.2,0,0.6,0,0.8c0.4,0.2,0.7,0.6,1.2,0.8c0,0.2,0,0.6,0,0.8c0.4,0.2,0.7,0.6,1.2,0.8c0,0.2,0,0.6,0,0.8
					c0.4,0.2,0.7,0.6,1.2,0.8c0,0.2,0,0.6,0,0.8c0.5,0.5,1.1,0.8,1.5,1.3c0,0.2,0,0.6,0,0.8c0.7,0.7,1.5,1.4,2.2,2.1
					c0,0.2,0,0.6,0,0.8c1.3,1.3,2.5,2.4,3.8,3.7c2,2.3,4,4.6,6.2,7.1c0.2,0,0.5,0,0.7,0c0.7,0.9,1.5,2,2.2,2.9c0.2,0,0.5,0,0.7,0
					c0.6,0.8,1.3,1.6,1.9,2.4c0.2,0,0.5,0,0.7,0c0.4,0.6,0.7,1.2,1.2,1.6c0.2,0,0.5,0,0.7,0c0.4,0.6,0.7,1.2,1.2,1.6
					c0.2,0,0.5,0,0.7,0c0.1,0.2,0.2,0.6,0.4,0.8c0.4,0.1,0.7,0.2,1.2,0.5c0.4,0.6,0.7,1.2,1.2,1.6c0.2,0,0.5,0,0.7,0
					c0.2,0.5,0.5,0.8,0.7,1.3c0.2,0,0.5,0,0.7,0c0.2,0.5,0.5,0.8,0.7,1.3c0.2,0,0.5,0,0.7,0c0.2,0.5,0.5,0.8,0.7,1.3
					c0.2,0,0.5,0,0.7,0c0.1,0.2,0.2,0.6,0.4,0.8c0.2,0,0.5,0,0.7,0c0.1,0.2,0.2,0.6,0.4,0.8c0.4,0.1,0.7,0.2,1.2,0.5
					c0.2,0.5,0.5,0.8,0.7,1.3c0.2,0,0.5,0,0.7,0c0.1,0.2,0.2,0.6,0.4,0.8c0.2,0,0.5,0,0.7,0c0.2,0.5,0.5,0.8,0.7,1.3
					c0.2,0,0.5,0,0.7,0c0.1,0.2,0.2,0.6,0.4,0.8c0.2,0,0.5,0,0.7,0c0.2,0.5,0.5,0.8,0.7,1.3c0.2,0,0.5,0,0.7,0c0,0.1,0,0.2,0,0.5
					c0.4,0.1,0.7,0.2,1.2,0.5c0.1,0.2,0.2,0.6,0.4,0.8c0.2,0,0.5,0,0.7,0c0.2,0.5,0.5,0.8,0.7,1.3c0.2,0,0.5,0,0.7,0
					c0.1,0.2,0.2,0.6,0.4,0.8c0.2,0,0.5,0,0.7,0c0.2,0.5,0.5,0.8,0.7,1.3c0.2,0,0.5,0,0.7,0c0.1,0.2,0.2,0.6,0.4,0.8
					c0.2,0,0.5,0,0.7,0c0.2,0.5,0.5,0.8,0.7,1.3c0.2,0,0.5,0,0.7,0c0.2,0.5,0.5,0.8,0.7,1.3c0.5,0.1,1.1,0.2,1.5,0.5
					c0.1,0.2,0.2,0.6,0.4,0.8c0.5,0.1,1.1,0.2,1.5,0.5c0.1,0.2,0.2,0.6,0.4,0.8c0.5,0.1,1.1,0.2,1.5,0.5c0.1,0.2,0.2,0.6,0.4,0.8
					c0.5,0.1,1.1,0.2,1.5,0.5c0.1,0.2,0.2,0.6,0.4,0.8c0.5,0.1,1.1,0.2,1.5,0.5c0.1,0.2,0.2,0.6,0.4,0.8c0.2,0,0.5,0,0.7,0
					c0.1,0.2,0.2,0.6,0.4,0.8c0.2,0,0.5,0,0.7,0c0.2,0.5,0.5,0.8,0.7,1.3c0.2,0,0.5,0,0.7,0c0.5,0.7,1.1,1.4,1.5,2.1
					c0.2,0,0.5,0,0.7,0c0.4,0.6,0.7,1.2,1.2,1.6c0.1,0,0.2,0,0.4,0c0,0.2,0,0.6,0,0.8c0.2,0.1,0.5,0.2,0.7,0.5
					c0.6,0.7,1.1,1.5,1.5,2.4c-0.4,0-0.7,0-1.2,0c0-0.1,0-0.2,0-0.5c-1.8-0.2-3.5-0.6-5.3-0.8c0-0.1,0-0.2,0-0.5c-0.6,0-1.3,0-1.9,0
					c0-0.1,0-0.2,0-0.5c-1.1-0.1-2-0.2-3.1-0.5c0-0.1,0-0.2,0-0.5c-1.1-0.1-2-0.2-3.1-0.5c0-0.1,0-0.2,0-0.5c-0.4,0-0.7,0-1.2,0
					c0-0.1,0-0.2,0-0.5c-0.9-0.1-1.8-0.2-2.7-0.5c0-0.1,0-0.2,0-0.5c-1.3-0.2-2.5-0.6-3.8-0.8c0-0.1,0-0.2,0-0.5c-0.4,0-0.7,0-1.2,0
					c0-0.1,0-0.2,0-0.5c-0.4,0-0.7,0-1.2,0c0-0.1,0-0.2,0-0.5c-0.4,0-0.7,0-1.2,0c0-0.1,0-0.2,0-0.5c-0.4,0-0.7,0-1.2,0
					c0-0.1,0-0.2,0-0.5c-0.4,0-0.7,0-1.2,0c0-0.1,0-0.2,0-0.5c-0.7-0.1-1.5-0.2-2.2-0.5c0-0.1,0-0.2,0-0.5c-0.2,0-0.5,0-0.7,0
					c0-0.1,0-0.2,0-0.5c-0.4,0-0.7,0-1.2,0c0-0.1,0-0.2,0-0.5c-0.2,0-0.5,0-0.7,0c0-0.1,0-0.2,0-0.5c-0.4,0-0.7,0-1.2,0
					c0-0.1,0-0.2,0-0.5c-0.2,0-0.5,0-0.7,0c0-0.1,0-0.2,0-0.5c-0.4,0-0.7,0-1.2,0c0-0.1,0-0.2,0-0.5c-0.5-0.1-1.1-0.2-1.5-0.5
					c0-0.1,0-0.2,0-0.5c-0.4,0-0.7,0-1.2,0c0-0.1,0-0.2,0-0.5c-0.5-0.1-1.1-0.2-1.5-0.5c0-0.1,0-0.2,0-0.5c-0.6-0.1-1.3-0.2-1.9-0.5
					c0-0.1,0-0.2,0-0.5c-0.7-0.2-1.5-0.6-2.2-0.8c0-0.1,0-0.2,0-0.5c-0.2,0-0.5,0-0.7,0c0-0.1,0-0.2,0-0.5c-0.2,0-0.5,0-0.7,0
					c0-0.1,0-0.2,0-0.5c-0.2,0-0.5,0-0.7,0c0-0.1,0-0.2,0-0.5c-0.2,0-0.5,0-0.7,0c0-0.1,0-0.2,0-0.5c-0.2,0-0.5,0-0.7,0
					c0-0.1,0-0.2,0-0.5c-0.2,0-0.5,0-0.7,0c0-0.1,0-0.2,0-0.5c-0.2,0-0.5,0-0.7,0c-0.1-0.2-0.2-0.6-0.4-0.8c-0.2,0-0.5,0-0.7,0
					c0-0.1,0-0.2,0-0.5c-0.2,0-0.5,0-0.7,0c0-0.1,0-0.2,0-0.5c-0.2,0-0.5,0-0.7,0c0-0.1,0-0.2,0-0.5c-0.2,0-0.5,0-0.7,0
					c-0.1-0.2-0.2-0.6-0.4-0.8c-0.7-0.2-1.5-0.6-2.2-0.8c-0.1-0.2-0.2-0.6-0.4-0.8c-0.2,0-0.5,0-0.7,0c0-0.1,0-0.2,0-0.5
					c-0.2,0-0.5,0-0.7,0c-0.1-0.2-0.2-0.6-0.4-0.8c-0.2,0-0.5,0-0.7,0c-0.1-0.2-0.2-0.6-0.4-0.8c-0.2,0-0.5,0-0.7,0
					c-0.1-0.2-0.2-0.6-0.4-0.8c-0.5-0.1-1.1-0.2-1.5-0.5c-0.1-0.2-0.2-0.6-0.4-0.8c-0.2,0-0.5,0-0.7,0c-0.2-0.5-0.5-0.8-0.7-1.3
					c-0.2,0-0.5,0-0.7,0c0-0.1,0-0.2,0-0.5c-0.4-0.1-0.7-0.2-1.2-0.5c-0.1-0.2-0.2-0.6-0.4-0.8c-0.2,0-0.5,0-0.7,0
					c-0.2-0.5-0.5-0.8-0.7-1.3c-0.2,0-0.5,0-0.7,0c-0.2-0.5-0.5-0.8-0.7-1.3c-0.2,0-0.5,0-0.7,0c-0.2-0.5-0.5-0.8-0.7-1.3
					c-0.2,0-0.5,0-0.7,0c-0.2-0.5-0.5-0.8-0.7-1.3c-0.2,0-0.5,0-0.7,0c-0.4-0.6-0.7-1.2-1.2-1.6c-0.2,0-0.5,0-0.7,0
					c-0.2-0.5-0.5-0.8-0.7-1.3c-0.1,0-0.2,0-0.4,0c-0.1-0.2-0.2-0.6-0.4-0.8c-0.2,0-0.5,0-0.7,0c-0.6-0.8-1.3-1.6-1.9-2.4
					c-0.2,0-0.5,0-0.7,0c-1.4-1.6-2.8-3.4-4.1-5c-0.2,0-0.5,0-0.7,0c-0.9-1.2-1.8-2.2-2.7-3.4c-0.5-0.5-1.1-0.8-1.5-1.3
					c0-0.2,0-0.6,0-0.8c-1.5-1.5-3.1-3-4.6-4.5c0-0.2,0-0.6,0-0.8c-0.7-0.7-1.5-1.4-2.2-2.1c0-0.2,0-0.6,0-0.8
					c-0.7-0.7-1.5-1.4-2.2-2.1c0-0.2,0-0.6,0-0.8c-0.5-0.5-1.1-0.8-1.5-1.3c0-0.2,0-0.6,0-0.8c-0.4-0.2-0.7-0.6-1.2-0.8
					c0-0.2,0-0.6,0-0.8c-0.5-0.5-1.1-0.8-1.5-1.3c0-0.2,0-0.6,0-0.8c-0.4-0.2-0.7-0.6-1.2-0.8c-0.1-0.5-0.2-0.8-0.4-1.3
					c-0.2-0.1-0.5-0.2-0.7-0.5c0-0.2,0-0.6,0-0.8c-0.2-0.1-0.5-0.2-0.7-0.5c0-0.2,0-0.6,0-0.8c-0.4-0.2-0.7-0.6-1.2-0.8
					c0-0.2,0-0.6,0-0.8c-0.2-0.1-0.5-0.2-0.7-0.5c-0.1-0.5-0.2-0.8-0.4-1.3c-0.1,0-0.2,0-0.4,0c0-0.2,0-0.6,0-0.8
					c-0.2-0.1-0.5-0.2-0.7-0.5c0-0.2,0-0.6,0-0.8c-0.2-0.1-0.5-0.2-0.7-0.5c0-0.2,0-0.6,0-0.8c-0.2-0.1-0.5-0.2-0.7-0.5
					c0-0.2,0-0.6,0-0.8c-0.2-0.1-0.5-0.2-0.7-0.5c0-0.2,0-0.6,0-0.8c-0.2-0.1-0.5-0.2-0.7-0.5c0-0.2,0-0.6,0-0.8
					c-0.4-0.2-0.7-0.6-1.2-0.8c0-0.2,0-0.6,0-0.8c-0.2-0.1-0.5-0.2-0.7-0.5c0-0.2,0-0.6,0-0.8c-0.5-0.5-1.1-0.8-1.5-1.3
					c0-0.2,0-0.6,0-0.8c-1.1-0.9-2-2-3.1-2.9c-0.2-0.5-0.5-0.8-0.7-1.3c-0.2,0-0.5,0-0.7,0c-0.2-0.5-0.5-0.8-0.7-1.3
					c-0.2,0-0.5,0-0.7,0c-0.1-0.2-0.2-0.6-0.4-0.8c-0.2,0-0.5,0-0.7,0c0-0.1,0-0.2,0-0.5c-0.5-0.1-1.1-0.2-1.5-0.5
					c0-0.1,0-0.2,0-0.5c-0.7-0.1-1.5-0.2-2.2-0.5c0-0.1,0-0.2,0-0.5c-0.4,0-0.7,0-1.2,0c0-0.1,0-0.2,0-0.5c-1.2-0.2-2.2-0.6-3.4-0.8
					c0-0.1,0-0.2,0-0.5c-0.2,0-0.5,0-0.7,0c0-0.1,0-0.2,0-0.5c-0.4,0-0.7,0-1.2,0c0-0.1,0-0.2,0-0.5c-0.4,0-0.7,0-1.2,0
					c0-0.1,0-0.2,0-0.5c-0.4,0-0.7,0-1.2,0c0-0.1,0-0.2,0-0.5c-0.4,0-0.7,0-1.2,0c0-0.1,0-0.2,0-0.5c-0.4,0-0.7,0-1.2,0
					c0-0.1,0-0.2,0-0.5c-0.2,0-0.5,0-0.7,0c0-0.1,0-0.2,0-0.5c-0.7-0.1-1.5-0.2-2.2-0.5c0-0.1,0-0.2,0-0.5c-0.2,0-0.5,0-0.7,0
					c0-0.1,0-0.2,0-0.5c-1.2-0.2-2.2-0.6-3.4-0.8c0-0.1,0-0.2,0-0.5c-0.2,0-0.5,0-0.7,0c0-0.1,0-0.2,0-0.5c-0.7-0.1-1.5-0.2-2.2-0.5
					c0-0.1,0-0.2,0-0.5c-0.2,0-0.5,0-0.7,0c0-0.1,0-0.2,0-0.5c-0.7-0.1-1.5-0.2-2.2-0.5c0-0.1,0-0.2,0-0.5c-0.2,0-0.5,0-0.7,0
					c0-0.1,0-0.2,0-0.5c-0.7-0.1-1.5-0.2-2.2-0.5c0-0.1,0-0.2,0-0.5c-0.2,0-0.5,0-0.7,0c0-0.1,0-0.2,0-0.5c-0.4,0-0.7,0-1.2,0
					c0-0.1,0-0.2,0-0.5c-0.4,0-0.7,0-1.2,0c0-0.1,0-0.2,0-0.5c-0.2,0-0.5,0-0.7,0c0-0.1,0-0.2,0-0.5c-0.7-0.1-1.5-0.2-2.2-0.5
					c0-0.1,0-0.2,0-0.5c-0.2,0-0.5,0-0.7,0c0-0.1,0-0.2,0-0.5c-0.4,0-0.7,0-1.2,0c0-0.1,0-0.2,0-0.5c-0.4,0-0.7,0-1.2,0
					c0-0.1,0-0.2,0-0.5c-0.4,0-0.7,0-1.2,0c0-0.1,0-0.2,0-0.5c-0.4,0-0.7,0-1.2,0c0-0.1,0-0.2,0-0.5c-0.2,0-0.5,0-0.7,0
					c0-0.1,0-0.2,0-0.5c-0.7-0.1-1.5-0.2-2.2-0.5c0-0.1,0-0.2,0-0.5c-0.4,0-0.7,0-1.2,0c0-0.1,0-0.2,0-0.5c-0.4,0-0.7,0-1.2,0
					c0-0.1,0-0.2,0-0.5c-0.4,0-0.7,0-1.2,0c0-0.1,0-0.2,0-0.5c-0.4,0-0.7,0-1.2,0c0-0.1,0-0.2,0-0.5c-0.4,0-0.7,0-1.2,0
					c0-0.1,0-0.2,0-0.5c-0.4,0-0.7,0-1.2,0c0-0.1,0-0.2,0-0.5c-0.5,0-1.1,0-1.5,0c0-0.1,0-0.2,0-0.5c-0.5,0-1.1,0-1.5,0
					c0-0.1,0-0.2,0-0.5c-0.6,0-1.3,0-1.9,0c0-0.1,0-0.2,0-0.5c-0.6,0-1.3,0-1.9,0c0-0.1,0-0.2,0-0.5c-1.1,0-2,0-3.1,0
					c0-0.1,0-0.2,0-0.5c-1.7,0-3.3,0-5,0c-5.6,0-9.5,0.8-13.4,2.4c-0.4,0-0.7,0-1.2,0c-7,3.4-13.3,8.5-17.5,15
					c-0.5,0.5-1.1,0.8-1.5,1.3c0,0.2,0,0.6,0,0.8c-0.4,0.2-0.7,0.6-1.2,0.8c0,0.2,0,0.6,0,0.8c-0.4,0.2-0.7,0.6-1.2,0.8
					c0,0.2,0,0.6,0,0.8c-0.2,0.1-0.5,0.2-0.7,0.5c0,0.2,0,0.6,0,0.8c-0.2,0.1-0.5,0.2-0.7,0.5c0,0.2,0,0.6,0,0.8c-0.1,0-0.2,0-0.4,0
					c0,0.2,0,0.6,0,0.8c-0.2,0.1-0.5,0.2-0.7,0.5c-0.2,0.8-0.5,1.6-0.7,2.4c-0.2,0.1-0.5,0.2-0.7,0.5c-0.1,0.6-0.2,1.2-0.4,1.6
					c-0.2,0.1-0.5,0.2-0.7,0.5c-0.2,0.8-0.5,1.6-0.7,2.4c-0.2,0.1-0.5,0.2-0.7,0.5c-0.1,0.6-0.2,1.2-0.4,1.6c-0.1,0-0.2,0-0.4,0
					c0,0.2,0,0.6,0,0.8c-0.2,0.1-0.5,0.2-0.7,0.5c0,0.2,0,0.6,0,0.8c-0.1,0-0.2,0-0.4,0c0,0.2,0,0.6,0,0.8c-0.1,0-0.2,0-0.4,0
					c0,0.2,0,0.6,0,0.8c-0.1,0-0.2,0-0.4,0c0,0.2,0,0.6,0,0.8c-0.1,0-0.2,0-0.4,0c-0.1,0.6-0.2,1.2-0.4,1.6
					c-0.2,0.1-0.5,0.2-0.7,0.5c0,0.2,0,0.6,0,0.8c-0.1,0-0.2,0-0.4,0c0,0.2,0,0.6,0,0.8c-0.1,0-0.2,0-0.4,0c0,0.2,0,0.6,0,0.8
					c-0.1,0-0.2,0-0.4,0c0,0.2,0,0.6,0,0.8c-0.1,0-0.2,0-0.4,0c0,0.2,0,0.6,0,0.8c-0.1,0-0.2,0-0.4,0c0,0.2,0,0.6,0,0.8
					c-0.1,0-0.2,0-0.4,0c-0.1,0.6-0.2,1.2-0.4,1.6c-0.1,0-0.2,0-0.4,0c0,0.2,0,0.6,0,0.8c-0.1,0-0.2,0-0.4,0c0,0.2,0,0.6,0,0.8
					c-0.1,0-0.2,0-0.4,0c0,0.2,0,0.6,0,0.8c-0.1,0-0.2,0-0.4,0c0,0.2,0,0.6,0,0.8c-0.1,0-0.2,0-0.4,0c-0.1,0.6-0.2,1.2-0.4,1.6
					c-0.1,0-0.2,0-0.4,0c0,0.2,0,0.6,0,0.8c-0.1,0-0.2,0-0.4,0c0,0.5,0,0.8,0,1.3c-0.1,0-0.2,0-0.4,0c0,0.2,0,0.6,0,0.8
					c-0.1,0-0.2,0-0.4,0c-0.1,0.6-0.2,1.2-0.4,1.6c-0.1,0-0.2,0-0.4,0c0,0.5,0,0.8,0,1.3c-0.1,0-0.2,0-0.4,0
					c-0.1,0.6-0.2,1.2-0.4,1.6c-0.1,0-0.2,0-0.4,0c0,0.5,0,0.8,0,1.3c-0.1,0-0.2,0-0.4,0c0,0.2,0,0.6,0,0.8c-0.1,0-0.2,0-0.4,0
					c-0.1,0.7-0.2,1.4-0.4,2.1c-0.1,0-0.2,0-0.4,0c0,0.5,0,0.8,0,1.3c-0.1,0-0.2,0-0.4,0c0,0.2,0,0.6,0,0.8c-0.1,0-0.2,0-0.4,0
					c-0.1,0.8-0.2,1.6-0.4,2.4c-0.1,0-0.2,0-0.4,0c0,0.2,0,0.6,0,0.8c-0.1,0-0.2,0-0.4,0c0,0.5,0,0.8,0,1.3c-0.1,0-0.2,0-0.4,0
					c0,0.2,0,0.6,0,0.8c-0.1,0-0.2,0-0.4,0c0,0.2,0,0.6,0,0.8c-0.2,0.1-0.5,0.2-0.7,0.5c-0.1,0.6-0.2,1.2-0.4,1.6
					c-0.4,0.2-0.7,0.6-1.2,0.8c0,0.2,0,0.6,0,0.8c-0.2,0.1-0.5,0.2-0.7,0.5c0,0.1,0,0.2,0,0.5c-0.2,0-0.5,0-0.7,0
					c-0.2,0.5-0.5,0.8-0.7,1.3c-0.2,0-0.5,0-0.7,0c0,0.1,0,0.2,0,0.5c-0.2,0-0.5,0-0.7,0c0,0.1,0,0.2,0,0.5c-0.4,0-0.7,0-1.2,0
					c0,0.1,0,0.2,0,0.5c-0.6,0-1.3,0-1.9,0c0,0.1,0,0.2,0,0.5c-1.2,0-2.2,0-3.4,0c-3.3,0-7.1-0.1-9.9-0.5c-3.1,0-6.2,0-9.1,0
					c-3.9-1.2-10.2-0.5-14.9-0.5c-4.6,0.1-9.1,0.2-13.7,0.5c0,0.1,0,0.2,0,0.5c-1.5,0-3.1,0-4.6,0c0,0.1,0,0.2,0,0.5
					c-1.2,0-2.2,0-3.4,0c0,0.1,0,0.2,0,0.5c-3.4,0.5-6.9,0.8-10.3,1.3c-5.7,1.5-11.5,3-17.2,4.5c0,0.2,0,0.6,0,0.8
					c1.1,0.6,2,1.2,3.1,1.6c0,0.1,0,0.2,0,0.5c0.6,0.1,1.3,0.2,1.9,0.5c0,0.1,0,0.2,0,0.5c0.5,0.1,1.1,0.2,1.5,0.5
					c0,0.1,0,0.2,0,0.5c0.7,0.1,1.5,0.2,2.2,0.5c0,0.1,0,0.2,0,0.5c0.2,0,0.5,0,0.7,0c0,0.1,0,0.2,0,0.5c0.9,0.1,1.8,0.2,2.7,0.5
					c5,1.7,9.9,3.6,14.9,5.3c0,0.1,0,0.2,0,0.5c0.5,0.1,1.1,0.2,1.5,0.5c0,0.1,0,0.2,0,0.5c0.5,0.1,1.1,0.2,1.5,0.5
					c0.1,0.2,0.2,0.6,0.4,0.8c0.5,0.1,1.1,0.2,1.5,0.5c0.1,0.2,0.2,0.6,0.4,0.8c0.2,0,0.5,0,0.7,0c0.1,0.2,0.2,0.6,0.4,0.8
					c0.2,0,0.5,0,0.7,0c0,0.1,0,0.2,0,0.5c0.7,0.6,0.9,0.9,1.9,1.3c-0.5,0.5,0,0.1-0.7,0.5c-0.7,0.7-2.5,0.3-3.8,0.5
					c-2.2,0.1-4.6,0.2-6.9,0.5c0,0.1,0,0.2,0,0.5c-1.5,0-3.1,0-4.6,0c0,0.1,0,0.2,0,0.5c-1.3,0-2.5,0-3.8,0c0,0.1,0,0.2,0,0.5
					c-1.3,0-2.5,0-3.8,0c-2.5,0.8-5.9,0.9-8.4,1.6c-1.7,0.1-3.3,0.2-5,0.5c0,0.1,0,0.2,0,0.5c-0.6,0-1.3,0-1.9,0c0,0.1,0,0.2,0,0.5
					c-0.6,0-1.3,0-1.9,0c0,0.1,0,0.2,0,0.5c-0.6,0-1.3,0-1.9,0c0,0.1,0,0.2,0,0.5c-0.6,0-1.3,0-1.9,0c0,0.1,0,0.2,0,0.5
					c-0.5,0-1.1,0-1.5,0c0,0.1,0,0.2,0,0.5c-0.5,0-1.1,0-1.5,0c0,0.1,0,0.2,0,0.5c-1.1,0.1-2,0.2-3.1,0.5c0,0.1,0,0.2,0,0.5
					c-0.4,0-0.7,0-1.2,0c0,0.1,0,0.2,0,0.5c-0.4,0-0.7,0-1.2,0c0,0.1,0,0.2,0,0.5c-0.5,0-1.1,0-1.5,0c0,0.1,0,0.2,0,0.5
					c-0.4,0-0.7,0-1.2,0c0,0.1,0,0.2,0,0.5c-0.4,0-0.7,0-1.2,0c0,0.1,0,0.2,0,0.5c-0.4,0-0.7,0-1.2,0c0,0.1,0,0.2,0,0.5
					c-0.4,0-0.7,0-1.2,0c0,0.1,0,0.2,0,0.5c-0.2,0-0.5,0-0.7,0c0,0.1,0,0.2,0,0.5c-0.7,0.1-1.5,0.2-2.2,0.5c0,0.1,0,0.2,0,0.5
					c-0.2,0-0.5,0-0.7,0c0,0.1,0,0.2,0,0.5c-0.4,0-0.7,0-1.2,0c0,0.1,0,0.2,0,0.5c-0.2,0-0.5,0-0.7,0c0,0.1,0,0.2,0,0.5
					c-0.6,0.1-1.3,0.2-1.9,0.5c0,0.1,0,0.2,0,0.5c-0.7,0.2-1.5,0.6-2.2,0.8c0,0.1,0,0.2,0,0.5c-0.2,0-0.5,0-0.7,0c0,0.1,0,0.2,0,0.5
					c-0.2,0-0.5,0-0.7,0c0,0.1,0,0.2,0,0.5c-0.2,0-0.5,0-0.7,0c0,0.1,0,0.2,0,0.5c-0.2,0-0.5,0-0.7,0c0,0.1,0,0.2,0,0.5
					c-0.2,0-0.5,0-0.7,0c0,0.1,0,0.2,0,0.5c-0.2,0-0.5,0-0.7,0c-0.1,0.2-0.2,0.6-0.4,0.8c-0.7,0.2-1.5,0.6-2.2,0.8
					c0,0.1,0,0.2,0,0.5c-0.4,0.1-0.7,0.2-1.2,0.5c-0.1,0.2-0.2,0.6-0.4,0.8c-0.5,0.1-1.1,0.2-1.5,0.5c-0.1,0.2-0.2,0.6-0.4,0.8
					c-0.2,0-0.5,0-0.7,0c-0.2,0.5-0.5,0.8-0.7,1.3c-0.2,0-0.5,0-0.7,0c-0.1,0.2-0.2,0.6-0.4,0.8c-0.2,0-0.5,0-0.7,0
					c-0.2,0.5-0.5,0.8-0.7,1.3c-0.2,0-0.5,0-0.7,0c-0.4,0.6-0.7,1.2-1.2,1.6c-0.2,0-0.5,0-0.7,0c-0.5,0.7-1.1,1.4-1.5,2.1
					c-0.2,0-0.5,0-0.7,0c-1.4,1.6-2.8,3.4-4.1,5c-1.8,1.7-3.5,3.6-5.3,5.3c0,0.2,0,0.6,0,0.8c-0.6,0.6-1.3,1.2-1.9,1.6
					c0,0.2,0,0.6,0,0.8c-0.2,0.1-0.5,0.2-0.7,0.5c-0.5,0.8-1.1,1.6-1.5,2.4c0.7,0,1.5,0,2.2,0c0-0.1,0-0.2,0-0.5c0.7,0,1.5,0,2.2,0
					c0-0.1,0-0.2,0-0.5c0.6,0,1.3,0,1.9,0c0-0.1,0-0.2,0-0.5c0.5,0,1.1,0,1.5,0c0-0.1,0-0.2,0-0.5c0.5,0,1.1,0,1.5,0
					c0-0.1,0-0.2,0-0.5c0.5,0,1.1,0,1.5,0c3.7-1.4,8-2.4,11.8-3.7c1.8-0.1,3.5-0.2,5.3-0.5c0-0.1,0-0.2,0-0.5c1.9,0,3.8,0,5.7,0
					c1.5,0.5,3.8,0.9,5.3,1.3c0,0.1,0,0.2,0,0.5c-1.4,1.4-1.5,4.1-2.2,6.3c-0.1,0-0.2,0-0.4,0c0,0.5,0,0.8,0,1.3c-0.1,0-0.2,0-0.4,0
					c0,0.5,0,0.8,0,1.3c-2.1,5.8-3.8,12.6-3.8,20.8c0,2.9-0.2,6.8,0.4,9.2c0.1,1.6,0.2,3.4,0.4,5c0.7,2.9,1.5,5.8,2.2,8.7
					c0.1,0,0.2,0,0.4,0c0,0.2,0,0.6,0,0.8c0.1,0,0.2,0,0.4,0c0.1,0.7,0.2,1.4,0.4,2.1c0.1,0,0.2,0,0.4,0c0.2,0.8,0.5,1.6,0.7,2.4
					c0.1,0,0.2,0,0.4,0c0.2,0.8,0.5,1.6,0.7,2.4c0.2,0.1,0.5,0.2,0.7,0.5c0.1,0.6,0.2,1.2,0.4,1.6c0.4,0.2,0.7,0.6,1.2,0.8
					c0,0.2,0,0.6,0,0.8c0.4,0.2,0.7,0.6,1.2,0.8c0,0.2,0,0.6,0,0.8c0.9,0.8,1.8,1.6,2.7,2.4c1.3,1.5,2.5,3,3.8,4.5
					c0.2,0,0.5,0,0.7,0c0.2,0.5,0.5,0.8,0.7,1.3c0.4,0.1,0.7,0.2,1.2,0.5c0.1,0.2,0.2,0.6,0.4,0.8c0.2,0,0.5,0,0.7,0
					c0.1,0.2,0.2,0.6,0.4,0.8c0.4,0.1,0.7,0.2,1.2,0.5c0,0.1,0,0.2,0,0.5c0.2,0,0.5,0,0.7,0c0.1,0.2,0.2,0.6,0.4,0.8
					c0.5,0.1,1.1,0.2,1.5,0.5c0.1,0.2,0.2,0.6,0.4,0.8c0.5,0.1,1.1,0.2,1.5,0.5c0.1,0.2,0.2,0.6,0.4,0.8c0.2,0,0.5,0,0.7,0
					c0,0.1,0,0.2,0,0.5c0.2,0,0.5,0,0.7,0c0,0.1,0,0.2,0,0.5c0.2,0,0.5,0,0.7,0c0,0.1,0,0.2,0,0.5c0.2,0,0.5,0,0.7,0
					c0,0.1,0,0.2,0,0.5c0.2,0,0.5,0,0.7,0c0,0.1,0,0.2,0,0.5c0.2,0,0.5,0,0.7,0c0,0.1,0,0.2,0,0.5c0.2,0,0.5,0,0.7,0
					c0,0.1,0,0.2,0,0.5c0.2,0,0.5,0,0.7,0c0.1,0.2,0.2,0.6,0.4,0.8c0.7,0.2,1.5,0.6,2.2,0.8c0,0.1,0,0.2,0,0.5c0.4,0,0.7,0,1.2,0
					c0,0.1,0,0.2,0,0.5c0.7,0.2,1.5,0.6,2.2,0.8c0,0.1,0,0.2,0,0.5c0.2,0,0.5,0,0.7,0c0,0.1,0,0.2,0,0.5c0.2,0,0.5,0,0.7,0
					c0,0.1,0,0.2,0,0.5c0.2,0,0.5,0,0.7,0c0,0.1,0,0.2,0,0.5c0.2,0,0.5,0,0.7,0c0,0.1,0,0.2,0,0.5c0.2,0,0.5,0,0.7,0
					c0,0.1,0,0.2,0,0.5c0.2,0,0.5,0,0.7,0c0,0.1,0,0.2,0,0.5c0.2,0,0.5,0,0.7,0c0,0.1,0,0.2,0,0.5c0.2,0,0.5,0,0.7,0
					c0.1,0.2,0.2,0.6,0.4,0.8c0.5,0.1,1.1,0.2,1.5,0.5c0,0.1,0,0.2,0,0.5c0.5,0.1,1.1,0.2,1.5,0.5c0.9,0.6,1.4,1.3,2.7,1.6
					c0,0.1,0,0.2,0,0.5c-2.1,0.1-4.4,1-6.2,1.6c-1.2,0.1-2.2,0.2-3.4,0.5c0,0.1,0,0.2,0,0.5c-0.5,0-1.1,0-1.5,0c0,0.1,0,0.2,0,0.5
					c-0.5,0-1.1,0-1.5,0c0,0.1,0,0.2,0,0.5c-1.1,0.1-2,0.2-3.1,0.5c-1.7,0.7-4,1.4-5.7,2.1c-0.5,0-1.1,0-1.5,0c0,0.1,0,0.2,0,0.5
					c-1.8,0.5-3.5,0.8-5.3,1.3c0,0.1,0,0.2,0,0.5c-0.4,0-0.7,0-1.2,0c0,0.1,0,0.2,0,0.5c-1.3,0.2-2.5,0.6-3.8,0.8c0,0.1,0,0.2,0,0.5
					c-1.7,0.5-3.3,0.8-5,1.3c0,0.1,0,0.2,0,0.5c-0.9,0.1-1.8,0.2-2.7,0.5c0,0.1,0,0.2,0,0.5c-0.4,0-0.7,0-1.2,0c0,0.1,0,0.2,0,0.5
					c-0.4,0-0.7,0-1.2,0c0,0.1,0,0.2,0,0.5c-0.4,0-0.7,0-1.2,0c0,0.1,0,0.2,0,0.5c-0.4,0-0.7,0-1.2,0c0,0.1,0,0.2,0,0.5
					c-0.4,0-0.7,0-1.2,0c0,0.1,0,0.2,0,0.5c-0.7,0.1-1.5,0.2-2.2,0.5c0,0.1,0,0.2,0,0.5c-0.2,0-0.5,0-0.7,0c0,0.1,0,0.2,0,0.5
					c-1.2,0.2-2.2,0.6-3.4,0.8c0,0.1,0,0.2,0,0.5c-0.2,0-0.5,0-0.7,0c0,0.1,0,0.2,0,0.5c-1.2,0.2-2.2,0.6-3.4,0.8c0,0.1,0,0.2,0,0.5
					c-0.2,0-0.5,0-0.7,0c0,0.1,0,0.2,0,0.5c-0.4,0-0.7,0-1.2,0c0,0.1,0,0.2,0,0.5c-0.2,0-0.5,0-0.7,0c0,0.1,0,0.2,0,0.5
					c-0.6,0.1-1.3,0.2-1.9,0.5c0,0.1,0,0.2,0,0.5c-0.4,0-0.7,0-1.2,0c0,0.1,0,0.2,0,0.5c-0.2,0-0.5,0-0.7,0c0,0.1,0,0.2,0,0.5
					c-0.4,0-0.7,0-1.2,0c0,0.1,0,0.2,0,0.5c-0.2,0-0.5,0-0.7,0c0,0.1,0,0.2,0,0.5c-0.4,0-0.7,0-1.2,0c0,0.1,0,0.2,0,0.5
					c-0.5,0.1-1.1,0.2-1.5,0.5c0,0.1,0,0.2,0,0.5c-0.4,0-0.7,0-1.2,0c0,0.1,0,0.2,0,0.5c-0.5,0.1-1.1,0.2-1.5,0.5c0,0.1,0,0.2,0,0.5
					c-0.4,0-0.7,0-1.2,0c0,0.1,0,0.2,0,0.5c-0.2,0-0.5,0-0.7,0c0,0.1,0,0.2,0,0.5c-0.5,0.1-1.1,0.2-1.5,0.5c0,0.1,0,0.2,0,0.5
					c-0.4,0-0.7,0-1.2,0c0,0.1,0,0.2,0,0.5c-0.2,0-0.5,0-0.7,0c0,0.1,0,0.2,0,0.5c-0.2,0-0.5,0-0.7,0c0,0.1,0,0.2,0,0.5
					c-0.7,0.2-1.5,0.6-2.2,0.8c0,0.1,0,0.2,0,0.5c-0.4,0-0.7,0-1.2,0c0,0.1,0,0.2,0,0.5c-0.2,0-0.5,0-0.7,0c0,0.1,0,0.2,0,0.5
					c-0.2,0-0.5,0-0.7,0c0,0.1,0,0.2,0,0.5c-0.2,0-0.5,0-0.7,0c0,0.1,0,0.2,0,0.5c-0.2,0-0.5,0-0.7,0c0,0.1,0,0.2,0,0.5
					c-0.2,0-0.5,0-0.7,0c0,0.1,0,0.2,0,0.5c-0.2,0-0.5,0-0.7,0c0,0.1,0,0.2,0,0.5c-0.2,0-0.5,0-0.7,0c0,0.1,0,0.2,0,0.5
					c-0.2,0-0.5,0-0.7,0c0,0.1,0,0.2,0,0.5c-0.2,0-0.5,0-0.7,0c0,0.1,0,0.2,0,0.5c-0.2,0-0.5,0-0.7,0c0,0.1,0,0.2,0,0.5
					c-0.2,0-0.5,0-0.7,0c0,0.1,0,0.2,0,0.5c-0.2,0-0.5,0-0.7,0c-0.1,0.2-0.2,0.6-0.4,0.8c-0.5,0.1-1.1,0.2-1.5,0.5
					c0,0.1,0,0.2,0,0.5c-0.2,0-0.5,0-0.7,0c0,0.1,0,0.2,0,0.5c-0.2,0-0.5,0-0.7,0c0,0.1,0,0.2,0,0.5c-0.2,0-0.5,0-0.7,0
					c0,0.1,0,0.2,0,0.5c-0.2,0-0.5,0-0.7,0c-0.1,0.2-0.2,0.6-0.4,0.8c-0.7,0.2-1.5,0.6-2.2,0.8c-0.1,0.2-0.2,0.6-0.4,0.8
					c-0.7,0.2-1.5,0.6-2.2,0.8c-0.1,0.2-0.2,0.6-0.4,0.8c-0.2,0-0.5,0-0.7,0c0,0.1,0,0.2,0,0.5c-0.2,0-0.5,0-0.7,0
					c-0.1,0.2-0.2,0.6-0.4,0.8c-0.5,0.1-1.1,0.2-1.5,0.5c-0.1,0.2-0.2,0.6-0.4,0.8c-0.2,0-0.5,0-0.7,0c0,0.1,0,0.2,0,0.5
					c-0.2,0-0.5,0-0.7,0c-0.1,0.2-0.2,0.6-0.4,0.8c-0.2,0-0.5,0-0.7,0c-0.1,0.2-0.2,0.6-0.4,0.8c-0.2,0-0.5,0-0.7,0
					c-0.1,0.2-0.2,0.6-0.4,0.8c-0.5,0.1-1.1,0.2-1.5,0.5c0,0.1,0,0.2,0,0.5c-0.4,0.1-0.7,0.2-1.2,0.5c-0.1,0.2-0.2,0.6-0.4,0.8
					c-0.2,0-0.5,0-0.7,0c-0.1,0.2-0.2,0.6-0.4,0.8c-0.2,0-0.5,0-0.7,0c-0.2,0.5-0.5,0.8-0.7,1.3c-0.2,0-0.5,0-0.7,0
					c0,0.1,0,0.2,0,0.5c-0.4,0.1-0.7,0.2-1.2,0.5c-0.1,0.2-0.2,0.6-0.4,0.8c-0.2,0-0.5,0-0.7,0c-0.2,0.5-0.5,0.8-0.7,1.3
					c-0.2,0-0.5,0-0.7,0c-0.1,0.2-0.2,0.6-0.4,0.8c-0.2,0-0.5,0-0.7,0c-0.2,0.5-0.5,0.8-0.7,1.3c-0.2,0-0.5,0-0.7,0
					c-0.2,0.5-0.5,0.8-0.7,1.3c-0.2,0-0.5,0-0.7,0c-0.2,0.5-0.5,0.8-0.7,1.3c-0.2,0-0.5,0-0.7,0c-0.4,0.6-0.7,1.2-1.2,1.6
					c-0.4,0.1-0.7,0.2-1.2,0.5c-0.1,0.2-0.2,0.6-0.4,0.8c-0.2,0-0.5,0-0.7,0c-0.4,0.6-0.7,1.2-1.2,1.6c-0.2,0-0.5,0-0.7,0
					c-0.5,0.7-1.1,1.4-1.5,2.1c-0.2,0-0.5,0-0.7,0c-0.6,0.8-1.3,1.6-1.9,2.4c-0.2,0-0.5,0-0.7,0c-0.9,1.2-1.8,2.2-2.7,3.4
					c-0.2,0-0.5,0-0.7,0c-1.4,1.6-2.8,3.4-4.1,5c-0.1,0-0.2,0-0.4,0c-0.1,0.2-0.2,0.6-0.4,0.8c-0.2,0-0.5,0-0.7,0
					c-0.5,0.7-1.1,1.4-1.5,2.1c-1.2,1.2-2.2,2.2-3.4,3.4c0,0.2,0,0.6,0,0.8c-1.3,1.3-2.5,2.4-3.8,3.7c-0.4,0.6-0.7,1.2-1.2,1.6
					c-0.1,0-0.2,0-0.4,0c0,0.2,0,0.6,0,0.8c-1.1,0.9-2,2-3.1,2.9c0,0.2,0,0.6,0,0.8c-0.7,0.7-1.5,1.4-2.2,2.1c0,0.2,0,0.6,0,0.8
					c-0.2,0.1-0.5,0.2-0.7,0.5c0,0.1,0,0.2,0,0.5c-0.4,0.2-0.7,0.6-1.2,0.8c0,0.2,0,0.6,0,0.8c-0.5,0.5-1.1,0.8-1.5,1.3
					c0,0.2,0,0.6,0,0.8c-0.5,0.5-1.1,0.8-1.5,1.3c0,0.2,0,0.6,0,0.8c-0.4,0.2-0.7,0.6-1.2,0.8c0,0.2,0,0.6,0,0.8
					c-0.5,0.5-1.1,0.8-1.5,1.3c-0.7,1-0.8,2.2-1.9,2.9c0,0.1,0,0.2,0,0.5c0.2,0,0.5,0,0.7,0c0.8,0.9,6.2,2,8.4,1.3
					c4.7-1.5,10.1-5.3,16-2.9c0,0.2,0,0.6,0,0.8c-1.5,1-2.6,2.8-3.8,4.2c-1.3,1.3-2.5,2.4-3.8,3.7c0,0.2,0,0.6,0,0.8
					c-0.1,0-0.2,0-0.4,0c-0.2,0.5-0.5,0.8-0.7,1.3c-0.9,0.8-1.8,1.6-2.7,2.4c0,0.2,0,0.6,0,0.8c-0.9,0.8-1.8,1.6-2.7,2.4
					c0,0.2,0,0.6,0,0.8c-0.6,0.6-1.3,1.2-1.9,1.6c0,0.2,0,0.6,0,0.8c-0.6,0.6-1.3,1.2-1.9,1.6c0,0.2,0,0.6,0,0.8
					c-0.5,0.5-1.1,0.8-1.5,1.3c0,0.2,0,0.6,0,0.8c-0.4,0.2-0.7,0.6-1.2,0.8c0,0.2,0,0.6,0,0.8c-0.4,0.2-0.7,0.6-1.2,0.8
					c0,0.2,0,0.6,0,0.8c-0.4,0.2-0.7,0.6-1.2,0.8c0,0.2,0,0.6,0,0.8c-0.4,0.2-0.7,0.6-1.2,0.8c0,0.2,0,0.6,0,0.8c-0.1,0-0.2,0-0.4,0
					c-0.1,0.5-0.2,0.8-0.4,1.3c-0.2,0.1-0.5,0.2-0.7,0.5c0,0.2,0,0.6,0,0.8c-0.4,0.2-0.7,0.6-1.2,0.8c0,0.2,0,0.6,0,0.8
					c-0.2,0.1-0.5,0.2-0.7,0.5c-0.1,0.5-0.2,0.8-0.4,1.3c-0.1,0-0.2,0-0.4,0c-0.1,0.6-0.2,1.2-0.4,1.6c-0.1,0-0.2,0-0.4,0
					c-0.1,0.5-0.2,0.8-0.4,1.3c-0.2,0.1-0.5,0.2-0.7,0.5c-0.1,0.6-0.2,1.2-0.4,1.6c-0.2,0.1-0.5,0.2-0.7,0.5
					c-0.2,0.8-0.5,1.6-0.7,2.4c-0.2,0.1-0.5,0.2-0.7,0.5c0,0.2,0,0.6,0,0.8c-0.1,0-0.2,0-0.4,0c0,0.2,0,0.6,0,0.8
					c-0.1,0-0.2,0-0.4,0c0,0.2,0,0.6,0,0.8c-0.1,0-0.2,0-0.4,0c0,0.2,0,0.6,0,0.8c-0.2,0.1-0.5,0.2-0.7,0.5
					c-0.2,0.8-0.5,1.6-0.7,2.4c-0.1,0-0.2,0-0.4,0c0,0.2,0,0.6,0,0.8c-0.1,0-0.2,0-0.4,0c-0.2,0.8-0.5,1.6-0.7,2.4
					c-0.1,0-0.2,0-0.4,0c0,0.5,0,0.8,0,1.3c-0.1,0-0.2,0-0.4,0c0,0.2,0,0.6,0,0.8c-0.1,0-0.2,0-0.4,0c-0.2,0.8-0.5,1.6-0.7,2.4
					c-0.1,0-0.2,0-0.4,0c0,0.5,0,0.8,0,1.3c-0.1,0-0.2,0-0.4,0c0,0.2,0,0.6,0,0.8c-0.1,0-0.2,0-0.4,0c-0.1,0.7-0.2,1.4-0.4,2.1
					c-0.1,0-0.2,0-0.4,0c0,0.5,0,0.8,0,1.3c-0.1,0-0.2,0-0.4,0c0,0.2,0,0.6,0,0.8c-0.1,0-0.2,0-0.4,0c0,0.5,0,0.8,0,1.3
					c-0.1,0-0.2,0-0.4,0c0,0.5,0,0.8,0,1.3c-0.1,0-0.2,0-0.4,0c-0.7,1.5-0.9,2.8-2.7,3.4c-0.6,0.6-2.2,0.5-3.4,0.5
					c-0.8-0.9-2.7-1.6-3.8-2.4c-0.6-0.8-1.3-1.6-1.9-2.4c-1.4-1.4-2.8-2.8-4.1-4.2c0-0.2,0-0.6,0-0.8c-2-2.1-4-4.2-6.2-6.3
					c0-0.2,0-0.6,0-0.8c-1.3-1.3-2.5-2.4-3.8-3.7c0-0.2,0-0.6,0-0.8c-0.9-0.8-1.8-1.6-2.7-2.4c0-0.2,0-0.6,0-0.8
					c-0.7-0.7-1.5-1.4-2.2-2.1c0-0.2,0-0.6,0-0.8c-0.6-0.6-1.3-1.2-1.9-1.6c0-0.2,0-0.6,0-0.8c-0.6-0.6-1.3-1.2-1.9-1.6
					c0-0.2,0-0.6,0-0.8c-0.5-0.5-1.1-0.8-1.5-1.3c0-0.2,0-0.6,0-0.8c-0.5-0.5-1.1-0.8-1.5-1.3c0-0.2,0-0.6,0-0.8
					c-0.5-0.5-1.1-0.8-1.5-1.3c0-0.2,0-0.6,0-0.8c-0.4-0.2-0.7-0.6-1.2-0.8c0-0.2,0-0.6,0-0.8c-0.4-0.2-0.7-0.6-1.2-0.8
					c0-0.2,0-0.6,0-0.8c-0.4-0.2-0.7-0.6-1.2-0.8c0-0.2,0-0.6,0-0.8c-0.4-0.2-0.7-0.6-1.2-0.8c0-0.2,0-0.6,0-0.8
					c-0.4-0.2-0.7-0.6-1.2-0.8c0-0.2,0-0.6,0-0.8c-0.2-0.1-0.5-0.2-0.7-0.5c0-0.2,0-0.6,0-0.8c-0.4-0.2-0.7-0.6-1.2-0.8
					c0-0.2,0-0.6,0-0.8c-0.2-0.1-0.5-0.2-0.7-0.5c-0.1-0.5-0.2-0.8-0.4-1.3c-0.1,0-0.2,0-0.4,0c0-0.2,0-0.6,0-0.8
					c-0.2-0.1-0.5-0.2-0.7-0.5c0-0.2,0-0.6,0-0.8c-0.2-0.1-0.5-0.2-0.7-0.5c0-0.2,0-0.6,0-0.8c-0.2-0.1-0.5-0.2-0.7-0.5
					c0-0.2,0-0.6,0-0.8c-0.2-0.1-0.5-0.2-0.7-0.5c0-0.2,0-0.6,0-0.8c-0.2-0.1-0.5-0.2-0.7-0.5c0-0.2,0-0.6,0-0.8
					c-0.2-0.1-0.5-0.2-0.7-0.5c0-0.2,0-0.6,0-0.8c-0.2-0.1-0.5-0.2-0.7-0.5c-0.1-0.6-0.2-1.2-0.4-1.6c-0.2-0.1-0.5-0.2-0.7-0.5
					c-0.1-0.6-0.2-1.2-0.4-1.6c-0.2-0.1-0.5-0.2-0.7-0.5c-0.1-0.6-0.2-1.2-0.4-1.6c-0.2-0.1-0.5-0.2-0.7-0.5
					c-0.1-0.6-0.2-1.2-0.4-1.6c-0.2-0.1-0.5-0.2-0.7-0.5c0-0.2,0-0.6,0-0.8c-0.1,0-0.2,0-0.4,0c0-0.2,0-0.6,0-0.8
					c-0.1,0-0.2,0-0.4,0c0-0.2,0-0.6,0-0.8c-0.1,0-0.2,0-0.4,0c0-0.2,0-0.6,0-0.8c-0.2-0.1-0.5-0.2-0.7-0.5c0-0.2,0-0.6,0-0.8
					c-0.1,0-0.2,0-0.4,0c0-0.2,0-0.6,0-0.8c-0.1,0-0.2,0-0.4,0c0-0.2,0-0.6,0-0.8c-0.1,0-0.2,0-0.4,0c0-0.2,0-0.6,0-0.8
					c-0.1,0-0.2,0-0.4,0c-0.1-0.6-0.2-1.2-0.4-1.6c-0.2-0.1-0.5-0.2-0.7-0.5c-0.1-0.6-0.2-1.2-0.4-1.6c-0.1,0-0.2,0-0.4,0
					c0-0.2,0-0.6,0-0.8c-0.1,0-0.2,0-0.4,0c-0.2-0.8-0.5-1.6-0.7-2.4c-0.1,0-0.2,0-0.4,0c0-0.5,0-0.8,0-1.3c-0.1,0-0.2,0-0.4,0
					c0-0.2,0-0.6,0-0.8c-0.1,0-0.2,0-0.4,0c0-0.2,0-0.6,0-0.8c-0.1,0-0.2,0-0.4,0c-0.2-0.8-0.5-1.6-0.7-2.4c-0.1,0-0.2,0-0.4,0
					c0-0.5,0-0.8,0-1.3c-0.1,0-0.2,0-0.4,0c0-0.2,0-0.6,0-0.8c-0.1,0-0.2,0-0.4,0c0-0.2,0-0.6,0-0.8c-0.1,0-0.2,0-0.4,0
					c0-0.2,0-0.6,0-0.8c-0.1,0-0.2,0-0.4,0c0-0.5,0-0.8,0-1.3c-0.1,0-0.2,0-0.4,0c0-0.2,0-0.6,0-0.8c-0.1,0-0.2,0-0.4,0
					c0-0.5,0-0.8,0-1.3c-0.1,0-0.2,0-0.4,0c0-0.2,0-0.6,0-0.8c-0.1,0-0.2,0-0.4,0c-2-6.4-4-12.8-6.2-19c-0.1-1.2-0.2-2.2-0.4-3.4
					c-0.1,0-0.2,0-0.4,0c0-0.5,0-0.8,0-1.3c-0.1,0-0.2,0-0.4,0c0-0.6,0-1.2,0-1.6c-0.1,0-0.2,0-0.4,0c0-0.6,0-1.2,0-1.6
					c-0.1,0-0.2,0-0.4,0c0-0.6,0-1.2,0-1.6c-0.1,0-0.2,0-0.4,0c-0.1-1.3-0.2-2.4-0.4-3.7c-0.1,0-0.2,0-0.4,0c0-0.7,0-1.4,0-2.1
					c-0.1,0-0.2,0-0.4,0c-0.1-1.4-0.2-2.8-0.4-4.2c-0.6-2-1.3-4.6-1.9-6.6c0-0.7,0-1.4,0-2.1c-0.1,0-0.2,0-0.4,0
					c-0.1-1.4-0.2-2.8-0.4-4.2c-0.6-1.9-0.9-4.6-1.5-6.6c0-0.9,0-2,0-2.9c-0.1,0-0.2,0-0.4,0c0-0.9,0-2,0-2.9c-0.1,0-0.2,0-0.4,0
					c0-1.3,0-2.4,0-3.7c-0.1,0-0.2,0-0.4,0c-0.2-5.3-0.5-10.8-0.7-16.1c0.1-6.4,0.2-12.8,0.4-19c0.1,0,0.2,0,0.4,0
					c0-1.4,0-2.8,0-4.2c0.1,0,0.2,0,0.4,0c0-1.3,0-2.4,0-3.7c0.1,0,0.2,0,0.4,0c0-0.9,0-2,0-2.9c1.1-5.6,2-11,3.1-16.6
					c-1.3-0.1-2.5-0.2-3.8-0.5c0,0.1,0,0.2,0,0.5c-1.3,0.1-2.5,0.2-3.8,0.5c0,0.1,0,0.2,0,0.5c-0.4,0-0.7,0-1.2,0c0,0.1,0,0.2,0,0.5
					c-0.4,0-0.7,0-1.2,0c0,0.1,0,0.2,0,0.5c-0.4,0-0.7,0-1.2,0c0,0.1,0,0.2,0,0.5c-0.4,0-0.7,0-1.2,0c0,0.1,0,0.2,0,0.5
					c-0.5,0.1-1.1,0.2-1.5,0.5c0,0.1,0,0.2,0,0.5c-0.4,0-0.7,0-1.2,0c0,0.1,0,0.2,0,0.5c-0.2,0-0.5,0-0.7,0c0,0.1,0,0.2,0,0.5
					c-0.6,0.1-1.3,0.2-1.9,0.5c0,0.1,0,0.2,0,0.5c-0.4,0-0.7,0-1.2,0c0,0.1,0,0.2,0,0.5c-0.2,0-0.5,0-0.7,0c0,0.1,0,0.2,0,0.5
					c-0.7,0.1-1.5,0.2-2.2,0.5c-0.9,0.3-3.7,1.4-5.3,0.8c0-0.1,0-0.2,0-0.5c-0.6-0.1-1.3-0.2-1.9-0.5c-0.4-0.6-0.7-1.2-1.2-1.6
					c-0.1,0-0.2,0-0.4,0c0-0.2,0-0.6,0-0.8c-0.2-0.1-0.5-0.2-0.7-0.5c-0.1-0.6-0.2-1.2-0.4-1.6c-0.1,0-0.2,0-0.4,0
					c0-0.6,0-1.2,0-1.6c-0.1,0-0.2,0-0.4,0c-0.5-1.9,0.7-7.5,1.2-8.7c0.1,0,0.2,0,0.4,0c0-0.2,0-0.6,0-0.8c0.1,0,0.2,0,0.4,0
					c0-0.2,0-0.6,0-0.8c0.1,0,0.2,0,0.4,0c0-0.2,0-0.6,0-0.8c0.1,0,0.2,0,0.4,0c0-0.2,0-0.6,0-0.8c0.1,0,0.2,0,0.4,0
					c0-0.2,0-0.6,0-0.8c0.2-0.1,0.5-0.2,0.7-0.5c0.2-0.8,0.5-1.6,0.7-2.4c0.2-0.1,0.5-0.2,0.7-0.5c0.1-0.6,0.2-1.2,0.4-1.6
					c0.2-0.1,0.5-0.2,0.7-0.5c0.1-0.6,0.2-1.2,0.4-1.6c0.2-0.1,0.5-0.2,0.7-0.5c0.2-0.8,0.5-1.6,0.7-2.4c0.2-0.1,0.5-0.2,0.7-0.5
					c0.4-1.3,0.7-2.4,1.2-3.7c0.1,0,0.2,0,0.4,0c0.2-0.8,0.5-1.6,0.7-2.4c0.1,0,0.2,0,0.4,0c0-0.2,0-0.6,0-0.8c0.1,0,0.2,0,0.4,0
					c0.9-2.2,1.8-4.4,2.7-6.6c0.2-0.1,0.5-0.2,0.7-0.5c0-0.2,0-0.6,0-0.8c0.1,0,0.2,0,0.4,0c0-0.2,0-0.6,0-0.8c0.1,0,0.2,0,0.4,0
					c0.2-0.8,0.5-1.6,0.7-2.4c0.2-0.1,0.5-0.2,0.7-0.5c0-0.2,0-0.6,0-0.8c0.1,0,0.2,0,0.4,0c0-0.2,0-0.6,0-0.8c0.1,0,0.2,0,0.4,0
					c0-0.2,0-0.6,0-0.8c0.1,0,0.2,0,0.4,0c0-0.2,0-0.6,0-0.8c0.2-0.1,0.5-0.2,0.7-0.5c0.2-0.8,0.5-1.6,0.7-2.4
					c0.2-0.1,0.5-0.2,0.7-0.5c0.1-0.6,0.2-1.2,0.4-1.6c0.2-0.1,0.5-0.2,0.7-0.5c0.2-0.8,0.5-1.6,0.7-2.4c0.1,0,0.2,0,0.4,0
					c0.1-0.5,0.2-0.8,0.4-1.3c0.2-0.1,0.5-0.2,0.7-0.5c0-0.2,0-0.6,0-0.8c0.1,0,0.2,0,0.4,0c0-0.2,0-0.6,0-0.8
					c0.2-0.1,0.5-0.2,0.7-0.5c0.1-0.6,0.2-1.2,0.4-1.6c0.2-0.1,0.5-0.2,0.7-0.5c0-0.2,0-0.6,0-0.8c0.2-0.1,0.5-0.2,0.7-0.5
					c0-0.2,0-0.6,0-0.8c0.2-0.1,0.5-0.2,0.7-0.5c0-0.2,0-0.6,0-0.8c0.2-0.1,0.5-0.2,0.7-0.5c0.1-0.6,0.2-1.2,0.4-1.6
					c0.2-0.1,0.5-0.2,0.7-0.5c0-0.2,0-0.6,0-0.8c0.2-0.1,0.5-0.2,0.7-0.5c0-0.2,0-0.6,0-0.8c0.4-0.2,0.7-0.6,1.2-0.8
					c0-0.2,0-0.6,0-0.8c0.2-0.1,0.5-0.2,0.7-0.5c0-0.2,0-0.6,0-0.8c0.1,0,0.2,0,0.4,0c0.1-0.5,0.2-0.8,0.4-1.3
					c0.2-0.1,0.5-0.2,0.7-0.5c0-0.2,0-0.6,0-0.8c0.4-0.2,0.7-0.6,1.2-0.8c0-0.2,0-0.6,0-0.8c0.2-0.1,0.5-0.2,0.7-0.5
					c0-0.2,0-0.6,0-0.8c0.4-0.2,0.7-0.6,1.2-0.8c0-0.2,0-0.6,0-0.8c0.4-0.2,0.7-0.6,1.2-0.8c0-0.2,0-0.6,0-0.8
					c0.4-0.2,0.7-0.6,1.2-0.8c0-0.2,0-0.6,0-0.8c0.5-0.5,1.1-0.8,1.5-1.3c0.1-0.5,0.2-0.8,0.4-1.3c0.2-0.1,0.5-0.2,0.7-0.5
					c0-0.2,0-0.6,0-0.8c0.5-0.5,1.1-0.8,1.5-1.3c0-0.2,0-0.6,0-0.8c0.4-0.2,0.7-0.6,1.2-0.8c0-0.1,0-0.2,0-0.5
					c0.2-0.1,0.5-0.2,0.7-0.5c0-0.2,0-0.6,0-0.8c0.7-0.7,1.5-1.4,2.2-2.1c0-0.2,0-0.6,0-0.8c0.9-0.8,1.8-1.6,2.7-2.4
					c0-0.2,0-0.6,0-0.8c1.5-1.5,3.1-3,4.6-4.5c0-0.2,0-0.6,0-0.8c0.6-0.6,1.3-1.2,1.9-1.6c1.2-1.4,2.2-2.8,3.4-4.2
					c0.2,0,0.5,0,0.7,0c1.3-1.5,2.5-3,3.8-4.5c0.7-0.7,1.7-0.9,2.2-1.6c0.4-0.6,0.7-1.2,1.2-1.6c0.2,0,0.5,0,0.7,0
					c0.1-0.2,0.2-0.6,0.4-0.8c0.4-0.2,0.7-0.6,1.2-0.8c0-0.1,0-0.2,0-0.5c0.2,0,0.5,0,0.7,0c0.5-0.7,1.1-1.4,1.5-2.1
					c0.2,0,0.5,0,0.7,0c0.4-0.6,0.7-1.2,1.2-1.6c0.2,0,0.5,0,0.7,0c0.2-0.5,0.5-0.8,0.7-1.3c0.2,0,0.5,0,0.7,0
					c0.2-0.5,0.5-0.8,0.7-1.3c0.2,0,0.5,0,0.7,0c0.2-0.5,0.5-0.8,0.7-1.3c0.2,0,0.5,0,0.7,0c0.1-0.2,0.2-0.6,0.4-0.8
					c0.2,0,0.5,0,0.7,0c0.2-0.5,0.5-0.8,0.7-1.3c0.2,0,0.5,0,0.7,0c0.1-0.2,0.2-0.6,0.4-0.8c0.4-0.1,0.7-0.2,1.2-0.5
					c0-0.1,0-0.2,0-0.5c0.2,0,0.5,0,0.7,0c0.1-0.2,0.2-0.6,0.4-0.8c0.2,0,0.5,0,0.7,0c0.1-0.2,0.2-0.6,0.4-0.8c0.2,0,0.5,0,0.7,0
					c0.1-0.2,0.2-0.6,0.4-0.8c0.2,0,0.5,0,0.7,0c0.1-0.2,0.2-0.6,0.4-0.8c0.6-0.1,1.3-0.2,1.9-0.5c0.1-0.2,0.2-0.6,0.4-0.8
					c0.2,0,0.5,0,0.7,0c0.2-0.5,0.5-0.8,0.7-1.3c0.2,0,0.5,0,0.7,0c0.6-0.8,1.3-1.6,1.9-2.4c0.9-0.9,1.4-0.2,1.9-2.1
					c-1.4-0.1-2.4-0.8-3.4-1.3c-0.5,0-1.1,0-1.5,0c0-0.1,0-0.2,0-0.5c-1.7-0.1-3.3-0.2-5-0.5c0-0.1,0-0.2,0-0.5c-1.4,0-2.8,0-4.1,0
					c0,0.1,0,0.2,0,0.5c-1.4,0-2.8,0-4.1,0c-1.4,0.5-3.1,0.8-5,0.8c0-0.1,0-0.2,0-0.5c0.1,0,0.2,0,0.4,0c0.4-0.6,0.7-1.2,1.2-1.6
					c0.2,0,0.5,0,0.7,0c0.7-0.9,1.5-2,2.2-2.9c0.2,0,0.5,0,0.7,0c0.5-0.7,1.1-1.4,1.5-2.1c0.2,0,0.5,0,0.7,0
					c0.5-0.7,1.1-1.4,1.5-2.1c0.2,0,0.5,0,0.7,0c0.4-0.6,0.7-1.2,1.2-1.6c0.2,0,0.5,0,0.7,0c0.4-0.6,0.7-1.2,1.2-1.6
					c0.2,0,0.5,0,0.7,0c0.4-0.6,0.7-1.2,1.2-1.6c0.2,0,0.5,0,0.7,0c0.2-0.5,0.5-0.8,0.7-1.3c0.2,0,0.5,0,0.7,0
					c0.2-0.5,0.5-0.8,0.7-1.3c0.2,0,0.5,0,0.7,0c0.2-0.5,0.5-0.8,0.7-1.3c0.2,0,0.5,0,0.7,0c0.1-0.2,0.2-0.6,0.4-0.8
					c0.2,0,0.5,0,0.7,0c0.2-0.5,0.5-0.8,0.7-1.3c0.2,0,0.5,0,0.7,0c0.1-0.2,0.2-0.6,0.4-0.8c0.2,0,0.5,0,0.7,0
					c0.1-0.2,0.2-0.6,0.4-0.8c0.2,0,0.5,0,0.7,0c0.2-0.5,0.5-0.8,0.7-1.3c0.2,0,0.5,0,0.7,0c0.1-0.2,0.2-0.6,0.4-0.8
					c0.2,0,0.5,0,0.7,0c0.1-0.2,0.2-0.6,0.4-0.8c0.2,0,0.5,0,0.7,0c0.1-0.2,0.2-0.6,0.4-0.8c0.2,0,0.5,0,0.7,0
					c0.1-0.2,0.2-0.6,0.4-0.8c0.5-0.1,1.1-0.2,1.5-0.5c0.1-0.2,0.2-0.6,0.4-0.8c0.2,0,0.5,0,0.7,0c0.1-0.2,0.2-0.6,0.4-0.8
					c0.2,0,0.5,0,0.7,0c0.1-0.2,0.2-0.6,0.4-0.8c0.5-0.1,1.1-0.2,1.5-0.5c0.1-0.2,0.2-0.6,0.4-0.8c0.5-0.1,1.1-0.2,1.5-0.5
					c0.1-0.2,0.2-0.6,0.4-0.8c0.5-0.1,1.1-0.2,1.5-0.5c0.1-0.2,0.2-0.6,0.4-0.8c0.5-0.1,1.1-0.2,1.5-0.5c0.1-0.2,0.2-0.6,0.4-0.8
					c0.7-0.2,1.5-0.6,2.2-0.8c0.1-0.2,0.2-0.6,0.4-0.8c0.2,0,0.5,0,0.7,0c0-0.1,0-0.2,0-0.5c0.2,0,0.5,0,0.7,0c0-0.1,0-0.2,0-0.5
					c0.2,0,0.5,0,0.7,0c0-0.1,0-0.2,0-0.5c0.2,0,0.5,0,0.7,0c0.1-0.2,0.2-0.6,0.4-0.8c0.7-0.2,1.5-0.6,2.2-0.8c0-0.1,0-0.2,0-0.5
					c0.5-0.1,1.1-0.2,1.5-0.5c0-0.1,0-0.2,0-0.5c0.5-0.1,1.1-0.2,1.5-0.5c0-0.1,0-0.2,0-0.5c0.2,0,0.5,0,0.7,0c0-0.1,0-0.2,0-0.5
					c0.2,0,0.5,0,0.7,0c0-0.1,0-0.2,0-0.5c0.2,0,0.5,0,0.7,0c0-0.1,0-0.2,0-0.5c0.2,0,0.5,0,0.7,0c0-0.1,0-0.2,0-0.5
					c0.2,0,0.5,0,0.7,0c0-0.1,0-0.2,0-0.5c0.7-0.2,1.5-0.6,2.2-0.8c0-0.1,0-0.2,0-0.5c0.2,0,0.5,0,0.7,0c0-0.1,0-0.2,0-0.5
					c0.2,0,0.5,0,0.7,0c0-0.1,0-0.2,0-0.5c0.2,0,0.5,0,0.7,0c0-0.1,0-0.2,0-0.5c0.2,0,0.5,0,0.7,0c0-0.1,0-0.2,0-0.5
					c0.7-0.2,1.5-0.6,2.2-0.8c0-0.1,0-0.2,0-0.5c0.4,0,0.7,0,1.2,0c0-0.1,0-0.2,0-0.5c0.2,0,0.5,0,0.7,0c0-0.1,0-0.2,0-0.5
					c0.7-0.2,1.5-0.6,2.2-0.8c0-0.1,0-0.2,0-0.5c0.4,0,0.7,0,1.2,0c0-0.1,0-0.2,0-0.5c0.5-0.1,1.1-0.2,1.5-0.5c0-0.1,0-0.2,0-0.5
					c0.4,0,0.7,0,1.2,0c0-0.1,0-0.2,0-0.5c0.5-0.1,1.1-0.2,1.5-0.5c0-0.1,0-0.2,0-0.5c0.4,0,0.7,0,1.2,0c0-0.1,0-0.2,0-0.5
					c0.2,0,0.5,0,0.7,0c0-0.1,0-0.2,0-0.5c0.4,0,0.7,0,1.2,0c0-0.1,0-0.2,0-0.5c0.5-0.1,1.1-0.2,1.5-0.5c0-0.1,0-0.2,0-0.5
					c0.4,0,0.7,0,1.2,0c0-0.1,0-0.2,0-0.5c0.2,0,0.5,0,0.7,0c0-0.1,0-0.2,0-0.5c0.7-0.1,1.5-0.2,2.2-0.5c0-0.1,0-0.2,0-0.5
					c0.2,0,0.5,0,0.7,0c0-0.1,0-0.2,0-0.5c0.6-0.1,1.3-0.2,1.9-0.5c0-0.1,0-0.2,0-0.5c0.7-0.1,1.5-0.2,2.2-0.5c0-0.1,0-0.2,0-0.5
					c0.2,0,0.5,0,0.7,0c0-0.1,0-0.2,0-0.5c1.2-0.2,2.2-0.6,3.4-0.8c0-0.1,0-0.2,0-0.5c0.2,0,0.5,0,0.7,0c0-0.1,0-0.2,0-0.5
					c1.2-0.2,2.2-0.6,3.4-0.8c0-0.1,0-0.2,0-0.5c0.4,0,0.7,0,1.2,0c0-0.1,0-0.2,0-0.5c0.4,0,0.7,0,1.2,0c0-0.1,0-0.2,0-0.5
					c0.4,0,0.7,0,1.2,0c0-0.1,0-0.2,0-0.5c0.4,0,0.7,0,1.2,0c0-0.1,0-0.2,0-0.5c0.4,0,0.7,0,1.2,0c0-0.1,0-0.2,0-0.5
					c0.7-0.1,1.5-0.2,2.2-0.5c0-0.1,0-0.2,0-0.5c0.7-0.1,1.5-0.2,2.2-0.5c0-0.1,0-0.2,0-0.5c0.5,0,1.1,0,1.5,0c0-0.1,0-0.2,0-0.5
					c0.4,0,0.7,0,1.2,0c0-0.1,0-0.2,0-0.5c0.4,0,0.7,0,1.2,0c0-0.1,0-0.2,0-0.5c0.5,0,1.1,0,1.5,0c0-0.1,0-0.2,0-0.5
					c0.4,0,0.7,0,1.2,0c0-0.1,0-0.2,0-0.5c1.3-0.2,2.5-0.6,3.8-0.8c0-0.1,0-0.2,0-0.5c0.4,0,0.7,0,1.2,0c0-0.1,0-0.2,0-0.5
					c0.4,0,0.7,0,1.2,0c0-0.1,0-0.2,0-0.5c0.4,0,0.7,0,1.2,0c0-0.1,0-0.2,0-0.5c0.7-0.1,1.5-0.2,2.2-0.5c0-0.1,0-0.2,0-0.5
					c1.3-0.2,2.5-0.6,3.8-0.8c0-0.1,0-0.2,0-0.5c0.2,0,0.5,0,0.7,0c0-0.1,0-0.2,0-0.5c0.4,0,0.7,0,1.2,0c0-0.1,0-0.2,0-0.5
					c0.4,0,0.7,0,1.2,0c0-0.1,0-0.2,0-0.5c0.4,0,0.7,0,1.2,0c0-0.1,0-0.2,0-0.5c0.4,0,0.7,0,1.2,0c0-0.1,0-0.2,0-0.5
					c0.4,0,0.7,0,1.2,0c0-0.1,0-0.2,0-0.5c0.2,0,0.5,0,0.7,0c0-0.1,0-0.2,0-0.5c0.4,0,0.7,0,1.2,0c0-0.1,0-0.2,0-0.5
					c0.2,0,0.5,0,0.7,0c0-0.1,0-0.2,0-0.5c0.6-0.1,1.3-0.2,1.9-0.5c0-0.1,0-0.2,0-0.5c0.4,0,0.7,0,1.2,0c0-0.1,0-0.2,0-0.5
					c0.2,0,0.5,0,0.7,0c0-0.1,0-0.2,0-0.5c0.4,0,0.7,0,1.2,0c0-0.1,0-0.2,0-0.5c0.7-0.2,1.5-0.6,2.2-0.8c0-0.1,0-0.2,0-0.5
					c0.2,0,0.5,0,0.7,0c0-0.1,0-0.2,0-0.5c0.4,0,0.7,0,1.2,0c0-0.1,0-0.2,0-0.5c0.7-0.2,1.5-0.6,2.2-0.8c0-0.1,0-0.2,0-0.5
					c0.2,0,0.5,0,0.7,0c0-0.1,0-0.2,0-0.5c0.5-0.1,1.1-0.2,1.5-0.5c0.1-0.2,0.2-0.6,0.4-0.8c0.7-0.2,1.5-0.6,2.2-0.8
					c0.1-0.2,0.2-0.6,0.4-0.8c0.5-0.1,1.1-0.2,1.5-0.5c0.1-0.2,0.2-0.6,0.4-0.8c0.5-0.1,1.1-0.2,1.5-0.5c0-0.1,0-0.2,0-0.5
					c0.4-0.1,0.7-0.2,1.2-0.5c0.1-0.2,0.2-0.6,0.4-0.8c0.2,0,0.5,0,0.7,0c0.2-0.5,0.5-0.8,0.7-1.3c0.2,0,0.5,0,0.7,0
					c0.1-0.2,0.2-0.6,0.4-0.8c0.4-0.1,0.7-0.2,1.2-0.5c0.4-0.6,0.7-1.2,1.2-1.6c0.2,0,0.5,0,0.7,0c0.6-0.8,1.3-1.6,1.9-2.4
					c0.2,0,0.5,0,0.7,0c1.1-1.3,2-2.4,3.1-3.7c0.5-0.5,1.1-0.8,1.5-1.3c0-0.2,0-0.6,0-0.8c0.7-0.7,1.5-1.4,2.2-2.1
					c0-0.2,0-0.6,0-0.8c0.5-0.5,1.1-0.8,1.5-1.3c0-0.2,0-0.6,0-0.8c0.4-0.2,0.7-0.6,1.2-0.8c0-0.2,0-0.6,0-0.8
					c0.2-0.1,0.5-0.2,0.7-0.5c0.1-0.5,0.2-0.8,0.4-1.3c0.1,0,0.2,0,0.4,0c0-0.2,0-0.6,0-0.8c0.2-0.1,0.5-0.2,0.7-0.5
					c0.1-0.5,0.2-0.8,0.4-1.3c0.1,0,0.2,0,0.4,0c0.1-0.6,0.2-1.2,0.4-1.6c0.2-0.1,0.5-0.2,0.7-0.5c0-0.2,0-0.6,0-0.8
					c0.1,0,0.2,0,0.4,0c0-0.2,0-0.6,0-0.8c0.1,0,0.2,0,0.4,0c0-0.2,0-0.6,0-0.8c0.1,0,0.2,0,0.4,0c0-0.2,0-0.6,0-0.8
					c0.2-0.1,0.5-0.2,0.7-0.5c0-0.2,0-0.6,0-0.8c0.1,0,0.2,0,0.4,0c0-0.2,0-0.6,0-0.8c0.1,0,0.2,0,0.4,0c0-0.5,0-0.8,0-1.3
					c0.1,0,0.2,0,0.4,0c0-0.2,0-0.6,0-0.8c0.1,0,0.2,0,0.4,0c0.2-0.8,0.5-1.6,0.7-2.4c0.1,0,0.2,0,0.4,0c0-0.5,0-0.8,0-1.3
					c0.1,0,0.2,0,0.4,0c0-0.2,0-0.6,0-0.8c0.1,0,0.2,0,0.4,0c0-0.5,0-0.8,0-1.3c0.1,0,0.2,0,0.4,0c0.1-0.6,0.2-1.2,0.4-1.6
					c0.1,0,0.2,0,0.4,0c0-0.2,0-0.6,0-0.8c0.2-0.1,0.5-0.2,0.7-0.5c0.1-0.6,0.2-1.2,0.4-1.6c0.2-0.1,0.5-0.2,0.7-0.5
					c0.1-0.6,0.2-1.2,0.4-1.6c0.4-0.2,0.7-0.6,1.2-0.8c0-0.2,0-0.6,0-0.8c0.2-0.1,0.5-0.2,0.7-0.5c0-0.2,0-0.6,0-0.8
					c0.5-0.5,1.1-0.8,1.5-1.3c0-0.2,0-0.6,0-0.8c0.7-0.7,1.5-1.4,2.2-2.1c0.1-0.5,0.2-0.8,0.4-1.3c1.4-1.4,2.8-2.8,4.1-4.2
					c0.5-0.7,1.1-1.4,1.5-2.1c0.2,0,0.5,0,0.7,0c1.2-1.4,2.2-2.8,3.4-4.2c0.2,0,0.5,0,0.7,0c0.7-0.9,1.5-2,2.2-2.9
					c0.2,0,0.5,0,0.7,0c0.7-0.9,1.5-2,2.2-2.9c0.2,0,0.5,0,0.7,0c0.7-0.9,1.5-2,2.2-2.9c0.2,0,0.5,0,0.7,0c1.1-1.3,2-2.4,3.1-3.7
					c0.2,0,0.5,0,0.7,0c0.5-0.7,1.1-1.4,1.5-2.1c1.1-0.9,2-2,3.1-2.9c0-0.2,0-0.6,0-0.8c0.2-0.1,0.5-0.2,0.7-0.5c0-0.1,0-0.2,0-0.5
					c0.6-0.6,1.3-1.2,1.9-1.6c0-0.2,0-0.6,0-0.8c0.6-0.6,1.3-1.2,1.9-1.6c0-0.2,0-0.6,0-0.8c0.6-0.6,1.3-1.2,1.9-1.6
					c0-0.2,0-0.6,0-0.8c0.5-0.5,1.1-0.8,1.5-1.3c0-0.2,0-0.6,0-0.8c0.5-0.5,1.1-0.8,1.5-1.3c0-0.2,0-0.6,0-0.8
					c0.5-0.5,1.1-0.8,1.5-1.3c0-0.2,0-0.6,0-0.8c0.2-0.1,0.5-0.2,0.7-0.5c0.1-0.5,0.2-0.8,0.4-1.3c0.5-0.5,1.1-0.8,1.5-1.3
					c0-0.2,0-0.6,0-0.8c0.4-0.2,0.7-0.6,1.2-0.8c0.1-0.5,0.2-0.8,0.4-1.3c0.2-0.1,0.5-0.2,0.7-0.5c0-0.2,0-0.6,0-0.8
					c0.2-0.1,0.5-0.2,0.7-0.5c0-0.2,0-0.6,0-0.8c0.4-0.2,0.7-0.6,1.2-0.8c0-0.2,0-0.6,0-0.8c0.2-0.1,0.5-0.2,0.7-0.5
					c0-0.2,0-0.6,0-0.8c0.4-0.2,0.7-0.6,1.2-0.8c0-0.2,0-0.6,0-0.8c0.2-0.1,0.5-0.2,0.7-0.5c0.1-0.5,0.2-0.8,0.4-1.3
					c0.1,0,0.2,0,0.4,0c0-0.2,0-0.6,0-0.8c0.2-0.1,0.5-0.2,0.7-0.5c0-0.2,0-0.6,0-0.8c0.2-0.1,0.5-0.2,0.7-0.5c0-0.2,0-0.6,0-0.8
					c0.1,0,0.2,0,0.4,0c0.1-0.5,0.2-0.8,0.4-1.3c0.2-0.1,0.5-0.2,0.7-0.5c0-0.2,0-0.6,0-0.8c0.2-0.1,0.5-0.2,0.7-0.5
					c0.1-0.5,0.2-0.8,0.4-1.3c0.1,0,0.2,0,0.4,0c0.1-0.6,0.2-1.2,0.4-1.6c0.2-0.1,0.5-0.2,0.7-0.5c0.1-0.6,0.2-1.2,0.4-1.6
					c0.2-0.1,0.5-0.2,0.7-0.5c0.1-0.6,0.2-1.2,0.4-1.6c0.2-0.1,0.5-0.2,0.7-0.5c0.1-0.6,0.2-1.2,0.4-1.6c0.2-0.1,0.5-0.2,0.7-0.5
					c0-0.2,0-0.6,0-0.8c0.1,0,0.2,0,0.4,0c0-0.2,0-0.6,0-0.8c0.1,0,0.2,0,0.4,0c0-0.2,0-0.6,0-0.8c0.1,0,0.2,0,0.4,0
					c0-0.2,0-0.6,0-0.8c0.2-0.1,0.5-0.2,0.7-0.5c0-0.2,0-0.6,0-0.8c0.1,0,0.2,0,0.4,0c0-0.2,0-0.6,0-0.8c0.1,0,0.2,0,0.4,0
					c0-0.2,0-0.6,0-0.8c0.1,0,0.2,0,0.4,0c0-0.2,0-0.6,0-0.8c0.1,0,0.2,0,0.4,0c0-0.2,0-0.6,0-0.8c0.1,0,0.2,0,0.4,0
					c0-0.2,0-0.6,0-0.8c0.1,0,0.2,0,0.4,0c0-0.2,0-0.6,0-0.8c0.1,0,0.2,0,0.4,0c0-0.2,0-0.6,0-0.8c0.2-0.1,0.5-0.2,0.7-0.5
					c0.2-0.9,0.5-2,0.7-2.9c0.1,0,0.2,0,0.4,0c0-0.2,0-0.6,0-0.8c0.1,0,0.2,0,0.4,0c0-0.2,0-0.6,0-0.8c0.1,0,0.2,0,0.4,0
					c0-0.2,0-0.6,0-0.8c0.1,0,0.2,0,0.4,0c0.2-0.8,0.5-1.6,0.7-2.4c0.1,0,0.2,0,0.4,0c0-0.5,0-0.8,0-1.3c0.1,0,0.2,0,0.4,0
					c0.1-0.6,0.2-1.2,0.4-1.6c0.1,0,0.2,0,0.4,0c0-0.5,0-0.8,0-1.3c0.1,0,0.2,0,0.4,0c0.1-0.6,0.2-1.2,0.4-1.6c0.1,0,0.2,0,0.4,0
					c1.7-3.9,1.2-11.4,6.2-11.6c0.8-0.8,2.1-0.1,3.4,0c0.6,1,1.1,0.6,1.5,1.3c0,0.2,0,0.6,0,0.8c0.2,0.1,0.5,0.2,0.7,0.5
					c0,0.2,0,0.6,0,0.8c0.1,0,0.2,0,0.4,0c0,0.2,0,0.6,0,0.8c0.1,0,0.2,0,0.4,0c0,0.2,0,0.6,0,0.8c0.1,0,0.2,0,0.4,0
					c0,0.2,0,0.6,0,0.8c0.2,0.1,0.5,0.2,0.7,0.5c0,0.2,0,0.6,0,0.8c0.4,0.2,0.7,0.6,1.2,0.8c0,0.2,0,0.6,0,0.8
					c0.2,0.1,0.5,0.2,0.7,0.5c0.1,0.6,0.2,1.2,0.4,1.6c0.2,0.1,0.5,0.2,0.7,0.5c0.2,0.8,0.5,1.6,0.7,2.4c0.2,0.1,0.5,0.2,0.7,0.5
					c0,0.2,0,0.6,0,0.8c0.1,0,0.2,0,0.4,0c0,0.2,0,0.6,0,0.8c0.1,0,0.2,0,0.4,0c0,0.5,0,0.8,0,1.3c0.1,0,0.2,0,0.4,0
					c0.1,0.6,0.2,1.2,0.4,1.6c0.1,0,0.2,0,0.4,0c0.1,0.7,0.2,1.4,0.4,2.1c0.1,0,0.2,0,0.4,0c1.1,4.1,2,8,3.1,12.1
					c0.1,1.7,0.2,3.6,0.4,5.3c0.1,0,0.2,0,0.4,0c0,1.3,0,2.4,0,3.7c0.1,0,0.2,0,0.4,0c0.1,5.1,0.2,10.2,0.4,15.3
					c0,3.7-0.4,8.6,0.4,11.6c0,5.2,0,10.6,0,15.8c-0.1,0.7-0.7,2.9-0.4,4.2c0.1,0,0.2,0,0.4,0c0,0.5,0,0.8,0,1.3c0.1,0,0.2,0,0.4,0
					c0,0.2,0,0.6,0,0.8c0.1,0,0.2,0,0.4,0c0,0.2,0,0.6,0,0.8c0.2,0.1,0.5,0.2,0.7,0.5c0.8,1.3,0.7,2.1,2.2,2.4c0,0.1,0,0.2,0,0.5
					c0.1,0,0.2,0,0.4,0c0.1-0.5,0.2-0.8,0.4-1.3c0.1,0,0.2,0,0.4,0c0-0.2,0-0.6,0-0.8c0.2-0.1,0.5-0.2,0.7-0.5c0-0.2,0-0.6,0-0.8
					c0.2-0.1,0.5-0.2,0.7-0.5c0-0.2,0-0.6,0-0.8c0.2-0.1,0.5-0.2,0.7-0.5c0.1-0.6,0.2-1.2,0.4-1.6c0.1,0,0.2,0,0.4,0
					c0.1-0.5,0.2-0.8,0.4-1.3c0.2-0.1,0.5-0.2,0.7-0.5c0.1-0.6,0.2-1.2,0.4-1.6c0.2-0.1,0.5-0.2,0.7-0.5c0.1-0.6,0.2-1.2,0.4-1.6
					c0.2-0.1,0.5-0.2,0.7-0.5c0.2-0.8,0.5-1.6,0.7-2.4c0.2-0.1,0.5-0.2,0.7-0.5c0.2-0.8,0.5-1.6,0.7-2.4c0.2-0.1,0.5-0.2,0.7-0.5
					c0-0.2,0-0.6,0-0.8c0.1,0,0.2,0,0.4,0c0-0.2,0-0.6,0-0.8c0.1,0,0.2,0,0.4,0c0-0.2,0-0.6,0-0.8c0.1,0,0.2,0,0.4,0
					c0-0.2,0-0.6,0-0.8c0.1,0,0.2,0,0.4,0c0-0.2,0-0.6,0-0.8c0.1,0,0.2,0,0.4,0c0-0.2,0-0.6,0-0.8c0.1,0,0.2,0,0.4,0
					c0-0.2,0-0.6,0-0.8c0.1,0,0.2,0,0.4,0c0-0.2,0-0.6,0-0.8c0.2-0.1,0.5-0.2,0.7-0.5c0-0.2,0-0.6,0-0.8c0.1,0,0.2,0,0.4,0
					c0-0.2,0-0.6,0-0.8c0.1,0,0.2,0,0.4,0c0-0.5,0-0.8,0-1.3c0.1,0,0.2,0,0.4,0c0.1-0.6,0.2-1.2,0.4-1.6c0.1,0,0.2,0,0.4,0
					c0-0.2,0-0.6,0-0.8c0.1,0,0.2,0,0.4,0c0-0.2,0-0.6,0-0.8c0.1,0,0.2,0,0.4,0c0.2-0.8,0.5-1.6,0.7-2.4c0.1,0,0.2,0,0.4,0
					c0-0.5,0-0.8,0-1.3c0.1,0,0.2,0,0.4,0c0.1-0.6,0.2-1.2,0.4-1.6c0.1,0,0.2,0,0.4,0c0-0.5,0-0.8,0-1.3c0.1,0,0.2,0,0.4,0
					c0.1-0.6,0.2-1.2,0.4-1.6c0.1,0,0.2,0,0.4,0c0-0.5,0-0.8,0-1.3c0.1,0,0.2,0,0.4,0c0-0.2,0-0.6,0-0.8c0.1,0,0.2,0,0.4,0
					c0-0.5,0-0.8,0-1.3c0.1,0,0.2,0,0.4,0c0-0.2,0-0.6,0-0.8c0.1,0,0.2,0,0.4,0c0.1-0.8,0.2-1.6,0.4-2.4c0.1,0,0.2,0,0.4,0
					c0-0.2,0-0.6,0-0.8c0.1,0,0.2,0,0.4,0c0.2-1.3,0.5-2.4,0.7-3.7c0.1,0,0.2,0,0.4,0c0-0.5,0-0.8,0-1.3c0.1,0,0.2,0,0.4,0
					c0-0.5,0-0.8,0-1.3c0.1,0,0.2,0,0.4,0c0-0.5,0-0.8,0-1.3c0.1,0,0.2,0,0.4,0c0-0.5,0-0.8,0-1.3c0.1,0,0.2,0,0.4,0
					c0-0.5,0-0.8,0-1.3c0.1,0,0.2,0,0.4,0c0-0.5,0-0.8,0-1.3c0.1,0,0.2,0,0.4,0c0-0.6,0-1.2,0-1.6c0.1,0,0.2,0,0.4,0
					c0-0.5,0-0.8,0-1.3c0.1,0,0.2,0,0.4,0c0-0.6,0-1.2,0-1.6c0.1,0,0.2,0,0.4,0C-1207.5,4077.1-1206.5,4072-1205.5,4066.9
					L-1205.5,4066.9z"/>
				<path id="path6825" inkscape:connector-curvature="0" class="st0" d="M-1322.4,4233.6c1.3-0.2,1.9-0.9,2.7-1.6
					c0-0.1,0-0.2,0-0.5c0.4-0.1,0.7-0.2,1.2-0.5c0.2-0.5,0.5-0.8,0.7-1.3c0.2,0,0.5,0,0.7,0c0.4-0.6,0.7-1.2,1.2-1.6
					c0.2,0,0.5,0,0.7,0c0.4-0.6,0.7-1.2,1.2-1.6c0.2,0,0.5,0,0.7,0c0.4-0.6,0.7-1.2,1.2-1.6c0.2,0,0.5,0,0.7,0
					c0.2-0.5,0.5-0.8,0.7-1.3c0.2,0,0.5,0,0.7,0c0.2-0.5,0.5-0.8,0.7-1.3c0.2,0,0.5,0,0.7,0c0.1-0.2,0.2-0.6,0.4-0.8
					c0.2,0,0.5,0,0.7,0c0.2-0.5,0.5-0.8,0.7-1.3c0.2,0,0.5,0,0.7,0c0.1-0.2,0.2-0.6,0.4-0.8c0.2,0,0.5,0,0.7,0
					c0.1-0.2,0.2-0.6,0.4-0.8c0.2,0,0.5,0,0.7,0c0.1-0.2,0.2-0.6,0.4-0.8c0.2,0,0.5,0,0.7,0c0.1-0.2,0.2-0.6,0.4-0.8
					c0.5-0.1,1.1-0.2,1.5-0.5c0.1-0.2,0.2-0.6,0.4-0.8c0.5-0.1,1.1-0.2,1.5-0.5c0.1-0.2,0.2-0.6,0.4-0.8c0.2,0,0.5,0,0.7,0
					c0-0.1,0-0.2,0-0.5c0.2,0,0.5,0,0.7,0c0-0.1,0-0.2,0-0.5c0.2,0,0.5,0,0.7,0c0-0.1,0-0.2,0-0.5c0.2,0,0.5,0,0.7,0
					c0-0.1,0-0.2,0-0.5c0.2,0,0.5,0,0.7,0c0-0.1,0-0.2,0-0.5c0.2,0,0.5,0,0.7,0c0-0.1,0-0.2,0-0.5c0.2,0,0.5,0,0.7,0
					c0-0.1,0-0.2,0-0.5c0.7-0.2,1.5-0.6,2.2-0.8c0-0.1,0-0.2,0-0.5c0.4,0,0.7,0,1.2,0c0-0.1,0-0.2,0-0.5c0.2,0,0.5,0,0.7,0
					c0-0.1,0-0.2,0-0.5c0.7-0.1,1.5-0.2,2.2-0.5c0-0.1,0-0.2,0-0.5c3.8-0.9,7.6-2,11.5-2.9c0.6-1.6,1.3-3.4,1.9-5c0-0.5,0-0.8,0-1.3
					c0.1,0,0.2,0,0.4,0c0-0.5,0-0.8,0-1.3c0.1,0,0.2,0,0.4,0c0.1-1.2,0.2-2.2,0.4-3.4c0.8-2.6,1.5-5.8,2.2-8.2
					c0.2-1.7,0.5-3.6,0.7-5.3c1.2-4.2,1.9-9.4,3.1-13.7c0.1-1.6,0.2-3.4,0.4-5c0.9-3.4,0.9-8.1,1.9-11.6c0-1.3,0-2.4,0-3.7
					c0.6-2.1,0.7-5.2,0.7-7.9c0-1.5,0-3,0-4.5c0.1,0,0.2,0,0.4,0c0.5-1.9,0-9.9-0.4-11.1c0-2.4,0-5,0-7.4c-0.1,0-0.2,0-0.4,0
					c0-1.4,0-2.8,0-4.2c-0.1,0-0.2,0-0.4,0c0-1.2,0-2.2,0-3.4c-0.5-2.9-1.1-5.8-1.5-8.7c-0.5,0.3,0,0-0.4,0.5c-0.1,0-0.2,0-0.4,0
					c0,0.5,0,0.8,0,1.3c-0.1,0-0.2,0-0.4,0c0,0.2,0,0.6,0,0.8c-0.1,0-0.2,0-0.4,0c0,0.2,0,0.6,0,0.8c-0.1,0-0.2,0-0.4,0
					c-0.1,0.6-0.2,1.2-0.4,1.6c-0.1,0-0.2,0-0.4,0c-0.1,0.6-0.2,1.2-0.4,1.6c-0.1,0-0.2,0-0.4,0c0,0.2,0,0.6,0,0.8
					c-0.1,0-0.2,0-0.4,0c0,0.2,0,0.6,0,0.8c-0.1,0-0.2,0-0.4,0c0,0.2,0,0.6,0,0.8c-0.1,0-0.2,0-0.4,0c0,0.2,0,0.6,0,0.8
					c-0.1,0-0.2,0-0.4,0c0,0.2,0,0.6,0,0.8c-0.1,0-0.2,0-0.4,0c0,0.2,0,0.6,0,0.8c-0.1,0-0.2,0-0.4,0c0,0.2,0,0.6,0,0.8
					c-0.1,0-0.2,0-0.4,0c0,0.2,0,0.6,0,0.8c-0.2,0.1-0.5,0.2-0.7,0.5c0,0.2,0,0.6,0,0.8c-0.1,0-0.2,0-0.4,0c0,0.2,0,0.6,0,0.8
					c-0.1,0-0.2,0-0.4,0c0,0.2,0,0.6,0,0.8c-0.1,0-0.2,0-0.4,0c0,0.2,0,0.6,0,0.8c-0.2,0.1-0.5,0.2-0.7,0.5
					c-0.2,0.8-0.5,1.6-0.7,2.4c-0.2,0.1-0.5,0.2-0.7,0.5c-0.1,0.6-0.2,1.2-0.4,1.6c-0.2,0.1-0.5,0.2-0.7,0.5
					c-0.1,0.6-0.2,1.2-0.4,1.6c-0.2,0.1-0.5,0.2-0.7,0.5c-0.1,0.6-0.2,1.2-0.4,1.6c-0.1,0-0.2,0-0.4,0c-0.1,0.5-0.2,0.8-0.4,1.3
					c-0.2,0.1-0.5,0.2-0.7,0.5c-0.1,0.6-0.2,1.2-0.4,1.6c-0.2,0.1-0.5,0.2-0.7,0.5c0,0.2,0,0.6,0,0.8c-0.2,0.1-0.5,0.2-0.7,0.5
					c0,0.2,0,0.6,0,0.8c-0.2,0.1-0.5,0.2-0.7,0.5c-0.1,0.6-0.2,1.2-0.4,1.6c-0.1,0-0.2,0-0.4,0c-0.1,0.5-0.2,0.8-0.4,1.3
					c-0.2,0.1-0.5,0.2-0.7,0.5c0,0.2,0,0.6,0,0.8c-0.2,0.1-0.5,0.2-0.7,0.5c0,0.2,0,0.6,0,0.8c-0.2,0.1-0.5,0.2-0.7,0.5
					c-0.1,0.5-0.2,0.8-0.4,1.3c-0.1,0-0.2,0-0.4,0c-0.1,0.6-0.2,1.2-0.4,1.6c-0.2,0.1-0.5,0.2-0.7,0.5c0,0.2,0,0.6,0,0.8
					c-0.2,0.1-0.5,0.2-0.7,0.5c0,0.2,0,0.6,0,0.8c-0.2,0.1-0.5,0.2-0.7,0.5c0,0.2,0,0.6,0,0.8c-0.1,0-0.2,0-0.4,0
					c-0.1,0.5-0.2,0.8-0.4,1.3c-0.2,0.1-0.5,0.2-0.7,0.5c0,0.2,0,0.6,0,0.8c-0.2,0.1-0.5,0.2-0.7,0.5c-0.1,0.5-0.2,0.8-0.4,1.3
					c-0.1,0-0.2,0-0.4,0c-0.1,0.6-0.2,1.2-0.4,1.6c-0.2,0.1-0.5,0.2-0.7,0.5c0,0.2,0,0.6,0,0.8c-0.2,0.1-0.5,0.2-0.7,0.5
					c0,0.2,0,0.6,0,0.8c-0.2,0.1-0.5,0.2-0.7,0.5c0,0.2,0,0.6,0,0.8c-0.2,0.1-0.5,0.2-0.7,0.5c-0.1,0.6-0.2,1.2-0.4,1.6
					c-0.1,0-0.2,0-0.4,0c-0.1,0.5-0.2,0.8-0.4,1.3c-0.2,0.1-0.5,0.2-0.7,0.5c-0.1,0.6-0.2,1.2-0.4,1.6c-0.1,0-0.2,0-0.4,0
					c-0.1,0.5-0.2,0.8-0.4,1.3c-0.2,0.1-0.5,0.2-0.7,0.5c-0.1,0.6-0.2,1.2-0.4,1.6c-0.2,0.1-0.5,0.2-0.7,0.5
					c-0.1,0.6-0.2,1.2-0.4,1.6c-0.2,0.1-0.5,0.2-0.7,0.5c-0.1,0.6-0.2,1.2-0.4,1.6c-0.2,0.1-0.5,0.2-0.7,0.5
					c-0.1,0.6-0.2,1.2-0.4,1.6c-0.2,0.1-0.5,0.2-0.7,0.5c0,0.2,0,0.6,0,0.8c-0.1,0-0.2,0-0.4,0c0,0.2,0,0.6,0,0.8
					c-0.1,0-0.2,0-0.4,0c0,0.2,0,0.6,0,0.8c-0.1,0-0.2,0-0.4,0c0,0.2,0,0.6,0,0.8c-5.2,9-9.3,19.7-12.9,30.6c0,0.6,0,1.2,0,1.6
					c-0.1,0-0.2,0-0.4,0c0,0.5,0,0.8,0,1.3c-0.1,0-0.2,0-0.4,0c0,0.6,0,1.2,0,1.6c-0.1,0-0.2,0-0.4,0c0,0.6,0,1.2,0,1.6
					c-0.1,0-0.2,0-0.4,0c0,0.6,0,1.2,0,1.6c-0.1,0-0.2,0-0.4,0c0,0.6,0,1.2,0,1.6c-0.1,0-0.2,0-0.4,0c0,0.7,0,1.4,0,2.1
					c-0.1,0-0.2,0-0.4,0c0,0.7,0,1.4,0,2.1c-0.1,0-0.2,0-0.4,0c0,0.8,0,1.6,0,2.4c-0.1,0-0.2,0-0.4,0c0,0.9,0,2,0,2.9
					c-0.1,0-0.2,0-0.4,0C-1322,4226.4-1322.2,4230-1322.4,4233.6L-1322.4,4233.6z"/>
				<path id="path6827" inkscape:connector-curvature="0" class="st0" d="M-1071,4340.4c-2,0.2-4,1-5.7,1.6c-0.6,0-1.3,0-1.9,0
					c0,0.1,0,0.2,0,0.5c-0.7,0-1.5,0-2.2,0c0,0.1,0,0.2,0,0.5c-0.9,0-1.8,0-2.7,0c0,0.1,0,0.2,0,0.5c-1.9,0-3.8,0-5.7,0
					c-5.9,0-10.3-0.5-14.4-2.1c-0.5,0-1.1,0-1.5,0c0-0.1,0-0.2,0-0.5c-0.4,0-0.7,0-1.2,0c0-0.1,0-0.2,0-0.5c-0.4,0-0.7,0-1.2,0
					c0-0.1,0-0.2,0-0.5c-0.4,0-0.7,0-1.2,0c0-0.1,0-0.2,0-0.5c-0.2,0-0.5,0-0.7,0c0-0.1,0-0.2,0-0.5c-0.4,0-0.7,0-1.2,0
					c0-0.1,0-0.2,0-0.5c-0.7-0.2-1.5-0.6-2.2-0.8c0-0.1,0-0.2,0-0.5c-0.2,0-0.5,0-0.7,0c0-0.1,0-0.2,0-0.5c-0.2,0-0.5,0-0.7,0
					c0-0.1,0-0.2,0-0.5c-0.2,0-0.5,0-0.7,0c0-0.1,0-0.2,0-0.5c-0.2,0-0.5,0-0.7,0c0-0.1,0-0.2,0-0.5c-0.2,0-0.5,0-0.7,0
					c0-0.1,0-0.2,0-0.5c-0.2,0-0.5,0-0.7,0c-0.1-0.2-0.2-0.6-0.4-0.8c-0.5-0.1-1.1-0.2-1.5-0.5c-0.1-0.2-0.2-0.6-0.4-0.8
					c-0.2,0-0.5,0-0.7,0c-0.1-0.2-0.2-0.6-0.4-0.8c-0.2,0-0.5,0-0.7,0c-0.2-0.5-0.5-0.8-0.7-1.3c-0.2,0-0.5,0-0.7,0
					c-0.2-0.5-0.5-0.8-0.7-1.3c-0.2,0-0.5,0-0.7,0c-0.2-0.5-0.5-0.8-0.7-1.3c-0.2,0-0.5,0-0.7,0c-0.5-0.7-1.1-1.4-1.5-2.1
					c-0.2,0-0.5,0-0.7,0c-1.2-1.4-2.2-2.8-3.4-4.2c-1.7-1.6-3.3-3.4-5-5c0-0.2,0-0.6,0-0.8c-0.7-0.7-1.5-1.4-2.2-2.1
					c0-0.2,0-0.6,0-0.8c-0.5-0.5-1.1-0.8-1.5-1.3c0-0.2,0-0.6,0-0.8c-0.5-0.5-1.1-0.8-1.5-1.3c0-0.2,0-0.6,0-0.8
					c-0.4-0.2-0.7-0.6-1.2-0.8c0-0.2,0-0.6,0-0.8c-0.1,0-0.2,0-0.4,0c-0.2-0.5-0.5-0.8-0.7-1.3c2.1-0.2,4-1,5.7-1.6
					c0.7,0,1.5,0,2.2,0c0-0.1,0-0.2,0-0.5c0.7,0,1.5,0,2.2,0c0-0.1,0-0.2,0-0.5c1.2,0,2.2,0,3.4,0c0-0.1,0-0.2,0-0.5
					c1.5,0,3.1,0,4.6,0c4.1,0,7.9,0.2,11,1.3c0.6,0,1.3,0,1.9,0c0,0.1,0,0.2,0,0.5c1.1,0.1,2,0.2,3.1,0.5c0,0.1,0,0.2,0,0.5
					c0.4,0,0.7,0,1.2,0c0,0.1,0,0.2,0,0.5c0.4,0,0.7,0,1.2,0c0,0.1,0,0.2,0,0.5c0.4,0,0.7,0,1.2,0c0,0.1,0,0.2,0,0.5
					c0.4,0,0.7,0,1.2,0c0,0.1,0,0.2,0,0.5c0.2,0,0.5,0,0.7,0c0,0.1,0,0.2,0,0.5c0.4,0,0.7,0,1.2,0c0,0.1,0,0.2,0,0.5
					c0.7,0.2,1.5,0.6,2.2,0.8c0,0.1,0,0.2,0,0.5c0.2,0,0.5,0,0.7,0c0,0.1,0,0.2,0,0.5c0.2,0,0.5,0,0.7,0c0,0.1,0,0.2,0,0.5
					c0.7,0.2,1.5,0.6,2.2,0.8c0.1,0.2,0.2,0.6,0.4,0.8c0.5,0.1,1.1,0.2,1.5,0.5c0.1,0.2,0.2,0.6,0.4,0.8c0.2,0,0.5,0,0.7,0
					c0.1,0.2,0.2,0.6,0.4,0.8c0.2,0,0.5,0,0.7,0c0.1,0.2,0.2,0.6,0.4,0.8c0.2,0,0.5,0,0.7,0c0.1,0.2,0.2,0.6,0.4,0.8
					c0.2,0,0.5,0,0.7,0c0.2,0.5,0.5,0.8,0.7,1.3c0.2,0,0.5,0,0.7,0c0.2,0.5,0.5,0.8,0.7,1.3c0.4,0.1,0.7,0.2,1.2,0.5
					c0.7,0.9,1.5,2,2.2,2.9c0.2,0,0.5,0,0.7,0c1.2,1.4,2.2,2.8,3.4,4.2c0.6,0.6,1.3,1.2,1.9,1.6c0,0.2,0,0.6,0,0.8
					c0.9,0.8,1.8,1.6,2.7,2.4c0,0.2,0,0.6,0,0.8c0.6,0.6,1.3,1.2,1.9,1.6c0,0.2,0,0.6,0,0.8c0.5,0.5,1.1,0.8,1.5,1.3
					c0,0.2,0,0.6,0,0.8c0.4,0.2,0.7,0.6,1.2,0.8C-1071.6,4338.4-1071.2,4339.3-1071,4340.4z"/>
				<path id="path6829" inkscape:connector-curvature="0" class="st0" d="M-1132.8,4751.8c0.2,1,0.4,0.9,0.7,1.6
					c-1.3,0.5-2.5,0.8-3.8,1.3c0,0.1,0,0.2,0,0.5c-0.2,0-0.5,0-0.7,0c0,0.1,0,0.2,0,0.5c-1.2,0.2-2.2,0.6-3.4,0.8c0,0.1,0,0.2,0,0.5
					c-3.8,0.8-7.6,1.6-11.5,2.4c-1.8,0-3.5,0-5.3,0c0,0.1,0,0.2,0,0.5c-2.1,0-4.3,0-6.5,0c0-0.1,0-0.2,0-0.5c-1.9,0-3.8,0-5.7,0
					c0-0.1,0-0.2,0-0.5c-3.1-0.2-6.2-0.6-9.1-0.8c0-0.1,0-0.2,0-0.5c-1.5-0.1-3.1-0.2-4.6-0.5c-5.1-1.6-11.4-2-16.3-3.7
					c-3.7-0.7-7.3-1.4-11-2.1c-8-2.8-16.8-4.6-24.4-7.9c-0.4,0-0.7,0-1.2,0c0-0.1,0-0.2,0-0.5c-0.4,0-0.7,0-1.2,0c0-0.1,0-0.2,0-0.5
					c-0.4,0-0.7,0-1.2,0c0-0.1,0-0.2,0-0.5c-0.4,0-0.7,0-1.2,0c0-0.1,0-0.2,0-0.5c-0.4,0-0.7,0-1.2,0c0-0.1,0-0.2,0-0.5
					c-0.2,0-0.5,0-0.7,0c0-0.1,0-0.2,0-0.5c-0.7-0.1-1.5-0.2-2.2-0.5c0-0.1,0-0.2,0-0.5c-0.2,0-0.5,0-0.7,0c0-0.1,0-0.2,0-0.5
					c-0.7-0.1-1.5-0.2-2.2-0.5c0-0.1,0-0.2,0-0.5c-0.2,0-0.5,0-0.7,0c0-0.1,0-0.2,0-0.5c-0.4,0-0.7,0-1.2,0c0-0.1,0-0.2,0-0.5
					c-0.2,0-0.5,0-0.7,0c0-0.1,0-0.2,0-0.5c-0.6-0.1-1.3-0.2-1.9-0.5c0-0.1,0-0.2,0-0.5c-0.4,0-0.7,0-1.2,0c0-0.1,0-0.2,0-0.5
					c-0.2,0-0.5,0-0.7,0c0-0.1,0-0.2,0-0.5c-0.4,0-0.7,0-1.2,0c0-0.1,0-0.2,0-0.5c-0.2,0-0.5,0-0.7,0c0-0.1,0-0.2,0-0.5
					c-0.2,0-0.5,0-0.7,0c0-0.1,0-0.2,0-0.5c-0.2,0-0.5,0-0.7,0c0-0.1,0-0.2,0-0.5c-0.4,0-0.7,0-1.2,0c0-0.1,0-0.2,0-0.5
					c-0.2,0-0.5,0-0.7,0c0-0.1,0-0.2,0-0.5c-0.5-0.1-1.1-0.2-1.5-0.5c0-0.1,0-0.2,0-0.5c-0.4,0-0.7,0-1.2,0c0-0.1,0-0.2,0-0.5
					c-0.2,0-0.5,0-0.7,0c0-0.1,0-0.2,0-0.5c-0.5-0.1-1.1-0.2-1.5-0.5c0-0.1,0-0.2,0-0.5c-0.5-0.1-1.1-0.2-1.5-0.5c0-0.1,0-0.2,0-0.5
					c-0.2,0-0.5,0-0.7,0c0-0.1,0-0.2,0-0.5c-0.2,0-0.5,0-0.7,0c0-0.1,0-0.2,0-0.5c-0.2,0-0.5,0-0.7,0c0-0.1,0-0.2,0-0.5
					c-0.2,0-0.5,0-0.7,0c0-0.1,0-0.2,0-0.5c-0.2,0-0.5,0-0.7,0c0-0.1,0-0.2,0-0.5c-0.2,0-0.5,0-0.7,0c0-0.1,0-0.2,0-0.5
					c-0.2,0-0.5,0-0.7,0c0-0.1,0-0.2,0-0.5c-0.2,0-0.5,0-0.7,0c0-0.1,0-0.2,0-0.5c-0.2,0-0.5,0-0.7,0c0-0.1,0-0.2,0-0.5
					c-0.2,0-0.5,0-0.7,0c0-0.1,0-0.2,0-0.5c-0.2,0-0.5,0-0.7,0c0-0.1,0-0.2,0-0.5c-0.2,0-0.5,0-0.7,0c-0.1-0.2-0.2-0.6-0.4-0.8
					c-0.2,0-0.5,0-0.7,0c0-0.1,0-0.2,0-0.5c-0.2,0-0.5,0-0.7,0c0-0.1,0-0.2,0-0.5c-0.2,0-0.5,0-0.7,0c0-0.1,0-0.2,0-0.5
					c-0.2,0-0.5,0-0.7,0c-0.1-0.2-0.2-0.6-0.4-0.8c-0.7-0.2-1.5-0.6-2.2-0.8c-0.1-0.2-0.2-0.6-0.4-0.8c-0.5-0.1-1.1-0.2-1.5-0.5
					c-0.1-0.2-0.2-0.6-0.4-0.8c-0.5-0.1-1.1-0.2-1.5-0.5c-0.1-0.2-0.2-0.6-0.4-0.8c-0.5-0.1-1.1-0.2-1.5-0.5
					c-0.1-0.2-0.2-0.6-0.4-0.8c-0.2,0-0.5,0-0.7,0c-0.1-0.2-0.2-0.6-0.4-0.8c-0.2,0-0.5,0-0.7,0c-0.1-0.2-0.2-0.6-0.4-0.8
					c-0.5-0.1-1.1-0.2-1.5-0.5c0-0.1,0-0.2,0-0.5c-0.4-0.1-0.7-0.2-1.2-0.5c-0.1-0.2-0.2-0.6-0.4-0.8c-0.2,0-0.5,0-0.7,0
					c-0.1-0.2-0.2-0.6-0.4-0.8c-0.2,0-0.5,0-0.7,0c-0.2-0.5-0.5-0.8-0.7-1.3c-0.2,0-0.5,0-0.7,0c-0.1-0.2-0.2-0.6-0.4-0.8
					c-0.2,0-0.5,0-0.7,0c-0.2-0.5-0.5-0.8-0.7-1.3c-0.2,0-0.5,0-0.7,0c-0.4-0.6-0.7-1.2-1.2-1.6c-0.2,0-0.5,0-0.7,0
					c-0.4-0.6-0.7-1.2-1.2-1.6c-0.2,0-0.5,0-0.7,0c-0.5-0.7-1.1-1.4-1.5-2.1c-0.2,0-0.5,0-0.7,0c-0.9-1.2-1.8-2.2-2.7-3.4
					c-0.2,0-0.5,0-0.7,0c-1.1-1.3-2-2.4-3.1-3.7c-0.5-0.5-1.1-0.8-1.5-1.3c0-0.2,0-0.6,0-0.8c-1.1-0.9-2-2-3.1-2.9
					c0-0.2,0-0.6,0-0.8c-0.2-0.1-0.5-0.2-0.7-0.5c0-0.1,0-0.2,0-0.5c-0.4-0.2-0.7-0.6-1.2-0.8c0-0.2,0-0.6,0-0.8
					c-0.4-0.2-0.7-0.6-1.2-0.8c-0.1-0.5-0.2-0.8-0.4-1.3c-0.2-0.1-0.5-0.2-0.7-0.5c0-0.2,0-0.6,0-0.8c-0.2-0.1-0.5-0.2-0.7-0.5
					c-0.1-0.5-0.2-0.8-0.4-1.3c-0.1,0-0.2,0-0.4,0c0-0.2,0-0.6,0-0.8c-0.2-0.1-0.5-0.2-0.7-0.5c0-0.2,0-0.6,0-0.8
					c-0.2-0.1-0.5-0.2-0.7-0.5c-0.1-0.6-0.2-1.2-0.4-1.6c-0.2-0.1-0.5-0.2-0.7-0.5c-0.2-0.8-0.5-1.6-0.7-2.4
					c-0.2-0.1-0.5-0.2-0.7-0.5c-0.4-1.3-0.7-2.4-1.2-3.7c-0.1,0-0.2,0-0.4,0c0-0.2,0-0.6,0-0.8c-0.1,0-0.2,0-0.4,0
					c-0.1-0.6-0.2-1.2-0.4-1.6c-0.1,0-0.2,0-0.4,0c-0.1-0.8-0.2-1.6-0.4-2.4c-0.1,0-0.2,0-0.4,0c0-0.2,0-0.6,0-0.8
					c-0.1,0-0.2,0-0.4,0c0-0.5,0-0.8,0-1.3c-0.1,0-0.2,0-0.4,0c0-0.5,0-0.8,0-1.3c-0.1,0-0.2,0-0.4,0c0-0.6,0-1.2,0-1.6
					c-0.1,0-0.2,0-0.4,0c0-0.6,0-1.2,0-1.6c-0.1,0-0.2,0-0.4,0c0-0.6,0-1.2,0-1.6c-0.1,0-0.2,0-0.4,0c0-0.7,0-1.4,0-2.1
					c-1.7-6-1.7-17.2,0-23.2c0-0.7,0-1.4,0-2.1c0.1,0,0.2,0,0.4,0c0.1-1.2,0.2-2.2,0.4-3.4c0.1,0,0.2,0,0.4,0c0-0.6,0-1.2,0-1.6
					c0.1,0,0.2,0,0.4,0c0-0.5,0-0.8,0-1.3c0.1,0,0.2,0,0.4,0c0-0.5,0-0.8,0-1.3c0.1,0,0.2,0,0.4,0c0-0.5,0-0.8,0-1.3
					c0.1,0,0.2,0,0.4,0c0-0.5,0-0.8,0-1.3c0.1,0,0.2,0,0.4,0c0.1-0.7,0.2-1.4,0.4-2.1c0.1,0,0.2,0,0.4,0c0-0.2,0-0.6,0-0.8
					c0.1,0,0.2,0,0.4,0c0-0.5,0-0.8,0-1.3c0.1,0,0.2,0,0.4,0c0.2-0.8,0.5-1.6,0.7-2.4c0.1,0,0.2,0,0.4,0c0-0.2,0-0.6,0-0.8
					c0.1,0,0.2,0,0.4,0c0-0.2,0-0.6,0-0.8c0.1,0,0.2,0,0.4,0c0.2-0.8,0.5-1.6,0.7-2.4c0.2-0.1,0.5-0.2,0.7-0.5
					c0.2-0.8,0.5-1.6,0.7-2.4c0.1,0,0.2,0,0.4,0c0.1-0.5,0.2-0.8,0.4-1.3c0.2-0.1,0.5-0.2,0.7-0.5c0.1-0.6,0.2-1.2,0.4-1.6
					c0.2-0.1,0.5-0.2,0.7-0.5c0-0.2,0-0.6,0-0.8c0.4-0.2,0.7-0.6,1.2-0.8c0-0.2,0-0.6,0-0.8c0.2-0.1,0.5-0.2,0.7-0.5
					c0-0.2,0-0.6,0-0.8c0.4-0.2,0.7-0.6,1.2-0.8c0-0.2,0-0.6,0-0.8c0.4-0.2,0.7-0.6,1.2-0.8c0-0.2,0-0.6,0-0.8
					c0.5-0.5,1.1-0.8,1.5-1.3c0-0.2,0-0.6,0-0.8c0.6-0.6,1.3-1.2,1.9-1.6c0-0.2,0-0.6,0-0.8c0.7-0.7,1.5-1.4,2.2-2.1
					c0-0.1,0-0.2,0-0.5c0.2-0.1,0.5-0.2,0.7-0.5c0-0.2,0-0.6,0-0.8c1.2-1.2,2.2-2.2,3.4-3.4c0.6-0.8,1.3-1.6,1.9-2.4
					c0.2,0,0.5,0,0.7,0c0.7-0.9,1.5-2,2.2-2.9c0.2,0,0.5,0,0.7,0c0.7-0.9,1.5-2,2.2-2.9c0.2,0,0.5,0,0.7,0c0.6-0.8,1.3-1.6,1.9-2.4
					c0.2,0,0.5,0,0.7,0c0.6-0.8,1.3-1.6,1.9-2.4c0.2,0,0.5,0,0.7,0c0.5-0.7,1.1-1.4,1.5-2.1c0.2,0,0.5,0,0.7,0
					c0.5-0.7,1.1-1.4,1.5-2.1c0.2,0,0.5,0,0.7,0c0.4-0.6,0.7-1.2,1.2-1.6c0.2,0,0.5,0,0.7,0c0.1-0.2,0.2-0.6,0.4-0.8
					c0.1,0,0.2,0,0.4,0c0.1-0.2,0.2-0.6,0.4-0.8c0.2,0,0.5,0,0.7,0c0.5-0.7,1.1-1.4,1.5-2.1c0.2,0,0.5,0,0.7,0
					c0.4-0.6,0.7-1.2,1.2-1.6c0.2,0,0.5,0,0.7,0c0.2-0.5,0.5-0.8,0.7-1.3c0.2,0,0.5,0,0.7,0c0.4-0.6,0.7-1.2,1.2-1.6
					c0.2,0,0.5,0,0.7,0c0.4-0.6,0.7-1.2,1.2-1.6c0.2,0,0.5,0,0.7,0c0.4-0.6,0.7-1.2,1.2-1.6c0.4-0.1,0.7-0.2,1.2-0.5
					c0.1-0.2,0.2-0.6,0.4-0.8c0.2,0,0.5,0,0.7,0c0.4-0.6,0.7-1.2,1.2-1.6c0.2,0,0.5,0,0.7,0c0.2-0.5,0.5-0.8,0.7-1.3
					c0.2,0,0.5,0,0.7,0c0.4-0.6,0.7-1.2,1.2-1.6c0.2,0,0.5,0,0.7,0c0.2-0.5,0.5-0.8,0.7-1.3c0.4-0.1,0.7-0.2,1.2-0.5
					c0-0.2,0-0.6,0-0.8c-12.5-0.2-23.5,1.2-32.4,5c-1.2,0.2-2.2,0.6-3.4,0.8c0,0.1,0,0.2,0,0.5c-0.4,0-0.7,0-1.2,0
					c0,0.1,0,0.2,0,0.5c-0.4,0-0.7,0-1.2,0c0,0.1,0,0.2,0,0.5c-0.4,0-0.7,0-1.2,0c0,0.1,0,0.2,0,0.5c-0.2,0-0.5,0-0.7,0
					c0,0.1,0,0.2,0,0.5c-0.7,0.1-1.5,0.2-2.2,0.5c0,0.1,0,0.2,0,0.5c-0.2,0-0.5,0-0.7,0c0,0.1,0,0.2,0,0.5c-0.4,0-0.7,0-1.2,0
					c0,0.1,0,0.2,0,0.5c-0.2,0-0.5,0-0.7,0c0,0.1,0,0.2,0,0.5c-0.4,0-0.7,0-1.2,0c0,0.1,0,0.2,0,0.5c-1.5,0.6-3.1,1.2-4.6,1.6
					c0-0.1,0-0.2,0-0.5c0.1,0,0.2,0,0.4,0c1.7-2,3.3-3.8,5-5.8c0.2,0,0.5,0,0.7,0c0.7-0.9,1.5-2,2.2-2.9c0.2,0,0.5,0,0.7,0
					c0.5-0.7,1.1-1.4,1.5-2.1c0.2,0,0.5,0,0.7,0c0.4-0.6,0.7-1.2,1.2-1.6c0.2,0,0.5,0,0.7,0c0.4-0.6,0.7-1.2,1.2-1.6
					c0.2,0,0.5,0,0.7,0c0.2-0.5,0.5-0.8,0.7-1.3c0.2,0,0.5,0,0.7,0c0.2-0.5,0.5-0.8,0.7-1.3c0.2,0,0.5,0,0.7,0
					c0.2-0.5,0.5-0.8,0.7-1.3c0.2,0,0.5,0,0.7,0c0.1-0.2,0.2-0.6,0.4-0.8c0.2,0,0.5,0,0.7,0c0.2-0.5,0.5-0.8,0.7-1.3
					c0.2,0,0.5,0,0.7,0c0.1-0.2,0.2-0.6,0.4-0.8c0.4-0.1,0.7-0.2,1.2-0.5c0-0.1,0-0.2,0-0.5c0.2,0,0.5,0,0.7,0
					c0.1-0.2,0.2-0.6,0.4-0.8c0.2,0,0.5,0,0.7,0c0.1-0.2,0.2-0.6,0.4-0.8c0.2,0,0.5,0,0.7,0c0.1-0.2,0.2-0.6,0.4-0.8
					c0.2,0,0.5,0,0.7,0c0.1-0.2,0.2-0.6,0.4-0.8c0.5-0.1,1.1-0.2,1.5-0.5c0-0.1,0-0.2,0-0.5c0.4-0.1,0.7-0.2,1.2-0.5
					c0.1-0.2,0.2-0.6,0.4-0.8c0.5-0.1,1.1-0.2,1.5-0.5c0.1-0.2,0.2-0.6,0.4-0.8c0.5-0.1,1.1-0.2,1.5-0.5c0.1-0.2,0.2-0.6,0.4-0.8
					c0.5-0.1,1.1-0.2,1.5-0.5c0.1-0.2,0.2-0.6,0.4-0.8c0.7-0.2,1.5-0.6,2.2-0.8c10.5-7.2,22.8-12.5,35.4-17.4c0.5,0,1.1,0,1.5,0
					c0-0.1,0-0.2,0-0.5c0.4,0,0.7,0,1.2,0c0-0.1,0-0.2,0-0.5c0.4,0,0.7,0,1.2,0c0-0.1,0-0.2,0-0.5c0.9-0.1,1.8-0.2,2.7-0.5
					c0-0.1,0-0.2,0-0.5c1.4-0.2,2.8-0.6,4.1-0.8c0-0.1,0-0.2,0-0.5c1.1-0.1,2-0.2,3.1-0.5c0-0.1,0-0.2,0-0.5c0.6,0,1.3,0,1.9,0
					c0-0.1,0-0.2,0-0.5c0.5,0,1.1,0,1.5,0c0-0.1,0-0.2,0-0.5c0.5,0,1.1,0,1.5,0c0-0.1,0-0.2,0-0.5c0.6,0,1.3,0,1.9,0
					c0-0.1,0-0.2,0-0.5c0.6,0,1.3,0,1.9,0c0-0.1,0-0.2,0-0.5c0.6,0,1.3,0,1.9,0c0-0.1,0-0.2,0-0.5c0.7,0,1.5,0,2.2,0
					c3.5-1.2,8.5-1.3,12.2-2.4c1.1,0,2,0,3.1,0c0-0.1,0-0.2,0-0.5c1.2,0,2.2,0,3.4,0c0-0.1,0-0.2,0-0.5c1.4,0,2.8,0,4.1,0
					c0-0.1,0-0.2,0-0.5c3.5-0.1,7.1-0.2,10.6-0.5c0-0.1,0-0.2,0-0.5c3.3,0,6.6,0,9.9,0c3.3-1,8.6-0.5,12.5-0.5
					c2.4,0,5.4-0.1,7.2,0.5c1.9,0,3.8,0,5.7,0c4.5,0.1,8.9,0.2,13.4,0.5c0,0.1,0,0.2,0,0.5c2.1,0,4.3,0,6.5,0c0,0.1,0,0.2,0,0.5
					c1.9,0,3.8,0,5.7,0c0,0.1,0,0.2,0,0.5c0.5,0,1.1,0,1.5,0c1.3,0,2.5,0,3.8,0c0,0.1,0,0.2,0,0.5c2,0,4,0,6.2,0c0,0.1,0,0.2,0,0.5
					c2.4,0.7,5.9-0.2,8,0.5c3.3,0,6.6,0,9.9,0c0,0.1,0,0.2,0,0.5c8.4,0.1,16.8,0.2,25.1,0.5c1.1,0,2,0,3.1,0c0,0.1,0,0.2,0,0.5
					c4.1,0,8.4,0,12.5,0c0,0.1,0,0.2,0,0.5c3.3,0,6.6,0,9.9,0c0,0.1,0,0.2,0,0.5c1.4,0,2.8,0,4.1,0c3.1,0.1,6.2,0.2,9.1,0.5
					c0,0.1,0,0.2,0,0.5c1.8,0,3.5,0,5.3,0c0,0.1,0,0.2,0,0.5c1.5,0,3.1,0,4.6,0c0,0.1,0,0.2,0,0.5c1.4,0,2.8,0,4.1,0
					c0,0.1,0,0.2,0,0.5c1.3,0,2.5,0,3.8,0c0,0.1,0,0.2,0,0.5c2.4,0,4.9,0,7.2,0c7.1,0,13.3-0.6,18.7-2.4c1.1-0.1,2-0.2,3.1-0.5
					c0-0.1,0-0.2,0-0.5c0.9-0.1,1.8-0.2,2.7-0.5c0-0.1,0-0.2,0-0.5c0.4,0,0.7,0,1.2,0c0-0.1,0-0.2,0-0.5c0.4,0,0.7,0,1.2,0
					c0-0.1,0-0.2,0-0.5c0.4,0,0.7,0,1.2,0c0-0.1,0-0.2,0-0.5c0.7-0.1,1.5-0.2,2.2-0.5c0-0.1,0-0.2,0-0.5c0.2,0,0.5,0,0.7,0
					c0-0.1,0-0.2,0-0.5c0.7-0.1,1.5-0.2,2.2-0.5c0-0.1,0-0.2,0-0.5c0.5-0.1,1.1-0.2,1.5-0.5c0-0.1,0-0.2,0-0.5c0.4,0,0.7,0,1.2,0
					c0-0.1,0-0.2,0-0.5c0.2,0,0.5,0,0.7,0c0-0.1,0-0.2,0-0.5c0.5-0.1,1.1-0.2,1.5-0.5c0-0.1,0-0.2,0-0.5c0.4,0,0.7,0,1.2,0
					c0-0.1,0-0.2,0-0.5c0.7-0.2,1.5-0.6,2.2-0.8c0-0.1,0-0.2,0-0.5c0.5-0.1,1.1-0.2,1.5-0.5c0.1-0.2,0.2-0.6,0.4-0.8
					c0.2,0,0.5,0,0.7,0c0-0.1,0-0.2,0-0.5c0.2,0,0.5,0,0.7,0c0-0.1,0-0.2,0-0.5c0.2,0,0.5,0,0.7,0c0-0.1,0-0.2,0-0.5
					c0.2,0,0.5,0,0.7,0c0-0.1,0-0.2,0-0.5c0.2,0,0.5,0,0.7,0c0.1-0.2,0.2-0.6,0.4-0.8c0.2,0,0.5,0,0.7,0c0-0.1,0-0.2,0-0.5
					c0.2,0,0.5,0,0.7,0c0.1-0.2,0.2-0.6,0.4-0.8c0.5-0.1,1.1-0.2,1.5-0.5c0.1-0.2,0.2-0.6,0.4-0.8c0.5-0.1,1.1-0.2,1.5-0.5
					c0.1-0.2,0.2-0.6,0.4-0.8c0.2,0,0.5,0,0.7,0c0.1-0.2,0.2-0.6,0.4-0.8c0.2,0,0.5,0,0.7,0c0.1-0.2,0.2-0.6,0.4-0.8
					c0.2,0,0.5,0,0.7,0c0.1-0.2,0.2-0.6,0.4-0.8c0.2,0,0.5,0,0.7,0c0.2-0.5,0.5-0.8,0.7-1.3c0.2,0,0.5,0,0.7,0
					c0.1-0.2,0.2-0.6,0.4-0.8c0.2,0,0.5,0,0.7,0c0.2-0.5,0.5-0.8,0.7-1.3c0.2,0,0.5,0,0.7,0c0.2-0.5,0.5-0.8,0.7-1.3
					c0.2,0,0.5,0,0.7,0c0.4-0.6,0.7-1.2,1.2-1.6c0.2,0,0.5,0,0.7,0c0.9-1.2,1.8-2.2,2.7-3.4c0.2,0,0.5,0,0.7,0
					c0.6-0.8,1.3-1.6,1.9-2.4c0.2-0.1,0.5-0.2,0.7-0.5c0-0.2,0-0.6,0-0.8c0.9-0.8,1.8-1.6,2.7-2.4c0-0.2,0-0.6,0-0.8
					c0.5-0.5,1.1-0.8,1.5-1.3c0-0.2,0-0.6,0-0.8c0.4-0.2,0.7-0.6,1.2-0.8c0-0.2,0-0.6,0-0.8c0.2-0.1,0.5-0.2,0.7-0.5
					c0.1-0.5,0.2-0.8,0.4-1.3c0.1,0,0.2,0,0.4,0c0.1-0.6,0.2-1.2,0.4-1.6c0.2-0.1,0.5-0.2,0.7-0.5c0.1-0.6,0.2-1.2,0.4-1.6
					c0.1,0,0.2,0,0.4,0c0-0.2,0-0.6,0-0.8c0.1,0,0.2,0,0.4,0c0.2-0.8,0.5-1.6,0.7-2.4c0.1,0,0.2,0,0.4,0c0-0.5,0-0.8,0-1.3
					c0.1,0,0.2,0,0.4,0c0-0.2,0-0.6,0-0.8c0.1,0,0.2,0,0.4,0c0-0.5,0-0.8,0-1.3c0.1,0,0.2,0,0.4,0c0-0.5,0-0.8,0-1.3
					c0.1,0,0.2,0,0.4,0c0-0.6,0-1.2,0-1.6c0.1,0,0.2,0,0.4,0c0-0.6,0-1.2,0-1.6c0.1,0,0.2,0,0.4,0c0-0.7,0-1.4,0-2.1
					c0.4-1.5,1.3-7.2,0.7-9.5c-0.1,0-0.2,0-0.4,0c-0.1-1.7-0.2-3.6-0.4-5.3c-0.1,0-0.2,0-0.4,0c0-0.6,0-1.2,0-1.6
					c-0.1,0-0.2,0-0.4,0c0-0.5,0-0.8,0-1.3c-0.1,0-0.2,0-0.4,0c0-0.5,0-0.8,0-1.3c-0.1,0-0.2,0-0.4,0c0-0.5,0-0.8,0-1.3
					c-0.1,0-0.2,0-0.4,0c-0.1-0.6-0.2-1.2-0.4-1.6c-0.1,0-0.2,0-0.4,0c-0.4-1.3-0.7-2.4-1.2-3.7c-0.2-0.1-0.5-0.2-0.7-0.5
					c-0.2-0.8-0.5-1.6-0.7-2.4c-0.2-0.1-0.5-0.2-0.7-0.5c0-0.2,0-0.6,0-0.8c-0.4-0.2-0.7-0.6-1.2-0.8c0-0.2,0-0.6,0-0.8
					c-0.2-0.1-0.5-0.2-0.7-0.5c0-0.2,0-0.6,0-0.8c-0.6-0.6-1.3-1.2-1.9-1.6c0-0.2,0-0.6,0-0.8c-1.3-1.3-2.5-2.4-3.8-3.7
					c-1.2-1.4-2.2-2.8-3.4-4.2c-0.2,0-0.5,0-0.7,0c-0.5-0.7-1.1-1.4-1.5-2.1c-0.4-0.1-0.7-0.2-1.2-0.5c0-0.2,0-0.6,0-0.8
					c2.2-1.4,4.6-2.8,6.9-4.2c0.7-0.1,1.5-0.2,2.2-0.5c0-0.1,0-0.2,0-0.5c0.4,0,0.7,0,1.2,0c0-0.1,0-0.2,0-0.5c1.8,0,3.5,0,5.3,0
					c0,0.1,0,0.2,0,0.5c0.4,0,0.7,0,1.2,0c0,0.1,0,0.2,0,0.5c0.5,0.1,1.1,0.2,1.5,0.5c0.1,0.2,0.2,0.6,0.4,0.8c0.2,0,0.5,0,0.7,0
					c0.2,0.5,0.5,0.8,0.7,1.3c0.2,0,0.5,0,0.7,0c0,0.1,0,0.2,0,0.5c0.5,0.5,1.1,0.8,1.5,1.3c0,0.2,0,0.6,0,0.8
					c0.2,0.1,0.5,0.2,0.7,0.5c0.5,0.7,1.1,1.4,1.5,2.1c0.5,0.1,1.1,0.2,1.5,0.5c0,0.1,0,0.2,0,0.5c0.7,0.2,1.5,0.6,2.2,0.8
					c0,0.1,0,0.2,0,0.5c0.4,0,0.7,0,1.2,0c0,0.1,0,0.2,0,0.5c0.4,0,0.7,0,1.2,0c0,0.1,0,0.2,0,0.5c0.5,0,1.1,0,1.5,0
					c0,0.1,0,0.2,0,0.5c0.5,0,1.1,0,1.5,0c0,0.1,0,0.2,0,0.5c1.1,0.1,2,0.2,3.1,0.5c0,0.1,0,0.2,0,0.5c0.2,0,0.5,0,0.7,0
					c0,0.1,0,0.2,0,0.5c0.7,0.1,1.5,0.2,2.2,0.5c0,0.1,0,0.2,0,0.5c0.2,0,0.5,0,0.7,0c0,0.1,0,0.2,0,0.5c0.4,0,0.7,0,1.2,0
					c0,0.1,0,0.2,0,0.5c0.2,0,0.5,0,0.7,0c0,0.1,0,0.2,0,0.5c0.4,0,0.7,0,1.2,0c0,0.1,0,0.2,0,0.5c0.5,0.1,1.1,0.2,1.5,0.5
					c0,0.1,0,0.2,0,0.5c1.2,0.5,2.2,0.8,3.4,1.3c0.1,0.2,0.2,0.6,0.4,0.8c0.5,0.1,1.1,0.2,1.5,0.5c0.2,0.5,0.5,0.8,0.7,1.3
					c0.2,0,0.5,0,0.7,0c0.1,0.5,0.2,0.8,0.4,1.3c0.2,0.1,0.5,0.2,0.7,0.5c0.5,0.7,0,0.9,0.7,1.6c0.1,6.8-1.8,9.9-3.8,14
					c0,0.2,0,0.6,0,0.8c-0.1,0-0.2,0-0.4,0c0,0.2,0,0.6,0,0.8c-0.1,0-0.2,0-0.4,0c0,0.2,0,0.6,0,0.8c-0.1,0-0.2,0-0.4,0
					c0,0.2,0,0.6,0,0.8c-0.1,0-0.2,0-0.4,0c0,0.2,0,0.6,0,0.8c-0.1,0-0.2,0-0.4,0c-0.9,2.2-1.8,4.4-2.7,6.6
					c-0.2,0.1-0.5,0.2-0.7,0.5c-0.1,0.6-0.2,1.2-0.4,1.6c-0.1,0-0.2,0-0.4,0c0,0.2,0,0.6,0,0.8c-0.1,0-0.2,0-0.4,0
					c0,0.2,0,0.6,0,0.8c-0.1,0-0.2,0-0.4,0c0,0.2,0,0.6,0,0.8c-0.1,0-0.2,0-0.4,0c0,0.2,0,0.6,0,0.8c-0.2,0.1-0.5,0.2-0.7,0.5
					c0,0.2,0,0.6,0,0.8c-0.1,0-0.2,0-0.4,0c0,0.2,0,0.6,0,0.8c-0.1,0-0.2,0-0.4,0c0,0.2,0,0.6,0,0.8c-0.1,0-0.2,0-0.4,0
					c0,0.2,0,0.6,0,0.8c-0.2,0.1-0.5,0.2-0.7,0.5c-0.2,0.8-0.5,1.6-0.7,2.4c-0.2,0.1-0.5,0.2-0.7,0.5c-0.1,0.6-0.2,1.2-0.4,1.6
					c-0.2,0.1-0.5,0.2-0.7,0.5c-0.1,0.6-0.2,1.2-0.4,1.6c-0.2,0.1-0.5,0.2-0.7,0.5c-0.1,0.6-0.2,1.2-0.4,1.6
					c-0.2,0.1-0.5,0.2-0.7,0.5c-0.1,0.6-0.2,1.2-0.4,1.6c-0.2,0.1-0.5,0.2-0.7,0.5c-0.1,0.6-0.2,1.2-0.4,1.6
					c-0.2,0.1-0.5,0.2-0.7,0.5c-0.1,0.6-0.2,1.2-0.4,1.6c-0.2,0.1-0.5,0.2-0.7,0.5c0,0.2,0,0.6,0,0.8c-0.2,0.1-0.5,0.2-0.7,0.5
					c0,0.2,0,0.6,0,0.8c-0.1,0-0.2,0-0.4,0c0,0.2,0,0.6,0,0.8c-0.2,0.1-0.5,0.2-0.7,0.5c0,0.2,0,0.6,0,0.8c-0.2,0.1-0.5,0.2-0.7,0.5
					c0,0.2,0,0.6,0,0.8c-0.2,0.1-0.5,0.2-0.7,0.5c0,0.2,0,0.6,0,0.8c-0.2,0.1-0.5,0.2-0.7,0.5c-0.1,0.6-0.2,1.2-0.4,1.6
					c-0.2,0.1-0.5,0.2-0.7,0.5c0,0.2,0,0.6,0,0.8c-0.2,0.1-0.5,0.2-0.7,0.5c0,0.2,0,0.6,0,0.8c-0.2,0.1-0.5,0.2-0.7,0.5
					c0,0.2,0,0.6,0,0.8c-0.2,0.1-0.5,0.2-0.7,0.5c0,0.2,0,0.6,0,0.8c-0.2,0.1-0.5,0.2-0.7,0.5c0,0.2,0,0.6,0,0.8
					c-0.2,0.1-0.5,0.2-0.7,0.5c0,0.2,0,0.6,0,0.8c-0.2,0.1-0.5,0.2-0.7,0.5c0,0.2,0,0.6,0,0.8c-0.2,0.1-0.5,0.2-0.7,0.5
					c0,0.2,0,0.6,0,0.8c-0.2,0.1-0.5,0.2-0.7,0.5c0,0.2,0,0.6,0,0.8c-0.1,0-0.2,0-0.4,0c-0.1,0.5-0.2,0.8-0.4,1.3
					c-0.2,0.1-0.5,0.2-0.7,0.5c0,0.2,0,0.6,0,0.8c-0.4,0.2-0.7,0.6-1.2,0.8c0,0.2,0,0.6,0,0.8c-0.2,0.1-0.5,0.2-0.7,0.5
					c0,0.2,0,0.6,0,0.8c-0.1,0-0.2,0-0.4,0c-0.1,0.5-0.2,0.8-0.4,1.3c-0.2,0.1-0.5,0.2-0.7,0.5c0,0.2,0,0.6,0,0.8
					c-0.4,0.2-0.7,0.6-1.2,0.8c0,0.2,0,0.6,0,0.8c-0.4,0.2-0.7,0.6-1.2,0.8c0,0.2,0,0.6,0,0.8c-0.6,0.6-1.3,1.2-1.9,1.6
					c0,0.2,0,0.6,0,0.8c-1.5,1.5-3.1,3-4.6,4.5c-0.9,1.2-1.8,2.2-2.7,3.4c-0.2,0-0.5,0-0.7,0c-0.4,0.6-0.7,1.2-1.2,1.6
					c-0.2,0-0.5,0-0.7,0c-0.2,0.5-0.5,0.8-0.7,1.3c-0.2,0-0.5,0-0.7,0c-0.2,0.5-0.5,0.8-0.7,1.3c-0.2,0-0.5,0-0.7,0
					c-0.1,0.2-0.2,0.6-0.4,0.8c-0.2,0-0.5,0-0.7,0c-0.1,0.2-0.2,0.6-0.4,0.8c-0.4,0.1-0.7,0.2-1.2,0.5c0,0.1,0,0.2,0,0.5
					c-0.5,0.1-1.1,0.2-1.5,0.5c-0.1,0.2-0.2,0.6-0.4,0.8c-0.2,0-0.5,0-0.7,0c0,0.1,0,0.2,0,0.5c-0.2,0-0.5,0-0.7,0
					c0,0.1,0,0.2,0,0.5c-0.2,0-0.5,0-0.7,0c0,0.1,0,0.2,0,0.5c-0.2,0-0.5,0-0.7,0c0,0.1,0,0.2,0,0.5c-0.2,0-0.5,0-0.7,0
					c0,0.1,0,0.2,0,0.5c-0.2,0-0.5,0-0.7,0c0,0.1,0,0.2,0,0.5c-0.7,0.2-1.5,0.6-2.2,0.8c0,0.1,0,0.2,0,0.5c-0.4,0-0.7,0-1.2,0
					c0,0.1,0,0.2,0,0.5c-0.5,0.1-1.1,0.2-1.5,0.5c0,0.1,0,0.2,0,0.5c-0.7,0.1-1.5,0.2-2.2,0.5c0,0.1,0,0.2,0,0.5c-0.2,0-0.5,0-0.7,0
					c0,0.1,0,0.2,0,0.5c-1.3,0.2-2.5,0.6-3.8,0.8c0,0.1,0,0.2,0,0.5c-0.4,0-0.7,0-1.2,0c0,0.1,0,0.2,0,0.5c-0.9,0.1-1.8,0.2-2.7,0.5
					c0,0.1,0,0.2,0,0.5c-1.2,0.1-2.2,0.2-3.4,0.5c-1.8,0.6-4.3,1-6.2,1.6c-0.9,0-1.8,0-2.7,0c0,0.1,0,0.2,0,0.5c-1.1,0-2,0-3.1,0
					c0,0.1,0,0.2,0,0.5c-1.3,0-2.5,0-3.8,0c0,0.1,0,0.2,0,0.5c-1.4,0-2.8,0-4.1,0c0,0.1,0,0.2,0,0.5c-1.5,0-3.1,0-4.6,0
					c0,0.1,0,0.2,0,0.5c-1.4,0-2.8,0-4.1,0c0,0.1,0,0.2,0,0.5c-1.5,0-3.1,0-4.6,0c0,0.1,0,0.2,0,0.5c-1.5,0-3.1,0-4.6,0
					c0,0.1,0,0.2,0,0.5c-1.7,0-3.3,0-5,0c0,0,0,0.3-0.7,0.5c-1.4,0-2.8,0-4.1,0c0,0.1,0,0.2,0,0.5c-5.3,0.2-10.6,0.6-16,0.8
					c0,0.1,0,0.2,0,0.5c-2.7,0.1-5.3,0.2-8,0.5c-1.3,0-2.5,0-3.8,0c0,0.1,0,0.2,0,0.5c-2.1,0-4.3,0-6.5,0c0,0.1,0,0.2,0,0.5
					c-2.1,0-4.3,0-6.5,0c0,0.1,0,0.2,0,0.5c-2.1,0.7-5.4-0.1-7.2,0.5c-2.2,0.7-5.9-0.2-8,0.5c-1.8,0-3.5,0-5.3,0c-1.1,0-2,0-3.1,0
					c0,0.1,0,0.2,0,0.5c-3.2,0-6.4,0-9.5,0c0,0.1,0,0.2,0,0.5c-6.7,0.1-13.5,0.2-20.2,0.5c0,0.1,0,0.2,0,0.5c-1.8,0-3.5,0-5.3,0
					c0,0,0,0.3-0.7,0.5c-1.3,0-2.5,0-3.8,0c0,0.1,0,0.2,0,0.5c-1.2,0-2.2,0-3.4,0c0,0.1,0,0.2,0,0.5c-1.2,0-2.2,0-3.4,0
					c-4.3,1.4-9.6,1.5-13.7,2.9c-1.3,0.1-2.5,0.2-3.8,0.5c0,0.1,0,0.2,0,0.5c-1.2,0.1-2.2,0.2-3.4,0.5c0,0.1,0,0.2,0,0.5
					c-0.5,0-1.1,0-1.5,0c0,0.1,0,0.2,0,0.5c-1.4,0.2-2.8,0.6-4.1,0.8c0,0.1,0,0.2,0,0.5c-0.4,0-0.7,0-1.2,0c0,0.1,0,0.2,0,0.5
					c-0.5,0-1.1,0-1.5,0c0,0.1,0,0.2,0,0.5c-0.4,0-0.7,0-1.2,0c0,0.1,0,0.2,0,0.5c-0.4,0-0.7,0-1.2,0c0,0.1,0,0.2,0,0.5
					c-0.4,0-0.7,0-1.2,0c0,0.1,0,0.2,0,0.5c-0.4,0-0.7,0-1.2,0c0,0.1,0,0.2,0,0.5c-0.4,0-0.7,0-1.2,0c0,0.1,0,0.2,0,0.5
					c-0.4,0-0.7,0-1.2,0c0,0.1,0,0.2,0,0.5c-0.7,0.1-1.5,0.2-2.2,0.5c0,0.1,0,0.2,0,0.5c-0.2,0-0.5,0-0.7,0c0,0.1,0,0.2,0,0.5
					c-0.7,0.1-1.5,0.2-2.2,0.5c0,0.1,0,0.2,0,0.5c-0.2,0-0.5,0-0.7,0c0,0.1,0,0.2,0,0.5c-0.4,0-0.7,0-1.2,0c0,0.1,0,0.2,0,0.5
					c-0.5,0.1-1.1,0.2-1.5,0.5c0,0.1,0,0.2,0,0.5c-0.4,0-0.7,0-1.2,0c0,0.1,0,0.2,0,0.5c-0.5,0.1-1.1,0.2-1.5,0.5c0,0.1,0,0.2,0,0.5
					c-0.4,0-0.7,0-1.2,0c0,0.1,0,0.2,0,0.5c-0.7,0.2-1.5,0.6-2.2,0.8c0,0.1,0,0.2,0,0.5c-0.2,0-0.5,0-0.7,0c0,0.1,0,0.2,0,0.5
					c-0.2,0-0.5,0-0.7,0c0,0.1,0,0.2,0,0.5c-0.2,0-0.5,0-0.7,0c0,0.1,0,0.2,0,0.5c-0.2,0-0.5,0-0.7,0c0,0.1,0,0.2,0,0.5
					c-0.2,0-0.5,0-0.7,0c0,0.1,0,0.2,0,0.5c-0.2,0-0.5,0-0.7,0c0,0.1,0,0.2,0,0.5c-0.2,0-0.5,0-0.7,0c0,0.1,0,0.2,0,0.5
					c-0.2,0-0.5,0-0.7,0c-0.1,0.2-0.2,0.6-0.4,0.8c-0.2,0-0.5,0-0.7,0c0,0.1,0,0.2,0,0.5c-0.2,0-0.5,0-0.7,0c0,0.1,0,0.2,0,0.5
					c-0.2,0-0.5,0-0.7,0c0,0.1,0,0.2,0,0.5c-0.2,0-0.5,0-0.7,0c-0.1,0.2-0.2,0.6-0.4,0.8c-0.5,0.1-1.1,0.2-1.5,0.5
					c-0.1,0.2-0.2,0.6-0.4,0.8c-0.2,0-0.5,0-0.7,0c0,0.1,0,0.2,0,0.5c-0.2,0-0.5,0-0.7,0c-0.1,0.2-0.2,0.6-0.4,0.8
					c-0.2,0-0.5,0-0.7,0c-0.1,0.2-0.2,0.6-0.4,0.8c-0.2,0-0.5,0-0.7,0c-0.1,0.2-0.2,0.6-0.4,0.8c-0.2,0-0.5,0-0.7,0
					c-0.1,0.2-0.2,0.6-0.4,0.8c-0.2,0-0.5,0-0.7,0c-0.1,0.2-0.2,0.6-0.4,0.8c-0.2,0-0.5,0-0.7,0c-0.1,0.2-0.2,0.6-0.4,0.8
					c-0.2,0-0.5,0-0.7,0c-0.2,0.5-0.5,0.8-0.7,1.3c-0.2,0-0.5,0-0.7,0c-0.2,0.5-0.5,0.8-0.7,1.3c-0.2,0-0.5,0-0.7,0
					c-0.2,0.5-0.5,0.8-0.7,1.3c-0.2,0-0.5,0-0.7,0c-0.4,0.6-0.7,1.2-1.2,1.6c-0.2,0-0.5,0-0.7,0c-0.4,0.6-0.7,1.2-1.2,1.6
					c-0.2,0-0.5,0-0.7,0c-0.6,0.8-1.3,1.6-1.9,2.4c-0.2,0-0.5,0-0.7,0c-1.4,1.6-2.8,3.4-4.1,5c-0.2,0-0.5,0-0.7,0
					c-0.7,0.9-1.5,2-2.2,2.9c-0.2,0.1-0.5,0.2-0.7,0.5c0,0.2,0,0.6,0,0.8c-1.1,0.9-2,2-3.1,2.9c0,0.2,0,0.6,0,0.8
					c-0.5,0.5-1.1,0.8-1.5,1.3c0,0.2,0,0.6,0,0.8c-0.4,0.2-0.7,0.6-1.2,0.8c0,0.2,0,0.6,0,0.8c-0.4,0.2-0.7,0.6-1.2,0.8
					c0,0.2,0,0.6,0,0.8c-0.2,0.1-0.5,0.2-0.7,0.5c-0.1,0.6-0.2,1.2-0.4,1.6c-0.2,0.1-0.5,0.2-0.7,0.5c-0.2,0.8-0.5,1.6-0.7,2.4
					c-0.2,0.1-0.5,0.2-0.7,0.5c-1.4,3.7-2.8,7.4-4.1,11.1c-0.2,1.6-0.5,3.4-0.7,5c-3.8,13.5-0.2,31.7,3.8,41.9
					c0.1,0.8,0.2,1.6,0.4,2.4c0.1,0,0.2,0,0.4,0c0,0.2,0,0.6,0,0.8c0.1,0,0.2,0,0.4,0c0,0.5,0,0.8,0,1.3c0.1,0,0.2,0,0.4,0
					c0.1,0.7,0.2,1.4,0.4,2.1c0.1,0,0.2,0,0.4,0c0,0.2,0,0.6,0,0.8c0.1,0,0.2,0,0.4,0c0,0.5,0,0.8,0,1.3c0.1,0,0.2,0,0.4,0
					c0.1,0.6,0.2,1.2,0.4,1.6c0.1,0,0.2,0,0.4,0c0.1,0.7,0.2,1.4,0.4,2.1c0.1,0,0.2,0,0.4,0c0.2,0.8,0.5,1.6,0.7,2.4
					c0.1,0,0.2,0,0.4,0c0,0.2,0,0.6,0,0.8c0.1,0,0.2,0,0.4,0c0,0.2,0,0.6,0,0.8c0.1,0,0.2,0,0.4,0c0,0.2,0,0.6,0,0.8
					c0.1,0,0.2,0,0.4,0c0,0.2,0,0.6,0,0.8c0.1,0,0.2,0,0.4,0c0,0.2,0,0.6,0,0.8c0.1,0,0.2,0,0.4,0c0,0.2,0,0.6,0,0.8
					c0.1,0,0.2,0,0.4,0c0,0.2,0,0.6,0,0.8c0.1,0,0.2,0,0.4,0c0,0.2,0,0.6,0,0.8c0.2,0.1,0.5,0.2,0.7,0.5c0,0.2,0,0.6,0,0.8
					c0.1,0,0.2,0,0.4,0c0,0.2,0,0.6,0,0.8c0.1,0,0.2,0,0.4,0c0,0.2,0,0.6,0,0.8c0.1,0,0.2,0,0.4,0c0,0.2,0,0.6,0,0.8
					c0.2,0.1,0.5,0.2,0.7,0.5c0.1,0.6,0.2,1.2,0.4,1.6c0.2,0.1,0.5,0.2,0.7,0.5c0.1,0.6,0.2,1.2,0.4,1.6c0.2,0.1,0.5,0.2,0.7,0.5
					c0,0.2,0,0.6,0,0.8c0.2,0.1,0.5,0.2,0.7,0.5c0,0.2,0,0.6,0,0.8c0.2,0.1,0.5,0.2,0.7,0.5c0,0.2,0,0.6,0,0.8
					c0.2,0.1,0.5,0.2,0.7,0.5c0,0.2,0,0.6,0,0.8c0.2,0.1,0.5,0.2,0.7,0.5c0,0.2,0,0.6,0,0.8c0.4,0.2,0.7,0.6,1.2,0.8
					c0,0.2,0,0.6,0,0.8c0.2,0.1,0.5,0.2,0.7,0.5c0,0.2,0,0.6,0,0.8c0.4,0.2,0.7,0.6,1.2,0.8c0,0.2,0,0.6,0,0.8
					c0.5,0.5,1.1,0.8,1.5,1.3c0,0.2,0,0.6,0,0.8c0.5,0.5,1.1,0.8,1.5,1.3c0,0.2,0,0.6,0,0.8c0.4,0.2,0.7,0.6,1.2,0.8
					c0,0.1,0,0.2,0,0.5c0.2,0.1,0.5,0.2,0.7,0.5c0,0.2,0,0.6,0,0.8c1.1,0.9,2,2,3.1,2.9c0,0.2,0,0.6,0,0.8c1.3,1.3,2.5,2.4,3.8,3.7
					c1.3,1.5,2.5,3,3.8,4.5c0.2,0,0.5,0,0.7,0c0.9,1.2,1.8,2.2,2.7,3.4c0.2,0,0.5,0,0.7,0c0.6,0.8,1.3,1.6,1.9,2.4
					c0.2,0,0.5,0,0.7,0c0.4,0.6,0.7,1.2,1.2,1.6c0.2,0,0.5,0,0.7,0c0.2,0.5,0.5,0.8,0.7,1.3c0.2,0,0.5,0,0.7,0
					c0.2,0.5,0.5,0.8,0.7,1.3c0.2,0,0.5,0,0.7,0c0.2,0.5,0.5,0.8,0.7,1.3c0.4,0.1,0.7,0.2,1.2,0.5c0.1,0.2,0.2,0.6,0.4,0.8
					c0.2,0,0.5,0,0.7,0c0.1,0.2,0.2,0.6,0.4,0.8c0.4,0.1,0.7,0.2,1.2,0.5c0,0.1,0,0.2,0,0.5c0.2,0,0.5,0,0.7,0
					c0.1,0.2,0.2,0.6,0.4,0.8c0.2,0,0.5,0,0.7,0c0.1,0.2,0.2,0.6,0.4,0.8c0.2,0,0.5,0,0.7,0c0.1,0.2,0.2,0.6,0.4,0.8
					c0.5,0.1,1.1,0.2,1.5,0.5c0,0.1,0,0.2,0,0.5c0.4,0.1,0.7,0.2,1.2,0.5c0.1,0.2,0.2,0.6,0.4,0.8c0.5,0.1,1.1,0.2,1.5,0.5
					c0.1,0.2,0.2,0.6,0.4,0.8c0.7,0.2,1.5,0.6,2.2,0.8c0.1,0.2,0.2,0.6,0.4,0.8c0.2,0,0.5,0,0.7,0c0,0.1,0,0.2,0,0.5
					c0.2,0,0.5,0,0.7,0c0,0.1,0,0.2,0,0.5c0.2,0,0.5,0,0.7,0c0,0.1,0,0.2,0,0.5c0.2,0,0.5,0,0.7,0c0,0.1,0,0.2,0,0.5
					c0.5,0.1,1.1,0.2,1.5,0.5c0.1,0.2,0.2,0.6,0.4,0.8c0.5,0.1,1.1,0.2,1.5,0.5c0,0.1,0,0.2,0,0.5c0.7,0.2,1.5,0.6,2.2,0.8
					c0,0.1,0,0.2,0,0.5c0.4,0,0.7,0,1.2,0c0,0.1,0,0.2,0,0.5c0.2,0,0.5,0,0.7,0c0,0.1,0,0.2,0,0.5c0.2,0,0.5,0,0.7,0
					c0,0.1,0,0.2,0,0.5c0.7,0.2,1.5,0.6,2.2,0.8c0,0.1,0,0.2,0,0.5c0.4,0,0.7,0,1.2,0c0,0.1,0,0.2,0,0.5c0.5,0.1,1.1,0.2,1.5,0.5
					c0,0.1,0,0.2,0,0.5c0.4,0,0.7,0,1.2,0c0,0.1,0,0.2,0,0.5c0.5,0.1,1.1,0.2,1.5,0.5c0,0.1,0,0.2,0,0.5c0.4,0,0.7,0,1.2,0
					c0,0.1,0,0.2,0,0.5c0.2,0,0.5,0,0.7,0c0,0.1,0,0.2,0,0.5c0.4,0,0.7,0,1.2,0c0,0.1,0,0.2,0,0.5c0.2,0,0.5,0,0.7,0
					c0,0.1,0,0.2,0,0.5C-1137.4,4750.7-1135.3,4751.5-1132.8,4751.8L-1132.8,4751.8z"/>
			</g>
		</g>
	</g>
	<g>
		<g>
			<path class="st2" d="M677.7,394.3c-3.8,0-7.5,0.5-11,1.4c-8.1-30.1-34.6-52.2-66-52.2c-8.9,0-17.4,1.8-25.2,5
				c-8.6-44.1-46-77.4-90.8-77.4c-48.2,0-87.7,38.4-92.2,87.5c-0.1,0-0.3,0-0.4,0c-33.9,0-61.4,28.7-61.4,64.1
				c0,35.4,27.5,64.1,61.4,64.1h285.7c24.5,0,44.3-20.7,44.3-46.3C722,415,702.1,394.3,677.7,394.3z"/>
			<path class="st3" d="M677.7,394.3c-3.8,0-7.5,0.5-11,1.4c-8.1-30.1-34.6-52.2-66-52.2c-8.9,0-17.4,1.8-25.2,5
				c-4.6-23.7-17.5-44.2-35.3-58.1v196.4h137.6c24.5,0,44.3-20.7,44.3-46.3C722,415,702.1,394.3,677.7,394.3z"/>
		</g>
		<g>
			<g>
				<g>
					<path class="st4" d="M559.1,474.2c0,3.5-23.3,6.3-52.1,6.3c-28.8,0-52.1-2.8-52.1-6.3c0-0.3,0-1.6,0-2.8
						c3.5-3,25.8-3.5,52.1-3.5c25.6,0,52.1,3.5,52.1,3.5S559.1,473.8,559.1,474.2z"/>
					<path class="st5" d="M536.7,466.3c-5.3-6.5-8.6-16-8.6-26.6c0-14.3,6-26.5,14.7-32.1h-71.6c8.7,5.6,14.7,17.9,14.7,32.1
						c0,10.6-3.3,20.1-8.6,26.6c-13.5,1.1-22.4,3-22.4,5.1c0,3.5,23.3,6.3,52.1,6.3c28.8,0,52.1-2.8,52.1-6.3
						C559.1,469.3,550.2,467.4,536.7,466.3z"/>
					<path class="st6" d="M601,440.8c0,2.9-2.3,5.3-5.1,5.3H418c-2.8,0-5.1-2.4-5.1-5.3V313.3c0-2.9,2.3-5.3,5.1-5.3h177.8
						c2.8,0,5.1,2.4,5.1,5.3V440.8z"/>
					<g>
						<rect x="422.4" y="318.1" class="st7" width="169.2" height="107.8"/>
					</g>
					<g>
						<path class="st8" d="M506.4,312.7c0,0.8-0.6,1.4-1.4,1.4c-0.8,0-1.4-0.6-1.4-1.4c0-0.8,0.6-1.4,1.4-1.4
							C505.7,311.2,506.4,311.9,506.4,312.7z"/>
						<path class="st6" d="M505.9,312.7c0,0.5-0.4,0.9-0.9,0.9c-0.5,0-0.9-0.4-0.9-0.9c0-0.5,0.4-0.9,0.9-0.9
							C505.5,311.7,505.9,312.1,505.9,312.7z"/>
						<path class="st9" d="M510.3,312.7c0,0.6-0.5,1.1-1.1,1.1s-1.1-0.5-1.1-1.1c0-0.6,0.5-1.1,1.1-1.1S510.3,312,510.3,312.7z"/>
					</g>
					<path class="st8" d="M509.5,436.4c0,1.5-1.1,2.7-2.5,2.7c-1.4,0-2.5-1.2-2.5-2.7c0-1.5,1.1-2.7,2.5-2.7
						C508.4,433.7,509.5,434.9,509.5,436.4z"/>
				</g>
			</g>
			<g>
				<path class="st1" d="M506.6,356.1l-5.2,2.5c-0.2-0.5-0.4-1-0.7-1.5c-2.2-4.3-5.4-7.8-9.1-10.2l3-5c-4.2-2.7-8.9-4.4-13.8-4.9
					l-0.5,5.9c-4.9-0.5-10,0.4-14.6,3l-2.7-5.2l-0.1,0.1c-4.4,2.5-8.1,5.8-11,10.1l4.7,3.4c-2.9,4.3-4.6,9.5-4.8,14.8l-5.7-0.2
					c-0.2,5.1,0.8,10.3,2.9,15l5.2-2.5c0.2,0.5,0.4,1,0.7,1.4c2.2,4.4,5.4,7.8,9.2,10.3l-3,5c4.2,2.7,9,4.4,13.8,4.9l0.5-5.9
					c4.9,0.5,10-0.5,14.7-3.1l2.7,5.2c4.4-2.4,8.1-5.8,10.9-10l-4.6-3.4c2.9-4.3,4.6-9.5,4.8-14.8l5.7,0.2
					C509.6,366,508.6,360.8,506.6,356.1z M484,382.2c-6.5,3.6-14.6,1-18-5.7c-3.5-6.8-1-15.2,5.5-18.8c6.5-3.6,14.6-1.1,18,5.7
					C493,370.1,490.5,378.6,484,382.2z"/>
			</g>
			<g>
				<path class="st1" d="M551.7,364.3l-3.9,1.9c-0.2-0.4-0.3-0.8-0.5-1.1c-1.7-3.3-4.1-5.9-6.9-7.7l2.3-3.8
					c-3.2-2.1-6.8-3.3-10.5-3.7l-0.4,4.5c-3.7-0.4-7.5,0.3-11.1,2.3l-2-4l-0.1,0c-3.3,1.9-6.1,4.4-8.3,7.6l3.5,2.6
					c-2.2,3.3-3.5,7.2-3.6,11.2l-4.3-0.2c-0.1,3.9,0.6,7.8,2.2,11.3l3.9-1.9c0.2,0.4,0.3,0.7,0.5,1.1c1.7,3.3,4.1,5.9,6.9,7.8
					l-2.3,3.8c3.2,2.1,6.8,3.3,10.5,3.7l0.4-4.5c3.7,0.4,7.6-0.4,11.1-2.3l2,4c3.3-1.9,6.1-4.4,8.3-7.6l-3.5-2.6
					c2.2-3.3,3.5-7.2,3.6-11.2l4.3,0.2C554,371.8,553.2,367.8,551.7,364.3z M534.6,384c-4.9,2.7-11,0.8-13.7-4.3
					c-2.6-5.1-0.8-11.5,4.2-14.3c4.9-2.7,11-0.8,13.7,4.3C541.3,374.9,539.5,381.3,534.6,384z"/>
			</g>
			<path class="st3" d="M595.4,307.4h-88.3v172.4c28.5,0,51.5-2.8,51.5-6.3c0-0.4,0-2.8,0-2.8c0-2.1-8.9-4-22.4-5.1
				c-4.2-5.1-7.1-12.2-8.2-20.2h67.4c2.8,0,5.1-2.4,5.1-5.3V312.7C600.5,309.7,598.2,307.4,595.4,307.4z"/>
		</g>
	</g>
</g>
<g id="Layer_2">
	<g>
		<polyline id="XMLID_99_" class="st10" points="406.2,384.6 376.4,397.6 346.7,410.6 346.7,397.7 303.7,397.7 303.7,371.5 
			346.7,371.5 346.7,358.6 		"/>
		<polyline id="XMLID_15_" class="st10" points="346.7,358.6 376.4,371.6 406.2,384.6 		"/>
		<rect id="XMLID_14_" x="278.7" y="390.2" class="st10" width="6.7" height="6.7"/>
		<rect id="XMLID_13_" x="294.1" y="371.5" class="st10" width="10.6" height="8.1"/>
		<rect id="XMLID_12_" x="294.1" y="389.2" class="st10" width="10.6" height="8.5"/>
		
			<rect id="XMLID_11_" x="273.1" y="373.4" transform="matrix(-0.9539 -0.3 0.3 -0.9539 429.5001 822.4833)" class="st10" width="9.7" height="9.7"/>
		
			<rect id="XMLID_10_" x="258.4" y="378.3" transform="matrix(-0.9398 0.3416 -0.3416 -0.9398 639.6189 651.8762)" class="st10" width="8" height="8"/>
		
			<rect id="XMLID_9_" x="268.9" y="384.9" transform="matrix(-0.9942 0.1076 -0.1076 -0.9942 586.267 746.2663)" class="st10" width="8.2" height="8.2"/>
		<rect id="XMLID_8_" x="247.8" y="378.8" class="st10" width="7" height="7"/>
		<rect id="XMLID_7_" x="238.4" y="382.2" class="st10" width="6.7" height="6.7"/>
		<rect id="XMLID_6_" x="286.5" y="380" class="st10" width="9.7" height="8.7"/>
		
			<rect id="XMLID_5_" x="252.9" y="387.4" transform="matrix(-0.9666 -0.2564 0.2564 -0.9666 403.8557 834.0851)" class="st10" width="6.7" height="6.7"/>
		
			<rect id="XMLID_4_" x="231.3" y="376.1" transform="matrix(-0.9577 0.2876 -0.2876 -0.9577 566.1713 673.6497)" class="st10" width="4.7" height="4.7"/>
	</g>
</g>
</svg>
