<?xml version="1.0" encoding="utf-8"?>
<!-- Generator: Adobe Illustrator 19.0.0, SVG Export Plug-In . SVG Version: 6.00 Build 0)  -->
<svg version="1.1" xmlns="http://www.w3.org/2000/svg" xmlns:xlink="http://www.w3.org/1999/xlink" x="0px" y="0px"
	 viewBox="40 248.5 692.8 297.5" style="enable-background:new 40 248.5 692.8 297.5;" xml:space="preserve">
<style type="text/css">
	.st0{fill:#202020;}
	.st1{fill:#FFFFFF;}
	.st2{fill:#999999;}
	.st3{fill:#505151;}
	.st4{fill:#4D4D4D;}
	.st5{fill:#606060;}
	.st6{fill:#F1F1F1;}
	.st7{opacity:0.15;fill:#505151;}
	.st8{fill:none;}
	.st9{fill:none;stroke:#202020;stroke-miterlimit:10;}
</style>
<g id="Layer_2">
	<g>
		<g>
			<path class="st0" d="M357.7,472.1c0,4.2-3.4,7.6-7.6,7.6h-264c-4.2,0-7.6-3.4-7.6-7.6V305.1c0-4.2,3.4-7.6,7.6-7.6h264
				c4.2,0,7.6,3.4,7.6,7.6V472.1z"/>
			<g>
				<rect x="92.5" y="318" class="st1" width="251.2" height="141.2"/>
			</g>
			<g>
				<path class="st2" d="M217.2,304.1c0,1.1-0.9,2-2,2c-1.1,0-2-0.9-2-2c0-1.1,0.9-2,2-2C216.3,302.1,217.2,303,217.2,304.1z"/>
				<path class="st3" d="M216.6,304.1c0,0.7-0.6,1.3-1.3,1.3c-0.7,0-1.3-0.6-1.3-1.3c0-0.7,0.6-1.3,1.3-1.3
					C216,302.8,216.6,303.4,216.6,304.1z"/>
				<path class="st4" d="M223.1,304.1c0,0.9-0.7,1.6-1.6,1.6c-0.9,0-1.6-0.7-1.6-1.6c0-0.9,0.7-1.6,1.6-1.6
					C222.3,302.5,223.1,303.2,223.1,304.1z"/>
			</g>
			<path class="st5" d="M374.4,472.6V484c0,4.2-3.4,7.6-7.6,7.6H69.4c-4.2,0-7.6-3.4-7.6-7.6v-11.4H374.4z"/>
			<rect x="190.1" y="472.6" class="st6" width="56" height="7.7"/>
		</g>
		<path class="st7" d="M357.7,472.6c0-0.2,0.1-0.4,0.1-0.6V305.1c0-4.2-3.4-7.6-7.6-7.6H216.6v194h150.3c4.2,0,7.6-3.4,7.6-7.6
			v-11.4H357.7z"/>
	</g>
	<g>
		<path class="st0" d="M122.9,375.4v12.3c0,0.7-0.5,1.2-1.2,1.2h-11c-1.9,0-3.3-1.5-3.3-3.4v-10.1h0.9c0.2,0,0.3,0.1,0.3,0.3v10
			c0,1.2,0.9,2.1,2.1,2.1h4.2c-0.2-0.1-0.4-0.4-0.4-0.8v-11.6h0.9c0.2,0,0.3,0.1,0.3,0.3v11.6c0,0.3,0.2,0.5,0.5,0.5h5.2
			c0.2,0,0.3-0.1,0.3-0.3v-11.8c0-0.2,0.1-0.3,0.3-0.3H122.9z"/>
		<path class="st0" d="M141.7,375.4v12.3c0,0.7-0.5,1.2-1.2,1.2h-11c-1.9,0-3.3-1.5-3.3-3.4v-10.1h0.9c0.2,0,0.3,0.1,0.3,0.3v10
			c0,1.2,0.9,2.1,2.1,2.1h4.2c-0.2-0.1-0.4-0.4-0.4-0.8v-11.6h0.9c0.2,0,0.3,0.1,0.3,0.3v11.6c0,0.3,0.2,0.5,0.5,0.5h5.2
			c0.2,0,0.3-0.1,0.3-0.3v-11.8c0-0.2,0.1-0.3,0.3-0.3H141.7z"/>
		<path class="st0" d="M160.4,375.4v12.3c0,0.7-0.5,1.2-1.2,1.2h-11c-1.9,0-3.3-1.5-3.3-3.4v-10.1h0.9c0.2,0,0.3,0.1,0.3,0.3v10
			c0,1.2,0.9,2.1,2.1,2.1h4.2c-0.2-0.1-0.4-0.4-0.4-0.8v-11.6h0.9c0.2,0,0.3,0.1,0.3,0.3v11.6c0,0.3,0.2,0.5,0.5,0.5h5.2
			c0.2,0,0.3-0.1,0.3-0.3v-11.8c0-0.2,0.1-0.3,0.3-0.3H160.4z"/>
		<path class="st0" d="M165.1,387.7v1.3H164c-0.2,0-0.4-0.2-0.4-0.4v-1.3h1.1C164.9,387.3,165.1,387.5,165.1,387.7z"/>
		<path class="st0" d="M184.7,378.8v10.1h-0.9c-0.2,0-0.3-0.1-0.3-0.3v-9.9c0-1.2-0.9-2.2-2.1-2.2h-4.3c0.2,0.1,0.4,0.4,0.4,0.8
			v11.6h-0.9c-0.2,0-0.3-0.1-0.3-0.3V377c0-0.3-0.2-0.5-0.5-0.5h-5.2c-0.2,0-0.3,0.1-0.3,0.3v11.8c0,0.2-0.1,0.3-0.3,0.3h-0.9v-12.3
			c0-0.6,0.5-1.2,1.2-1.2h11C183.2,375.4,184.7,376.9,184.7,378.8z"/>
		<path class="st0" d="M187.9,369.4h0.9c0.2,0,0.3,0.1,0.3,0.3v1.3h-0.9c-0.2,0-0.3-0.1-0.3-0.3V369.4z M187.9,375.4h0.9
			c0.2,0,0.3,0.1,0.3,0.3v13.2h-0.9c-0.2,0-0.3-0.1-0.3-0.3V375.4z"/>
		<path class="st0" d="M202.4,378.7c0-1.2-1-2.2-2.1-2.2h-5.9c-0.2,0-0.3,0.1-0.3,0.3v11.8c0,0.2-0.1,0.3-0.3,0.3h-0.9v-12.3
			c0-0.6,0.5-1.2,1.2-1.2h6.2c1.8,0,3.3,1.5,3.3,3.4v10.1h-0.9c-0.1,0-0.3-0.1-0.3-0.3V378.7z"/>
		<path class="st0" d="M206.9,385.7v-7c0-2,1.4-3.2,3.3-3.2h4.3c1.8,0,3.3,1.2,3.3,3.2v3.7c0,0.2-0.1,0.3-0.3,0.3h-8.7
			c-0.2,0-0.5-0.1-0.6-0.3h0v3.3c0,1.2,0.9,2.1,2.1,2.1h6.9c0.2,0,0.3,0.1,0.3,0.3v0.9h-7.2C208.4,388.9,206.9,387.7,206.9,385.7z
			 M210.2,376.5c-1.2,0-2.1,1-2.1,2.2v2.5c0,0.2,0.1,0.3,0.3,0.3h8.1v-2.8c0-1.2-0.9-2.2-2.1-2.2H210.2z"/>
		<path class="st0" d="M231.2,375.7v16.4c0,1.9-1.5,3.4-3.3,3.4h-6.3v-0.9c0-0.2,0.1-0.3,0.3-0.3h6.1c1.2,0,2.1-0.9,2.1-2.1v-3.7
			c-0.1,0.2-0.4,0.4-0.7,0.4l-5,0c-1.9,0-3.3-1.5-3.3-3.4v-6.7c0-1.9,1.5-3.4,3.3-3.4h6.6C231,375.4,231.2,375.5,231.2,375.7z
			 M229.5,387.8c0.3,0,0.5-0.2,0.5-0.5v-10.8h-5.7c-1.2,0-2.1,1-2.1,2.2v6.9c0,1.2,0.9,2.2,2.1,2.2H229.5z"/>
		<path class="st0" d="M237.7,389.1c-1.9,0-3.3-1.5-3.3-3.4v-7.1c0-1.9,1.5-3.4,3.3-3.4h4.1c1.8,0,3.3,1.5,3.3,3.4v7.1
			c0,1.9-1.5,3.4-3.3,3.4H237.7z M237.7,376.4c-1.2,0-2.1,1-2.1,2.2v7.3c0,1.2,0.9,2.1,2.1,2.1h4.1c1.2,0,2.1-0.9,2.1-2.1v-7.3
			c0-1.2-0.9-2.2-2.1-2.2H237.7z"/>
		<path class="st0" d="M248.1,378.8c0-1.9,1.5-3.4,3.3-3.4h5.5v0.8c0,0.2-0.1,0.3-0.3,0.3h-5.3c-1.2,0-2.1,1-2.1,2.2v6.9
			c0,1.2,0.9,2.1,2.1,2.1h5.3c0.2,0,0.3,0.1,0.3,0.3v0.8h-5.5c-1.9,0-3.3-1.5-3.3-3.4V378.8z"/>
		<path class="st0" d="M260,369.4h0.9c0.2,0,0.3,0.1,0.3,0.3v1.3h-0.9c-0.2,0-0.3-0.1-0.3-0.3V369.4z M260,375.4h0.9
			c0.2,0,0.3,0.1,0.3,0.3v13.2h-0.9c-0.2,0-0.3-0.1-0.3-0.3V375.4z"/>
		<path class="st0" d="M268.3,389.1c-1.9,0-3.3-1.5-3.3-3.4v-7.1c0-1.9,1.5-3.4,3.3-3.4h4.1c1.8,0,3.3,1.5,3.3,3.4v7.1
			c0,1.9-1.5,3.4-3.3,3.4H268.3z M268.3,376.4c-1.2,0-2.1,1-2.1,2.2v7.3c0,1.2,0.9,2.1,2.1,2.1h4.1c1.2,0,2.1-0.9,2.1-2.1v-7.3
			c0-1.2-0.9-2.2-2.1-2.2H268.3z"/>
		<path class="st0" d="M280.3,387.7v1.3h-1.1c-0.2,0-0.4-0.2-0.4-0.4v-1.3h1.1C280.2,387.3,280.3,387.5,280.3,387.7z"/>
		<path class="st0" d="M284.1,378.8c0-1.9,1.5-3.4,3.3-3.4h5.5v0.8c0,0.2-0.1,0.3-0.3,0.3h-5.3c-1.2,0-2.1,1-2.1,2.2v6.9
			c0,1.2,0.9,2.1,2.1,2.1h5.3c0.2,0,0.3,0.1,0.3,0.3v0.8h-5.5c-1.9,0-3.3-1.5-3.3-3.4V378.8z"/>
		<path class="st0" d="M299.4,389.1c-1.9,0-3.3-1.5-3.3-3.4v-7.1c0-1.9,1.5-3.4,3.3-3.4h4.1c1.8,0,3.3,1.5,3.3,3.4v7.1
			c0,1.9-1.5,3.4-3.3,3.4H299.4z M299.4,376.4c-1.2,0-2.1,1-2.1,2.2v7.3c0,1.2,0.9,2.1,2.1,2.1h4.1c1.2,0,2.1-0.9,2.1-2.1v-7.3
			c0-1.2-0.9-2.2-2.1-2.2H299.4z"/>
		<path class="st0" d="M325.6,378.8v10.1h-0.9c-0.2,0-0.3-0.1-0.3-0.3v-9.9c0-1.2-0.9-2.2-2.1-2.2H318c0.2,0.1,0.4,0.4,0.4,0.8v11.6
			h-0.9c-0.2,0-0.3-0.1-0.3-0.3V377c0-0.3-0.2-0.5-0.5-0.5h-5.2c-0.2,0-0.3,0.1-0.3,0.3v11.8c0,0.2-0.1,0.3-0.3,0.3h-0.9v-12.3
			c0-0.6,0.5-1.2,1.2-1.2h11C324.1,375.4,325.6,376.9,325.6,378.8z"/>
	</g>
	<g>
		<path d="M414.1,320.9v1.3H413c-0.2,0-0.4-0.2-0.4-0.4v-1.3h1.1C413.9,320.6,414.1,320.7,414.1,320.9z"/>
		<path d="M428.7,312v6.9c0,2-1.5,3.3-3.3,3.3h-6.9c-0.2,0-0.3-0.1-0.3-0.3V302h0.9c0.2,0,0.3,0.1,0.3,0.3v7c0-0.3,0.4-0.5,0.8-0.5
			h5.3C427.2,308.7,428.7,310,428.7,312z M427.5,312c0-1.2-1-2.2-2.2-2.2h-5.6c-0.2,0-0.4,0.2-0.5,0.5v2.5v8.3h6
			c1.2,0,2.2-0.9,2.2-2.1V312z"/>
		<path d="M431.7,302.7h0.9c0.2,0,0.3,0.1,0.3,0.3v1.3H432c-0.2,0-0.3-0.1-0.3-0.3V302.7z M431.7,308.7h0.9c0.2,0,0.3,0.1,0.3,0.3
			v13.2H432c-0.2,0-0.3-0.1-0.3-0.3V308.7z"/>
		<path d="M444.3,309.9h-7.9V309c0-0.2,0.1-0.3,0.3-0.3h8.8c0.2,0,0.3,0.1,0.3,0.3v1c0,0.4-0.1,0.7-0.3,0.9l-8.1,9.7
			c0,0.1-0.1,0.1-0.1,0.2c0,0.1,0.1,0.2,0.2,0.2h8.4v0.9c0,0.2-0.1,0.3-0.3,0.3h-9.7c-0.2,0-0.3-0.1-0.3-0.3v-0.5
			c0-0.4,0.1-0.7,0.3-0.9l8.3-10.1c0-0.1,0.1-0.1,0.1-0.2C444.5,310,444.4,309.9,444.3,309.9z"/>
	</g>
	<g>
		<path d="M423.7,380.7v1.3h-1.1c-0.2,0-0.4-0.2-0.4-0.4v-1.3h1.1C423.6,380.3,423.7,380.5,423.7,380.7z"/>
		<path d="M443.4,371.8V382h-0.9c-0.2,0-0.3-0.1-0.3-0.3v-9.9c0-1.2-0.9-2.2-2.1-2.2h-4.3c0.2,0.1,0.4,0.4,0.4,0.8V382h-0.9
			c-0.2,0-0.3-0.1-0.3-0.3v-11.6c0-0.3-0.2-0.5-0.5-0.5h-5.2c-0.2,0-0.3,0.1-0.3,0.3v11.8c0,0.2-0.1,0.3-0.3,0.3h-0.9v-12.3
			c0-0.6,0.5-1.2,1.2-1.2h11C441.9,368.4,443.4,370,443.4,371.8z"/>
		<path d="M453.9,375.8l3.2,6.2H456c-0.2,0-0.4-0.1-0.4-0.3l-2.9-5.6c-0.1-0.2-0.2-0.3-0.4-0.3h-1.5c-0.2,0-0.4,0.1-0.4,0.3l-3,5.6
			c-0.1,0.2-0.2,0.3-0.4,0.3h-1l3.3-6.1c0.1-0.2,0.4-0.5,0.6-0.6c-0.3-0.1-0.5-0.4-0.6-0.6l-3.3-6.2h1.1c0.2,0,0.3,0.1,0.4,0.2
			l3,5.7c0.1,0.1,0.3,0.3,0.4,0.3h1.5c0.2,0,0.4-0.1,0.4-0.3l2.9-5.7c0.1-0.1,0.2-0.2,0.4-0.2h1.1l-3.1,6.1
			c-0.1,0.3-0.4,0.5-0.6,0.6C453.5,375.3,453.7,375.5,453.9,375.8z"/>
	</g>
	<g>
		<path d="M525.6,433.2v1.3h-1.1c-0.2,0-0.4-0.2-0.4-0.4v-1.3h1.1C525.4,432.9,525.6,433,525.6,433.2z"/>
		<path d="M532.9,434.7c-1.9,0-3.3-1.5-3.3-3.4v-7.1c0-1.9,1.5-3.4,3.3-3.4h4.1c1.8,0,3.3,1.5,3.3,3.4v7.1c0,1.9-1.5,3.4-3.3,3.4
			H532.9z M532.9,421.9c-1.2,0-2.1,1-2.1,2.2v7.3c0,1.2,0.9,2.1,2.1,2.1h4.1c1.2,0,2.1-0.9,2.1-2.1v-7.3c0-1.2-0.9-2.2-2.1-2.2
			H532.9z"/>
		<path d="M544.8,421v0.9c0,0,0.5-0.9,2.4-0.9h3.1v0.8c0,0.2-0.1,0.3-0.3,0.3h-3.3c-1.9,0-1.8,1.9-1.8,1.9v10.4h-1.2V421H544.8z"/>
		<path d="M562.8,421.3v16.4c0,1.9-1.5,3.4-3.3,3.4h-6.3v-0.9c0-0.2,0.1-0.3,0.3-0.3h6.1c1.2,0,2.1-0.9,2.1-2.1v-3.7
			c-0.1,0.2-0.4,0.4-0.7,0.4l-5,0c-1.9,0-3.3-1.5-3.3-3.4v-6.7c0-1.9,1.5-3.4,3.3-3.4h6.6C562.7,421,562.8,421.1,562.8,421.3z
			 M561.1,433.3c0.3,0,0.5-0.2,0.5-0.5v-10.8h-5.7c-1.2,0-2.1,1-2.1,2.2v6.9c0,1.2,0.9,2.2,2.1,2.2H561.1z"/>
	</g>
	<g>
		<path d="M518.6,296.6v1.3h-1.1c-0.2,0-0.4-0.2-0.4-0.4v-1.3h1.1C518.4,296.2,518.6,296.4,518.6,296.6z"/>
		<path d="M522.4,287.7c0-1.9,1.5-3.4,3.3-3.4h5.5v0.8c0,0.2-0.1,0.3-0.3,0.3h-5.3c-1.2,0-2.1,1-2.1,2.2v6.9c0,1.2,0.9,2.1,2.1,2.1
			h5.3c0.2,0,0.3,0.1,0.3,0.3v0.8h-5.5c-1.9,0-3.3-1.5-3.3-3.4V287.7z"/>
		<path d="M537.6,298c-1.9,0-3.3-1.5-3.3-3.4v-7.1c0-1.9,1.5-3.4,3.3-3.4h4.1c1.8,0,3.3,1.5,3.3,3.4v7.1c0,1.9-1.5,3.4-3.3,3.4
			H537.6z M537.6,285.3c-1.2,0-2.1,1-2.1,2.2v7.3c0,1.2,0.9,2.1,2.1,2.1h4.1c1.2,0,2.1-0.9,2.1-2.1v-7.3c0-1.2-0.9-2.2-2.1-2.2
			H537.6z"/>
	</g>
	<g>
		<path d="M555.6,363.8v1.3h-1.1c-0.2,0-0.4-0.2-0.4-0.4v-1.3h1.1C555.4,363.5,555.6,363.6,555.6,363.8z"/>
		<path d="M560.8,351.6v0.9c0,0,0.5-0.9,2.4-0.9h3.1v0.8c0,0.2-0.1,0.3-0.3,0.3h-3.3c-1.9,0-1.8,1.9-1.8,1.9v10.4h-1.2v-13.5H560.8z
			"/>
		<path d="M569.3,361.8v-7c0-2,1.4-3.2,3.3-3.2h4.3c1.8,0,3.3,1.2,3.3,3.2v3.7c0,0.2-0.1,0.3-0.3,0.3h-8.7c-0.2,0-0.5-0.1-0.6-0.3h0
			v3.3c0,1.2,0.9,2.1,2.1,2.1h6.9c0.2,0,0.3,0.1,0.3,0.3v0.9h-7.2C570.8,365.1,569.3,363.9,569.3,361.8z M572.6,352.7
			c-1.2,0-2.1,1-2.1,2.2v2.5c0,0.2,0.1,0.3,0.3,0.3h8.1v-2.8c0-1.2-0.9-2.2-2.1-2.2H572.6z"/>
		<path d="M593.7,344.8v19.9c0,0.2-0.1,0.3-0.3,0.3h-6.9c-1.9,0-3.3-1.5-3.3-3.4V355c0-1.9,1.5-3.4,3.3-3.4h5.3
			c0.4,0,0.7,0.2,0.8,0.5v-7c0-0.2,0.1-0.3,0.3-0.3H593.7z M592.5,363.9v-10.8c0-0.3-0.2-0.5-0.5-0.5h-5.6c-1.2,0-2.1,1-2.1,2.2v7
			c0,1.2,0.9,2.1,2.1,2.1H592.5z"/>
	</g>
	<g>
		<path d="M624.7,491.3v1.3h-1.1c-0.2,0-0.4-0.2-0.4-0.4V491h1.1C624.5,491,624.7,491.2,624.7,491.3z"/>
		<path d="M628.5,482.5c0-1.9,1.5-3.4,3.3-3.4h5.5v0.8c0,0.2-0.1,0.3-0.3,0.3h-5.3c-1.2,0-2.1,1-2.1,2.2v6.9c0,1.2,0.9,2.1,2.1,2.1
			h5.3c0.2,0,0.3,0.1,0.3,0.3v0.8h-5.5c-1.9,0-3.3-1.5-3.3-3.4V482.5z"/>
		<path d="M640.4,489.3v-7c0-2,1.4-3.2,3.3-3.2h4.3c1.8,0,3.3,1.2,3.3,3.2v3.7c0,0.2-0.1,0.3-0.3,0.3h-8.7c-0.2,0-0.5-0.1-0.6-0.3h0
			v3.3c0,1.2,0.9,2.1,2.1,2.1h6.9c0.2,0,0.3,0.1,0.3,0.3v0.9h-7.2C641.9,492.6,640.4,491.4,640.4,489.3z M643.7,480.2
			c-1.2,0-2.1,1-2.1,2.2v2.5c0,0.2,0.1,0.3,0.3,0.3h8.1v-2.8c0-1.2-0.9-2.2-2.1-2.2H643.7z"/>
		<path d="M664.1,482.4c0-1.2-1-2.2-2.1-2.2H656c-0.2,0-0.3,0.1-0.3,0.3v11.8c0,0.2-0.1,0.3-0.3,0.3h-0.9v-12.3
			c0-0.6,0.5-1.2,1.2-1.2h6.2c1.8,0,3.3,1.5,3.3,3.4v10.1h-0.9c-0.1,0-0.3-0.1-0.3-0.3V482.4z"/>
		<path d="M674.7,491.8v0.8H672c-1.9,0-3.3-1.5-3.3-3.4v-16.9h0.9c0.2,0,0.3,0.1,0.3,0.3v7c0-0.3,0.4-0.5,0.8-0.5h3.3v0.8
			c0,0.2-0.1,0.3-0.3,0.3h-3.8v9.1c0,1.2,0.9,2.1,2.1,2.1h2.4C674.5,491.5,674.7,491.6,674.7,491.8z"/>
	</g>
	<g>
		<path d="M651.5,310v1.3h-1.1c-0.2,0-0.4-0.2-0.4-0.4v-1.3h1.1C651.3,309.6,651.5,309.8,651.5,310z"/>
		<path d="M661.6,310.4v0.8h-2.7c-1.9,0-3.3-1.5-3.3-3.4v-16.9h0.9c0.2,0,0.3,0.1,0.3,0.3v7c0-0.3,0.4-0.5,0.8-0.5h3.3v0.8
			c0,0.2-0.1,0.3-0.3,0.3h-3.8v9.1c0,1.2,0.9,2.1,2.1,2.1h2.4C661.4,310.1,661.6,310.2,661.6,310.4z"/>
		<path d="M662.6,297.7h1c0.2,0,0.4,0.1,0.4,0.3l4.8,11.5l4.8-11.5c0.1-0.2,0.2-0.3,0.4-0.3h1l-5.7,13.3c-0.1,0.1-0.2,0.3-0.4,0.3
			h-0.2c-0.2,0-0.4-0.1-0.4-0.3L662.6,297.7z"/>
	</g>
	<g>
		<path d="M403.1,486.1v1.3h-1.1c-0.2,0-0.4-0.2-0.4-0.4v-1.3h1.1C403,485.7,403.1,485.9,403.1,486.1z"/>
		<path d="M413.2,486.5v0.8h-2.7c-1.9,0-3.3-1.5-3.3-3.4v-16.9h0.9c0.2,0,0.3,0.1,0.3,0.3v7c0-0.3,0.4-0.5,0.8-0.5h3.3v0.8
			c0,0.2-0.1,0.3-0.3,0.3h-3.8v9.1c0,1.2,0.9,2.1,2.1,2.1h2.4C413.1,486.2,413.2,486.4,413.2,486.5z"/>
		<path d="M415.6,484.1v-7c0-2,1.4-3.2,3.3-3.2h4.3c1.8,0,3.3,1.2,3.3,3.2v3.7c0,0.2-0.1,0.3-0.3,0.3h-8.7c-0.2,0-0.5-0.1-0.6-0.3h0
			v3.3c0,1.2,0.9,2.1,2.1,2.1h6.9c0.2,0,0.3,0.1,0.3,0.3v0.9H419C417.1,487.3,415.6,486.1,415.6,484.1z M418.9,475
			c-1.2,0-2.1,1-2.1,2.2v2.5c0,0.2,0.1,0.3,0.3,0.3h8.1v-2.8c0-1.2-0.9-2.2-2.1-2.2H418.9z"/>
		<path d="M429.5,477.3c0-1.9,1.5-3.4,3.3-3.4h5.5v0.8c0,0.2-0.1,0.3-0.3,0.3h-5.3c-1.2,0-2.1,1-2.1,2.2v6.9c0,1.2,0.9,2.1,2.1,2.1
			h5.3c0.2,0,0.3,0.1,0.3,0.3v0.8h-5.5c-1.9,0-3.3-1.5-3.3-3.4V477.3z"/>
		<path d="M448.4,473.9c1.9,0,3.4,1.5,3.4,3.4v10.1h-0.9c-0.2,0-0.4-0.2-0.4-0.4v-9.9c0-1.2-1-2.1-2.2-2.1h-5.2
			c-0.3,0-0.5,0.2-0.5,0.5V487c0,0.2-0.1,0.4-0.4,0.4h-0.9v-20.3h0.9c0.2,0,0.3,0.1,0.3,0.3v7c0-0.3,0.4-0.5,0.8-0.5H448.4z"/>
		<path d="M464.5,477.1c0-1.2-1-2.2-2.1-2.2h-5.9c-0.2,0-0.3,0.1-0.3,0.3v11.8c0,0.2-0.1,0.3-0.3,0.3H455V475c0-0.6,0.5-1.2,1.2-1.2
			h6.2c1.8,0,3.3,1.5,3.3,3.4v10.1h-0.9c-0.1,0-0.3-0.1-0.3-0.3V477.1z"/>
		<path d="M472.3,487.5c-1.9,0-3.3-1.5-3.3-3.4v-7.1c0-1.9,1.5-3.4,3.3-3.4h4.1c1.8,0,3.3,1.5,3.3,3.4v7.1c0,1.9-1.5,3.4-3.3,3.4
			H472.3z M472.3,474.8c-1.2,0-2.1,1-2.1,2.2v7.3c0,1.2,0.9,2.1,2.1,2.1h4.1c1.2,0,2.1-0.9,2.1-2.1V477c0-1.2-0.9-2.2-2.1-2.2H472.3
			z"/>
		<path d="M484.1,468.2h0.9c0.2,0,0.3,0.1,0.3,0.3v18.8h-0.9c-0.2,0-0.3-0.1-0.3-0.3V468.2z"/>
		<path d="M492,487.5c-1.9,0-3.3-1.5-3.3-3.4v-7.1c0-1.9,1.5-3.4,3.3-3.4h4.1c1.8,0,3.3,1.5,3.3,3.4v7.1c0,1.9-1.5,3.4-3.3,3.4H492z
			 M492,474.8c-1.2,0-2.1,1-2.1,2.2v7.3c0,1.2,0.9,2.1,2.1,2.1h4.1c1.2,0,2.1-0.9,2.1-2.1V477c0-1.2-0.9-2.2-2.1-2.2H492z"/>
		<path d="M512.8,474.2v16.4c0,1.9-1.5,3.4-3.3,3.4h-6.3V493c0-0.2,0.1-0.3,0.3-0.3h6.1c1.2,0,2.1-0.9,2.1-2.1v-3.7
			c-0.1,0.2-0.4,0.4-0.7,0.4l-5,0c-1.9,0-3.3-1.5-3.3-3.4v-6.7c0-1.9,1.5-3.4,3.3-3.4h6.6C512.7,473.8,512.8,474,512.8,474.2z
			 M511.1,486.2c0.3,0,0.5-0.2,0.5-0.5V475h-5.7c-1.2,0-2.1,1-2.1,2.2v6.9c0,1.2,0.9,2.2,2.1,2.2H511.1z"/>
		<path d="M526.6,474.1v16.4c0,1.9-1.5,3.4-3.3,3.4h-6.7v-0.8c0-0.2,0.1-0.3,0.3-0.3h6.5c1.2,0,2.1-0.9,2.1-2.1v-3.7
			c-0.1,0.2-0.4,0.4-0.7,0.4l-5.3,0c-2.3,0-3.3-1.5-3.3-3.4v-10.1h0.9c0.2,0,0.3,0.1,0.3,0.3v9.9c0,1.2,0.5,2.2,2.1,2.2h5.5
			c0.3,0,0.5-0.2,0.5-0.5v-11.9h0.9C526.4,473.9,526.6,474,526.6,474.1z"/>
	</g>
	<g>
		<path d="M610.8,417.7v1.3h-1.1c-0.2,0-0.4-0.2-0.4-0.4v-1.3h1.1C610.6,417.3,610.8,417.5,610.8,417.7z"/>
		<path d="M623.6,413.9l-8.4-3c-0.4-0.1-0.7-0.6-0.7-1v-1.3c0-1.9,1.5-3,3.3-3h6.2v0.8c0,0.2-0.1,0.3-0.3,0.3h-5.9
			c-1.2,0-2.1,0.8-2.1,1.9v1c0,0.2,0.1,0.3,0.3,0.4l8.4,3c0.4,0.1,0.7,0.6,0.7,1v2.1c0,1.9-1.5,3-3.3,3h-7.3v-0.8
			c0-0.2,0.1-0.3,0.3-0.3h7c1.2,0,2.2-0.6,2.2-1.8v-1.8C623.9,414.1,623.7,413.9,623.6,413.9z"/>
		<path d="M638.8,405.7v16.4c0,1.9-1.5,3.4-3.3,3.4h-6.7v-0.8c0-0.2,0.1-0.3,0.3-0.3h6.5c1.2,0,2.1-0.9,2.1-2.1v-3.7
			c-0.1,0.2-0.4,0.4-0.7,0.4l-5.3,0c-2.3,0-3.3-1.5-3.3-3.4v-10.1h0.9c0.2,0,0.3,0.1,0.3,0.3v9.9c0,1.2,0.5,2.2,2.1,2.2h5.5
			c0.3,0,0.5-0.2,0.5-0.5v-11.9h0.9C638.7,405.4,638.8,405.5,638.8,405.7z"/>
		<path d="M650.9,413.9l-8.4-3c-0.4-0.1-0.7-0.6-0.7-1v-1.3c0-1.9,1.5-3,3.3-3h6.2v0.8c0,0.2-0.1,0.3-0.3,0.3h-5.9
			c-1.2,0-2.1,0.8-2.1,1.9v1c0,0.2,0.1,0.3,0.3,0.4l8.4,3c0.4,0.1,0.7,0.6,0.7,1v2.1c0,1.9-1.5,3-3.3,3h-7.3v-0.8
			c0-0.2,0.1-0.3,0.3-0.3h7c1.2,0,2.2-0.6,2.2-1.8v-1.8C651.2,414.1,651.1,413.9,650.9,413.9z"/>
		<path d="M661.7,418.1v0.8H659c-1.9,0-3.3-1.5-3.3-3.4v-16.9h0.9c0.2,0,0.3,0.1,0.3,0.3v7c0-0.3,0.4-0.5,0.8-0.5h3.3v0.8
			c0,0.2-0.1,0.3-0.3,0.3h-3.8v9.1c0,1.2,0.9,2.1,2.1,2.1h2.4C661.6,417.8,661.7,417.9,661.7,418.1z"/>
		<path d="M664.1,415.7v-7c0-2,1.4-3.2,3.3-3.2h4.3c1.8,0,3.3,1.2,3.3,3.2v3.7c0,0.2-0.1,0.3-0.3,0.3H666c-0.2,0-0.5-0.1-0.6-0.3h0
			v3.3c0,1.2,0.9,2.1,2.1,2.1h6.9c0.2,0,0.3,0.1,0.3,0.3v0.9h-7.2C665.6,418.9,664.1,417.7,664.1,415.7z M667.4,406.5
			c-1.2,0-2.1,1-2.1,2.2v2.5c0,0.2,0.1,0.3,0.3,0.3h8.1v-2.8c0-1.2-0.9-2.2-2.1-2.2H667.4z"/>
		<path d="M693.8,408.8v10.1h-0.9c-0.2,0-0.3-0.1-0.3-0.3v-9.9c0-1.2-0.9-2.2-2.1-2.2h-4.3c0.2,0.1,0.4,0.4,0.4,0.8v11.6h-0.9
			c-0.2,0-0.3-0.1-0.3-0.3V407c0-0.3-0.2-0.5-0.5-0.5h-5.2c-0.2,0-0.3,0.1-0.3,0.3v11.8c0,0.2-0.1,0.3-0.3,0.3h-0.9v-12.3
			c0-0.6,0.5-1.2,1.2-1.2h11C692.3,405.4,693.8,406.9,693.8,408.8z"/>
		<path d="M705.9,413.9l-8.4-3c-0.4-0.1-0.7-0.6-0.7-1v-1.3c0-1.9,1.5-3,3.3-3h6.2v0.8c0,0.2-0.1,0.3-0.3,0.3h-5.9
			c-1.2,0-2.1,0.8-2.1,1.9v1c0,0.2,0.1,0.3,0.3,0.4l8.4,3c0.4,0.1,0.7,0.6,0.7,1v2.1c0,1.9-1.5,3-3.3,3h-7.3v-0.8
			c0-0.2,0.1-0.3,0.3-0.3h7c1.2,0,2.2-0.6,2.2-1.8v-1.8C706.1,414.1,706,413.9,705.9,413.9z"/>
	</g>
	<path class="st8" d="M601.9,371.4"/>
</g>
<g id="Capa_1" xmlns:inkscape="http://www.inkscape.org/namespaces/inkscape" xmlns:cc="http://creativecommons.org/ns#" xmlns:dc="http://purl.org/dc/elements/1.1/" xmlns:rdf="http://www.w3.org/1999/02/22-rdf-syntax-ns#" xmlns:svg="http://www.w3.org/2000/svg" xmlns:sodipodi="http://sodipodi.sourceforge.net/DTD/sodipodi-0.dtd" sodipodi:docname="database-configuration1.svg" inkscape:version="0.91 r13725">
	
		<sodipodi:namedview  inkscape:zoom="0.94445249" guidetolerance="10" gridtolerance="10" inkscape:cx="71.437974" inkscape:cy="8.2202893" showgrid="false" borderopacity="1" objecttolerance="10" pagecolor="#ffffff" bordercolor="#666666" id="namedview8207" inkscape:pageopacity="0" inkscape:current-layer="Capa_1" inkscape:window-maximized="1" inkscape:window-y="-8" inkscape:window-x="54" inkscape:window-height="1177" inkscape:window-width="1858" inkscape:pageshadow="2">
		</sodipodi:namedview>
	<g id="g8177" transform="translate(0,209.154)">
	</g>
	<g id="g8179" transform="translate(0,209.154)">
	</g>
	<g id="g8181" transform="translate(0,209.154)">
	</g>
	<g id="g8183" transform="translate(0,209.154)">
	</g>
	<g id="g8185" transform="translate(0,209.154)">
	</g>
	<g id="g8187" transform="translate(0,209.154)">
	</g>
	<g id="g8189" transform="translate(0,209.154)">
	</g>
	<g id="g8191" transform="translate(0,209.154)">
	</g>
	<g id="g8193" transform="translate(0,209.154)">
	</g>
	<g id="g8195" transform="translate(0,209.154)">
	</g>
	<g id="g8197" transform="translate(0,209.154)">
	</g>
	<g id="g8199" transform="translate(0,209.154)">
	</g>
	<g id="g8201" transform="translate(0,209.154)">
	</g>
	<g id="g8203" transform="translate(0,209.154)">
	</g>
	<g id="g8205" transform="translate(0,209.154)">
	</g>
	<line class="st9" x1="357.7" y1="375.1" x2="411.1" y2="429.8"/>
	<line class="st9" x1="411.1" y1="429.8" x2="434.7" y2="388.6"/>
	<line class="st9" x1="354.8" y1="338.7" x2="386.4" y2="355.8"/>
	<line class="st9" x1="386.4" y1="355.8" x2="422.9" y2="324.2"/>
	<line class="st9" x1="357.7" y1="489.2" x2="384.4" y2="521.4"/>
	<line class="st9" x1="384.4" y1="521.4" x2="434.7" y2="493"/>
	<line class="st9" x1="357.7" y1="445.8" x2="552.6" y2="455.5"/>
	<line class="st9" x1="552.6" y1="455.5" x2="552.6" y2="445.8"/>
	<line class="st9" x1="343.7" y1="491.6" x2="343.7" y2="533.2"/>
	<line class="st9" x1="343.7" y1="533.2" x2="619" y2="533.2"/>
	<line class="st9" x1="619" y1="533.2" x2="653" y2="502.6"/>
	<line class="st9" x1="545.6" y1="455.1" x2="550.4" y2="476.4"/>
	<line class="st9" x1="550.4" y1="476.4" x2="653" y2="427.6"/>
	<line class="st9" x1="424.9" y1="405.6" x2="538.1" y2="383.7"/>
	<line class="st9" x1="538.1" y1="383.7" x2="594.3" y2="397.3"/>
	<line class="st9" x1="566.2" y1="390.5" x2="580.4" y2="375.1"/>
	<line class="st9" x1="594.3" y1="397.3" x2="660.5" y2="324.2"/>
	<line class="st9" x1="512.8" y1="388.6" x2="538.1" y2="305.5"/>
</g>
</svg>
