<?xml version="1.0" encoding="UTF-8" standalone="no"?>
<!-- Generator: Adobe Illustrator 16.0.0, SVG Export Plug-In . SVG Version: 6.00 Build 0)  -->

<svg
   xmlns:dc="http://purl.org/dc/elements/1.1/"
   xmlns:cc="http://creativecommons.org/ns#"
   xmlns:rdf="http://www.w3.org/1999/02/22-rdf-syntax-ns#"
   xmlns:svg="http://www.w3.org/2000/svg"
   xmlns="http://www.w3.org/2000/svg"
   xmlns:sodipodi="http://sodipodi.sourceforge.net/DTD/sodipodi-0.dtd"
   xmlns:inkscape="http://www.inkscape.org/namespaces/inkscape"
   version="1.1"
   id="Capa_1"
   x="0px"
   y="0px"
   width="692.79999"
   height="297.5"
   viewBox="0 0 692.79999 297.5"
   xml:space="preserve"
   inkscape:version="0.91 r13725"
   sodipodi:docname="database-configuration1.svg"><metadata
     id="metadata8211"><rdf:RDF><cc:Work
         rdf:about=""><dc:format>image/svg+xml</dc:format><dc:type
           rdf:resource="http://purl.org/dc/dcmitype/StillImage" /><dc:title></dc:title></cc:Work></rdf:RDF></metadata><defs
     id="defs8209" /><sodipodi:namedview
     pagecolor="#ffffff"
     bordercolor="#666666"
     borderopacity="1"
     objecttolerance="10"
     gridtolerance="10"
     guidetolerance="10"
     inkscape:pageopacity="0"
     inkscape:pageshadow="2"
     inkscape:window-width="1858"
     inkscape:window-height="1177"
     id="namedview8207"
     showgrid="false"
     inkscape:zoom="0.94445249"
     inkscape:cx="71.437974"
     inkscape:cy="8.2202893"
     inkscape:window-x="54"
     inkscape:window-y="-8"
     inkscape:window-maximized="1"
     inkscape:current-layer="Capa_1" /><g
     id="g8177"
     transform="translate(0,209.154)" /><g
     id="g8179"
     transform="translate(0,209.154)" /><g
     id="g8181"
     transform="translate(0,209.154)" /><g
     id="g8183"
     transform="translate(0,209.154)" /><g
     id="g8185"
     transform="translate(0,209.154)" /><g
     id="g8187"
     transform="translate(0,209.154)" /><g
     id="g8189"
     transform="translate(0,209.154)" /><g
     id="g8191"
     transform="translate(0,209.154)" /><g
     id="g8193"
     transform="translate(0,209.154)" /><g
     id="g8195"
     transform="translate(0,209.154)" /><g
     id="g8197"
     transform="translate(0,209.154)" /><g
     id="g8199"
     transform="translate(0,209.154)" /><g
     id="g8201"
     transform="translate(0,209.154)" /><g
     id="g8203"
     transform="translate(0,209.154)" /><g
     id="g8205"
     transform="translate(0,209.154)" /><g
     id="g12018"
     transform="matrix(1.9469401,0,0,1.9490638,274.57818,-344.1873)"><g
       style="fill:#202020;fill-opacity:1"
       transform="matrix(0.96186527,0,0,1,1.8717373,209.154)"
       id="g8167"><g
         style="fill:#202020;fill-opacity:1"
         id="g8169"><path
           style="fill:#202020;fill-opacity:1"
           inkscape:connector-curvature="0"
           id="path8171"
           d="m 66.373,59.616 c -3.251,0 -5.896,2.645 -5.896,5.896 0,3.25 2.646,5.896 5.896,5.896 3.25,0 5.896,-2.646 5.896,-5.896 10e-4,-3.252 -2.646,-5.896 -5.896,-5.896 z" /><path
           style="fill:#202020;fill-opacity:1"
           inkscape:connector-curvature="0"
           id="path8173"
           d="m 85.208,57.135 c 0.087,-0.444 0.132,-0.897 0.132,-1.354 0,-1.899 -0.74,-3.688 -2.085,-5.032 l -3.004,-3.003 c -1.614,-1.625 -4.099,-2.368 -6.382,-1.938 -0.967,-1.442 -2.447,-2.509 -4.178,-2.944 l 0,-11.11 c 0,-0.318 -0.066,-0.627 -0.129,-0.941 C 68.236,37.391 53.217,42.579 34.844,42.579 16.471,42.579 1.455,37.39 0.129,30.812 0.066,31.126 0,31.435 0,31.753 L 0,48.03 c 0,7.02 15.602,12.707 34.846,12.707 3.116,0 6.135,-0.152 9.01,-0.432 -0.352,0.842 -0.552,1.762 -0.552,2.729 l 0,3.693 c -2.707,0.246 -5.54,0.379 -8.458,0.379 C 16.473,67.106 1.455,61.917 0.129,55.34 0.066,55.651 0,55.965 0,56.281 l 0,16.278 c 0,7.021 15.602,12.705 34.846,12.705 6.47,0 12.523,-0.645 17.717,-1.764 1.521,0.963 3.428,1.355 5.217,1.021 1.278,1.904 3.453,3.162 5.916,3.162 l 4.26,0 c 2.457,0 4.627,-1.252 5.906,-3.15 2.278,0.438 4.754,-0.311 6.379,-1.939 l 3.016,-3.014 c 1.734,-1.732 2.385,-4.146 1.953,-6.389 1.893,-1.281 3.138,-3.447 3.138,-5.9 l 0,-4.26 C 88.346,60.583 87.1,58.417 85.208,57.135 Z m -1.813,10.506 c 0,0.896 -0.727,1.621 -1.619,1.621 l -2.576,0 c -0.27,0.927 -0.641,1.82 -1.104,2.668 l 1.819,1.82 c 0.632,0.633 0.632,1.66 0,2.291 L 76.9,79.053 c -0.61,0.611 -1.678,0.611 -2.287,0 l -1.822,-1.819 c -0.848,0.467 -1.743,0.836 -2.67,1.104 l 0,2.576 c 0,0.893 -0.727,1.619 -1.619,1.619 l -4.26,0 c -0.894,0 -1.618,-0.727 -1.618,-1.619 l 0,-2.576 c -0.927,-0.27 -1.823,-0.639 -2.671,-1.104 l -1.821,1.819 c -0.587,0.59 -1.7,0.588 -2.287,0 l -3.014,-3.012 c -0.306,-0.307 -0.474,-0.711 -0.474,-1.146 0,-0.427 0.172,-0.845 0.475,-1.146 l 1.818,-1.82 c -0.465,-0.848 -0.836,-1.741 -1.104,-2.668 l -2.576,0 c -0.895,0 -1.619,-0.727 -1.619,-1.621 l 0,-4.26 c 0,-0.893 0.727,-1.617 1.619,-1.617 l 2.576,0 c 0.27,-0.928 0.639,-1.821 1.104,-2.672 l -1.819,-1.819 c -0.632,-0.632 -0.632,-1.656 0,-2.289 l 3.014,-3.013 c 0.61,-0.61 1.677,-0.61 2.287,0 l 1.821,1.82 c 0.848,-0.467 1.744,-0.836 2.671,-1.104 l 0,-2.576 c 0,-0.894 0.726,-1.619 1.618,-1.619 l 4.26,0 c 0.895,0 1.619,0.728 1.619,1.619 l 0,2.576 c 0.927,0.271 1.822,0.639 2.67,1.104 l 1.822,-1.82 c 0.588,-0.59 1.701,-0.59 2.287,0 l 3.014,3.013 c 0.306,0.308 0.474,0.713 0.474,1.146 0,0.426 -0.173,0.846 -0.475,1.146 l -1.818,1.819 c 0.464,0.849 0.835,1.742 1.104,2.67 l 2.576,0 c 0.894,0 1.619,0.726 1.619,1.617 l 0,4.26 z" /><path
           style="fill:#202020;fill-opacity:1"
           inkscape:connector-curvature="0"
           id="path8175"
           d="m 34.846,36.501 c 19.244,0 34.846,-5.686 34.846,-12.705 l 0,-10.426 C 69.692,6.35 54.09,0.663 34.846,0.663 15.602,0.663 0,6.351 0,13.37 l 0,10.426 c 0,7.02 15.602,12.705 34.846,12.705 z" /></g></g><g
       id="g7377"
       transform="matrix(0.10891426,0,0,0.1155367,114.25947,235.2782)"><g
         transform="matrix(0.61899718,0,0,0.25698962,-904.85454,-214.19822)"
         style="fill:#f5f5f5;fill-opacity:1"
         id="g8780"><path
           inkscape:connector-curvature="0"
           id="path6823"
           d="m 337.4,14.6 c 0.5,0.1 1.1,0.2 1.6,0.4 0,0.1 0,0.2 0,0.4 0.2,0 0.4,0 0.6,0 0.2,0.4 0.4,0.7 0.6,1.1 5.1,4 3.6,11.7 5.5,18.9 0.1,1.4 0.2,2.9 0.3,4.3 1.2,4.5 1.1,10.2 2.3,14.6 0,1 0,1.9 0,2.9 0.1,0 0.2,0 0.3,0 0,1 0,1.9 0,2.9 0.1,0 0.2,0 0.3,0 0,1.1 0,2.1 0,3.2 0.1,0 0.2,0 0.3,0 0,1.2 0,2.4 0,3.6 0.1,0 0.2,0 0.3,0 0.1,3.6 0.2,7.1 0.3,10.7 0.1,0 0.2,0 0.3,0 0,4 0,8.1 0,12.1 -0.1,0 -0.2,0 -0.3,0 0,1.9 0,3.8 0,5.7 -0.1,0 -0.2,0 -0.3,0 0,1.2 0,2.4 0,3.6 -0.1,0 -0.2,0 -0.3,0 0,0.8 0,1.7 0,2.5 -0.1,0 -0.2,0 -0.3,0 0,0.8 0,1.7 0,2.5 -0.1,0 -0.2,0 -0.3,0 0,0.7 0,1.4 0,2.1 -0.1,0 -0.2,0 -0.3,0 0,0.6 0,1.2 0,1.8 -0.1,0 -0.2,0 -0.3,0 0,0.6 0,1.2 0,1.8 -0.1,0 -0.2,0 -0.3,0 0,0.5 0,1 0,1.4 -0.1,0 -0.2,0 -0.3,0 0,0.5 0,1 0,1.4 -0.1,0 -0.2,0 -0.3,0 -0.1,1 -0.2,1.9 -0.3,2.9 -0.1,0 -0.2,0 -0.3,0 0,0.4 0,0.7 0,1.1 -0.1,0 -0.2,0 -0.3,0 0,0.4 0,0.7 0,1.1 -0.1,0 -0.2,0 -0.3,0 -0.2,1.2 -0.4,2.4 -0.6,3.6 -0.1,0 -0.2,0 -0.3,0 0,0.2 0,0.5 0,0.7 -0.1,0 -0.2,0 -0.3,0 0,0.4 0,0.7 0,1.1 -0.1,0 -0.2,0 -0.3,0 -0.1,0.7 -0.2,1.4 -0.3,2.1 -0.1,0 -0.2,0 -0.3,0 -0.4,1.6 0.4,2.5 0.6,3.6 0.3,0.1 0.6,0.2 1,0.4 0.1,0.2 0.2,0.5 0.3,0.7 1.9,0.4 3.9,0.7 5.8,1.1 4.8,1.8 10.4,3.1 15.1,5 0.4,0 0.9,0 1.3,0 0,0.1 0,0.2 0,0.4 0.3,0 0.6,0 1,0 0,0.1 0,0.2 0,0.4 0.4,0 0.9,0 1.3,0 0,0.1 0,0.2 0,0.4 1.1,0.2 2.1,0.5 3.2,0.7 0,0.1 0,0.2 0,0.4 1.1,0.2 2.1,0.5 3.2,0.7 0,0.1 0,0.2 0,0.4 0.3,0 0.6,0 1,0 0,0.1 0,0.2 0,0.4 0.3,0 0.6,0 1,0 0,0.1 0,0.2 0,0.4 0.3,0 0.6,0 1,0 0,0.1 0,0.2 0,0.4 0.3,0 0.6,0 1,0 0,0.1 0,0.2 0,0.4 0.6,0.1 1.3,0.2 1.9,0.4 0,0.1 0,0.2 0,0.4 0.4,0 0.9,0 1.3,0 0,0.1 0,0.2 0,0.4 0.3,0 0.6,0 1,0 0,0.1 0,0.2 0,0.4 0.3,0 0.6,0 1,0 0,0.1 0,0.2 0,0.4 0.3,0 0.6,0 1,0 0,0.1 0,0.2 0,0.4 0.3,0 0.6,0 1,0 0,0.1 0,0.2 0,0.4 0.3,0 0.6,0 1,0 0,0.1 0,0.2 0,0.4 0.3,0 0.6,0 1,0 0,0.1 0,0.2 0,0.4 0.3,0 0.6,0 1,0 0,0.1 0,0.2 0,0.4 0.3,0 0.6,0 1,0 0,0.1 0,0.2 0,0.4 0.2,0 0.4,0 0.6,0 0,0.1 0,0.2 0,0.4 1,0.2 1.9,0.5 2.9,0.7 0,0.1 0,0.2 0,0.4 1,0.2 1.9,0.5 2.9,0.7 0,0.1 0,0.2 0,0.4 0.2,0 0.4,0 0.6,0 0,0.1 0,0.2 0,0.4 0.3,0 0.6,0 1,0 0,0.1 0,0.2 0,0.4 0.3,0 0.6,0 1,0 0,0.1 0,0.2 0,0.4 0.3,0 0.6,0 1,0 0,0.1 0,0.2 0,0.4 0.3,0 0.6,0 1,0 0,0.1 0,0.2 0,0.4 0.2,0 0.4,0 0.6,0 0,0.1 0,0.2 0,0.4 0.6,0.1 1.3,0.2 1.9,0.4 0,0.1 0,0.2 0,0.4 0.2,0 0.4,0 0.6,0 0,0.1 0,0.2 0,0.4 0.3,0 0.6,0 1,0 0,0.1 0,0.2 0,0.4 0.3,0 0.6,0 1,0 0,0.1 0,0.2 0,0.4 0.2,0 0.4,0 0.6,0 0,0.1 0,0.2 0,0.4 0.6,0.1 1.3,0.2 1.9,0.4 0,0.1 0,0.2 0,0.4 0.2,0 0.4,0 0.6,0 0,0.1 0,0.2 0,0.4 0.3,0 0.6,0 1,0 0,0.1 0,0.2 0,0.4 0.3,0 0.6,0 1,0 0,0.1 0,0.2 0,0.4 0.2,0 0.4,0 0.6,0 0,0.1 0,0.2 0,0.4 0.3,0 0.6,0 1,0 0,0.1 0,0.2 0,0.4 0.2,0 0.4,0 0.6,0 0,0.1 0,0.2 0,0.4 0.6,0.1 1.3,0.2 1.9,0.4 0,0.1 0,0.2 0,0.4 0.2,0 0.4,0 0.6,0 0,0.1 0,0.2 0,0.4 0.3,0 0.6,0 1,0 0,0.1 0,0.2 0,0.4 0.2,0 0.4,0 0.6,0 0,0.1 0,0.2 0,0.4 0.5,0.1 1.1,0.2 1.6,0.4 0,0.1 0,0.2 0,0.4 0.3,0 0.6,0 1,0 0,0.1 0,0.2 0,0.4 0.2,0 0.4,0 0.6,0 0,0.1 0,0.2 0,0.4 0.3,0 0.6,0 1,0 0,0.1 0,0.2 0,0.4 0.2,0 0.4,0 0.6,0 0,0.1 0,0.2 0,0.4 0.3,0 0.6,0 1,0 0,0.1 0,0.2 0,0.4 0.5,0.1 1.1,0.2 1.6,0.4 0,0.1 0,0.2 0,0.4 0.2,0 0.4,0 0.6,0 0,0.1 0,0.2 0,0.4 0.3,0 0.6,0 1,0 0,0.1 0,0.2 0,0.4 0.5,0.1 1.1,0.2 1.6,0.4 0,0.1 0,0.2 0,0.4 0.4,0.1 0.9,0.2 1.3,0.4 0,0.1 0,0.2 0,0.4 0.3,0 0.6,0 1,0 0,0.1 0,0.2 0,0.4 0.2,0 0.4,0 0.6,0 0,0.1 0,0.2 0,0.4 0.3,0 0.6,0 1,0 0,0.1 0,0.2 0,0.4 0.4,0.1 0.9,0.2 1.3,0.4 0,0.1 0,0.2 0,0.4 0.3,0 0.6,0 1,0 0,0.1 0,0.2 0,0.4 0.2,0 0.4,0 0.6,0 0,0.1 0,0.2 0,0.4 0.3,0 0.6,0 1,0 0,0.1 0,0.2 0,0.4 0.4,0.1 0.9,0.2 1.3,0.4 0,0.1 0,0.2 0,0.4 0.3,0 0.6,0 1,0 0,0.1 0,0.2 0,0.4 0.4,0.1 0.9,0.2 1.3,0.4 0,0.1 0,0.2 0,0.4 0.3,0 0.6,0 1,0 0,0.1 0,0.2 0,0.4 0.2,0 0.4,0 0.6,0 0,0.1 0,0.2 0,0.4 0.2,0 0.4,0 0.6,0 0.1,0.2 0.2,0.5 0.3,0.7 0.6,0.2 1.3,0.5 1.9,0.7 0.1,0.2 0.2,0.5 0.3,0.7 0.2,0 0.4,0 0.6,0 0.1,0.2 0.2,0.5 0.3,0.7 0.2,0 0.4,0 0.6,0 0.2,0.4 0.4,0.7 0.6,1.1 0.2,0 0.4,0 0.6,0 0.4,0.6 0.9,1.2 1.3,1.8 0.9,0.8 1.7,1.7 2.6,2.5 0,0.2 0,0.5 0,0.7 0.3,0.2 0.6,0.5 1,0.7 0,0.2 0,0.5 0,0.7 0.2,0.1 0.4,0.2 0.6,0.4 0.1,0.5 0.2,1 0.3,1.4 0.2,0.1 0.4,0.2 0.6,0.4 0.2,0.7 0.4,1.4 0.6,2.1 0.1,0 0.2,0 0.3,0 0,0.2 0,0.5 0,0.7 0.1,0 0.2,0 0.3,0 0.2,0.7 0.4,1.4 0.6,2.1 0.1,0 0.2,0 0.3,0 0,0.4 0,0.7 0,1.1 0.1,0 0.2,0 0.3,0 0,0.2 0,0.5 0,0.7 0.1,0 0.2,0 0.3,0 0.1,0.7 0.2,1.4 0.3,2.1 0.1,0 0.2,0 0.3,0 0,0.4 0,0.7 0,1.1 0.1,0 0.2,0 0.3,0 0,0.4 0,0.7 0,1.1 0.1,0 0.2,0 0.3,0 0,0.4 0,0.7 0,1.1 0.1,0 0.2,0 0.3,0 0.2,1.2 0.4,2.4 0.6,3.6 0.1,0 0.2,0 0.3,0 0,0.2 0,0.5 0,0.7 0.1,0 0.2,0 0.3,0 0.1,0.7 0.2,1.4 0.3,2.1 0.1,0 0.2,0 0.3,0 0.1,0.5 0.2,1 0.3,1.4 0.1,0 0.2,0 0.3,0 0,0.4 0,0.7 0,1.1 0.1,0 0.2,0 0.3,0 0.2,0.7 0.4,1.4 0.6,2.1 0.1,0 0.2,0 0.3,0 0,0.2 0,0.5 0,0.7 0.1,0 0.2,0 0.3,0 0,0.2 0,0.5 0,0.7 0.1,0 0.2,0 0.3,0 0,0.2 0,0.5 0,0.7 0.1,0 0.2,0 0.3,0 0,0.2 0,0.5 0,0.7 0.1,0 0.2,0 0.3,0 0,0.2 0,0.5 0,0.7 0.1,0 0.2,0 0.3,0 0,0.2 0,0.5 0,0.7 0.2,0.1 0.4,0.2 0.6,0.4 0.1,0.5 0.2,1 0.3,1.4 0.2,0.1 0.4,0.2 0.6,0.4 0,0.2 0,0.5 0,0.7 0.1,0 0.2,0 0.3,0 0,0.2 0,0.5 0,0.7 0.2,0.1 0.4,0.2 0.6,0.4 0,0.2 0,0.5 0,0.7 0.2,0.1 0.4,0.2 0.6,0.4 0,0.2 0,0.5 0,0.7 0.3,0.2 0.6,0.5 1,0.7 0,0.2 0,0.5 0,0.7 0.3,0.2 0.6,0.5 1,0.7 0,0.2 0,0.5 0,0.7 0.3,0.2 0.6,0.5 1,0.7 0,0.2 0,0.5 0,0.7 0.4,0.4 0.9,0.7 1.3,1.1 0,0.2 0,0.5 0,0.7 0.6,0.6 1.3,1.2 1.9,1.8 0,0.2 0,0.5 0,0.7 1.1,1.1 2.1,2.1 3.2,3.2 1.7,2 3.4,4 5.2,6.1 0.2,0 0.4,0 0.6,0 0.6,0.8 1.3,1.7 1.9,2.5 0.2,0 0.4,0 0.6,0 0.5,0.7 1.1,1.4 1.6,2.1 0.2,0 0.4,0 0.6,0 0.3,0.5 0.6,1 1,1.4 0.2,0 0.4,0 0.6,0 0.3,0.5 0.6,1 1,1.4 0.2,0 0.4,0 0.6,0 0.1,0.2 0.2,0.5 0.3,0.7 0.3,0.1 0.6,0.2 1,0.4 0.3,0.5 0.6,1 1,1.4 0.2,0 0.4,0 0.6,0 0.2,0.4 0.4,0.7 0.6,1.1 0.2,0 0.4,0 0.6,0 0.2,0.4 0.4,0.7 0.6,1.1 0.2,0 0.4,0 0.6,0 0.2,0.4 0.4,0.7 0.6,1.1 0.2,0 0.4,0 0.6,0 0.1,0.2 0.2,0.5 0.3,0.7 0.2,0 0.4,0 0.6,0 0.1,0.2 0.2,0.5 0.3,0.7 0.3,0.1 0.6,0.2 1,0.4 0.2,0.4 0.4,0.7 0.6,1.1 0.2,0 0.4,0 0.6,0 0.1,0.2 0.2,0.5 0.3,0.7 0.2,0 0.4,0 0.6,0 0.2,0.4 0.4,0.7 0.6,1.1 0.2,0 0.4,0 0.6,0 0.1,0.2 0.2,0.5 0.3,0.7 0.2,0 0.4,0 0.6,0 0.2,0.4 0.4,0.7 0.6,1.1 0.2,0 0.4,0 0.6,0 0,0.1 0,0.2 0,0.4 0.3,0.1 0.6,0.2 1,0.4 0.1,0.2 0.2,0.5 0.3,0.7 0.2,0 0.4,0 0.6,0 0.2,0.4 0.4,0.7 0.6,1.1 0.2,0 0.4,0 0.6,0 0.1,0.2 0.2,0.5 0.3,0.7 0.2,0 0.4,0 0.6,0 0.2,0.4 0.4,0.7 0.6,1.1 0.2,0 0.4,0 0.6,0 0.1,0.2 0.2,0.5 0.3,0.7 0.2,0 0.4,0 0.6,0 0.2,0.4 0.4,0.7 0.6,1.1 0.2,0 0.4,0 0.6,0 0.2,0.4 0.4,0.7 0.6,1.1 0.4,0.1 0.9,0.2 1.3,0.4 0.1,0.2 0.2,0.5 0.3,0.7 0.4,0.1 0.9,0.2 1.3,0.4 0.1,0.2 0.2,0.5 0.3,0.7 0.4,0.1 0.9,0.2 1.3,0.4 0.1,0.2 0.2,0.5 0.3,0.7 0.4,0.1 0.9,0.2 1.3,0.4 0.1,0.2 0.2,0.5 0.3,0.7 0.4,0.1 0.9,0.2 1.3,0.4 0.1,0.2 0.2,0.5 0.3,0.7 0.2,0 0.4,0 0.6,0 0.1,0.2 0.2,0.5 0.3,0.7 0.2,0 0.4,0 0.6,0 0.2,0.4 0.4,0.7 0.6,1.1 0.2,0 0.4,0 0.6,0 0.4,0.6 0.9,1.2 1.3,1.8 0.2,0 0.4,0 0.6,0 0.3,0.5 0.6,1 1,1.4 0.1,0 0.2,0 0.3,0 0,0.2 0,0.5 0,0.7 0.2,0.1 0.4,0.2 0.6,0.4 0.5,0.6 0.9,1.3 1.3,2.1 -0.3,0 -0.6,0 -1,0 0,-0.1 0,-0.2 0,-0.4 -1.5,-0.2 -3,-0.5 -4.5,-0.7 0,-0.1 0,-0.2 0,-0.4 -0.5,0 -1.1,0 -1.6,0 0,-0.1 0,-0.2 0,-0.4 -0.9,-0.1 -1.7,-0.2 -2.6,-0.4 0,-0.1 0,-0.2 0,-0.4 -0.9,-0.1 -1.7,-0.2 -2.6,-0.4 0,-0.1 0,-0.2 0,-0.4 -0.3,0 -0.6,0 -1,0 0,-0.1 0,-0.2 0,-0.4 -0.8,-0.1 -1.5,-0.2 -2.3,-0.4 0,-0.1 0,-0.2 0,-0.4 -1.1,-0.2 -2.1,-0.5 -3.2,-0.7 0,-0.1 0,-0.2 0,-0.4 -0.3,0 -0.6,0 -1,0 0,-0.1 0,-0.2 0,-0.4 -0.3,0 -0.6,0 -1,0 0,-0.1 0,-0.2 0,-0.4 -0.3,0 -0.6,0 -1,0 0,-0.1 0,-0.2 0,-0.4 -0.3,0 -0.6,0 -1,0 0,-0.1 0,-0.2 0,-0.4 -0.3,0 -0.6,0 -1,0 0,-0.1 0,-0.2 0,-0.4 -0.6,-0.1 -1.3,-0.2 -1.9,-0.4 0,-0.1 0,-0.2 0,-0.4 -0.2,0 -0.4,0 -0.6,0 0,-0.1 0,-0.2 0,-0.4 -0.3,0 -0.6,0 -1,0 0,-0.1 0,-0.2 0,-0.4 -0.2,0 -0.4,0 -0.6,0 0,-0.1 0,-0.2 0,-0.4 -0.3,0 -0.6,0 -1,0 0,-0.1 0,-0.2 0,-0.4 -0.2,0 -0.4,0 -0.6,0 0,-0.1 0,-0.2 0,-0.4 -0.3,0 -0.6,0 -1,0 0,-0.1 0,-0.2 0,-0.4 -0.4,-0.1 -0.9,-0.2 -1.3,-0.4 0,-0.1 0,-0.2 0,-0.4 -0.3,0 -0.6,0 -1,0 0,-0.1 0,-0.2 0,-0.4 -0.4,-0.1 -0.9,-0.2 -1.3,-0.4 0,-0.1 0,-0.2 0,-0.4 -0.5,-0.1 -1.1,-0.2 -1.6,-0.4 0,-0.1 0,-0.2 0,-0.4 -0.6,-0.2 -1.3,-0.5 -1.9,-0.7 0,-0.1 0,-0.2 0,-0.4 -0.2,0 -0.4,0 -0.6,0 0,-0.1 0,-0.2 0,-0.4 -0.2,0 -0.4,0 -0.6,0 0,-0.1 0,-0.2 0,-0.4 -0.2,0 -0.4,0 -0.6,0 0,-0.1 0,-0.2 0,-0.4 -0.2,0 -0.4,0 -0.6,0 0,-0.1 0,-0.2 0,-0.4 -0.2,0 -0.4,0 -0.6,0 0,-0.1 0,-0.2 0,-0.4 -0.2,0 -0.4,0 -0.6,0 0,-0.1 0,-0.2 0,-0.4 -0.2,0 -0.4,0 -0.6,0 -0.1,-0.2 -0.2,-0.5 -0.3,-0.7 -0.2,0 -0.4,0 -0.6,0 0,-0.1 0,-0.2 0,-0.4 -0.2,0 -0.4,0 -0.6,0 0,-0.1 0,-0.2 0,-0.4 -0.2,0 -0.4,0 -0.6,0 0,-0.1 0,-0.2 0,-0.4 -0.2,0 -0.4,0 -0.6,0 -0.1,-0.2 -0.2,-0.5 -0.3,-0.7 -0.6,-0.2 -1.3,-0.5 -1.9,-0.7 -0.1,-0.2 -0.2,-0.5 -0.3,-0.7 -0.2,0 -0.4,0 -0.6,0 0,-0.1 0,-0.2 0,-0.4 -0.2,0 -0.4,0 -0.6,0 -0.1,-0.2 -0.2,-0.5 -0.3,-0.7 -0.2,0 -0.4,0 -0.6,0 -0.1,-0.2 -0.2,-0.5 -0.3,-0.7 -0.2,0 -0.4,0 -0.6,0 -0.1,-0.2 -0.2,-0.5 -0.3,-0.7 -0.4,-0.1 -0.9,-0.2 -1.3,-0.4 -0.1,-0.2 -0.2,-0.5 -0.3,-0.7 -0.2,0 -0.4,0 -0.6,0 -0.2,-0.4 -0.4,-0.7 -0.6,-1.1 -0.2,0 -0.4,0 -0.6,0 0,-0.1 0,-0.2 0,-0.4 -0.3,-0.1 -0.6,-0.2 -1,-0.4 -0.1,-0.2 -0.2,-0.5 -0.3,-0.7 -0.2,0 -0.4,0 -0.6,0 -0.2,-0.4 -0.4,-0.7 -0.6,-1.1 -0.2,0 -0.4,0 -0.6,0 -0.2,-0.4 -0.4,-0.7 -0.6,-1.1 -0.2,0 -0.4,0 -0.6,0 -0.2,-0.4 -0.4,-0.7 -0.6,-1.1 -0.2,0 -0.4,0 -0.6,0 -0.2,-0.4 -0.4,-0.7 -0.6,-1.1 -0.2,0 -0.4,0 -0.6,0 -0.3,-0.5 -0.6,-1 -1,-1.4 -0.2,0 -0.4,0 -0.6,0 -0.2,-0.4 -0.4,-0.7 -0.6,-1.1 -0.1,0 -0.2,0 -0.3,0 -0.1,-0.2 -0.2,-0.5 -0.3,-0.7 -0.2,0 -0.4,0 -0.6,0 -0.5,-0.7 -1.1,-1.4 -1.6,-2.1 -0.2,0 -0.4,0 -0.6,0 -1.2,-1.4 -2.4,-2.9 -3.5,-4.3 -0.2,0 -0.4,0 -0.6,0 -0.8,-1 -1.5,-1.9 -2.3,-2.9 -0.4,-0.4 -0.9,-0.7 -1.3,-1.1 0,-0.2 0,-0.5 0,-0.7 -1.3,-1.3 -2.6,-2.6 -3.9,-3.9 0,-0.2 0,-0.5 0,-0.7 -0.6,-0.6 -1.3,-1.2 -1.9,-1.8 0,-0.2 0,-0.5 0,-0.7 -0.6,-0.6 -1.3,-1.2 -1.9,-1.8 0,-0.2 0,-0.5 0,-0.7 -0.4,-0.4 -0.9,-0.7 -1.3,-1.1 0,-0.2 0,-0.5 0,-0.7 -0.3,-0.2 -0.6,-0.5 -1,-0.7 0,-0.2 0,-0.5 0,-0.7 -0.4,-0.4 -0.9,-0.7 -1.3,-1.1 0,-0.2 0,-0.5 0,-0.7 -0.3,-0.2 -0.6,-0.5 -1,-0.7 -0.1,-0.4 -0.2,-0.7 -0.3,-1.1 -0.2,-0.1 -0.4,-0.2 -0.6,-0.4 0,-0.2 0,-0.5 0,-0.7 -0.2,-0.1 -0.4,-0.2 -0.6,-0.4 0,-0.2 0,-0.5 0,-0.7 -0.3,-0.2 -0.6,-0.5 -1,-0.7 0,-0.2 0,-0.5 0,-0.7 -0.2,-0.1 -0.4,-0.2 -0.6,-0.4 -0.1,-0.4 -0.2,-0.7 -0.3,-1.1 -0.1,0 -0.2,0 -0.3,0 0,-0.2 0,-0.5 0,-0.7 -0.2,-0.1 -0.4,-0.2 -0.6,-0.4 0,-0.2 0,-0.5 0,-0.7 -0.2,-0.1 -0.4,-0.2 -0.6,-0.4 0,-0.2 0,-0.5 0,-0.7 -0.2,-0.1 -0.4,-0.2 -0.6,-0.4 0,-0.2 0,-0.5 0,-0.7 -0.2,-0.1 -0.4,-0.2 -0.6,-0.4 0,-0.2 0,-0.5 0,-0.7 -0.2,-0.1 -0.4,-0.2 -0.6,-0.4 0,-0.2 0,-0.5 0,-0.7 -0.3,-0.2 -0.6,-0.5 -1,-0.7 0,-0.2 0,-0.5 0,-0.7 -0.2,-0.1 -0.4,-0.2 -0.6,-0.4 0,-0.2 0,-0.5 0,-0.7 -0.4,-0.4 -0.9,-0.7 -1.3,-1.1 0,-0.2 0,-0.5 0,-0.7 -0.9,-0.8 -1.7,-1.7 -2.6,-2.5 -0.2,-0.4 -0.4,-0.7 -0.6,-1.1 -0.2,0 -0.4,0 -0.6,0 -0.2,-0.4 -0.4,-0.7 -0.6,-1.1 -0.2,0 -0.4,0 -0.6,0 -0.1,-0.2 -0.2,-0.5 -0.3,-0.7 -0.2,0 -0.4,0 -0.6,0 0,-0.1 0,-0.2 0,-0.4 -0.4,-0.1 -0.9,-0.2 -1.3,-0.4 0,-0.1 0,-0.2 0,-0.4 -0.6,-0.1 -1.3,-0.2 -1.9,-0.4 0,-0.1 0,-0.2 0,-0.4 -0.3,0 -0.6,0 -1,0 0,-0.1 0,-0.2 0,-0.4 -1,-0.2 -1.9,-0.5 -2.9,-0.7 0,-0.1 0,-0.2 0,-0.4 -0.2,0 -0.4,0 -0.6,0 0,-0.1 0,-0.2 0,-0.4 -0.3,0 -0.6,0 -1,0 0,-0.1 0,-0.2 0,-0.4 -0.3,0 -0.6,0 -1,0 0,-0.1 0,-0.2 0,-0.4 -0.3,0 -0.6,0 -1,0 0,-0.1 0,-0.2 0,-0.4 -0.3,0 -0.6,0 -1,0 0,-0.1 0,-0.2 0,-0.4 -0.3,0 -0.6,0 -1,0 0,-0.1 0,-0.2 0,-0.4 -0.2,0 -0.4,0 -0.6,0 0,-0.1 0,-0.2 0,-0.4 -0.6,-0.1 -1.3,-0.2 -1.9,-0.4 0,-0.1 0,-0.2 0,-0.4 -0.2,0 -0.4,0 -0.6,0 0,-0.1 0,-0.2 0,-0.4 -1,-0.2 -1.9,-0.5 -2.9,-0.7 0,-0.1 0,-0.2 0,-0.4 -0.2,0 -0.4,0 -0.6,0 0,-0.1 0,-0.2 0,-0.4 -0.6,-0.1 -1.3,-0.2 -1.9,-0.4 0,-0.1 0,-0.2 0,-0.4 -0.2,0 -0.4,0 -0.6,0 0,-0.1 0,-0.2 0,-0.4 -0.6,-0.1 -1.3,-0.2 -1.9,-0.4 0,-0.1 0,-0.2 0,-0.4 -0.2,0 -0.4,0 -0.6,0 0,-0.1 0,-0.2 0,-0.4 -0.6,-0.1 -1.3,-0.2 -1.9,-0.4 0,-0.1 0,-0.2 0,-0.4 -0.2,0 -0.4,0 -0.6,0 0,-0.1 0,-0.2 0,-0.4 -0.3,0 -0.6,0 -1,0 0,-0.1 0,-0.2 0,-0.4 -0.3,0 -0.6,0 -1,0 0,-0.1 0,-0.2 0,-0.4 -0.2,0 -0.4,0 -0.6,0 0,-0.1 0,-0.2 0,-0.4 -0.6,-0.1 -1.3,-0.2 -1.9,-0.4 0,-0.1 0,-0.2 0,-0.4 -0.2,0 -0.4,0 -0.6,0 0,-0.1 0,-0.2 0,-0.4 -0.3,0 -0.6,0 -1,0 0,-0.1 0,-0.2 0,-0.4 -0.3,0 -0.6,0 -1,0 0,-0.1 0,-0.2 0,-0.4 -0.3,0 -0.6,0 -1,0 0,-0.1 0,-0.2 0,-0.4 -0.3,0 -0.6,0 -1,0 0,-0.1 0,-0.2 0,-0.4 -0.2,0 -0.4,0 -0.6,0 0,-0.1 0,-0.2 0,-0.4 -0.6,-0.1 -1.3,-0.2 -1.9,-0.4 0,-0.1 0,-0.2 0,-0.4 -0.3,0 -0.6,0 -1,0 0,-0.1 0,-0.2 0,-0.4 -0.3,0 -0.6,0 -1,0 0,-0.1 0,-0.2 0,-0.4 -0.3,0 -0.6,0 -1,0 0,-0.1 0,-0.2 0,-0.4 -0.3,0 -0.6,0 -1,0 0,-0.1 0,-0.2 0,-0.4 -0.3,0 -0.6,0 -1,0 0,-0.1 0,-0.2 0,-0.4 -0.3,0 -0.6,0 -1,0 0,-0.1 0,-0.2 0,-0.4 -0.4,0 -0.9,0 -1.3,0 0,-0.1 0,-0.2 0,-0.4 -0.4,0 -0.9,0 -1.3,0 0,-0.1 0,-0.2 0,-0.4 -0.5,0 -1.1,0 -1.6,0 0,-0.1 0,-0.2 0,-0.4 -0.5,0 -1.1,0 -1.6,0 0,-0.1 0,-0.2 0,-0.4 -0.9,0 -1.7,0 -2.6,0 0,-0.1 0,-0.2 0,-0.4 -1.4,0 -2.8,0 -4.2,0 -4.7,0 -8,0.7 -11.3,2.1 -0.3,0 -0.6,0 -1,0 -5.9,2.9 -11.2,7.3 -14.8,12.9 -0.4,0.4 -0.9,0.7 -1.3,1.1 0,0.2 0,0.5 0,0.7 -0.3,0.2 -0.6,0.5 -1,0.7 0,0.2 0,0.5 0,0.7 -0.3,0.2 -0.6,0.5 -1,0.7 0,0.2 0,0.5 0,0.7 -0.2,0.1 -0.4,0.2 -0.6,0.4 0,0.2 0,0.5 0,0.7 -0.2,0.1 -0.4,0.2 -0.6,0.4 0,0.2 0,0.5 0,0.7 -0.1,0 -0.2,0 -0.3,0 0,0.2 0,0.5 0,0.7 -0.2,0.1 -0.4,0.2 -0.6,0.4 -0.2,0.7 -0.4,1.4 -0.6,2.1 -0.2,0.1 -0.4,0.2 -0.6,0.4 -0.1,0.5 -0.2,1 -0.3,1.4 -0.2,0.1 -0.4,0.2 -0.6,0.4 -0.2,0.7 -0.4,1.4 -0.6,2.1 -0.2,0.1 -0.4,0.2 -0.6,0.4 -0.1,0.5 -0.2,1 -0.3,1.4 -0.1,0 -0.2,0 -0.3,0 0,0.2 0,0.5 0,0.7 -0.2,0.1 -0.4,0.2 -0.6,0.4 0,0.2 0,0.5 0,0.7 -0.1,0 -0.2,0 -0.3,0 0,0.2 0,0.5 0,0.7 -0.1,0 -0.2,0 -0.3,0 0,0.2 0,0.5 0,0.7 -0.1,0 -0.2,0 -0.3,0 0,0.2 0,0.5 0,0.7 -0.1,0 -0.2,0 -0.3,0 -0.1,0.5 -0.2,1 -0.3,1.4 -0.2,0.1 -0.4,0.2 -0.6,0.4 0,0.2 0,0.5 0,0.7 -0.1,0 -0.2,0 -0.3,0 0,0.2 0,0.5 0,0.7 -0.1,0 -0.2,0 -0.3,0 0,0.2 0,0.5 0,0.7 -0.1,0 -0.2,0 -0.3,0 0,0.2 0,0.5 0,0.7 -0.1,0 -0.2,0 -0.3,0 0,0.2 0,0.5 0,0.7 -0.1,0 -0.2,0 -0.3,0 0,0.2 0,0.5 0,0.7 -0.1,0 -0.2,0 -0.3,0 -0.1,0.5 -0.2,1 -0.3,1.4 -0.1,0 -0.2,0 -0.3,0 0,0.2 0,0.5 0,0.7 -0.1,0 -0.2,0 -0.3,0 0,0.2 0,0.5 0,0.7 -0.1,0 -0.2,0 -0.3,0 0,0.2 0,0.5 0,0.7 -0.1,0 -0.2,0 -0.3,0 0,0.2 0,0.5 0,0.7 -0.1,0 -0.2,0 -0.3,0 -0.1,0.5 -0.2,1 -0.3,1.4 -0.1,0 -0.2,0 -0.3,0 0,0.2 0,0.5 0,0.7 -0.1,0 -0.2,0 -0.3,0 0,0.4 0,0.7 0,1.1 -0.1,0 -0.2,0 -0.3,0 0,0.2 0,0.5 0,0.7 -0.1,0 -0.2,0 -0.3,0 -0.1,0.5 -0.2,1 -0.3,1.4 -0.1,0 -0.2,0 -0.3,0 0,0.4 0,0.7 0,1.1 -0.1,0 -0.2,0 -0.3,0 -0.1,0.5 -0.2,1 -0.3,1.4 -0.1,0 -0.2,0 -0.3,0 0,0.4 0,0.7 0,1.1 -0.1,0 -0.2,0 -0.3,0 0,0.2 0,0.5 0,0.7 -0.1,0 -0.2,0 -0.3,0 -0.1,0.6 -0.2,1.2 -0.3,1.8 -0.1,0 -0.2,0 -0.3,0 0,0.4 0,0.7 0,1.1 -0.1,0 -0.2,0 -0.3,0 0,0.2 0,0.5 0,0.7 -0.1,0 -0.2,0 -0.3,0 -0.1,0.7 -0.2,1.4 -0.3,2.1 -0.1,0 -0.2,0 -0.3,0 0,0.2 0,0.5 0,0.7 -0.1,0 -0.2,0 -0.3,0 0,0.4 0,0.7 0,1.1 -0.1,0 -0.2,0 -0.3,0 0,0.2 0,0.5 0,0.7 -0.1,0 -0.2,0 -0.3,0 0,0.2 0,0.5 0,0.7 -0.2,0.1 -0.4,0.2 -0.6,0.4 -0.1,0.5 -0.2,1 -0.3,1.4 -0.3,0.2 -0.6,0.5 -1,0.7 0,0.2 0,0.5 0,0.7 -0.2,0.1 -0.4,0.2 -0.6,0.4 0,0.1 0,0.2 0,0.4 -0.2,0 -0.4,0 -0.6,0 -0.2,0.4 -0.4,0.7 -0.6,1.1 -0.2,0 -0.4,0 -0.6,0 0,0.1 0,0.2 0,0.4 -0.2,0 -0.4,0 -0.6,0 0,0.1 0,0.2 0,0.4 -0.3,0 -0.6,0 -1,0 0,0.1 0,0.2 0,0.4 -0.5,0 -1.1,0 -1.6,0 0,0.1 0,0.2 0,0.4 -1,0 -1.9,0 -2.9,0 -2.8,0 -6,-0.1 -8.4,-0.4 -2.6,0 -5.2,0 -7.7,0 -3.3,-1 -8.6,-0.4 -12.6,-0.4 -3.9,0.1 -7.7,0.2 -11.6,0.4 0,0.1 0,0.2 0,0.4 -1.3,0 -2.6,0 -3.9,0 0,0.1 0,0.2 0,0.4 -1,0 -1.9,0 -2.9,0 0,0.1 0,0.2 0,0.4 -2.9,0.4 -5.8,0.7 -8.7,1.1 -4.8,1.3 -9.7,2.6 -14.5,3.9 0,0.2 0,0.5 0,0.7 0.9,0.5 1.7,1 2.6,1.4 0,0.1 0,0.2 0,0.4 0.5,0.1 1.1,0.2 1.6,0.4 0,0.1 0,0.2 0,0.4 0.4,0.1 0.9,0.2 1.3,0.4 0,0.1 0,0.2 0,0.4 0.6,0.1 1.3,0.2 1.9,0.4 0,0.1 0,0.2 0,0.4 0.2,0 0.4,0 0.6,0 0,0.1 0,0.2 0,0.4 0.8,0.1 1.5,0.2 2.3,0.4 4.2,1.5 8.4,3.1 12.6,4.6 0,0.1 0,0.2 0,0.4 0.4,0.1 0.9,0.2 1.3,0.4 0,0.1 0,0.2 0,0.4 0.4,0.1 0.9,0.2 1.3,0.4 0.1,0.2 0.2,0.5 0.3,0.7 0.4,0.1 0.9,0.2 1.3,0.4 0.1,0.2 0.2,0.5 0.3,0.7 0.2,0 0.4,0 0.6,0 0.1,0.2 0.2,0.5 0.3,0.7 0.2,0 0.4,0 0.6,0 0,0.1 0,0.2 0,0.4 0.6,0.5 0.8,0.8 1.6,1.1 -0.4,0.4 0,0.1 -0.6,0.4 -0.6,0.6 -2.1,0.3 -3.2,0.4 -1.9,0.1 -3.9,0.2 -5.8,0.4 0,0.1 0,0.2 0,0.4 -1.3,0 -2.6,0 -3.9,0 0,0.1 0,0.2 0,0.4 -1.1,0 -2.1,0 -3.2,0 0,0.1 0,0.2 0,0.4 -1.1,0 -2.1,0 -3.2,0 -2.1,0.7 -5,0.8 -7.1,1.4 -1.4,0.1 -2.8,0.2 -4.2,0.4 0,0.1 0,0.2 0,0.4 -0.5,0 -1.1,0 -1.6,0 0,0.1 0,0.2 0,0.4 -0.5,0 -1.1,0 -1.6,0 0,0.1 0,0.2 0,0.4 -0.5,0 -1.1,0 -1.6,0 0,0.1 0,0.2 0,0.4 -0.5,0 -1.1,0 -1.6,0 0,0.1 0,0.2 0,0.4 -0.4,0 -0.9,0 -1.3,0 0,0.1 0,0.2 0,0.4 -0.4,0 -0.9,0 -1.3,0 0,0.1 0,0.2 0,0.4 -0.9,0.1 -1.7,0.2 -2.6,0.4 0,0.1 0,0.2 0,0.4 -0.3,0 -0.6,0 -1,0 0,0.1 0,0.2 0,0.4 -0.3,0 -0.6,0 -1,0 0,0.1 0,0.2 0,0.4 -0.4,0 -0.9,0 -1.3,0 0,0.1 0,0.2 0,0.4 -0.3,0 -0.6,0 -1,0 0,0.1 0,0.2 0,0.4 -0.3,0 -0.6,0 -1,0 0,0.1 0,0.2 0,0.4 -0.3,0 -0.6,0 -1,0 0,0.1 0,0.2 0,0.4 -0.3,0 -0.6,0 -1,0 0,0.1 0,0.2 0,0.4 -0.2,0 -0.4,0 -0.6,0 0,0.1 0,0.2 0,0.4 -0.6,0.1 -1.3,0.2 -1.9,0.4 0,0.1 0,0.2 0,0.4 -0.2,0 -0.4,0 -0.6,0 0,0.1 0,0.2 0,0.4 -0.3,0 -0.6,0 -1,0 0,0.1 0,0.2 0,0.4 -0.2,0 -0.4,0 -0.6,0 0,0.1 0,0.2 0,0.4 -0.5,0.1 -1.1,0.2 -1.6,0.4 0,0.1 0,0.2 0,0.4 -0.6,0.2 -1.3,0.5 -1.9,0.7 0,0.1 0,0.2 0,0.4 -0.2,0 -0.4,0 -0.6,0 0,0.1 0,0.2 0,0.4 -0.2,0 -0.4,0 -0.6,0 0,0.1 0,0.2 0,0.4 -0.2,0 -0.4,0 -0.6,0 0,0.1 0,0.2 0,0.4 -0.2,0 -0.4,0 -0.6,0 0,0.1 0,0.2 0,0.4 -0.2,0 -0.4,0 -0.6,0 0,0.1 0,0.2 0,0.4 -0.2,0 -0.4,0 -0.6,0 -0.1,0.2 -0.2,0.5 -0.3,0.7 -0.6,0.2 -1.3,0.5 -1.9,0.7 0,0.1 0,0.2 0,0.4 -0.3,0.1 -0.6,0.2 -1,0.4 -0.1,0.2 -0.2,0.5 -0.3,0.7 -0.4,0.1 -0.9,0.2 -1.3,0.4 -0.1,0.2 -0.2,0.5 -0.3,0.7 -0.2,0 -0.4,0 -0.6,0 -0.2,0.4 -0.4,0.7 -0.6,1.1 -0.2,0 -0.4,0 -0.6,0 -0.1,0.2 -0.2,0.5 -0.3,0.7 -0.2,0 -0.4,0 -0.6,0 -0.2,0.4 -0.4,0.7 -0.6,1.1 -0.2,0 -0.4,0 -0.6,0 -0.3,0.5 -0.6,1 -1,1.4 -0.2,0 -0.4,0 -0.6,0 -0.4,0.6 -0.9,1.2 -1.3,1.8 -0.2,0 -0.4,0 -0.6,0 -1.2,1.4 -2.4,2.9 -3.5,4.3 -1.5,1.5 -3,3.1 -4.5,4.6 0,0.2 0,0.5 0,0.7 -0.5,0.5 -1.1,1 -1.6,1.4 0,0.2 0,0.5 0,0.7 -0.2,0.1 -0.4,0.2 -0.6,0.4 -0.4,0.7 -0.9,1.4 -1.3,2.1 0.6,0 1.3,0 1.9,0 0,-0.1 0,-0.2 0,-0.4 0.6,0 1.3,0 1.9,0 0,-0.1 0,-0.2 0,-0.4 0.5,0 1.1,0 1.6,0 0,-0.1 0,-0.2 0,-0.4 0.4,0 0.9,0 1.3,0 0,-0.1 0,-0.2 0,-0.4 0.4,0 0.9,0 1.3,0 0,-0.1 0,-0.2 0,-0.4 0.4,0 0.9,0 1.3,0 3.1,-1.2 6.8,-2.1 10,-3.2 1.5,-0.1 3,-0.2 4.5,-0.4 0,-0.1 0,-0.2 0,-0.4 1.6,0 3.2,0 4.8,0 1.3,0.4 3.2,0.8 4.5,1.1 0,0.1 0,0.2 0,0.4 -1.2,1.2 -1.3,3.5 -1.9,5.4 -0.1,0 -0.2,0 -0.3,0 0,0.4 0,0.7 0,1.1 -0.1,0 -0.2,0 -0.3,0 0,0.4 0,0.7 0,1.1 -1.8,5 -3.2,10.9 -3.2,17.9 0,2.5 -0.2,5.9 0.3,7.9 0.1,1.4 0.2,2.9 0.3,4.3 0.6,2.5 1.3,5 1.9,7.5 0.1,0 0.2,0 0.3,0 0,0.2 0,0.5 0,0.7 0.1,0 0.2,0 0.3,0 0.1,0.6 0.2,1.2 0.3,1.8 0.1,0 0.2,0 0.3,0 0.2,0.7 0.4,1.4 0.6,2.1 0.1,0 0.2,0 0.3,0 0.2,0.7 0.4,1.4 0.6,2.1 0.2,0.1 0.4,0.2 0.6,0.4 0.1,0.5 0.2,1 0.3,1.4 0.3,0.2 0.6,0.5 1,0.7 0,0.2 0,0.5 0,0.7 0.3,0.2 0.6,0.5 1,0.7 0,0.2 0,0.5 0,0.7 0.8,0.7 1.5,1.4 2.3,2.1 1.1,1.3 2.1,2.6 3.2,3.9 0.2,0 0.4,0 0.6,0 0.2,0.4 0.4,0.7 0.6,1.1 0.3,0.1 0.6,0.2 1,0.4 0.1,0.2 0.2,0.5 0.3,0.7 0.2,0 0.4,0 0.6,0 0.1,0.2 0.2,0.5 0.3,0.7 0.3,0.1 0.6,0.2 1,0.4 0,0.1 0,0.2 0,0.4 0.2,0 0.4,0 0.6,0 0.1,0.2 0.2,0.5 0.3,0.7 0.4,0.1 0.9,0.2 1.3,0.4 0.1,0.2 0.2,0.5 0.3,0.7 0.4,0.1 0.9,0.2 1.3,0.4 0.1,0.2 0.2,0.5 0.3,0.7 0.2,0 0.4,0 0.6,0 0,0.1 0,0.2 0,0.4 0.2,0 0.4,0 0.6,0 0,0.1 0,0.2 0,0.4 0.2,0 0.4,0 0.6,0 0,0.1 0,0.2 0,0.4 0.2,0 0.4,0 0.6,0 0,0.1 0,0.2 0,0.4 0.2,0 0.4,0 0.6,0 0,0.1 0,0.2 0,0.4 0.2,0 0.4,0 0.6,0 0,0.1 0,0.2 0,0.4 0.2,0 0.4,0 0.6,0 0,0.1 0,0.2 0,0.4 0.2,0 0.4,0 0.6,0 0.1,0.2 0.2,0.5 0.3,0.7 0.6,0.2 1.3,0.5 1.9,0.7 0,0.1 0,0.2 0,0.4 0.3,0 0.6,0 1,0 0,0.1 0,0.2 0,0.4 0.6,0.2 1.3,0.5 1.9,0.7 0,0.1 0,0.2 0,0.4 0.2,0 0.4,0 0.6,0 0,0.1 0,0.2 0,0.4 0.2,0 0.4,0 0.6,0 0,0.1 0,0.2 0,0.4 0.2,0 0.4,0 0.6,0 0,0.1 0,0.2 0,0.4 0.2,0 0.4,0 0.6,0 0,0.1 0,0.2 0,0.4 0.2,0 0.4,0 0.6,0 0,0.1 0,0.2 0,0.4 0.2,0 0.4,0 0.6,0 0,0.1 0,0.2 0,0.4 0.2,0 0.4,0 0.6,0 0,0.1 0,0.2 0,0.4 0.2,0 0.4,0 0.6,0 0.1,0.2 0.2,0.5 0.3,0.7 0.4,0.1 0.9,0.2 1.3,0.4 0,0.1 0,0.2 0,0.4 0.4,0.1 0.9,0.2 1.3,0.4 0.8,0.5 1.2,1.1 2.3,1.4 0,0.1 0,0.2 0,0.4 -1.8,0.1 -3.7,0.9 -5.2,1.4 -1,0.1 -1.9,0.2 -2.9,0.4 0,0.1 0,0.2 0,0.4 -0.4,0 -0.9,0 -1.3,0 0,0.1 0,0.2 0,0.4 -0.4,0 -0.9,0 -1.3,0 0,0.1 0,0.2 0,0.4 -0.9,0.1 -1.7,0.2 -2.6,0.4 -1.4,0.6 -3.4,1.2 -4.8,1.8 -0.4,0 -0.9,0 -1.3,0 0,0.1 0,0.2 0,0.4 -1.5,0.4 -3,0.7 -4.5,1.1 0,0.1 0,0.2 0,0.4 -0.3,0 -0.6,0 -1,0 0,0.1 0,0.2 0,0.4 -1.1,0.2 -2.1,0.5 -3.2,0.7 0,0.1 0,0.2 0,0.4 -1.4,0.4 -2.8,0.7 -4.2,1.1 0,0.1 0,0.2 0,0.4 -0.8,0.1 -1.5,0.2 -2.3,0.4 0,0.1 0,0.2 0,0.4 -0.3,0 -0.6,0 -1,0 0,0.1 0,0.2 0,0.4 -0.3,0 -0.6,0 -1,0 0,0.1 0,0.2 0,0.4 -0.3,0 -0.6,0 -1,0 0,0.1 0,0.2 0,0.4 -0.3,0 -0.6,0 -1,0 0,0.1 0,0.2 0,0.4 -0.3,0 -0.6,0 -1,0 0,0.1 0,0.2 0,0.4 -0.6,0.1 -1.3,0.2 -1.9,0.4 0,0.1 0,0.2 0,0.4 -0.2,0 -0.4,0 -0.6,0 0,0.1 0,0.2 0,0.4 -1,0.2 -1.9,0.5 -2.9,0.7 0,0.1 0,0.2 0,0.4 -0.2,0 -0.4,0 -0.6,0 0,0.1 0,0.2 0,0.4 -1,0.2 -1.9,0.5 -2.9,0.7 0,0.1 0,0.2 0,0.4 -0.2,0 -0.4,0 -0.6,0 0,0.1 0,0.2 0,0.4 -0.3,0 -0.6,0 -1,0 0,0.1 0,0.2 0,0.4 -0.2,0 -0.4,0 -0.6,0 0,0.1 0,0.2 0,0.4 -0.5,0.1 -1.1,0.2 -1.6,0.4 0,0.1 0,0.2 0,0.4 -0.3,0 -0.6,0 -1,0 0,0.1 0,0.2 0,0.4 -0.2,0 -0.4,0 -0.6,0 0,0.1 0,0.2 0,0.4 -0.3,0 -0.6,0 -1,0 0,0.1 0,0.2 0,0.4 -0.2,0 -0.4,0 -0.6,0 0,0.1 0,0.2 0,0.4 -0.3,0 -0.6,0 -1,0 0,0.1 0,0.2 0,0.4 -0.4,0.1 -0.9,0.2 -1.3,0.4 0,0.1 0,0.2 0,0.4 -0.3,0 -0.6,0 -1,0 0,0.1 0,0.2 0,0.4 -0.4,0.1 -0.9,0.2 -1.3,0.4 0,0.1 0,0.2 0,0.4 -0.3,0 -0.6,0 -1,0 0,0.1 0,0.2 0,0.4 -0.2,0 -0.4,0 -0.6,0 0,0.1 0,0.2 0,0.4 -0.4,0.1 -0.9,0.2 -1.3,0.4 0,0.1 0,0.2 0,0.4 -0.3,0 -0.6,0 -1,0 0,0.1 0,0.2 0,0.4 -0.2,0 -0.4,0 -0.6,0 0,0.1 0,0.2 0,0.4 -0.2,0 -0.4,0 -0.6,0 0,0.1 0,0.2 0,0.4 -0.6,0.2 -1.3,0.5 -1.9,0.7 0,0.1 0,0.2 0,0.4 -0.3,0 -0.6,0 -1,0 0,0.1 0,0.2 0,0.4 -0.2,0 -0.4,0 -0.6,0 0,0.1 0,0.2 0,0.4 -0.2,0 -0.4,0 -0.6,0 0,0.1 0,0.2 0,0.4 -0.2,0 -0.4,0 -0.6,0 0,0.1 0,0.2 0,0.4 -0.2,0 -0.4,0 -0.6,0 0,0.1 0,0.2 0,0.4 -0.2,0 -0.4,0 -0.6,0 0,0.1 0,0.2 0,0.4 -0.2,0 -0.4,0 -0.6,0 0,0.1 0,0.2 0,0.4 -0.2,0 -0.4,0 -0.6,0 0,0.1 0,0.2 0,0.4 -0.2,0 -0.4,0 -0.6,0 0,0.1 0,0.2 0,0.4 -0.2,0 -0.4,0 -0.6,0 0,0.1 0,0.2 0,0.4 -0.2,0 -0.4,0 -0.6,0 0,0.1 0,0.2 0,0.4 -0.2,0 -0.4,0 -0.6,0 0,0.1 0,0.2 0,0.4 -0.2,0 -0.4,0 -0.6,0 -0.1,0.2 -0.2,0.5 -0.3,0.7 -0.4,0.1 -0.9,0.2 -1.3,0.4 0,0.1 0,0.2 0,0.4 -0.2,0 -0.4,0 -0.6,0 0,0.1 0,0.2 0,0.4 -0.2,0 -0.4,0 -0.6,0 0,0.1 0,0.2 0,0.4 -0.2,0 -0.4,0 -0.6,0 0,0.1 0,0.2 0,0.4 -0.2,0 -0.4,0 -0.6,0 -0.1,0.2 -0.2,0.5 -0.3,0.7 -0.6,0.2 -1.3,0.5 -1.9,0.7 -0.1,0.2 -0.2,0.5 -0.3,0.7 -0.6,0.2 -1.3,0.5 -1.9,0.7 -0.1,0.2 -0.2,0.5 -0.3,0.7 -0.2,0 -0.4,0 -0.6,0 0,0.1 0,0.2 0,0.4 -0.2,0 -0.4,0 -0.6,0 -0.1,0.2 -0.2,0.5 -0.3,0.7 -0.4,0.1 -0.9,0.2 -1.3,0.4 -0.1,0.2 -0.2,0.5 -0.3,0.7 -0.2,0 -0.4,0 -0.6,0 0,0.1 0,0.2 0,0.4 -0.2,0 -0.4,0 -0.6,0 -0.1,0.2 -0.2,0.5 -0.3,0.7 -0.2,0 -0.4,0 -0.6,0 -0.1,0.2 -0.2,0.5 -0.3,0.7 -0.2,0 -0.4,0 -0.6,0 -0.1,0.2 -0.2,0.5 -0.3,0.7 -0.4,0.1 -0.9,0.2 -1.3,0.4 0,0.1 0,0.2 0,0.4 -0.3,0.1 -0.6,0.2 -1,0.4 -0.1,0.2 -0.2,0.5 -0.3,0.7 -0.2,0 -0.4,0 -0.6,0 -0.1,0.2 -0.2,0.5 -0.3,0.7 -0.2,0 -0.4,0 -0.6,0 -0.2,0.4 -0.4,0.7 -0.6,1.1 -0.2,0 -0.4,0 -0.6,0 0,0.1 0,0.2 0,0.4 -0.3,0.1 -0.6,0.2 -1,0.4 -0.1,0.2 -0.2,0.5 -0.3,0.7 -0.2,0 -0.4,0 -0.6,0 -0.2,0.4 -0.4,0.7 -0.6,1.1 -0.2,0 -0.4,0 -0.6,0 -0.1,0.2 -0.2,0.5 -0.3,0.7 -0.2,0 -0.4,0 -0.6,0 -0.2,0.4 -0.4,0.7 -0.6,1.1 -0.2,0 -0.4,0 -0.6,0 -0.2,0.4 -0.4,0.7 -0.6,1.1 -0.2,0 -0.4,0 -0.6,0 -0.2,0.4 -0.4,0.7 -0.6,1.1 -0.2,0 -0.4,0 -0.6,0 -0.3,0.5 -0.6,1 -1,1.4 -0.3,0.1 -0.6,0.2 -1,0.4 -0.1,0.2 -0.2,0.5 -0.3,0.7 -0.2,0 -0.4,0 -0.6,0 -0.3,0.5 -0.6,1 -1,1.4 -0.2,0 -0.4,0 -0.6,0 -0.4,0.6 -0.9,1.2 -1.3,1.8 -0.2,0 -0.4,0 -0.6,0 -0.5,0.7 -1.1,1.4 -1.6,2.1 -0.2,0 -0.4,0 -0.6,0 -0.8,1 -1.5,1.9 -2.3,2.9 -0.2,0 -0.4,0 -0.6,0 -1.2,1.4 -2.4,2.9 -3.5,4.3 -0.1,0 -0.2,0 -0.3,0 -0.1,0.2 -0.2,0.5 -0.3,0.7 -0.2,0 -0.4,0 -0.6,0 -0.4,0.6 -0.9,1.2 -1.3,1.8 -1,1 -1.9,1.9 -2.9,2.9 0,0.2 0,0.5 0,0.7 -1.1,1.1 -2.1,2.1 -3.2,3.2 -0.3,0.5 -0.6,1 -1,1.4 -0.1,0 -0.2,0 -0.3,0 0,0.2 0,0.5 0,0.7 -0.9,0.8 -1.7,1.7 -2.6,2.5 0,0.2 0,0.5 0,0.7 -0.6,0.6 -1.3,1.2 -1.9,1.8 0,0.2 0,0.5 0,0.7 -0.2,0.1 -0.4,0.2 -0.6,0.4 0,0.1 0,0.2 0,0.4 -0.3,0.2 -0.6,0.5 -1,0.7 0,0.2 0,0.5 0,0.7 -0.4,0.4 -0.9,0.7 -1.3,1.1 0,0.2 0,0.5 0,0.7 -0.4,0.4 -0.9,0.7 -1.3,1.1 0,0.2 0,0.5 0,0.7 -0.3,0.2 -0.6,0.5 -1,0.7 0,0.2 0,0.5 0,0.7 -0.4,0.4 -0.9,0.7 -1.3,1.1 -0.6,0.9 -0.7,1.9 -1.6,2.5 0,0.1 0,0.2 0,0.4 0.2,0 0.4,0 0.6,0 0.7,0.8 5.2,1.7 7.1,1.1 4,-1.3 8.5,-4.6 13.5,-2.5 0,0.2 0,0.5 0,0.7 -1.3,0.9 -2.2,2.4 -3.2,3.6 -1.1,1.1 -2.1,2.1 -3.2,3.2 0,0.2 0,0.5 0,0.7 -0.1,0 -0.2,0 -0.3,0 -0.2,0.4 -0.4,0.7 -0.6,1.1 -0.8,0.7 -1.5,1.4 -2.3,2.1 0,0.2 0,0.5 0,0.7 -0.8,0.7 -1.5,1.4 -2.3,2.1 0,0.2 0,0.5 0,0.7 -0.5,0.5 -1.1,1 -1.6,1.4 0,0.2 0,0.5 0,0.7 -0.5,0.5 -1.1,1 -1.6,1.4 0,0.2 0,0.5 0,0.7 -0.4,0.4 -0.9,0.7 -1.3,1.1 0,0.2 0,0.5 0,0.7 -0.3,0.2 -0.6,0.5 -1,0.7 0,0.2 0,0.5 0,0.7 -0.3,0.2 -0.6,0.5 -1,0.7 0,0.2 0,0.5 0,0.7 -0.3,0.2 -0.6,0.5 -1,0.7 0,0.2 0,0.5 0,0.7 -0.3,0.2 -0.6,0.5 -1,0.7 0,0.2 0,0.5 0,0.7 -0.1,0 -0.2,0 -0.3,0 -0.1,0.4 -0.2,0.7 -0.3,1.1 -0.2,0.1 -0.4,0.2 -0.6,0.4 0,0.2 0,0.5 0,0.7 -0.3,0.2 -0.6,0.5 -1,0.7 0,0.2 0,0.5 0,0.7 -0.2,0.1 -0.4,0.2 -0.6,0.4 -0.1,0.4 -0.2,0.7 -0.3,1.1 -0.1,0 -0.2,0 -0.3,0 -0.1,0.5 -0.2,1 -0.3,1.4 -0.1,0 -0.2,0 -0.3,0 -0.1,0.4 -0.2,0.7 -0.3,1.1 -0.2,0.1 -0.4,0.2 -0.6,0.4 -0.1,0.5 -0.2,1 -0.3,1.4 -0.2,0.1 -0.4,0.2 -0.6,0.4 -0.2,0.7 -0.4,1.4 -0.6,2.1 -0.2,0.1 -0.4,0.2 -0.6,0.4 0,0.2 0,0.5 0,0.7 -0.1,0 -0.2,0 -0.3,0 0,0.2 0,0.5 0,0.7 -0.1,0 -0.2,0 -0.3,0 0,0.2 0,0.5 0,0.7 -0.1,0 -0.2,0 -0.3,0 0,0.2 0,0.5 0,0.7 -0.2,0.1 -0.4,0.2 -0.6,0.4 -0.2,0.7 -0.4,1.4 -0.6,2.1 -0.1,0 -0.2,0 -0.3,0 0,0.2 0,0.5 0,0.7 -0.1,0 -0.2,0 -0.3,0 -0.2,0.7 -0.4,1.4 -0.6,2.1 -0.1,0 -0.2,0 -0.3,0 0,0.4 0,0.7 0,1.1 -0.1,0 -0.2,0 -0.3,0 0,0.2 0,0.5 0,0.7 -0.1,0 -0.2,0 -0.3,0 -0.2,0.7 -0.4,1.4 -0.6,2.1 -0.1,0 -0.2,0 -0.3,0 0,0.4 0,0.7 0,1.1 -0.1,0 -0.2,0 -0.3,0 0,0.2 0,0.5 0,0.7 -0.1,0 -0.2,0 -0.3,0 -0.1,0.6 -0.2,1.2 -0.3,1.8 -0.1,0 -0.2,0 -0.3,0 0,0.4 0,0.7 0,1.1 -0.1,0 -0.2,0 -0.3,0 0,0.2 0,0.5 0,0.7 -0.1,0 -0.2,0 -0.3,0 0,0.4 0,0.7 0,1.1 -0.1,0 -0.2,0 -0.3,0 0,0.4 0,0.7 0,1.1 -0.1,0 -0.2,0 -0.3,0 -0.6,1.3 -0.8,2.4 -2.3,2.9 -0.5,0.5 -1.9,0.4 -2.9,0.4 -0.7,-0.8 -2.3,-1.4 -3.2,-2.1 -0.5,-0.7 -1.1,-1.4 -1.6,-2.1 -1.2,-1.2 -2.4,-2.4 -3.5,-3.6 0,-0.2 0,-0.5 0,-0.7 -1.7,-1.8 -3.4,-3.6 -5.2,-5.4 0,-0.2 0,-0.5 0,-0.7 -1.1,-1.1 -2.1,-2.1 -3.2,-3.2 0,-0.2 0,-0.5 0,-0.7 -0.8,-0.7 -1.5,-1.4 -2.3,-2.1 0,-0.2 0,-0.5 0,-0.7 -0.6,-0.6 -1.3,-1.2 -1.9,-1.8 0,-0.2 0,-0.5 0,-0.7 -0.5,-0.5 -1.1,-1 -1.6,-1.4 0,-0.2 0,-0.5 0,-0.7 -0.5,-0.5 -1.1,-1 -1.6,-1.4 0,-0.2 0,-0.5 0,-0.7 -0.4,-0.4 -0.9,-0.7 -1.3,-1.1 0,-0.2 0,-0.5 0,-0.7 -0.4,-0.4 -0.9,-0.7 -1.3,-1.1 0,-0.2 0,-0.5 0,-0.7 -0.4,-0.4 -0.9,-0.7 -1.3,-1.1 0,-0.2 0,-0.5 0,-0.7 -0.3,-0.2 -0.6,-0.5 -1,-0.7 0,-0.2 0,-0.5 0,-0.7 -0.3,-0.2 -0.6,-0.5 -1,-0.7 0,-0.2 0,-0.5 0,-0.7 -0.3,-0.2 -0.6,-0.5 -1,-0.7 0,-0.2 0,-0.5 0,-0.7 -0.3,-0.2 -0.6,-0.5 -1,-0.7 0,-0.2 0,-0.5 0,-0.7 -0.3,-0.2 -0.6,-0.5 -1,-0.7 0,-0.2 0,-0.5 0,-0.7 -0.2,-0.1 -0.4,-0.2 -0.6,-0.4 0,-0.2 0,-0.5 0,-0.7 -0.3,-0.2 -0.6,-0.5 -1,-0.7 0,-0.2 0,-0.5 0,-0.7 -0.2,-0.1 -0.4,-0.2 -0.6,-0.4 -0.1,-0.4 -0.2,-0.7 -0.3,-1.1 -0.1,0 -0.2,0 -0.3,0 0,-0.2 0,-0.5 0,-0.7 -0.2,-0.1 -0.4,-0.2 -0.6,-0.4 0,-0.2 0,-0.5 0,-0.7 -0.2,-0.1 -0.4,-0.2 -0.6,-0.4 0,-0.2 0,-0.5 0,-0.7 -0.2,-0.1 -0.4,-0.2 -0.6,-0.4 0,-0.2 0,-0.5 0,-0.7 -0.2,-0.1 -0.4,-0.2 -0.6,-0.4 0,-0.2 0,-0.5 0,-0.7 -0.2,-0.1 -0.4,-0.2 -0.6,-0.4 0,-0.2 0,-0.5 0,-0.7 -0.2,-0.1 -0.4,-0.2 -0.6,-0.4 0,-0.2 0,-0.5 0,-0.7 -0.2,-0.1 -0.4,-0.2 -0.6,-0.4 -0.1,-0.5 -0.2,-1 -0.3,-1.4 -0.2,-0.1 -0.4,-0.2 -0.6,-0.4 -0.1,-0.5 -0.2,-1 -0.3,-1.4 -0.2,-0.1 -0.4,-0.2 -0.6,-0.4 -0.1,-0.5 -0.2,-1 -0.3,-1.4 -0.2,-0.1 -0.4,-0.2 -0.6,-0.4 -0.1,-0.5 -0.2,-1 -0.3,-1.4 -0.2,-0.1 -0.4,-0.2 -0.6,-0.4 0,-0.2 0,-0.5 0,-0.7 -0.1,0 -0.2,0 -0.3,0 0,-0.2 0,-0.5 0,-0.7 -0.1,0 -0.2,0 -0.3,0 0,-0.2 0,-0.5 0,-0.7 -0.1,0 -0.2,0 -0.3,0 0,-0.2 0,-0.5 0,-0.7 -0.2,-0.1 -0.4,-0.2 -0.6,-0.4 0,-0.2 0,-0.5 0,-0.7 -0.1,0 -0.2,0 -0.3,0 0,-0.2 0,-0.5 0,-0.7 -0.1,0 -0.2,0 -0.3,0 0,-0.2 0,-0.5 0,-0.7 -0.1,0 -0.2,0 -0.3,0 0,-0.2 0,-0.5 0,-0.7 -0.1,0 -0.2,0 -0.3,0 -0.1,-0.5 -0.2,-1 -0.3,-1.4 -0.2,-0.1 -0.4,-0.2 -0.6,-0.4 -0.1,-0.5 -0.2,-1 -0.3,-1.4 -0.1,0 -0.2,0 -0.3,0 0,-0.2 0,-0.5 0,-0.7 -0.1,0 -0.2,0 -0.3,0 -0.2,-0.7 -0.4,-1.4 -0.6,-2.1 -0.1,0 -0.2,0 -0.3,0 0,-0.4 0,-0.7 0,-1.1 -0.1,0 -0.2,0 -0.3,0 0,-0.2 0,-0.5 0,-0.7 -0.1,0 -0.2,0 -0.3,0 0,-0.2 0,-0.5 0,-0.7 -0.1,0 -0.2,0 -0.3,0 -0.2,-0.7 -0.4,-1.4 -0.6,-2.1 -0.1,0 -0.2,0 -0.3,0 0,-0.4 0,-0.7 0,-1.1 -0.1,0 -0.2,0 -0.3,0 0,-0.2 0,-0.5 0,-0.7 -0.1,0 -0.2,0 -0.3,0 0,-0.2 0,-0.5 0,-0.7 -0.1,0 -0.2,0 -0.3,0 0,-0.2 0,-0.5 0,-0.7 -0.1,0 -0.2,0 -0.3,0 0,-0.4 0,-0.7 0,-1.1 -0.1,0 -0.2,0 -0.3,0 0,-0.2 0,-0.5 0,-0.7 -0.1,0 -0.2,0 -0.3,0 0,-0.4 0,-0.7 0,-1.1 -0.1,0 -0.2,0 -0.3,0 0,-0.2 0,-0.5 0,-0.7 -0.1,0 -0.2,0 -0.3,0 -1.7,-5.5 -3.4,-11 -5.2,-16.4 -0.1,-1 -0.2,-1.9 -0.3,-2.9 -0.1,0 -0.2,0 -0.3,0 0,-0.4 0,-0.7 0,-1.1 -0.1,0 -0.2,0 -0.3,0 0,-0.5 0,-1 0,-1.4 -0.1,0 -0.2,0 -0.3,0 0,-0.5 0,-1 0,-1.4 -0.1,0 -0.2,0 -0.3,0 0,-0.5 0,-1 0,-1.4 -0.1,0 -0.2,0 -0.3,0 -0.1,-1.1 -0.2,-2.1 -0.3,-3.2 -0.1,0 -0.2,0 -0.3,0 0,-0.6 0,-1.2 0,-1.8 -0.1,0 -0.2,0 -0.3,0 -0.1,-1.2 -0.2,-2.4 -0.3,-3.6 -0.5,-1.7 -1.1,-4 -1.6,-5.7 0,-0.6 0,-1.2 0,-1.8 -0.1,0 -0.2,0 -0.3,0 -0.1,-1.2 -0.2,-2.4 -0.3,-3.6 -0.5,-1.6 -0.8,-4 -1.3,-5.7 0,-0.8 0,-1.7 0,-2.5 -0.1,0 -0.2,0 -0.3,0 0,-0.8 0,-1.7 0,-2.5 -0.1,0 -0.2,0 -0.3,0 0,-1.1 0,-2.1 0,-3.2 -0.1,0 -0.2,0 -0.3,0 -0.2,-4.6 -0.4,-9.3 -0.6,-13.9 0.1,-5.5 0.2,-11 0.3,-16.4 0.1,0 0.2,0 0.3,0 0,-1.2 0,-2.4 0,-3.6 0.1,0 0.2,0 0.3,0 0,-1.1 0,-2.1 0,-3.2 0.1,0 0.2,0 0.3,0 0,-0.8 0,-1.7 0,-2.5 0.9,-4.8 1.7,-9.5 2.6,-14.3 -1.1,-0.1 -2.1,-0.2 -3.2,-0.4 0,0.1 0,0.2 0,0.4 -1.1,0.1 -2.1,0.2 -3.2,0.4 0,0.1 0,0.2 0,0.4 -0.3,0 -0.6,0 -1,0 0,0.1 0,0.2 0,0.4 -0.3,0 -0.6,0 -1,0 0,0.1 0,0.2 0,0.4 -0.3,0 -0.6,0 -1,0 0,0.1 0,0.2 0,0.4 -0.3,0 -0.6,0 -1,0 0,0.1 0,0.2 0,0.4 -0.4,0.1 -0.9,0.2 -1.3,0.4 0,0.1 0,0.2 0,0.4 -0.3,0 -0.6,0 -1,0 0,0.1 0,0.2 0,0.4 -0.2,0 -0.4,0 -0.6,0 0,0.1 0,0.2 0,0.4 -0.5,0.1 -1.1,0.2 -1.6,0.4 0,0.1 0,0.2 0,0.4 -0.3,0 -0.6,0 -1,0 0,0.1 0,0.2 0,0.4 -0.2,0 -0.4,0 -0.6,0 0,0.1 0,0.2 0,0.4 -0.6,0.1 -1.3,0.2 -1.9,0.4 -0.8,0.3 -3.1,1.2 -4.5,0.7 0,-0.1 0,-0.2 0,-0.4 -0.5,-0.1 -1.1,-0.2 -1.6,-0.4 -0.3,-0.5 -0.6,-1 -1,-1.4 -0.1,0 -0.2,0 -0.3,0 0,-0.2 0,-0.5 0,-0.7 -0.2,-0.1 -0.4,-0.2 -0.6,-0.4 -0.1,-0.5 -0.2,-1 -0.3,-1.4 -0.1,0 -0.2,0 -0.3,0 0,-0.5 0,-1 0,-1.4 -0.1,0 -0.2,0 -0.3,0 -0.4,-1.6 0.6,-6.5 1,-7.5 0.1,0 0.2,0 0.3,0 0,-0.2 0,-0.5 0,-0.7 0.1,0 0.2,0 0.3,0 0,-0.2 0,-0.5 0,-0.7 0.1,0 0.2,0 0.3,0 0,-0.2 0,-0.5 0,-0.7 0.1,0 0.2,0 0.3,0 0,-0.2 0,-0.5 0,-0.7 0.1,0 0.2,0 0.3,0 0,-0.2 0,-0.5 0,-0.7 0.2,-0.1 0.4,-0.2 0.6,-0.4 0.2,-0.7 0.4,-1.4 0.6,-2.1 0.2,-0.1 0.4,-0.2 0.6,-0.4 0.1,-0.5 0.2,-1 0.3,-1.4 0.2,-0.1 0.4,-0.2 0.6,-0.4 0.1,-0.5 0.2,-1 0.3,-1.4 0.2,-0.1 0.4,-0.2 0.6,-0.4 0.2,-0.7 0.4,-1.4 0.6,-2.1 0.2,-0.1 0.4,-0.2 0.6,-0.4 0.3,-1.1 0.6,-2.1 1,-3.2 0.1,0 0.2,0 0.3,0 0.2,-0.7 0.4,-1.4 0.6,-2.1 0.1,0 0.2,0 0.3,0 0,-0.2 0,-0.5 0,-0.7 0.1,0 0.2,0 0.3,0 0.8,-1.9 1.5,-3.8 2.3,-5.7 0.2,-0.1 0.4,-0.2 0.6,-0.4 0,-0.2 0,-0.5 0,-0.7 0.1,0 0.2,0 0.3,0 0,-0.2 0,-0.5 0,-0.7 0.1,0 0.2,0 0.3,0 0.2,-0.7 0.4,-1.4 0.6,-2.1 0.2,-0.1 0.4,-0.2 0.6,-0.4 0,-0.2 0,-0.5 0,-0.7 0.1,0 0.2,0 0.3,0 0,-0.2 0,-0.5 0,-0.7 0.1,0 0.2,0 0.3,0 0,-0.2 0,-0.5 0,-0.7 0.1,0 0.2,0 0.3,0 0,-0.2 0,-0.5 0,-0.7 0.2,-0.1 0.4,-0.2 0.6,-0.4 0.2,-0.7 0.4,-1.4 0.6,-2.1 0.2,-0.1 0.4,-0.2 0.6,-0.4 0.1,-0.5 0.2,-1 0.3,-1.4 0.2,-0.1 0.4,-0.2 0.6,-0.4 0.2,-0.7 0.4,-1.4 0.6,-2.1 0.1,0 0.2,0 0.3,0 0.1,-0.4 0.2,-0.7 0.3,-1.1 0.2,-0.1 0.4,-0.2 0.6,-0.4 0,-0.2 0,-0.5 0,-0.7 0.1,0 0.2,0 0.3,0 0,-0.2 0,-0.5 0,-0.7 0.2,-0.1 0.4,-0.2 0.6,-0.4 0.1,-0.5 0.2,-1 0.3,-1.4 0.2,-0.1 0.4,-0.2 0.6,-0.4 0,-0.2 0,-0.5 0,-0.7 0.2,-0.1 0.4,-0.2 0.6,-0.4 0,-0.2 0,-0.5 0,-0.7 0.2,-0.1 0.4,-0.2 0.6,-0.4 0,-0.2 0,-0.5 0,-0.7 0.2,-0.1 0.4,-0.2 0.6,-0.4 0.1,-0.5 0.2,-1 0.3,-1.4 0.2,-0.1 0.4,-0.2 0.6,-0.4 0,-0.2 0,-0.5 0,-0.7 0.2,-0.1 0.4,-0.2 0.6,-0.4 0,-0.2 0,-0.5 0,-0.7 0.3,-0.2 0.6,-0.5 1,-0.7 0,-0.2 0,-0.5 0,-0.7 0.2,-0.1 0.4,-0.2 0.6,-0.4 0,-0.2 0,-0.5 0,-0.7 0.1,0 0.2,0 0.3,0 0.1,-0.4 0.2,-0.7 0.3,-1.1 0.2,-0.1 0.4,-0.2 0.6,-0.4 0,-0.2 0,-0.5 0,-0.7 0.3,-0.2 0.6,-0.5 1,-0.7 0,-0.2 0,-0.5 0,-0.7 0.2,-0.1 0.4,-0.2 0.6,-0.4 0,-0.2 0,-0.5 0,-0.7 0.3,-0.2 0.6,-0.5 1,-0.7 0,-0.2 0,-0.5 0,-0.7 0.3,-0.2 0.6,-0.5 1,-0.7 0,-0.2 0,-0.5 0,-0.7 0.3,-0.2 0.6,-0.5 1,-0.7 0,-0.2 0,-0.5 0,-0.7 0.4,-0.4 0.9,-0.7 1.3,-1.1 0.1,-0.4 0.2,-0.7 0.3,-1.1 0.2,-0.1 0.4,-0.2 0.6,-0.4 0,-0.2 0,-0.5 0,-0.7 0.4,-0.4 0.9,-0.7 1.3,-1.1 0,-0.2 0,-0.5 0,-0.7 0.3,-0.2 0.6,-0.5 1,-0.7 0,-0.1 0,-0.2 0,-0.4 0.2,-0.1 0.4,-0.2 0.6,-0.4 0,-0.2 0,-0.5 0,-0.7 0.6,-0.6 1.3,-1.2 1.9,-1.8 0,-0.2 0,-0.5 0,-0.7 0.8,-0.7 1.5,-1.4 2.3,-2.1 0,-0.2 0,-0.5 0,-0.7 1.3,-1.3 2.6,-2.6 3.9,-3.9 0,-0.2 0,-0.5 0,-0.7 0.5,-0.5 1.1,-1 1.6,-1.4 1,-1.2 1.9,-2.4 2.9,-3.6 0.2,0 0.4,0 0.6,0 1.1,-1.3 2.1,-2.6 3.2,-3.9 0.6,-0.6 1.4,-0.8 1.9,-1.4 0.3,-0.5 0.6,-1 1,-1.4 0.2,0 0.4,0 0.6,0 0.1,-0.2 0.2,-0.5 0.3,-0.7 0.3,-0.2 0.6,-0.5 1,-0.7 0,-0.1 0,-0.2 0,-0.4 0.2,0 0.4,0 0.6,0 0.4,-0.6 0.9,-1.2 1.3,-1.8 0.2,0 0.4,0 0.6,0 0.3,-0.5 0.6,-1 1,-1.4 0.2,0 0.4,0 0.6,0 0.2,-0.4 0.4,-0.7 0.6,-1.1 0.2,0 0.4,0 0.6,0 0.2,-0.4 0.4,-0.7 0.6,-1.1 0.2,0 0.4,0 0.6,0 0.2,-0.4 0.4,-0.7 0.6,-1.1 0.2,0 0.4,0 0.6,0 0.1,-0.2 0.2,-0.5 0.3,-0.7 0.2,0 0.4,0 0.6,0 0.2,-0.4 0.4,-0.7 0.6,-1.1 0.2,0 0.4,0 0.6,0 0.1,-0.2 0.2,-0.5 0.3,-0.7 0.3,-0.1 0.6,-0.2 1,-0.4 0,-0.1 0,-0.2 0,-0.4 0.2,0 0.4,0 0.6,0 0.1,-0.2 0.2,-0.5 0.3,-0.7 0.2,0 0.4,0 0.6,0 0.1,-0.2 0.2,-0.5 0.3,-0.7 0.2,0 0.4,0 0.6,0 0.1,-0.2 0.2,-0.5 0.3,-0.7 0.2,0 0.4,0 0.6,0 0.1,-0.2 0.2,-0.5 0.3,-0.7 0.5,-0.1 1.1,-0.2 1.6,-0.4 0.1,-0.2 0.2,-0.5 0.3,-0.7 0.2,0 0.4,0 0.6,0 0.2,-0.4 0.4,-0.7 0.6,-1.1 0.2,0 0.4,0 0.6,0 0.5,-0.7 1.1,-1.4 1.6,-2.1 0.8,-0.8 1.2,-0.2 1.6,-1.8 -1.2,-0.1 -2,-0.7 -2.9,-1.1 -0.4,0 -0.9,0 -1.3,0 0,-0.1 0,-0.2 0,-0.4 -1.4,-0.1 -2.8,-0.2 -4.2,-0.4 0,-0.1 0,-0.2 0,-0.4 -1.2,0 -2.4,0 -3.5,0 0,0.1 0,0.2 0,0.4 -1.2,0 -2.4,0 -3.5,0 -1.2,0.4 -2.6,0.7 -4.2,0.7 0,-0.1 0,-0.2 0,-0.4 0.1,0 0.2,0 0.3,0 0.3,-0.5 0.6,-1 1,-1.4 0.2,0 0.4,0 0.6,0 0.6,-0.8 1.3,-1.7 1.9,-2.5 0.2,0 0.4,0 0.6,0 0.4,-0.6 0.9,-1.2 1.3,-1.8 0.2,0 0.4,0 0.6,0 0.4,-0.6 0.9,-1.2 1.3,-1.8 0.2,0 0.4,0 0.6,0 0.3,-0.5 0.6,-1 1,-1.4 0.2,0 0.4,0 0.6,0 0.3,-0.5 0.6,-1 1,-1.4 0.2,0 0.4,0 0.6,0 0.3,-0.5 0.6,-1 1,-1.4 0.2,0 0.4,0 0.6,0 0.2,-0.4 0.4,-0.7 0.6,-1.1 0.2,0 0.4,0 0.6,0 0.2,-0.4 0.4,-0.7 0.6,-1.1 0.2,0 0.4,0 0.6,0 0.2,-0.4 0.4,-0.7 0.6,-1.1 0.2,0 0.4,0 0.6,0 0.1,-0.2 0.2,-0.5 0.3,-0.7 0.2,0 0.4,0 0.6,0 0.2,-0.4 0.4,-0.7 0.6,-1.1 0.2,0 0.4,0 0.6,0 0.1,-0.2 0.2,-0.5 0.3,-0.7 0.2,0 0.4,0 0.6,0 0.1,-0.2 0.2,-0.5 0.3,-0.7 0.2,0 0.4,0 0.6,0 0.2,-0.4 0.4,-0.7 0.6,-1.1 0.2,0 0.4,0 0.6,0 0.1,-0.2 0.2,-0.5 0.3,-0.7 0.2,0 0.4,0 0.6,0 0.1,-0.2 0.2,-0.5 0.3,-0.7 0.2,0 0.4,0 0.6,0 0.1,-0.2 0.2,-0.5 0.3,-0.7 0.2,0 0.4,0 0.6,0 0.1,-0.2 0.2,-0.5 0.3,-0.7 0.4,-0.1 0.9,-0.2 1.3,-0.4 0.1,-0.2 0.2,-0.5 0.3,-0.7 0.2,0 0.4,0 0.6,0 0.1,-0.2 0.2,-0.5 0.3,-0.7 0.2,0 0.4,0 0.6,0 0.1,-0.2 0.2,-0.5 0.3,-0.7 0.4,-0.1 0.9,-0.2 1.3,-0.4 0.1,-0.2 0.2,-0.5 0.3,-0.7 0.4,-0.1 0.9,-0.2 1.3,-0.4 0.1,-0.2 0.2,-0.5 0.3,-0.7 0.4,-0.1 0.9,-0.2 1.3,-0.4 0.1,-0.2 0.2,-0.5 0.3,-0.7 0.4,-0.1 0.9,-0.2 1.3,-0.4 0.1,-0.2 0.2,-0.5 0.3,-0.7 0.6,-0.2 1.3,-0.5 1.9,-0.7 0.1,-0.2 0.2,-0.5 0.3,-0.7 0.2,0 0.4,0 0.6,0 0,-0.1 0,-0.2 0,-0.4 0.2,0 0.4,0 0.6,0 0,-0.1 0,-0.2 0,-0.4 0.2,0 0.4,0 0.6,0 0,-0.1 0,-0.2 0,-0.4 0.2,0 0.4,0 0.6,0 0.1,-0.2 0.2,-0.5 0.3,-0.7 0.6,-0.2 1.3,-0.5 1.9,-0.7 0,-0.1 0,-0.2 0,-0.4 0.4,-0.1 0.9,-0.2 1.3,-0.4 0,-0.1 0,-0.2 0,-0.4 0.4,-0.1 0.9,-0.2 1.3,-0.4 0,-0.1 0,-0.2 0,-0.4 0.2,0 0.4,0 0.6,0 0,-0.1 0,-0.2 0,-0.4 0.2,0 0.4,0 0.6,0 0,-0.1 0,-0.2 0,-0.4 0.2,0 0.4,0 0.6,0 0,-0.1 0,-0.2 0,-0.4 0.2,0 0.4,0 0.6,0 0,-0.1 0,-0.2 0,-0.4 0.2,0 0.4,0 0.6,0 0,-0.1 0,-0.2 0,-0.4 0.6,-0.2 1.3,-0.5 1.9,-0.7 0,-0.1 0,-0.2 0,-0.4 0.2,0 0.4,0 0.6,0 0,-0.1 0,-0.2 0,-0.4 0.2,0 0.4,0 0.6,0 0,-0.1 0,-0.2 0,-0.4 0.2,0 0.4,0 0.6,0 0,-0.1 0,-0.2 0,-0.4 0.2,0 0.4,0 0.6,0 0,-0.1 0,-0.2 0,-0.4 0.6,-0.2 1.3,-0.5 1.9,-0.7 0,-0.1 0,-0.2 0,-0.4 0.3,0 0.6,0 1,0 0,-0.1 0,-0.2 0,-0.4 0.2,0 0.4,0 0.6,0 0,-0.1 0,-0.2 0,-0.4 0.6,-0.2 1.3,-0.5 1.9,-0.7 0,-0.1 0,-0.2 0,-0.4 0.3,0 0.6,0 1,0 0,-0.1 0,-0.2 0,-0.4 0.4,-0.1 0.9,-0.2 1.3,-0.4 0,-0.1 0,-0.2 0,-0.4 0.3,0 0.6,0 1,0 0,-0.1 0,-0.2 0,-0.4 0.4,-0.1 0.9,-0.2 1.3,-0.4 0,-0.1 0,-0.2 0,-0.4 0.3,0 0.6,0 1,0 0,-0.1 0,-0.2 0,-0.4 0.2,0 0.4,0 0.6,0 0,-0.1 0,-0.2 0,-0.4 0.3,0 0.6,0 1,0 0,-0.1 0,-0.2 0,-0.4 0.4,-0.1 0.9,-0.2 1.3,-0.4 0,-0.1 0,-0.2 0,-0.4 0.3,0 0.6,0 1,0 0,-0.1 0,-0.2 0,-0.4 0.2,0 0.4,0 0.6,0 0,-0.1 0,-0.2 0,-0.4 0.6,-0.1 1.3,-0.2 1.9,-0.4 0,-0.1 0,-0.2 0,-0.4 0.2,0 0.4,0 0.6,0 0,-0.1 0,-0.2 0,-0.4 0.5,-0.1 1.1,-0.2 1.6,-0.4 0,-0.1 0,-0.2 0,-0.4 0.6,-0.1 1.3,-0.2 1.9,-0.4 0,-0.1 0,-0.2 0,-0.4 0.2,0 0.4,0 0.6,0 0,-0.1 0,-0.2 0,-0.4 1,-0.2 1.9,-0.5 2.9,-0.7 0,-0.1 0,-0.2 0,-0.4 0.2,0 0.4,0 0.6,0 0,-0.1 0,-0.2 0,-0.4 1,-0.2 1.9,-0.5 2.9,-0.7 0,-0.1 0,-0.2 0,-0.4 0.3,0 0.6,0 1,0 0,-0.1 0,-0.2 0,-0.4 0.3,0 0.6,0 1,0 0,-0.1 0,-0.2 0,-0.4 0.3,0 0.6,0 1,0 0,-0.1 0,-0.2 0,-0.4 0.3,0 0.6,0 1,0 0,-0.1 0,-0.2 0,-0.4 0.3,0 0.6,0 1,0 0,-0.1 0,-0.2 0,-0.4 0.6,-0.1 1.3,-0.2 1.9,-0.4 0,-0.1 0,-0.2 0,-0.4 0.6,-0.1 1.3,-0.2 1.9,-0.4 0,-0.1 0,-0.2 0,-0.4 0.4,0 0.9,0 1.3,0 0,-0.1 0,-0.2 0,-0.4 0.3,0 0.6,0 1,0 0,-0.1 0,-0.2 0,-0.4 0.3,0 0.6,0 1,0 0,-0.1 0,-0.2 0,-0.4 0.4,0 0.9,0 1.3,0 0,-0.1 0,-0.2 0,-0.4 0.3,0 0.6,0 1,0 0,-0.1 0,-0.2 0,-0.4 1.1,-0.2 2.1,-0.5 3.2,-0.7 0,-0.1 0,-0.2 0,-0.4 0.3,0 0.6,0 1,0 0,-0.1 0,-0.2 0,-0.4 0.3,0 0.6,0 1,0 0,-0.1 0,-0.2 0,-0.4 0.3,0 0.6,0 1,0 0,-0.1 0,-0.2 0,-0.4 0.6,-0.1 1.3,-0.2 1.9,-0.4 0,-0.1 0,-0.2 0,-0.4 1.1,-0.2 2.1,-0.5 3.2,-0.7 0,-0.1 0,-0.2 0,-0.4 0.2,0 0.4,0 0.6,0 0,-0.1 0,-0.2 0,-0.4 0.3,0 0.6,0 1,0 0,-0.1 0,-0.2 0,-0.4 0.3,0 0.6,0 1,0 0,-0.1 0,-0.2 0,-0.4 0.3,0 0.6,0 1,0 0,-0.1 0,-0.2 0,-0.4 0.3,0 0.6,0 1,0 0,-0.1 0,-0.2 0,-0.4 0.3,0 0.6,0 1,0 0,-0.1 0,-0.2 0,-0.4 0.2,0 0.4,0 0.6,0 0,-0.1 0,-0.2 0,-0.4 0.3,0 0.6,0 1,0 0,-0.1 0,-0.2 0,-0.4 0.2,0 0.4,0 0.6,0 0,-0.1 0,-0.2 0,-0.4 0.5,-0.1 1.1,-0.2 1.6,-0.4 0,-0.1 0,-0.2 0,-0.4 0.3,0 0.6,0 1,0 0,-0.1 0,-0.2 0,-0.4 0.2,0 0.4,0 0.6,0 0,-0.1 0,-0.2 0,-0.4 0.3,0 0.6,0 1,0 0,-0.1 0,-0.2 0,-0.4 0.6,-0.2 1.3,-0.5 1.9,-0.7 0,-0.1 0,-0.2 0,-0.4 0.2,0 0.4,0 0.6,0 0,-0.1 0,-0.2 0,-0.4 0.3,0 0.6,0 1,0 0,-0.1 0,-0.2 0,-0.4 0.6,-0.2 1.3,-0.5 1.9,-0.7 0,-0.1 0,-0.2 0,-0.4 0.2,0 0.4,0 0.6,0 0,-0.1 0,-0.2 0,-0.4 0.4,-0.1 0.9,-0.2 1.3,-0.4 0.1,-0.2 0.2,-0.5 0.3,-0.7 0.6,-0.2 1.3,-0.5 1.9,-0.7 0.1,-0.2 0.2,-0.5 0.3,-0.7 0.4,-0.1 0.9,-0.2 1.3,-0.4 0.1,-0.2 0.2,-0.5 0.3,-0.7 0.4,-0.1 0.9,-0.2 1.3,-0.4 0,-0.1 0,-0.2 0,-0.4 0.3,-0.1 0.6,-0.2 1,-0.4 0.1,-0.2 0.2,-0.5 0.3,-0.7 0.2,0 0.4,0 0.6,0 0.2,-0.4 0.4,-0.7 0.6,-1.1 0.2,0 0.4,0 0.6,0 0.1,-0.2 0.2,-0.5 0.3,-0.7 0.3,-0.1 0.6,-0.2 1,-0.4 0.3,-0.5 0.6,-1 1,-1.4 0.2,0 0.4,0 0.6,0 0.5,-0.7 1.1,-1.4 1.6,-2.1 0.2,0 0.4,0 0.6,0 0.9,-1.1 1.7,-2.1 2.6,-3.2 0.4,-0.4 0.9,-0.7 1.3,-1.1 0,-0.2 0,-0.5 0,-0.7 0.6,-0.6 1.3,-1.2 1.9,-1.8 0,-0.2 0,-0.5 0,-0.7 0.4,-0.4 0.9,-0.7 1.3,-1.1 0,-0.2 0,-0.5 0,-0.7 0.3,-0.2 0.6,-0.5 1,-0.7 0,-0.2 0,-0.5 0,-0.7 0.2,-0.1 0.4,-0.2 0.6,-0.4 0.1,-0.4 0.2,-0.7 0.3,-1.1 0.1,0 0.2,0 0.3,0 0,-0.2 0,-0.5 0,-0.7 0.2,-0.1 0.4,-0.2 0.6,-0.4 0.1,-0.4 0.2,-0.7 0.3,-1.1 0.1,0 0.2,0 0.3,0 0.1,-0.5 0.2,-1 0.3,-1.4 0.2,-0.1 0.4,-0.2 0.6,-0.4 0,-0.2 0,-0.5 0,-0.7 0.1,0 0.2,0 0.3,0 0,-0.2 0,-0.5 0,-0.7 0.1,0 0.2,0 0.3,0 0,-0.2 0,-0.5 0,-0.7 0.1,0 0.2,0 0.3,0 0,-0.2 0,-0.5 0,-0.7 0.2,-0.1 0.4,-0.2 0.6,-0.4 0,-0.2 0,-0.5 0,-0.7 0.1,0 0.2,0 0.3,0 0,-0.2 0,-0.5 0,-0.7 0.1,0 0.2,0 0.3,0 0,-0.4 0,-0.7 0,-1.1 0.1,0 0.2,0 0.3,0 0,-0.2 0,-0.5 0,-0.7 0.1,0 0.2,0 0.3,0 0.2,-0.7 0.4,-1.4 0.6,-2.1 0.1,0 0.2,0 0.3,0 0,-0.4 0,-0.7 0,-1.1 0.1,0 0.2,0 0.3,0 0,-0.2 0,-0.5 0,-0.7 0.1,0 0.2,0 0.3,0 0,-0.4 0,-0.7 0,-1.1 0.1,0 0.2,0 0.3,0 0.1,-0.5 0.2,-1 0.3,-1.4 0.1,0 0.2,0 0.3,0 0,-0.2 0,-0.5 0,-0.7 0.2,-0.1 0.4,-0.2 0.6,-0.4 0.1,-0.5 0.2,-1 0.3,-1.4 0.2,-0.1 0.4,-0.2 0.6,-0.4 0.1,-0.5 0.2,-1 0.3,-1.4 0.3,-0.2 0.6,-0.5 1,-0.7 0,-0.2 0,-0.5 0,-0.7 0.2,-0.1 0.4,-0.2 0.6,-0.4 0,-0.2 0,-0.5 0,-0.7 0.4,-0.4 0.9,-0.7 1.3,-1.1 0,-0.2 0,-0.5 0,-0.7 0.6,-0.6 1.3,-1.2 1.9,-1.8 0.1,-0.4 0.2,-0.7 0.3,-1.1 1.2,-1.2 2.4,-2.4 3.5,-3.6 0.4,-0.6 0.9,-1.2 1.3,-1.8 0.2,0 0.4,0 0.6,0 1,-1.2 1.9,-2.4 2.9,-3.6 0.2,0 0.4,0 0.6,0 0.6,-0.8 1.3,-1.7 1.9,-2.5 0.2,0 0.4,0 0.6,0 0.6,-0.8 1.3,-1.7 1.9,-2.5 0.2,0 0.4,0 0.6,0 0.6,-0.8 1.3,-1.7 1.9,-2.5 0.2,0 0.4,0 0.6,0 0.9,-1.1 1.7,-2.1 2.6,-3.2 0.2,0 0.4,0 0.6,0 0.4,-0.6 0.9,-1.2 1.3,-1.8 0.9,-0.8 1.7,-1.7 2.6,-2.5 0,-0.2 0,-0.5 0,-0.7 0.2,-0.1 0.4,-0.2 0.6,-0.4 0,-0.1 0,-0.2 0,-0.4 0.5,-0.5 1.1,-1 1.6,-1.4 0,-0.2 0,-0.5 0,-0.7 0.5,-0.5 1.1,-1 1.6,-1.4 0,-0.2 0,-0.5 0,-0.7 0.5,-0.5 1.1,-1 1.6,-1.4 0,-0.2 0,-0.5 0,-0.7 0.4,-0.4 0.9,-0.7 1.3,-1.1 0,-0.2 0,-0.5 0,-0.7 0.4,-0.4 0.9,-0.7 1.3,-1.1 0,-0.2 0,-0.5 0,-0.7 0.4,-0.4 0.9,-0.7 1.3,-1.1 0,-0.2 0,-0.5 0,-0.7 0.2,-0.1 0.4,-0.2 0.6,-0.4 0.1,-0.4 0.2,-0.7 0.3,-1.1 0.4,-0.4 0.9,-0.7 1.3,-1.1 0,-0.2 0,-0.5 0,-0.7 0.3,-0.2 0.6,-0.5 1,-0.7 0.1,-0.4 0.2,-0.7 0.3,-1.1 0.2,-0.1 0.4,-0.2 0.6,-0.4 0,-0.2 0,-0.5 0,-0.7 0.2,-0.1 0.4,-0.2 0.6,-0.4 0,-0.2 0,-0.5 0,-0.7 0.3,-0.2 0.6,-0.5 1,-0.7 0,-0.2 0,-0.5 0,-0.7 0.2,-0.1 0.4,-0.2 0.6,-0.4 0,-0.2 0,-0.5 0,-0.7 0.3,-0.2 0.6,-0.5 1,-0.7 0,-0.2 0,-0.5 0,-0.7 0.2,-0.1 0.4,-0.2 0.6,-0.4 0.1,-0.4 0.2,-0.7 0.3,-1.1 0.1,0 0.2,0 0.3,0 0,-0.2 0,-0.5 0,-0.7 0.2,-0.1 0.4,-0.2 0.6,-0.4 0,-0.2 0,-0.5 0,-0.7 0.2,-0.1 0.4,-0.2 0.6,-0.4 0,-0.2 0,-0.5 0,-0.7 0.1,0 0.2,0 0.3,0 0.1,-0.4 0.2,-0.7 0.3,-1.1 0.2,-0.1 0.4,-0.2 0.6,-0.4 0,-0.2 0,-0.5 0,-0.7 0.2,-0.1 0.4,-0.2 0.6,-0.4 0.1,-0.4 0.2,-0.7 0.3,-1.1 0.1,0 0.2,0 0.3,0 0.1,-0.5 0.2,-1 0.3,-1.4 0.2,-0.1 0.4,-0.2 0.6,-0.4 0.1,-0.5 0.2,-1 0.3,-1.4 0.2,-0.1 0.4,-0.2 0.6,-0.4 0.1,-0.5 0.2,-1 0.3,-1.4 0.2,-0.1 0.4,-0.2 0.6,-0.4 0.1,-0.5 0.2,-1 0.3,-1.4 0.2,-0.1 0.4,-0.2 0.6,-0.4 0,-0.2 0,-0.5 0,-0.7 0.1,0 0.2,0 0.3,0 0,-0.2 0,-0.5 0,-0.7 0.1,0 0.2,0 0.3,0 0,-0.2 0,-0.5 0,-0.7 0.1,0 0.2,0 0.3,0 0,-0.2 0,-0.5 0,-0.7 0.2,-0.1 0.4,-0.2 0.6,-0.4 0,-0.2 0,-0.5 0,-0.7 0.1,0 0.2,0 0.3,0 0,-0.2 0,-0.5 0,-0.7 0.1,0 0.2,0 0.3,0 0,-0.2 0,-0.5 0,-0.7 0.1,0 0.2,0 0.3,0 0,-0.2 0,-0.5 0,-0.7 0.1,0 0.2,0 0.3,0 0,-0.2 0,-0.5 0,-0.7 0.1,0 0.2,0 0.3,0 0,-0.2 0,-0.5 0,-0.7 0.1,0 0.2,0 0.3,0 0,-0.2 0,-0.5 0,-0.7 0.1,0 0.2,0 0.3,0 0,-0.2 0,-0.5 0,-0.7 0.2,-0.1 0.4,-0.2 0.6,-0.4 0.2,-0.8 0.4,-1.7 0.6,-2.5 0.1,0 0.2,0 0.3,0 0,-0.2 0,-0.5 0,-0.7 0.1,0 0.2,0 0.3,0 0,-0.2 0,-0.5 0,-0.7 0.1,0 0.2,0 0.3,0 0,-0.2 0,-0.5 0,-0.7 0.1,0 0.2,0 0.3,0 0.2,-0.7 0.4,-1.4 0.6,-2.1 0.1,0 0.2,0 0.3,0 0,-0.4 0,-0.7 0,-1.1 0.1,0 0.2,0 0.3,0 0.1,-0.5 0.2,-1 0.3,-1.4 0.1,0 0.2,0 0.3,0 0,-0.4 0,-0.7 0,-1.1 0.1,0 0.2,0 0.3,0 0.1,-0.5 0.2,-1 0.3,-1.4 0.1,0 0.2,0 0.3,0 1.4,-3.4 1,-9.8 5.2,-10 0.7,-0.7 1.8,-0.1 2.9,0 0.5,0.9 0.9,0.5 1.3,1.1 0,0.2 0,0.5 0,0.7 0.2,0.1 0.4,0.2 0.6,0.4 0,0.2 0,0.5 0,0.7 0.1,0 0.2,0 0.3,0 0,0.2 0,0.5 0,0.7 0.1,0 0.2,0 0.3,0 0,0.2 0,0.5 0,0.7 0.1,0 0.2,0 0.3,0 0,0.2 0,0.5 0,0.7 0.2,0.1 0.4,0.2 0.6,0.4 0,0.2 0,0.5 0,0.7 0.3,0.2 0.6,0.5 1,0.7 0,0.2 0,0.5 0,0.7 0.2,0.1 0.4,0.2 0.6,0.4 0.1,0.5 0.2,1 0.3,1.4 0.2,0.1 0.4,0.2 0.6,0.4 0.2,0.7 0.4,1.4 0.6,2.1 0.2,0.1 0.4,0.2 0.6,0.4 0,0.2 0,0.5 0,0.7 0.1,0 0.2,0 0.3,0 0,0.2 0,0.5 0,0.7 0.1,0 0.2,0 0.3,0 0,0.4 0,0.7 0,1.1 0.1,0 0.2,0 0.3,0 0.1,0.5 0.2,1 0.3,1.4 0.1,0 0.2,0 0.3,0 0.1,0.6 0.2,1.2 0.3,1.8 0.1,0 0.2,0 0.3,0 0.9,3.5 1.7,6.9 2.6,10.4 0.1,1.5 0.2,3.1 0.3,4.6 0.1,0 0.2,0 0.3,0 0,1.1 0,2.1 0,3.2 0.1,0 0.2,0 0.3,0 0.1,4.4 0.2,8.8 0.3,13.2 0,3.2 -0.3,7.4 0.3,10 0,4.5 0,9.1 0,13.6 -0.1,0.6 -0.6,2.5 -0.3,3.6 0.1,0 0.2,0 0.3,0 0,0.4 0,0.7 0,1.1 0.1,0 0.2,0 0.3,0 0,0.2 0,0.5 0,0.7 0.1,0 0.2,0 0.3,0 0,0.2 0,0.5 0,0.7 0.2,0.1 0.4,0.2 0.6,0.4 0.7,1.1 0.6,1.8 1.9,2.1 0,0.1 0,0.2 0,0.4 0.1,0 0.2,0 0.3,0 0.1,-0.4 0.2,-0.7 0.3,-1.1 0.1,0 0.2,0 0.3,0 0,-0.2 0,-0.5 0,-0.7 0.2,-0.1 0.4,-0.2 0.6,-0.4 0,-0.2 0,-0.5 0,-0.7 0.2,-0.1 0.4,-0.2 0.6,-0.4 0,-0.2 0,-0.5 0,-0.7 0.2,-0.1 0.4,-0.2 0.6,-0.4 0.1,-0.5 0.2,-1 0.3,-1.4 0.1,0 0.2,0 0.3,0 0.1,-0.4 0.2,-0.7 0.3,-1.1 0.2,-0.1 0.4,-0.2 0.6,-0.4 0.1,-0.5 0.2,-1 0.3,-1.4 0.2,-0.1 0.4,-0.2 0.6,-0.4 0.1,-0.5 0.2,-1 0.3,-1.4 0.2,-0.1 0.4,-0.2 0.6,-0.4 0.2,-0.7 0.4,-1.4 0.6,-2.1 0.2,-0.1 0.4,-0.2 0.6,-0.4 0.2,-0.7 0.4,-1.4 0.6,-2.1 0.2,-0.1 0.4,-0.2 0.6,-0.4 0,-0.2 0,-0.5 0,-0.7 0.1,0 0.2,0 0.3,0 0,-0.2 0,-0.5 0,-0.7 0.1,0 0.2,0 0.3,0 0,-0.2 0,-0.5 0,-0.7 0.1,0 0.2,0 0.3,0 0,-0.2 0,-0.5 0,-0.7 0.1,0 0.2,0 0.3,0 0,-0.2 0,-0.5 0,-0.7 0.1,0 0.2,0 0.3,0 0,-0.2 0,-0.5 0,-0.7 0.1,0 0.2,0 0.3,0 0,-0.2 0,-0.5 0,-0.7 0.1,0 0.2,0 0.3,0 0,-0.2 0,-0.5 0,-0.7 0.2,-0.1 0.4,-0.2 0.6,-0.4 0,-0.2 0,-0.5 0,-0.7 0.1,0 0.2,0 0.3,0 0,-0.2 0,-0.5 0,-0.7 0.1,0 0.2,0 0.3,0 0,-0.4 0,-0.7 0,-1.1 0.1,0 0.2,0 0.3,0 0.1,-0.5 0.2,-1 0.3,-1.4 0.1,0 0.2,0 0.3,0 0,-0.2 0,-0.5 0,-0.7 0.1,0 0.2,0 0.3,0 0,-0.2 0,-0.5 0,-0.7 0.1,0 0.2,0 0.3,0 0.2,-0.7 0.4,-1.4 0.6,-2.1 0.1,0 0.2,0 0.3,0 0,-0.4 0,-0.7 0,-1.1 0.1,0 0.2,0 0.3,0 0.1,-0.5 0.2,-1 0.3,-1.4 0.1,0 0.2,0 0.3,0 0,-0.4 0,-0.7 0,-1.1 0.1,0 0.2,0 0.3,0 0.1,-0.5 0.2,-1 0.3,-1.4 0.1,0 0.2,0 0.3,0 0,-0.4 0,-0.7 0,-1.1 0.1,0 0.2,0 0.3,0 0,-0.2 0,-0.5 0,-0.7 0.1,0 0.2,0 0.3,0 0,-0.4 0,-0.7 0,-1.1 0.1,0 0.2,0 0.3,0 0,-0.2 0,-0.5 0,-0.7 0.1,0 0.2,0 0.3,0 0.1,-0.7 0.2,-1.4 0.3,-2.1 0.1,0 0.2,0 0.3,0 0,-0.2 0,-0.5 0,-0.7 0.1,0 0.2,0 0.3,0 0.2,-1.1 0.4,-2.1 0.6,-3.2 0.1,0 0.2,0 0.3,0 0,-0.4 0,-0.7 0,-1.1 0.1,0 0.2,0 0.3,0 0,-0.4 0,-0.7 0,-1.1 0.1,0 0.2,0 0.3,0 0,-0.4 0,-0.7 0,-1.1 0.1,0 0.2,0 0.3,0 0,-0.4 0,-0.7 0,-1.1 0.1,0 0.2,0 0.3,0 0,-0.4 0,-0.7 0,-1.1 0.1,0 0.2,0 0.3,0 0,-0.4 0,-0.7 0,-1.1 0.1,0 0.2,0 0.3,0 0,-0.5 0,-1 0,-1.4 0.1,0 0.2,0 0.3,0 0,-0.4 0,-0.7 0,-1.1 0.1,0 0.2,0 0.3,0 0,-0.5 0,-1 0,-1.4 0.1,0 0.2,0 0.3,0 5.5,-6 6.4,-10.4 7.2,-14.8 z"
           class="st0"
           style="fill:#f5f5f5;fill-opacity:1" /><path
           style="fill:#f5f5f5;fill-opacity:1"
           inkscape:connector-curvature="0"
           id="path6825"
           d="m 238.6,158.3 c 1.1,-0.2 1.6,-0.8 2.3,-1.4 0,-0.1 0,-0.2 0,-0.4 0.3,-0.1 0.6,-0.2 1,-0.4 0.2,-0.4 0.4,-0.7 0.6,-1.1 0.2,0 0.4,0 0.6,0 0.3,-0.5 0.6,-1 1,-1.4 0.2,0 0.4,0 0.6,0 0.3,-0.5 0.6,-1 1,-1.4 0.2,0 0.4,0 0.6,0 0.3,-0.5 0.6,-1 1,-1.4 0.2,0 0.4,0 0.6,0 0.2,-0.4 0.4,-0.7 0.6,-1.1 0.2,0 0.4,0 0.6,0 0.2,-0.4 0.4,-0.7 0.6,-1.1 0.2,0 0.4,0 0.6,0 0.1,-0.2 0.2,-0.5 0.3,-0.7 0.2,0 0.4,0 0.6,0 0.2,-0.4 0.4,-0.7 0.6,-1.1 0.2,0 0.4,0 0.6,0 0.1,-0.2 0.2,-0.5 0.3,-0.7 0.2,0 0.4,0 0.6,0 0.1,-0.2 0.2,-0.5 0.3,-0.7 0.2,0 0.4,0 0.6,0 0.1,-0.2 0.2,-0.5 0.3,-0.7 0.2,0 0.4,0 0.6,0 0.1,-0.2 0.2,-0.5 0.3,-0.7 0.4,-0.1 0.9,-0.2 1.3,-0.4 0.1,-0.2 0.2,-0.5 0.3,-0.7 0.4,-0.1 0.9,-0.2 1.3,-0.4 0.1,-0.2 0.2,-0.5 0.3,-0.7 0.2,0 0.4,0 0.6,0 0,-0.1 0,-0.2 0,-0.4 0.2,0 0.4,0 0.6,0 0,-0.1 0,-0.2 0,-0.4 0.2,0 0.4,0 0.6,0 0,-0.1 0,-0.2 0,-0.4 0.2,0 0.4,0 0.6,0 0,-0.1 0,-0.2 0,-0.4 0.2,0 0.4,0 0.6,0 0,-0.1 0,-0.2 0,-0.4 0.2,0 0.4,0 0.6,0 0,-0.1 0,-0.2 0,-0.4 0.2,0 0.4,0 0.6,0 0,-0.1 0,-0.2 0,-0.4 0.6,-0.2 1.3,-0.5 1.9,-0.7 0,-0.1 0,-0.2 0,-0.4 0.3,0 0.6,0 1,0 0,-0.1 0,-0.2 0,-0.4 0.2,0 0.4,0 0.6,0 0,-0.1 0,-0.2 0,-0.4 0.6,-0.1 1.3,-0.2 1.9,-0.4 0,-0.1 0,-0.2 0,-0.4 3.2,-0.8 6.4,-1.7 9.7,-2.5 0.5,-1.4 1.1,-2.9 1.6,-4.3 0,-0.4 0,-0.7 0,-1.1 0.1,0 0.2,0 0.3,0 0,-0.4 0,-0.7 0,-1.1 0.1,0 0.2,0 0.3,0 0.1,-1 0.2,-1.9 0.3,-2.9 0.7,-2.2 1.3,-5 1.9,-7.1 0.2,-1.5 0.4,-3.1 0.6,-4.6 1,-3.6 1.6,-8.1 2.6,-11.8 0.1,-1.4 0.2,-2.9 0.3,-4.3 0.8,-2.9 0.8,-7 1.6,-10 0,-1.1 0,-2.1 0,-3.2 0.5,-1.8 0.6,-4.5 0.6,-6.8 0,-1.3 0,-2.6 0,-3.9 0.1,0 0.2,0 0.3,0 0.4,-1.6 0,-8.5 -0.3,-9.6 0,-2.1 0,-4.3 0,-6.4 -0.1,0 -0.2,0 -0.3,0 0,-1.2 0,-2.4 0,-3.6 -0.1,0 -0.2,0 -0.3,0 0,-1 0,-1.9 0,-2.9 -0.4,-2.5 -0.9,-5 -1.3,-7.5 -0.4,0.3 0,0 -0.3,0.4 -0.1,0 -0.2,0 -0.3,0 0,0.4 0,0.7 0,1.1 -0.1,0 -0.2,0 -0.3,0 0,0.2 0,0.5 0,0.7 -0.1,0 -0.2,0 -0.3,0 0,0.2 0,0.5 0,0.7 -0.1,0 -0.2,0 -0.3,0 -0.1,0.5 -0.2,1 -0.3,1.4 -0.1,0 -0.2,0 -0.3,0 -0.1,0.5 -0.2,1 -0.3,1.4 -0.1,0 -0.2,0 -0.3,0 0,0.2 0,0.5 0,0.7 -0.1,0 -0.2,0 -0.3,0 0,0.2 0,0.5 0,0.7 -0.1,0 -0.2,0 -0.3,0 0,0.2 0,0.5 0,0.7 -0.1,0 -0.2,0 -0.3,0 0,0.2 0,0.5 0,0.7 -0.1,0 -0.2,0 -0.3,0 0,0.2 0,0.5 0,0.7 -0.1,0 -0.2,0 -0.3,0 0,0.2 0,0.5 0,0.7 -0.1,0 -0.2,0 -0.3,0 0,0.2 0,0.5 0,0.7 -0.1,0 -0.2,0 -0.3,0 0,0.2 0,0.5 0,0.7 -0.2,0.1 -0.4,0.2 -0.6,0.4 0,0.2 0,0.5 0,0.7 -0.1,0 -0.2,0 -0.3,0 0,0.2 0,0.5 0,0.7 -0.1,0 -0.2,0 -0.3,0 0,0.2 0,0.5 0,0.7 -0.1,0 -0.2,0 -0.3,0 0,0.2 0,0.5 0,0.7 -0.2,0.1 -0.4,0.2 -0.6,0.4 -0.2,0.7 -0.4,1.4 -0.6,2.1 -0.2,0.1 -0.4,0.2 -0.6,0.4 -0.1,0.5 -0.2,1 -0.3,1.4 -0.2,0.1 -0.4,0.2 -0.6,0.4 -0.1,0.5 -0.2,1 -0.3,1.4 -0.2,0.1 -0.4,0.2 -0.6,0.4 -0.1,0.5 -0.2,1 -0.3,1.4 -0.1,0 -0.2,0 -0.3,0 -0.1,0.4 -0.2,0.7 -0.3,1.1 -0.2,0.1 -0.4,0.2 -0.6,0.4 -0.1,0.5 -0.2,1 -0.3,1.4 -0.2,0.1 -0.4,0.2 -0.6,0.4 0,0.2 0,0.5 0,0.7 -0.2,0.1 -0.4,0.2 -0.6,0.4 0,0.2 0,0.5 0,0.7 -0.2,0.1 -0.4,0.2 -0.6,0.4 -0.1,0.5 -0.2,1 -0.3,1.4 -0.1,0 -0.2,0 -0.3,0 -0.1,0.4 -0.2,0.7 -0.3,1.1 -0.2,0.1 -0.4,0.2 -0.6,0.4 0,0.2 0,0.5 0,0.7 -0.2,0.1 -0.4,0.2 -0.6,0.4 0,0.2 0,0.5 0,0.7 -0.2,0.1 -0.4,0.2 -0.6,0.4 -0.1,0.4 -0.2,0.7 -0.3,1.1 -0.1,0 -0.2,0 -0.3,0 -0.1,0.5 -0.2,1 -0.3,1.4 -0.2,0.1 -0.4,0.2 -0.6,0.4 0,0.2 0,0.5 0,0.7 -0.2,0.1 -0.4,0.2 -0.6,0.4 0,0.2 0,0.5 0,0.7 -0.2,0.1 -0.4,0.2 -0.6,0.4 0,0.2 0,0.5 0,0.7 -0.1,0 -0.2,0 -0.3,0 -0.1,0.4 -0.2,0.7 -0.3,1.1 -0.2,0.1 -0.4,0.2 -0.6,0.4 0,0.2 0,0.5 0,0.7 -0.2,0.1 -0.4,0.2 -0.6,0.4 -0.1,0.4 -0.2,0.7 -0.3,1.1 -0.1,0 -0.2,0 -0.3,0 -0.1,0.5 -0.2,1 -0.3,1.4 -0.2,0.1 -0.4,0.2 -0.6,0.4 0,0.2 0,0.5 0,0.7 -0.2,0.1 -0.4,0.2 -0.6,0.4 0,0.2 0,0.5 0,0.7 -0.2,0.1 -0.4,0.2 -0.6,0.4 0,0.2 0,0.5 0,0.7 -0.2,0.1 -0.4,0.2 -0.6,0.4 -0.1,0.5 -0.2,1 -0.3,1.4 -0.1,0 -0.2,0 -0.3,0 -0.1,0.4 -0.2,0.7 -0.3,1.1 -0.2,0.1 -0.4,0.2 -0.6,0.4 -0.1,0.5 -0.2,1 -0.3,1.4 -0.1,0 -0.2,0 -0.3,0 -0.1,0.4 -0.2,0.7 -0.3,1.1 -0.2,0.1 -0.4,0.2 -0.6,0.4 -0.1,0.5 -0.2,1 -0.3,1.4 -0.2,0.1 -0.4,0.2 -0.6,0.4 -0.1,0.5 -0.2,1 -0.3,1.4 -0.2,0.1 -0.4,0.2 -0.6,0.4 -0.1,0.5 -0.2,1 -0.3,1.4 -0.2,0.1 -0.4,0.2 -0.6,0.4 -0.1,0.5 -0.2,1 -0.3,1.4 -0.2,0.1 -0.4,0.2 -0.6,0.4 0,0.2 0,0.5 0,0.7 -0.1,0 -0.2,0 -0.3,0 0,0.2 0,0.5 0,0.7 -0.1,0 -0.2,0 -0.3,0 0,0.2 0,0.5 0,0.7 -0.1,0 -0.2,0 -0.3,0 0,0.2 0,0.5 0,0.7 -4.4,7.8 -7.9,17 -10.9,26.4 0,0.5 0,1 0,1.4 -0.1,0 -0.2,0 -0.3,0 0,0.4 0,0.7 0,1.1 -0.1,0 -0.2,0 -0.3,0 0,0.5 0,1 0,1.4 -0.1,0 -0.2,0 -0.3,0 0,0.5 0,1 0,1.4 -0.1,0 -0.2,0 -0.3,0 0,0.5 0,1 0,1.4 -0.1,0 -0.2,0 -0.3,0 0,0.5 0,1 0,1.4 -0.1,0 -0.2,0 -0.3,0 0,0.6 0,1.2 0,1.8 -0.1,0 -0.2,0 -0.3,0 0,0.6 0,1.2 0,1.8 -0.1,0 -0.2,0 -0.3,0 0,0.7 0,1.4 0,2.1 -0.1,0 -0.2,0 -0.3,0 0,0.8 0,1.7 0,2.5 -0.1,0 -0.2,0 -0.3,0 -1.7,3.3 -1.9,6.4 -2.1,9.5 z"
           class="st0" /><path
           style="fill:#f5f5f5;fill-opacity:1"
           inkscape:connector-curvature="0"
           id="path6827"
           d="m 451.1,250.4 c -1.7,0.2 -3.4,0.9 -4.8,1.4 -0.5,0 -1.1,0 -1.6,0 0,0.1 0,0.2 0,0.4 -0.6,0 -1.3,0 -1.9,0 0,0.1 0,0.2 0,0.4 -0.8,0 -1.5,0 -2.3,0 0,0.1 0,0.2 0,0.4 -1.6,0 -3.2,0 -4.8,0 -5,0 -8.7,-0.4 -12.2,-1.8 -0.4,0 -0.9,0 -1.3,0 0,-0.1 0,-0.2 0,-0.4 -0.3,0 -0.6,0 -1,0 0,-0.1 0,-0.2 0,-0.4 -0.3,0 -0.6,0 -1,0 0,-0.1 0,-0.2 0,-0.4 -0.3,0 -0.6,0 -1,0 0,-0.1 0,-0.2 0,-0.4 -0.2,0 -0.4,0 -0.6,0 0,-0.1 0,-0.2 0,-0.4 -0.3,0 -0.6,0 -1,0 0,-0.1 0,-0.2 0,-0.4 -0.6,-0.2 -1.3,-0.5 -1.9,-0.7 0,-0.1 0,-0.2 0,-0.4 -0.2,0 -0.4,0 -0.6,0 0,-0.1 0,-0.2 0,-0.4 -0.2,0 -0.4,0 -0.6,0 0,-0.1 0,-0.2 0,-0.4 -0.2,0 -0.4,0 -0.6,0 0,-0.1 0,-0.2 0,-0.4 -0.2,0 -0.4,0 -0.6,0 0,-0.1 0,-0.2 0,-0.4 -0.2,0 -0.4,0 -0.6,0 0,-0.1 0,-0.2 0,-0.4 -0.2,0 -0.4,0 -0.6,0 -0.1,-0.2 -0.2,-0.5 -0.3,-0.7 -0.4,-0.1 -0.9,-0.2 -1.3,-0.4 -0.1,-0.2 -0.2,-0.5 -0.3,-0.7 -0.2,0 -0.4,0 -0.6,0 -0.1,-0.2 -0.2,-0.5 -0.3,-0.7 -0.2,0 -0.4,0 -0.6,0 -0.2,-0.4 -0.4,-0.7 -0.6,-1.1 -0.2,0 -0.4,0 -0.6,0 -0.2,-0.4 -0.4,-0.7 -0.6,-1.1 -0.2,0 -0.4,0 -0.6,0 -0.2,-0.4 -0.4,-0.7 -0.6,-1.1 -0.2,0 -0.4,0 -0.6,0 -0.4,-0.6 -0.9,-1.2 -1.3,-1.8 -0.2,0 -0.4,0 -0.6,0 -1,-1.2 -1.9,-2.4 -2.9,-3.6 -1.4,-1.4 -2.8,-2.9 -4.2,-4.3 0,-0.2 0,-0.5 0,-0.7 -0.6,-0.6 -1.3,-1.2 -1.9,-1.8 0,-0.2 0,-0.5 0,-0.7 -0.4,-0.4 -0.9,-0.7 -1.3,-1.1 0,-0.2 0,-0.5 0,-0.7 -0.4,-0.4 -0.9,-0.7 -1.3,-1.1 0,-0.2 0,-0.5 0,-0.7 -0.3,-0.2 -0.6,-0.5 -1,-0.7 0,-0.2 0,-0.5 0,-0.7 -0.1,0 -0.2,0 -0.3,0 -0.2,-0.4 -0.4,-0.7 -0.6,-1.1 1.8,-0.2 3.4,-0.9 4.8,-1.4 0.6,0 1.3,0 1.9,0 0,-0.1 0,-0.2 0,-0.4 0.6,0 1.3,0 1.9,0 0,-0.1 0,-0.2 0,-0.4 1,0 1.9,0 2.9,0 0,-0.1 0,-0.2 0,-0.4 1.3,0 2.6,0 3.9,0 3.5,0 6.7,0.2 9.3,1.1 0.5,0 1.1,0 1.6,0 0,0.1 0,0.2 0,0.4 0.9,0.1 1.7,0.2 2.6,0.4 0,0.1 0,0.2 0,0.4 0.3,0 0.6,0 1,0 0,0.1 0,0.2 0,0.4 0.3,0 0.6,0 1,0 0,0.1 0,0.2 0,0.4 0.3,0 0.6,0 1,0 0,0.1 0,0.2 0,0.4 0.3,0 0.6,0 1,0 0,0.1 0,0.2 0,0.4 0.2,0 0.4,0 0.6,0 0,0.1 0,0.2 0,0.4 0.3,0 0.6,0 1,0 0,0.1 0,0.2 0,0.4 0.6,0.2 1.3,0.5 1.9,0.7 0,0.1 0,0.2 0,0.4 0.2,0 0.4,0 0.6,0 0,0.1 0,0.2 0,0.4 0.2,0 0.4,0 0.6,0 0,0.1 0,0.2 0,0.4 0.6,0.2 1.3,0.5 1.9,0.7 0.1,0.2 0.2,0.5 0.3,0.7 0.4,0.1 0.9,0.2 1.3,0.4 0.1,0.2 0.2,0.5 0.3,0.7 0.2,0 0.4,0 0.6,0 0.1,0.2 0.2,0.5 0.3,0.7 0.2,0 0.4,0 0.6,0 0.1,0.2 0.2,0.5 0.3,0.7 0.2,0 0.4,0 0.6,0 0.1,0.2 0.2,0.5 0.3,0.7 0.2,0 0.4,0 0.6,0 0.2,0.4 0.4,0.7 0.6,1.1 0.2,0 0.4,0 0.6,0 0.2,0.4 0.4,0.7 0.6,1.1 0.3,0.1 0.6,0.2 1,0.4 0.6,0.8 1.3,1.7 1.9,2.5 0.2,0 0.4,0 0.6,0 1,1.2 1.9,2.4 2.9,3.6 0.5,0.5 1.1,1 1.6,1.4 0,0.2 0,0.5 0,0.7 0.8,0.7 1.5,1.4 2.3,2.1 0,0.2 0,0.5 0,0.7 0.5,0.5 1.1,1 1.6,1.4 0,0.2 0,0.5 0,0.7 0.4,0.4 0.9,0.7 1.3,1.1 0,0.2 0,0.5 0,0.7 0.3,0.2 0.6,0.5 1,0.7 0.2,1 0.5,1.8 0.7,2.7 z"
           class="st0" /><path
           style="fill:#f5f5f5;fill-opacity:1"
           inkscape:connector-curvature="0"
           id="path6829"
           d="m 398.9,605.2 c 0.2,0.9 0.3,0.8 0.6,1.4 -1.1,0.4 -2.1,0.7 -3.2,1.1 0,0.1 0,0.2 0,0.4 -0.2,0 -0.4,0 -0.6,0 0,0.1 0,0.2 0,0.4 -1,0.2 -1.9,0.5 -2.9,0.7 0,0.1 0,0.2 0,0.4 -3.2,0.7 -6.4,1.4 -9.7,2.1 -1.5,0 -3,0 -4.5,0 0,0.1 0,0.2 0,0.4 -1.8,0 -3.6,0 -5.5,0 0,-0.1 0,-0.2 0,-0.4 -1.6,0 -3.2,0 -4.8,0 0,-0.1 0,-0.2 0,-0.4 -2.6,-0.2 -5.2,-0.5 -7.7,-0.7 0,-0.1 0,-0.2 0,-0.4 -1.3,-0.1 -2.6,-0.2 -3.9,-0.4 -4.3,-1.4 -9.6,-1.7 -13.8,-3.2 -3.1,-0.6 -6.2,-1.2 -9.3,-1.8 -6.8,-2.4 -14.2,-4 -20.6,-6.8 -0.3,0 -0.6,0 -1,0 0,-0.1 0,-0.2 0,-0.4 -0.3,0 -0.6,0 -1,0 0,-0.1 0,-0.2 0,-0.4 -0.3,0 -0.6,0 -1,0 0,-0.1 0,-0.2 0,-0.4 -0.3,0 -0.6,0 -1,0 0,-0.1 0,-0.2 0,-0.4 -0.3,0 -0.6,0 -1,0 0,-0.1 0,-0.2 0,-0.4 -0.2,0 -0.4,0 -0.6,0 0,-0.1 0,-0.2 0,-0.4 -0.6,-0.1 -1.3,-0.2 -1.9,-0.4 0,-0.1 0,-0.2 0,-0.4 -0.2,0 -0.4,0 -0.6,0 0,-0.1 0,-0.2 0,-0.4 -0.6,-0.1 -1.3,-0.2 -1.9,-0.4 0,-0.1 0,-0.2 0,-0.4 -0.2,0 -0.4,0 -0.6,0 0,-0.1 0,-0.2 0,-0.4 -0.3,0 -0.6,0 -1,0 0,-0.1 0,-0.2 0,-0.4 -0.2,0 -0.4,0 -0.6,0 0,-0.1 0,-0.2 0,-0.4 -0.5,-0.1 -1.1,-0.2 -1.6,-0.4 0,-0.1 0,-0.2 0,-0.4 -0.3,0 -0.6,0 -1,0 0,-0.1 0,-0.2 0,-0.4 -0.2,0 -0.4,0 -0.6,0 0,-0.1 0,-0.2 0,-0.4 -0.3,0 -0.6,0 -1,0 0,-0.1 0,-0.2 0,-0.4 -0.2,0 -0.4,0 -0.6,0 0,-0.1 0,-0.2 0,-0.4 -0.2,0 -0.4,0 -0.6,0 0,-0.1 0,-0.2 0,-0.4 -0.2,0 -0.4,0 -0.6,0 0,-0.1 0,-0.2 0,-0.4 -0.3,0 -0.6,0 -1,0 0,-0.1 0,-0.2 0,-0.4 -0.2,0 -0.4,0 -0.6,0 0,-0.1 0,-0.2 0,-0.4 -0.4,-0.1 -0.9,-0.2 -1.3,-0.4 0,-0.1 0,-0.2 0,-0.4 -0.3,0 -0.6,0 -1,0 0,-0.1 0,-0.2 0,-0.4 -0.2,0 -0.4,0 -0.6,0 0,-0.1 0,-0.2 0,-0.4 -0.4,-0.1 -0.9,-0.2 -1.3,-0.4 0,-0.1 0,-0.2 0,-0.4 -0.4,-0.1 -0.9,-0.2 -1.3,-0.4 0,-0.1 0,-0.2 0,-0.4 -0.2,0 -0.4,0 -0.6,0 0,-0.1 0,-0.2 0,-0.4 -0.2,0 -0.4,0 -0.6,0 0,-0.1 0,-0.2 0,-0.4 -0.2,0 -0.4,0 -0.6,0 0,-0.1 0,-0.2 0,-0.4 -0.2,0 -0.4,0 -0.6,0 0,-0.1 0,-0.2 0,-0.4 -0.2,0 -0.4,0 -0.6,0 0,-0.1 0,-0.2 0,-0.4 -0.2,0 -0.4,0 -0.6,0 0,-0.1 0,-0.2 0,-0.4 -0.2,0 -0.4,0 -0.6,0 0,-0.1 0,-0.2 0,-0.4 -0.2,0 -0.4,0 -0.6,0 0,-0.1 0,-0.2 0,-0.4 -0.2,0 -0.4,0 -0.6,0 0,-0.1 0,-0.2 0,-0.4 -0.2,0 -0.4,0 -0.6,0 0,-0.1 0,-0.2 0,-0.4 -0.2,0 -0.4,0 -0.6,0 0,-0.1 0,-0.2 0,-0.4 -0.2,0 -0.4,0 -0.6,0 -0.1,-0.2 -0.2,-0.5 -0.3,-0.7 -0.2,0 -0.4,0 -0.6,0 0,-0.1 0,-0.2 0,-0.4 -0.2,0 -0.4,0 -0.6,0 0,-0.1 0,-0.2 0,-0.4 -0.2,0 -0.4,0 -0.6,0 0,-0.1 0,-0.2 0,-0.4 -0.2,0 -0.4,0 -0.6,0 -0.1,-0.2 -0.2,-0.5 -0.3,-0.7 -0.6,-0.2 -1.3,-0.5 -1.9,-0.7 -0.1,-0.2 -0.2,-0.5 -0.3,-0.7 -0.4,-0.1 -0.9,-0.2 -1.3,-0.4 -0.1,-0.2 -0.2,-0.5 -0.3,-0.7 -0.4,-0.1 -0.9,-0.2 -1.3,-0.4 -0.1,-0.2 -0.2,-0.5 -0.3,-0.7 -0.4,-0.1 -0.9,-0.2 -1.3,-0.4 -0.1,-0.2 -0.2,-0.5 -0.3,-0.7 -0.2,0 -0.4,0 -0.6,0 -0.1,-0.2 -0.2,-0.5 -0.3,-0.7 -0.2,0 -0.4,0 -0.6,0 -0.1,-0.2 -0.2,-0.5 -0.3,-0.7 -0.4,-0.1 -0.9,-0.2 -1.3,-0.4 0,-0.1 0,-0.2 0,-0.4 -0.3,-0.1 -0.6,-0.2 -1,-0.4 -0.1,-0.2 -0.2,-0.5 -0.3,-0.7 -0.2,0 -0.4,0 -0.6,0 -0.1,-0.2 -0.2,-0.5 -0.3,-0.7 -0.2,0 -0.4,0 -0.6,0 -0.2,-0.4 -0.4,-0.7 -0.6,-1.1 -0.2,0 -0.4,0 -0.6,0 -0.1,-0.2 -0.2,-0.5 -0.3,-0.7 -0.2,0 -0.4,0 -0.6,0 -0.2,-0.4 -0.4,-0.7 -0.6,-1.1 -0.2,0 -0.4,0 -0.6,0 -0.3,-0.5 -0.6,-1 -1,-1.4 -0.2,0 -0.4,0 -0.6,0 -0.3,-0.5 -0.6,-1 -1,-1.4 -0.2,0 -0.4,0 -0.6,0 -0.4,-0.6 -0.9,-1.2 -1.3,-1.8 -0.2,0 -0.4,0 -0.6,0 -0.8,-1 -1.5,-1.9 -2.3,-2.9 -0.2,0 -0.4,0 -0.6,0 -0.9,-1.1 -1.7,-2.1 -2.6,-3.2 -0.4,-0.4 -0.9,-0.7 -1.3,-1.1 0,-0.2 0,-0.5 0,-0.7 -0.9,-0.8 -1.7,-1.7 -2.6,-2.5 0,-0.2 0,-0.5 0,-0.7 -0.2,-0.1 -0.4,-0.2 -0.6,-0.4 0,-0.1 0,-0.2 0,-0.4 -0.3,-0.2 -0.6,-0.5 -1,-0.7 0,-0.2 0,-0.5 0,-0.7 -0.3,-0.2 -0.6,-0.5 -1,-0.7 -0.1,-0.4 -0.2,-0.7 -0.3,-1.1 -0.2,-0.1 -0.4,-0.2 -0.6,-0.4 0,-0.2 0,-0.5 0,-0.7 -0.2,-0.1 -0.4,-0.2 -0.6,-0.4 -0.1,-0.4 -0.2,-0.7 -0.3,-1.1 -0.1,0 -0.2,0 -0.3,0 0,-0.2 0,-0.5 0,-0.7 -0.2,-0.1 -0.4,-0.2 -0.6,-0.4 0,-0.2 0,-0.5 0,-0.7 -0.2,-0.1 -0.4,-0.2 -0.6,-0.4 -0.1,-0.5 -0.2,-1 -0.3,-1.4 -0.2,-0.1 -0.4,-0.2 -0.6,-0.4 -0.2,-0.7 -0.4,-1.4 -0.6,-2.1 -0.2,-0.1 -0.4,-0.2 -0.6,-0.4 -0.3,-1.1 -0.6,-2.1 -1,-3.2 -0.1,0 -0.2,0 -0.3,0 0,-0.2 0,-0.5 0,-0.7 -0.1,0 -0.2,0 -0.3,0 -0.1,-0.5 -0.2,-1 -0.3,-1.4 -0.1,0 -0.2,0 -0.3,0 -0.1,-0.7 -0.2,-1.4 -0.3,-2.1 -0.1,0 -0.2,0 -0.3,0 0,-0.2 0,-0.5 0,-0.7 -0.1,0 -0.2,0 -0.3,0 0,-0.4 0,-0.7 0,-1.1 -0.1,0 -0.2,0 -0.3,0 0,-0.4 0,-0.7 0,-1.1 -0.1,0 -0.2,0 -0.3,0 0,-0.5 0,-1 0,-1.4 -0.1,0 -0.2,0 -0.3,0 0,-0.5 0,-1 0,-1.4 -0.1,0 -0.2,0 -0.3,0 0,-0.5 0,-1 0,-1.4 -0.1,0 -0.2,0 -0.3,0 0,-0.6 0,-1.2 0,-1.8 -1.4,-5.2 -1.4,-14.8 0,-20 0,-0.6 0,-1.2 0,-1.8 0.1,0 0.2,0 0.3,0 0.1,-1 0.2,-1.9 0.3,-2.9 0.1,0 0.2,0 0.3,0 0,-0.5 0,-1 0,-1.4 0.1,0 0.2,0 0.3,0 0,-0.4 0,-0.7 0,-1.1 0.1,0 0.2,0 0.3,0 0,-0.4 0,-0.7 0,-1.1 0.1,0 0.2,0 0.3,0 0,-0.4 0,-0.7 0,-1.1 0.1,0 0.2,0 0.3,0 0,-0.4 0,-0.7 0,-1.1 0.1,0 0.2,0 0.3,0 0.1,-0.6 0.2,-1.2 0.3,-1.8 0.1,0 0.2,0 0.3,0 0,-0.2 0,-0.5 0,-0.7 0.1,0 0.2,0 0.3,0 0,-0.4 0,-0.7 0,-1.1 0.1,0 0.2,0 0.3,0 0.2,-0.7 0.4,-1.4 0.6,-2.1 0.1,0 0.2,0 0.3,0 0,-0.2 0,-0.5 0,-0.7 0.1,0 0.2,0 0.3,0 0,-0.2 0,-0.5 0,-0.7 0.1,0 0.2,0 0.3,0 0.2,-0.7 0.4,-1.4 0.6,-2.1 0.2,-0.1 0.4,-0.2 0.6,-0.4 0.2,-0.7 0.4,-1.4 0.6,-2.1 0.1,0 0.2,0 0.3,0 0.1,-0.4 0.2,-0.7 0.3,-1.1 0.2,-0.1 0.4,-0.2 0.6,-0.4 0.1,-0.5 0.2,-1 0.3,-1.4 0.2,-0.1 0.4,-0.2 0.6,-0.4 0,-0.2 0,-0.5 0,-0.7 0.3,-0.2 0.6,-0.5 1,-0.7 0,-0.2 0,-0.5 0,-0.7 0.2,-0.1 0.4,-0.2 0.6,-0.4 0,-0.2 0,-0.5 0,-0.7 0.3,-0.2 0.6,-0.5 1,-0.7 0,-0.2 0,-0.5 0,-0.7 0.3,-0.2 0.6,-0.5 1,-0.7 0,-0.2 0,-0.5 0,-0.7 0.4,-0.4 0.9,-0.7 1.3,-1.1 0,-0.2 0,-0.5 0,-0.7 0.5,-0.5 1.1,-1 1.6,-1.4 0,-0.2 0,-0.5 0,-0.7 0.6,-0.6 1.3,-1.2 1.9,-1.8 0,-0.1 0,-0.2 0,-0.4 0.2,-0.1 0.4,-0.2 0.6,-0.4 0,-0.2 0,-0.5 0,-0.7 1,-1 1.9,-1.9 2.9,-2.9 0.5,-0.7 1.1,-1.4 1.6,-2.1 0.2,0 0.4,0 0.6,0 0.6,-0.8 1.3,-1.7 1.9,-2.5 0.2,0 0.4,0 0.6,0 0.6,-0.8 1.3,-1.7 1.9,-2.5 0.2,0 0.4,0 0.6,0 0.5,-0.7 1.1,-1.4 1.6,-2.1 0.2,0 0.4,0 0.6,0 0.5,-0.7 1.1,-1.4 1.6,-2.1 0.2,0 0.4,0 0.6,0 0.4,-0.6 0.9,-1.2 1.3,-1.8 0.2,0 0.4,0 0.6,0 0.4,-0.6 0.9,-1.2 1.3,-1.8 0.2,0 0.4,0 0.6,0 0.3,-0.5 0.6,-1 1,-1.4 0.2,0 0.4,0 0.6,0 0.1,-0.2 0.2,-0.5 0.3,-0.7 0.1,0 0.2,0 0.3,0 0.1,-0.2 0.2,-0.5 0.3,-0.7 0.2,0 0.4,0 0.6,0 0.4,-0.6 0.9,-1.2 1.3,-1.8 0.2,0 0.4,0 0.6,0 0.3,-0.5 0.6,-1 1,-1.4 0.2,0 0.4,0 0.6,0 0.2,-0.4 0.4,-0.7 0.6,-1.1 0.2,0 0.4,0 0.6,0 0.3,-0.5 0.6,-1 1,-1.4 0.2,0 0.4,0 0.6,0 0.3,-0.5 0.6,-1 1,-1.4 0.2,0 0.4,0 0.6,0 0.3,-0.5 0.6,-1 1,-1.4 0.3,-0.1 0.6,-0.2 1,-0.4 0.1,-0.2 0.2,-0.5 0.3,-0.7 0.2,0 0.4,0 0.6,0 0.3,-0.5 0.6,-1 1,-1.4 0.2,0 0.4,0 0.6,0 0.2,-0.4 0.4,-0.7 0.6,-1.1 0.2,0 0.4,0 0.6,0 0.3,-0.5 0.6,-1 1,-1.4 0.2,0 0.4,0 0.6,0 0.2,-0.4 0.4,-0.7 0.6,-1.1 0.3,-0.1 0.6,-0.2 1,-0.4 0,-0.2 0,-0.5 0,-0.7 -10.6,-0.2 -19.9,1 -27.4,4.3 -1,0.2 -1.9,0.5 -2.9,0.7 0,0.1 0,0.2 0,0.4 -0.3,0 -0.6,0 -1,0 0,0.1 0,0.2 0,0.4 -0.3,0 -0.6,0 -1,0 0,0.1 0,0.2 0,0.4 -0.3,0 -0.6,0 -1,0 0,0.1 0,0.2 0,0.4 -0.2,0 -0.4,0 -0.6,0 0,0.1 0,0.2 0,0.4 -0.6,0.1 -1.3,0.2 -1.9,0.4 0,0.1 0,0.2 0,0.4 -0.2,0 -0.4,0 -0.6,0 0,0.1 0,0.2 0,0.4 -0.3,0 -0.6,0 -1,0 0,0.1 0,0.2 0,0.4 -0.2,0 -0.4,0 -0.6,0 0,0.1 0,0.2 0,0.4 -0.3,0 -0.6,0 -1,0 0,0.1 0,0.2 0,0.4 -1.3,0.5 -2.6,1 -3.9,1.4 0,-0.1 0,-0.2 0,-0.4 0.1,0 0.2,0 0.3,0 1.4,-1.7 2.8,-3.3 4.2,-5 0.2,0 0.4,0 0.6,0 0.6,-0.8 1.3,-1.7 1.9,-2.5 0.2,0 0.4,0 0.6,0 0.4,-0.6 0.9,-1.2 1.3,-1.8 0.2,0 0.4,0 0.6,0 0.3,-0.5 0.6,-1 1,-1.4 0.2,0 0.4,0 0.6,0 0.3,-0.5 0.6,-1 1,-1.4 0.2,0 0.4,0 0.6,0 0.2,-0.4 0.4,-0.7 0.6,-1.1 0.2,0 0.4,0 0.6,0 0.2,-0.4 0.4,-0.7 0.6,-1.1 0.2,0 0.4,0 0.6,0 0.2,-0.4 0.4,-0.7 0.6,-1.1 0.2,0 0.4,0 0.6,0 0.1,-0.2 0.2,-0.5 0.3,-0.7 0.2,0 0.4,0 0.6,0 0.2,-0.4 0.4,-0.7 0.6,-1.1 0.2,0 0.4,0 0.6,0 0.1,-0.2 0.2,-0.5 0.3,-0.7 0.3,-0.1 0.6,-0.2 1,-0.4 0,-0.1 0,-0.2 0,-0.4 0.2,0 0.4,0 0.6,0 0.1,-0.2 0.2,-0.5 0.3,-0.7 0.2,0 0.4,0 0.6,0 0.1,-0.2 0.2,-0.5 0.3,-0.7 0.2,0 0.4,0 0.6,0 0.1,-0.2 0.2,-0.5 0.3,-0.7 0.2,0 0.4,0 0.6,0 0.1,-0.2 0.2,-0.5 0.3,-0.7 0.4,-0.1 0.9,-0.2 1.3,-0.4 0,-0.1 0,-0.2 0,-0.4 0.3,-0.1 0.6,-0.2 1,-0.4 0.1,-0.2 0.2,-0.5 0.3,-0.7 0.4,-0.1 0.9,-0.2 1.3,-0.4 0.1,-0.2 0.2,-0.5 0.3,-0.7 0.4,-0.1 0.9,-0.2 1.3,-0.4 0.1,-0.2 0.2,-0.5 0.3,-0.7 0.4,-0.1 0.9,-0.2 1.3,-0.4 0.1,-0.2 0.2,-0.5 0.3,-0.7 0.6,-0.2 1.3,-0.5 1.9,-0.7 8.9,-6.2 19.3,-10.8 29.9,-15 0.4,0 0.9,0 1.3,0 0,-0.1 0,-0.2 0,-0.4 0.3,0 0.6,0 1,0 0,-0.1 0,-0.2 0,-0.4 0.3,0 0.6,0 1,0 0,-0.1 0,-0.2 0,-0.4 0.8,-0.1 1.5,-0.2 2.3,-0.4 0,-0.1 0,-0.2 0,-0.4 1.2,-0.2 2.4,-0.5 3.5,-0.7 0,-0.1 0,-0.2 0,-0.4 0.9,-0.1 1.7,-0.2 2.6,-0.4 0,-0.1 0,-0.2 0,-0.4 0.5,0 1.1,0 1.6,0 0,-0.1 0,-0.2 0,-0.4 0.4,0 0.9,0 1.3,0 0,-0.1 0,-0.2 0,-0.4 0.4,0 0.9,0 1.3,0 0,-0.1 0,-0.2 0,-0.4 0.5,0 1.1,0 1.6,0 0,-0.1 0,-0.2 0,-0.4 0.5,0 1.1,0 1.6,0 0,-0.1 0,-0.2 0,-0.4 0.5,0 1.1,0 1.6,0 0,-0.1 0,-0.2 0,-0.4 0.6,0 1.3,0 1.9,0 3,-1 7.2,-1.1 10.3,-2.1 0.9,0 1.7,0 2.6,0 0,-0.1 0,-0.2 0,-0.4 1,0 1.9,0 2.9,0 0,-0.1 0,-0.2 0,-0.4 1.2,0 2.4,0 3.5,0 0,-0.1 0,-0.2 0,-0.4 3,-0.1 6,-0.2 9,-0.4 0,-0.1 0,-0.2 0,-0.4 2.8,0 5.6,0 8.4,0 2.8,-0.9 7.3,-0.4 10.6,-0.4 2,0 4.6,-0.1 6.1,0.4 1.6,0 3.2,0 4.8,0 3.8,0.1 7.5,0.2 11.3,0.4 0,0.1 0,0.2 0,0.4 1.8,0 3.6,0 5.5,0 0,0.1 0,0.2 0,0.4 1.6,0 3.2,0 4.8,0 0,0.1 0,0.2 0,0.4 0.4,0 0.9,0 1.3,0 1.1,0 2.1,0 3.2,0 0,0.1 0,0.2 0,0.4 1.7,0 3.4,0 5.2,0 0,0.1 0,0.2 0,0.4 2,0.6 5,-0.2 6.8,0.4 2.8,0 5.6,0 8.4,0 0,0.1 0,0.2 0,0.4 7.1,0.1 14.2,0.2 21.2,0.4 0.9,0 1.7,0 2.6,0 0,0.1 0,0.2 0,0.4 3.5,0 7.1,0 10.6,0 0,0.1 0,0.2 0,0.4 2.8,0 5.6,0 8.4,0 0,0.1 0,0.2 0,0.4 1.2,0 2.4,0 3.5,0 2.6,0.1 5.2,0.2 7.7,0.4 0,0.1 0,0.2 0,0.4 1.5,0 3,0 4.5,0 0,0.1 0,0.2 0,0.4 1.3,0 2.6,0 3.9,0 0,0.1 0,0.2 0,0.4 1.2,0 2.4,0 3.5,0 0,0.1 0,0.2 0,0.4 1.1,0 2.1,0 3.2,0 0,0.1 0,0.2 0,0.4 2,0 4.1,0 6.1,0 6,0 11.2,-0.5 15.8,-2.1 0.9,-0.1 1.7,-0.2 2.6,-0.4 0,-0.1 0,-0.2 0,-0.4 0.8,-0.1 1.5,-0.2 2.3,-0.4 0,-0.1 0,-0.2 0,-0.4 0.3,0 0.6,0 1,0 0,-0.1 0,-0.2 0,-0.4 0.3,0 0.6,0 1,0 0,-0.1 0,-0.2 0,-0.4 0.3,0 0.6,0 1,0 0,-0.1 0,-0.2 0,-0.4 0.6,-0.1 1.3,-0.2 1.9,-0.4 0,-0.1 0,-0.2 0,-0.4 0.2,0 0.4,0 0.6,0 0,-0.1 0,-0.2 0,-0.4 0.6,-0.1 1.3,-0.2 1.9,-0.4 0,-0.1 0,-0.2 0,-0.4 0.4,-0.1 0.9,-0.2 1.3,-0.4 0,-0.1 0,-0.2 0,-0.4 0.3,0 0.6,0 1,0 0,-0.1 0,-0.2 0,-0.4 0.2,0 0.4,0 0.6,0 0,-0.1 0,-0.2 0,-0.4 0.4,-0.1 0.9,-0.2 1.3,-0.4 0,-0.1 0,-0.2 0,-0.4 0.3,0 0.6,0 1,0 0,-0.1 0,-0.2 0,-0.4 0.6,-0.2 1.3,-0.5 1.9,-0.7 0,-0.1 0,-0.2 0,-0.4 0.4,-0.1 0.9,-0.2 1.3,-0.4 0.1,-0.2 0.2,-0.5 0.3,-0.7 0.2,0 0.4,0 0.6,0 0,-0.1 0,-0.2 0,-0.4 0.2,0 0.4,0 0.6,0 0,-0.1 0,-0.2 0,-0.4 0.2,0 0.4,0 0.6,0 0,-0.1 0,-0.2 0,-0.4 0.2,0 0.4,0 0.6,0 0,-0.1 0,-0.2 0,-0.4 0.2,0 0.4,0 0.6,0 0.1,-0.2 0.2,-0.5 0.3,-0.7 0.2,0 0.4,0 0.6,0 0,-0.1 0,-0.2 0,-0.4 0.2,0 0.4,0 0.6,0 0.1,-0.2 0.2,-0.5 0.3,-0.7 0.4,-0.1 0.9,-0.2 1.3,-0.4 0.1,-0.2 0.2,-0.5 0.3,-0.7 0.4,-0.1 0.9,-0.2 1.3,-0.4 0.1,-0.2 0.2,-0.5 0.3,-0.7 0.2,0 0.4,0 0.6,0 0.1,-0.2 0.2,-0.5 0.3,-0.7 0.2,0 0.4,0 0.6,0 0.1,-0.2 0.2,-0.5 0.3,-0.7 0.2,0 0.4,0 0.6,0 0.1,-0.2 0.2,-0.5 0.3,-0.7 0.2,0 0.4,0 0.6,0 0.2,-0.4 0.4,-0.7 0.6,-1.1 0.2,0 0.4,0 0.6,0 0.1,-0.2 0.2,-0.5 0.3,-0.7 0.2,0 0.4,0 0.6,0 0.2,-0.4 0.4,-0.7 0.6,-1.1 0.2,0 0.4,0 0.6,0 0.2,-0.4 0.4,-0.7 0.6,-1.1 0.2,0 0.4,0 0.6,0 0.3,-0.5 0.6,-1 1,-1.4 0.2,0 0.4,0 0.6,0 0.8,-1 1.5,-1.9 2.3,-2.9 0.2,0 0.4,0 0.6,0 0.5,-0.7 1.1,-1.4 1.6,-2.1 0.2,-0.1 0.4,-0.2 0.6,-0.4 0,-0.2 0,-0.5 0,-0.7 0.8,-0.7 1.5,-1.4 2.3,-2.1 0,-0.2 0,-0.5 0,-0.7 0.4,-0.4 0.9,-0.7 1.3,-1.1 0,-0.2 0,-0.5 0,-0.7 0.3,-0.2 0.6,-0.5 1,-0.7 0,-0.2 0,-0.5 0,-0.7 0.2,-0.1 0.4,-0.2 0.6,-0.4 0.1,-0.4 0.2,-0.7 0.3,-1.1 0.1,0 0.2,0 0.3,0 0.1,-0.5 0.2,-1 0.3,-1.4 0.2,-0.1 0.4,-0.2 0.6,-0.4 0.1,-0.5 0.2,-1 0.3,-1.4 0.1,0 0.2,0 0.3,0 0,-0.2 0,-0.5 0,-0.7 0.1,0 0.2,0 0.3,0 0.2,-0.7 0.4,-1.4 0.6,-2.1 0.1,0 0.2,0 0.3,0 0,-0.4 0,-0.7 0,-1.1 0.1,0 0.2,0 0.3,0 0,-0.2 0,-0.5 0,-0.7 0.1,0 0.2,0 0.3,0 0,-0.4 0,-0.7 0,-1.1 0.1,0 0.2,0 0.3,0 0,-0.4 0,-0.7 0,-1.1 0.1,0 0.2,0 0.3,0 0,-0.5 0,-1 0,-1.4 0.1,0 0.2,0 0.3,0 0,-0.5 0,-1 0,-1.4 0.1,0 0.2,0 0.3,0 0,-0.6 0,-1.2 0,-1.8 0.3,-1.3 1.1,-6.2 0.6,-8.2 -0.1,0 -0.2,0 -0.3,0 -0.1,-1.5 -0.2,-3.1 -0.3,-4.6 -0.1,0 -0.2,0 -0.3,0 0,-0.5 0,-1 0,-1.4 -0.1,0 -0.2,0 -0.3,0 0,-0.4 0,-0.7 0,-1.1 -0.1,0 -0.2,0 -0.3,0 0,-0.4 0,-0.7 0,-1.1 -0.1,0 -0.2,0 -0.3,0 0,-0.4 0,-0.7 0,-1.1 -0.1,0 -0.2,0 -0.3,0 -0.1,-0.5 -0.2,-1 -0.3,-1.4 -0.1,0 -0.2,0 -0.3,0 -0.3,-1.1 -0.6,-2.1 -1,-3.2 -0.2,-0.1 -0.4,-0.2 -0.6,-0.4 -0.2,-0.7 -0.4,-1.4 -0.6,-2.1 -0.2,-0.1 -0.4,-0.2 -0.6,-0.4 0,-0.2 0,-0.5 0,-0.7 -0.3,-0.2 -0.6,-0.5 -1,-0.7 0,-0.2 0,-0.5 0,-0.7 -0.2,-0.1 -0.4,-0.2 -0.6,-0.4 0,-0.2 0,-0.5 0,-0.7 -0.5,-0.5 -1.1,-1 -1.6,-1.4 0,-0.2 0,-0.5 0,-0.7 -1.1,-1.1 -2.1,-2.1 -3.2,-3.2 -1,-1.2 -1.9,-2.4 -2.9,-3.6 -0.2,0 -0.4,0 -0.6,0 -0.4,-0.6 -0.9,-1.2 -1.3,-1.8 -0.3,-0.1 -0.6,-0.2 -1,-0.4 0,-0.2 0,-0.5 0,-0.7 1.9,-1.2 3.9,-2.4 5.8,-3.6 0.6,-0.1 1.3,-0.2 1.9,-0.4 0,-0.1 0,-0.2 0,-0.4 0.3,0 0.6,0 1,0 0,-0.1 0,-0.2 0,-0.4 1.5,0 3,0 4.5,0 0,0.1 0,0.2 0,0.4 0.3,0 0.6,0 1,0 0,0.1 0,0.2 0,0.4 0.4,0.1 0.9,0.2 1.3,0.4 0.1,0.2 0.2,0.5 0.3,0.7 0.2,0 0.4,0 0.6,0 0.2,0.4 0.4,0.7 0.6,1.1 0.2,0 0.4,0 0.6,0 0,0.1 0,0.2 0,0.4 0.4,0.4 0.9,0.7 1.3,1.1 0,0.2 0,0.5 0,0.7 0.2,0.1 0.4,0.2 0.6,0.4 0.4,0.6 0.9,1.2 1.3,1.8 0.4,0.1 0.9,0.2 1.3,0.4 0,0.1 0,0.2 0,0.4 0.6,0.2 1.3,0.5 1.9,0.7 0,0.1 0,0.2 0,0.4 0.3,0 0.6,0 1,0 0,0.1 0,0.2 0,0.4 0.3,0 0.6,0 1,0 0,0.1 0,0.2 0,0.4 0.4,0 0.9,0 1.3,0 0,0.1 0,0.2 0,0.4 0.4,0 0.9,0 1.3,0 0,0.1 0,0.2 0,0.4 0.9,0.1 1.7,0.2 2.6,0.4 0,0.1 0,0.2 0,0.4 0.2,0 0.4,0 0.6,0 0,0.1 0,0.2 0,0.4 0.6,0.1 1.3,0.2 1.9,0.4 0,0.1 0,0.2 0,0.4 0.2,0 0.4,0 0.6,0 0,0.1 0,0.2 0,0.4 0.3,0 0.6,0 1,0 0,0.1 0,0.2 0,0.4 0.2,0 0.4,0 0.6,0 0,0.1 0,0.2 0,0.4 0.3,0 0.6,0 1,0 0,0.1 0,0.2 0,0.4 0.4,0.1 0.9,0.2 1.3,0.4 0,0.1 0,0.2 0,0.4 1,0.4 1.9,0.7 2.9,1.1 0.1,0.2 0.2,0.5 0.3,0.7 0.4,0.1 0.9,0.2 1.3,0.4 0.2,0.4 0.4,0.7 0.6,1.1 0.2,0 0.4,0 0.6,0 0.1,0.4 0.2,0.7 0.3,1.1 0.2,0.1 0.4,0.2 0.6,0.4 0.4,0.6 0,0.8 0.6,1.4 0.1,5.9 -1.5,8.5 -3.2,12.1 0,0.2 0,0.5 0,0.7 -0.1,0 -0.2,0 -0.3,0 0,0.2 0,0.5 0,0.7 -0.1,0 -0.2,0 -0.3,0 0,0.2 0,0.5 0,0.7 -0.1,0 -0.2,0 -0.3,0 0,0.2 0,0.5 0,0.7 -0.1,0 -0.2,0 -0.3,0 0,0.2 0,0.5 0,0.7 -0.1,0 -0.2,0 -0.3,0 -0.8,1.9 -1.5,3.8 -2.3,5.7 -0.2,0.1 -0.4,0.2 -0.6,0.4 -0.1,0.5 -0.2,1 -0.3,1.4 -0.1,0 -0.2,0 -0.3,0 0,0.2 0,0.5 0,0.7 -0.1,0 -0.2,0 -0.3,0 0,0.2 0,0.5 0,0.7 -0.1,0 -0.2,0 -0.3,0 0,0.2 0,0.5 0,0.7 -0.1,0 -0.2,0 -0.3,0 0,0.2 0,0.5 0,0.7 -0.2,0.1 -0.4,0.2 -0.6,0.4 0,0.2 0,0.5 0,0.7 -0.1,0 -0.2,0 -0.3,0 0,0.2 0,0.5 0,0.7 -0.1,0 -0.2,0 -0.3,0 0,0.2 0,0.5 0,0.7 -0.1,0 -0.2,0 -0.3,0 0,0.2 0,0.5 0,0.7 -0.2,0.1 -0.4,0.2 -0.6,0.4 -0.2,0.7 -0.4,1.4 -0.6,2.1 -0.2,0.1 -0.4,0.2 -0.6,0.4 -0.1,0.5 -0.2,1 -0.3,1.4 -0.2,0.1 -0.4,0.2 -0.6,0.4 -0.1,0.5 -0.2,1 -0.3,1.4 -0.2,0.1 -0.4,0.2 -0.6,0.4 -0.1,0.5 -0.2,1 -0.3,1.4 -0.2,0.1 -0.4,0.2 -0.6,0.4 -0.1,0.5 -0.2,1 -0.3,1.4 -0.2,0.1 -0.4,0.2 -0.6,0.4 -0.1,0.5 -0.2,1 -0.3,1.4 -0.2,0.1 -0.4,0.2 -0.6,0.4 -0.1,0.5 -0.2,1 -0.3,1.4 -0.2,0.1 -0.4,0.2 -0.6,0.4 0,0.2 0,0.5 0,0.7 -0.2,0.1 -0.4,0.2 -0.6,0.4 0,0.2 0,0.5 0,0.7 -0.1,0 -0.2,0 -0.3,0 0,0.2 0,0.5 0,0.7 -0.2,0.1 -0.4,0.2 -0.6,0.4 0,0.2 0,0.5 0,0.7 -0.2,0.1 -0.4,0.2 -0.6,0.4 0,0.2 0,0.5 0,0.7 -0.2,0.1 -0.4,0.2 -0.6,0.4 0,0.2 0,0.5 0,0.7 -0.2,0.1 -0.4,0.2 -0.6,0.4 -0.1,0.5 -0.2,1 -0.3,1.4 -0.2,0.1 -0.4,0.2 -0.6,0.4 0,0.2 0,0.5 0,0.7 -0.2,0.1 -0.4,0.2 -0.6,0.4 0,0.2 0,0.5 0,0.7 -0.2,0.1 -0.4,0.2 -0.6,0.4 0,0.2 0,0.5 0,0.7 -0.2,0.1 -0.4,0.2 -0.6,0.4 0,0.2 0,0.5 0,0.7 -0.2,0.1 -0.4,0.2 -0.6,0.4 0,0.2 0,0.5 0,0.7 -0.2,0.1 -0.4,0.2 -0.6,0.4 0,0.2 0,0.5 0,0.7 -0.2,0.1 -0.4,0.2 -0.6,0.4 0,0.2 0,0.5 0,0.7 -0.2,0.1 -0.4,0.2 -0.6,0.4 0,0.2 0,0.5 0,0.7 -0.2,0.1 -0.4,0.2 -0.6,0.4 0,0.2 0,0.5 0,0.7 -0.1,0 -0.2,0 -0.3,0 -0.1,0.4 -0.2,0.7 -0.3,1.1 -0.2,0.1 -0.4,0.2 -0.6,0.4 0,0.2 0,0.5 0,0.7 -0.3,0.2 -0.6,0.5 -1,0.7 0,0.2 0,0.5 0,0.7 -0.2,0.1 -0.4,0.2 -0.6,0.4 0,0.2 0,0.5 0,0.7 -0.1,0 -0.2,0 -0.3,0 -0.1,0.4 -0.2,0.7 -0.3,1.1 -0.2,0.1 -0.4,0.2 -0.6,0.4 0,0.2 0,0.5 0,0.7 -0.3,0.2 -0.6,0.5 -1,0.7 0,0.2 0,0.5 0,0.7 -0.3,0.2 -0.6,0.5 -1,0.7 0,0.2 0,0.5 0,0.7 -0.5,0.5 -1.1,1 -1.6,1.4 0,0.2 0,0.5 0,0.7 -1.3,1.3 -2.6,2.6 -3.9,3.9 -0.8,1 -1.5,1.9 -2.3,2.9 -0.2,0 -0.4,0 -0.6,0 -0.3,0.5 -0.6,1 -1,1.4 -0.2,0 -0.4,0 -0.6,0 -0.2,0.4 -0.4,0.7 -0.6,1.1 -0.2,0 -0.4,0 -0.6,0 -0.2,0.4 -0.4,0.7 -0.6,1.1 -0.2,0 -0.4,0 -0.6,0 -0.1,0.2 -0.2,0.5 -0.3,0.7 -0.2,0 -0.4,0 -0.6,0 -0.1,0.2 -0.2,0.5 -0.3,0.7 -0.3,0.1 -0.6,0.2 -1,0.4 0,0.1 0,0.2 0,0.4 -0.4,0.1 -0.9,0.2 -1.3,0.4 -0.1,0.2 -0.2,0.5 -0.3,0.7 -0.2,0 -0.4,0 -0.6,0 0,0.1 0,0.2 0,0.4 -0.2,0 -0.4,0 -0.6,0 0,0.1 0,0.2 0,0.4 -0.2,0 -0.4,0 -0.6,0 0,0.1 0,0.2 0,0.4 -0.2,0 -0.4,0 -0.6,0 0,0.1 0,0.2 0,0.4 -0.2,0 -0.4,0 -0.6,0 0,0.1 0,0.2 0,0.4 -0.2,0 -0.4,0 -0.6,0 0,0.1 0,0.2 0,0.4 -0.6,0.2 -1.3,0.5 -1.9,0.7 0,0.1 0,0.2 0,0.4 -0.3,0 -0.6,0 -1,0 0,0.1 0,0.2 0,0.4 -0.4,0.1 -0.9,0.2 -1.3,0.4 0,0.1 0,0.2 0,0.4 -0.6,0.1 -1.3,0.2 -1.9,0.4 0,0.1 0,0.2 0,0.4 -0.2,0 -0.4,0 -0.6,0 0,0.1 0,0.2 0,0.4 -1.1,0.2 -2.1,0.5 -3.2,0.7 0,0.1 0,0.2 0,0.4 -0.3,0 -0.6,0 -1,0 0,0.1 0,0.2 0,0.4 -0.8,0.1 -1.5,0.2 -2.3,0.4 0,0.1 0,0.2 0,0.4 -1,0.1 -1.9,0.2 -2.9,0.4 -1.5,0.5 -3.6,0.9 -5.2,1.4 -0.8,0 -1.5,0 -2.3,0 0,0.1 0,0.2 0,0.4 -0.9,0 -1.7,0 -2.6,0 0,0.1 0,0.2 0,0.4 -1.1,0 -2.1,0 -3.2,0 0,0.1 0,0.2 0,0.4 -1.2,0 -2.4,0 -3.5,0 0,0.1 0,0.2 0,0.4 -1.3,0 -2.6,0 -3.9,0 0,0.1 0,0.2 0,0.4 -1.2,0 -2.4,0 -3.5,0 0,0.1 0,0.2 0,0.4 -1.3,0 -2.6,0 -3.9,0 0,0.1 0,0.2 0,0.4 -1.3,0 -2.6,0 -3.9,0 0,0.1 0,0.2 0,0.4 -1.4,0 -2.8,0 -4.2,0 0,0 0,0.3 -0.6,0.4 -1.2,0 -2.4,0 -3.5,0 0,0.1 0,0.2 0,0.4 -4.5,0.2 -9,0.5 -13.5,0.7 0,0.1 0,0.2 0,0.4 -2.3,0.1 -4.5,0.2 -6.8,0.4 -1.1,0 -2.1,0 -3.2,0 0,0.1 0,0.2 0,0.4 -1.8,0 -3.6,0 -5.5,0 0,0.1 0,0.2 0,0.4 -1.8,0 -3.6,0 -5.5,0 0,0.1 0,0.2 0,0.4 -1.8,0.6 -4.6,-0.1 -6.1,0.4 -1.9,0.6 -5,-0.2 -6.8,0.4 -1.5,0 -3,0 -4.5,0 -0.9,0 -1.7,0 -2.6,0 0,0.1 0,0.2 0,0.4 -2.7,0 -5.4,0 -8,0 0,0.1 0,0.2 0,0.4 -5.7,0.1 -11.4,0.2 -17.1,0.4 0,0.1 0,0.2 0,0.4 -1.5,0 -3,0 -4.5,0 0,0 0,0.3 -0.6,0.4 -1.1,0 -2.1,0 -3.2,0 0,0.1 0,0.2 0,0.4 -1,0 -1.9,0 -2.9,0 0,0.1 0,0.2 0,0.4 -1,0 -1.9,0 -2.9,0 -3.6,1.2 -8.1,1.3 -11.6,2.5 -1.1,0.1 -2.1,0.2 -3.2,0.4 0,0.1 0,0.2 0,0.4 -1,0.1 -1.9,0.2 -2.9,0.4 0,0.1 0,0.2 0,0.4 -0.4,0 -0.9,0 -1.3,0 0,0.1 0,0.2 0,0.4 -1.2,0.2 -2.4,0.5 -3.5,0.7 0,0.1 0,0.2 0,0.4 -0.3,0 -0.6,0 -1,0 0,0.1 0,0.2 0,0.4 -0.4,0 -0.9,0 -1.3,0 0,0.1 0,0.2 0,0.4 -0.3,0 -0.6,0 -1,0 0,0.1 0,0.2 0,0.4 -0.3,0 -0.6,0 -1,0 0,0.1 0,0.2 0,0.4 -0.3,0 -0.6,0 -1,0 0,0.1 0,0.2 0,0.4 -0.3,0 -0.6,0 -1,0 0,0.1 0,0.2 0,0.4 -0.3,0 -0.6,0 -1,0 0,0.1 0,0.2 0,0.4 -0.3,0 -0.6,0 -1,0 0,0.1 0,0.2 0,0.4 -0.6,0.1 -1.3,0.2 -1.9,0.4 0,0.1 0,0.2 0,0.4 -0.2,0 -0.4,0 -0.6,0 0,0.1 0,0.2 0,0.4 -0.6,0.1 -1.3,0.2 -1.9,0.4 0,0.1 0,0.2 0,0.4 -0.2,0 -0.4,0 -0.6,0 0,0.1 0,0.2 0,0.4 -0.3,0 -0.6,0 -1,0 0,0.1 0,0.2 0,0.4 -0.4,0.1 -0.9,0.2 -1.3,0.4 0,0.1 0,0.2 0,0.4 -0.3,0 -0.6,0 -1,0 0,0.1 0,0.2 0,0.4 -0.4,0.1 -0.9,0.2 -1.3,0.4 0,0.1 0,0.2 0,0.4 -0.3,0 -0.6,0 -1,0 0,0.1 0,0.2 0,0.4 -0.6,0.2 -1.3,0.5 -1.9,0.7 0,0.1 0,0.2 0,0.4 -0.2,0 -0.4,0 -0.6,0 0,0.1 0,0.2 0,0.4 -0.2,0 -0.4,0 -0.6,0 0,0.1 0,0.2 0,0.4 -0.2,0 -0.4,0 -0.6,0 0,0.1 0,0.2 0,0.4 -0.2,0 -0.4,0 -0.6,0 0,0.1 0,0.2 0,0.4 -0.2,0 -0.4,0 -0.6,0 0,0.1 0,0.2 0,0.4 -0.2,0 -0.4,0 -0.6,0 0,0.1 0,0.2 0,0.4 -0.2,0 -0.4,0 -0.6,0 0,0.1 0,0.2 0,0.4 -0.2,0 -0.4,0 -0.6,0 -0.1,0.2 -0.2,0.5 -0.3,0.7 -0.2,0 -0.4,0 -0.6,0 0,0.1 0,0.2 0,0.4 -0.2,0 -0.4,0 -0.6,0 0,0.1 0,0.2 0,0.4 -0.2,0 -0.4,0 -0.6,0 0,0.1 0,0.2 0,0.4 -0.2,0 -0.4,0 -0.6,0 -0.1,0.2 -0.2,0.5 -0.3,0.7 -0.4,0.1 -0.9,0.2 -1.3,0.4 -0.1,0.2 -0.2,0.5 -0.3,0.7 -0.2,0 -0.4,0 -0.6,0 0,0.1 0,0.2 0,0.4 -0.2,0 -0.4,0 -0.6,0 -0.1,0.2 -0.2,0.5 -0.3,0.7 -0.2,0 -0.4,0 -0.6,0 -0.1,0.2 -0.2,0.5 -0.3,0.7 -0.2,0 -0.4,0 -0.6,0 -0.1,0.2 -0.2,0.5 -0.3,0.7 -0.2,0 -0.4,0 -0.6,0 -0.1,0.2 -0.2,0.5 -0.3,0.7 -0.2,0 -0.4,0 -0.6,0 -0.1,0.2 -0.2,0.5 -0.3,0.7 -0.2,0 -0.4,0 -0.6,0 -0.1,0.2 -0.2,0.5 -0.3,0.7 -0.2,0 -0.4,0 -0.6,0 -0.2,0.4 -0.4,0.7 -0.6,1.1 -0.2,0 -0.4,0 -0.6,0 -0.2,0.4 -0.4,0.7 -0.6,1.1 -0.2,0 -0.4,0 -0.6,0 -0.2,0.4 -0.4,0.7 -0.6,1.1 -0.2,0 -0.4,0 -0.6,0 -0.3,0.5 -0.6,1 -1,1.4 -0.2,0 -0.4,0 -0.6,0 -0.3,0.5 -0.6,1 -1,1.4 -0.2,0 -0.4,0 -0.6,0 -0.5,0.7 -1.1,1.4 -1.6,2.1 -0.2,0 -0.4,0 -0.6,0 -1.2,1.4 -2.4,2.9 -3.5,4.3 -0.2,0 -0.4,0 -0.6,0 -0.6,0.8 -1.3,1.7 -1.9,2.5 -0.2,0.1 -0.4,0.2 -0.6,0.4 0,0.2 0,0.5 0,0.7 -0.9,0.8 -1.7,1.7 -2.6,2.5 0,0.2 0,0.5 0,0.7 -0.4,0.4 -0.9,0.7 -1.3,1.1 0,0.2 0,0.5 0,0.7 -0.3,0.2 -0.6,0.5 -1,0.7 0,0.2 0,0.5 0,0.7 -0.3,0.2 -0.6,0.5 -1,0.7 0,0.2 0,0.5 0,0.7 -0.2,0.1 -0.4,0.2 -0.6,0.4 -0.1,0.5 -0.2,1 -0.3,1.4 -0.2,0.1 -0.4,0.2 -0.6,0.4 -0.2,0.7 -0.4,1.4 -0.6,2.1 -0.2,0.1 -0.4,0.2 -0.6,0.4 -1.2,3.2 -2.4,6.4 -3.5,9.6 -0.2,1.4 -0.4,2.9 -0.6,4.3 -3.2,11.6 -0.2,27.3 3.2,36.1 0.1,0.7 0.2,1.4 0.3,2.1 0.1,0 0.2,0 0.3,0 0,0.2 0,0.5 0,0.7 0.1,0 0.2,0 0.3,0 0,0.4 0,0.7 0,1.1 0.1,0 0.2,0 0.3,0 0.1,0.6 0.2,1.2 0.3,1.8 0.1,0 0.2,0 0.3,0 0,0.2 0,0.5 0,0.7 0.1,0 0.2,0 0.3,0 0,0.4 0,0.7 0,1.1 0.1,0 0.2,0 0.3,0 0.1,0.5 0.2,1 0.3,1.4 0.1,0 0.2,0 0.3,0 0.1,0.6 0.2,1.2 0.3,1.8 0.1,0 0.2,0 0.3,0 0.2,0.7 0.4,1.4 0.6,2.1 0.1,0 0.2,0 0.3,0 0,0.2 0,0.5 0,0.7 0.1,0 0.2,0 0.3,0 0,0.2 0,0.5 0,0.7 0.1,0 0.2,0 0.3,0 0,0.2 0,0.5 0,0.7 0.1,0 0.2,0 0.3,0 0,0.2 0,0.5 0,0.7 0.1,0 0.2,0 0.3,0 0,0.2 0,0.5 0,0.7 0.1,0 0.2,0 0.3,0 0,0.2 0,0.5 0,0.7 0.1,0 0.2,0 0.3,0 0,0.2 0,0.5 0,0.7 0.1,0 0.2,0 0.3,0 0,0.2 0,0.5 0,0.7 0.2,0.1 0.4,0.2 0.6,0.4 0,0.2 0,0.5 0,0.7 0.1,0 0.2,0 0.3,0 0,0.2 0,0.5 0,0.7 0.1,0 0.2,0 0.3,0 0,0.2 0,0.5 0,0.7 0.1,0 0.2,0 0.3,0 0,0.2 0,0.5 0,0.7 0.2,0.1 0.4,0.2 0.6,0.4 0.1,0.5 0.2,1 0.3,1.4 0.2,0.1 0.4,0.2 0.6,0.4 0.1,0.5 0.2,1 0.3,1.4 0.2,0.1 0.4,0.2 0.6,0.4 0,0.2 0,0.5 0,0.7 0.2,0.1 0.4,0.2 0.6,0.4 0,0.2 0,0.5 0,0.7 0.2,0.1 0.4,0.2 0.6,0.4 0,0.2 0,0.5 0,0.7 0.2,0.1 0.4,0.2 0.6,0.4 0,0.2 0,0.5 0,0.7 0.2,0.1 0.4,0.2 0.6,0.4 0,0.2 0,0.5 0,0.7 0.3,0.2 0.6,0.5 1,0.7 0,0.2 0,0.5 0,0.7 0.2,0.1 0.4,0.2 0.6,0.4 0,0.2 0,0.5 0,0.7 0.3,0.2 0.6,0.5 1,0.7 0,0.2 0,0.5 0,0.7 0.4,0.4 0.9,0.7 1.3,1.1 0,0.2 0,0.5 0,0.7 0.4,0.4 0.9,0.7 1.3,1.1 0,0.2 0,0.5 0,0.7 0.3,0.2 0.6,0.5 1,0.7 0,0.1 0,0.2 0,0.4 0.2,0.1 0.4,0.2 0.6,0.4 0,0.2 0,0.5 0,0.7 0.9,0.8 1.7,1.7 2.6,2.5 0,0.2 0,0.5 0,0.7 1.1,1.1 2.1,2.1 3.2,3.2 1.1,1.3 2.1,2.6 3.2,3.9 0.2,0 0.4,0 0.6,0 0.8,1 1.5,1.9 2.3,2.9 0.2,0 0.4,0 0.6,0 0.5,0.7 1.1,1.4 1.6,2.1 0.2,0 0.4,0 0.6,0 0.3,0.5 0.6,1 1,1.4 0.2,0 0.4,0 0.6,0 0.2,0.4 0.4,0.7 0.6,1.1 0.2,0 0.4,0 0.6,0 0.2,0.4 0.4,0.7 0.6,1.1 0.2,0 0.4,0 0.6,0 0.2,0.4 0.4,0.7 0.6,1.1 0.3,0.1 0.6,0.2 1,0.4 0.1,0.2 0.2,0.5 0.3,0.7 0.2,0 0.4,0 0.6,0 0.1,0.2 0.2,0.5 0.3,0.7 0.3,0.1 0.6,0.2 1,0.4 0,0.1 0,0.2 0,0.4 0.2,0 0.4,0 0.6,0 0.1,0.2 0.2,0.5 0.3,0.7 0.2,0 0.4,0 0.6,0 0.1,0.2 0.2,0.5 0.3,0.7 0.2,0 0.4,0 0.6,0 0.1,0.2 0.2,0.5 0.3,0.7 0.4,0.1 0.9,0.2 1.3,0.4 0,0.1 0,0.2 0,0.4 0.3,0.1 0.6,0.2 1,0.4 0.1,0.2 0.2,0.5 0.3,0.7 0.4,0.1 0.9,0.2 1.3,0.4 0.1,0.2 0.2,0.5 0.3,0.7 0.6,0.2 1.3,0.5 1.9,0.7 0.1,0.2 0.2,0.5 0.3,0.7 0.2,0 0.4,0 0.6,0 0,0.1 0,0.2 0,0.4 0.2,0 0.4,0 0.6,0 0,0.1 0,0.2 0,0.4 0.2,0 0.4,0 0.6,0 0,0.1 0,0.2 0,0.4 0.2,0 0.4,0 0.6,0 0,0.1 0,0.2 0,0.4 0.4,0.1 0.9,0.2 1.3,0.4 0.1,0.2 0.2,0.5 0.3,0.7 0.4,0.1 0.9,0.2 1.3,0.4 0,0.1 0,0.2 0,0.4 0.6,0.2 1.3,0.5 1.9,0.7 0,0.1 0,0.2 0,0.4 0.3,0 0.6,0 1,0 0,0.1 0,0.2 0,0.4 0.2,0 0.4,0 0.6,0 0,0.1 0,0.2 0,0.4 0.2,0 0.4,0 0.6,0 0,0.1 0,0.2 0,0.4 0.6,0.2 1.3,0.5 1.9,0.7 0,0.1 0,0.2 0,0.4 0.3,0 0.6,0 1,0 0,0.1 0,0.2 0,0.4 0.4,0.1 0.9,0.2 1.3,0.4 0,0.1 0,0.2 0,0.4 0.3,0 0.6,0 1,0 0,0.1 0,0.2 0,0.4 0.4,0.1 0.9,0.2 1.3,0.4 0,0.1 0,0.2 0,0.4 0.3,0 0.6,0 1,0 0,0.1 0,0.2 0,0.4 0.2,0 0.4,0 0.6,0 0,0.1 0,0.2 0,0.4 0.3,0 0.6,0 1,0 0,0.1 0,0.2 0,0.4 0.2,0 0.4,0 0.6,0 0,0.1 0,0.2 0,0.4 1.3,-1.8 3.1,-1.1 5.2,-0.9 z"
           class="st0" /></g></g></g></svg>