<?xml version="1.0" encoding="utf-8"?>
<!-- Generator: Adobe Illustrator 19.0.0, SVG Export Plug-In . SVG Version: 6.00 Build 0)  -->
<svg version="1.1" id="Layer_1" xmlns="http://www.w3.org/2000/svg" xmlns:xlink="http://www.w3.org/1999/xlink" x="0px" y="0px"
	 viewBox="0 0 612 612" style="enable-background:new 0 0 612 612;" xml:space="preserve">
<style type="text/css">
	.st0{fill:#202020;}
</style>
<path class="st0" d="M337.4,14.6c0.5,0.1,1.1,0.2,1.6,0.4c0,0.1,0,0.2,0,0.4c0.2,0,0.4,0,0.6,0c0.2,0.4,0.4,0.7,0.6,1.1
	c5.1,4,3.6,11.7,5.5,18.9c0.1,1.4,0.2,2.9,0.3,4.3c1.2,4.5,1.1,10.2,2.3,14.6c0,1,0,1.9,0,2.9c0.1,0,0.2,0,0.3,0c0,1,0,1.9,0,2.9
	c0.1,0,0.2,0,0.3,0c0,1.1,0,2.1,0,3.2c0.1,0,0.2,0,0.3,0c0,1.2,0,2.4,0,3.6c0.1,0,0.2,0,0.3,0c0.1,3.6,0.2,7.1,0.3,10.7
	c0.1,0,0.2,0,0.3,0c0,4,0,8.1,0,12.1c-0.1,0-0.2,0-0.3,0c0,1.9,0,3.8,0,5.7c-0.1,0-0.2,0-0.3,0c0,1.2,0,2.4,0,3.6
	c-0.1,0-0.2,0-0.3,0c0,0.8,0,1.7,0,2.5c-0.1,0-0.2,0-0.3,0c0,0.8,0,1.7,0,2.5c-0.1,0-0.2,0-0.3,0c0,0.7,0,1.4,0,2.1
	c-0.1,0-0.2,0-0.3,0c0,0.6,0,1.2,0,1.8c-0.1,0-0.2,0-0.3,0c0,0.6,0,1.2,0,1.8c-0.1,0-0.2,0-0.3,0c0,0.5,0,1,0,1.4
	c-0.1,0-0.2,0-0.3,0c0,0.5,0,1,0,1.4c-0.1,0-0.2,0-0.3,0c-0.1,1-0.2,1.9-0.3,2.9c-0.1,0-0.2,0-0.3,0c0,0.4,0,0.7,0,1.1
	c-0.1,0-0.2,0-0.3,0c0,0.4,0,0.7,0,1.1c-0.1,0-0.2,0-0.3,0c-0.2,1.2-0.4,2.4-0.6,3.6c-0.1,0-0.2,0-0.3,0c0,0.2,0,0.5,0,0.7
	c-0.1,0-0.2,0-0.3,0c0,0.4,0,0.7,0,1.1c-0.1,0-0.2,0-0.3,0c-0.1,0.7-0.2,1.4-0.3,2.1c-0.1,0-0.2,0-0.3,0c-0.4,1.6,0.4,2.5,0.6,3.6
	c0.3,0.1,0.6,0.2,1,0.4c0.1,0.2,0.2,0.5,0.3,0.7c1.9,0.4,3.9,0.7,5.8,1.1c4.8,1.8,10.4,3.1,15.1,5c0.4,0,0.9,0,1.3,0
	c0,0.1,0,0.2,0,0.4c0.3,0,0.6,0,1,0c0,0.1,0,0.2,0,0.4c0.4,0,0.9,0,1.3,0c0,0.1,0,0.2,0,0.4c1.1,0.2,2.1,0.5,3.2,0.7
	c0,0.1,0,0.2,0,0.4c1.1,0.2,2.1,0.5,3.2,0.7c0,0.1,0,0.2,0,0.4c0.3,0,0.6,0,1,0c0,0.1,0,0.2,0,0.4c0.3,0,0.6,0,1,0
	c0,0.1,0,0.2,0,0.4c0.3,0,0.6,0,1,0c0,0.1,0,0.2,0,0.4c0.3,0,0.6,0,1,0c0,0.1,0,0.2,0,0.4c0.6,0.1,1.3,0.2,1.9,0.4
	c0,0.1,0,0.2,0,0.4c0.4,0,0.9,0,1.3,0c0,0.1,0,0.2,0,0.4c0.3,0,0.6,0,1,0c0,0.1,0,0.2,0,0.4c0.3,0,0.6,0,1,0c0,0.1,0,0.2,0,0.4
	c0.3,0,0.6,0,1,0c0,0.1,0,0.2,0,0.4c0.3,0,0.6,0,1,0c0,0.1,0,0.2,0,0.4c0.3,0,0.6,0,1,0c0,0.1,0,0.2,0,0.4c0.3,0,0.6,0,1,0
	c0,0.1,0,0.2,0,0.4c0.3,0,0.6,0,1,0c0,0.1,0,0.2,0,0.4c0.3,0,0.6,0,1,0c0,0.1,0,0.2,0,0.4c0.2,0,0.4,0,0.6,0c0,0.1,0,0.2,0,0.4
	c1,0.2,1.9,0.5,2.9,0.7c0,0.1,0,0.2,0,0.4c1,0.2,1.9,0.5,2.9,0.7c0,0.1,0,0.2,0,0.4c0.2,0,0.4,0,0.6,0c0,0.1,0,0.2,0,0.4
	c0.3,0,0.6,0,1,0c0,0.1,0,0.2,0,0.4c0.3,0,0.6,0,1,0c0,0.1,0,0.2,0,0.4c0.3,0,0.6,0,1,0c0,0.1,0,0.2,0,0.4c0.3,0,0.6,0,1,0
	c0,0.1,0,0.2,0,0.4c0.2,0,0.4,0,0.6,0c0,0.1,0,0.2,0,0.4c0.6,0.1,1.3,0.2,1.9,0.4c0,0.1,0,0.2,0,0.4c0.2,0,0.4,0,0.6,0
	c0,0.1,0,0.2,0,0.4c0.3,0,0.6,0,1,0c0,0.1,0,0.2,0,0.4c0.3,0,0.6,0,1,0c0,0.1,0,0.2,0,0.4c0.2,0,0.4,0,0.6,0c0,0.1,0,0.2,0,0.4
	c0.6,0.1,1.3,0.2,1.9,0.4c0,0.1,0,0.2,0,0.4c0.2,0,0.4,0,0.6,0c0,0.1,0,0.2,0,0.4c0.3,0,0.6,0,1,0c0,0.1,0,0.2,0,0.4
	c0.3,0,0.6,0,1,0c0,0.1,0,0.2,0,0.4c0.2,0,0.4,0,0.6,0c0,0.1,0,0.2,0,0.4c0.3,0,0.6,0,1,0c0,0.1,0,0.2,0,0.4c0.2,0,0.4,0,0.6,0
	c0,0.1,0,0.2,0,0.4c0.6,0.1,1.3,0.2,1.9,0.4c0,0.1,0,0.2,0,0.4c0.2,0,0.4,0,0.6,0c0,0.1,0,0.2,0,0.4c0.3,0,0.6,0,1,0
	c0,0.1,0,0.2,0,0.4c0.2,0,0.4,0,0.6,0c0,0.1,0,0.2,0,0.4c0.5,0.1,1.1,0.2,1.6,0.4c0,0.1,0,0.2,0,0.4c0.3,0,0.6,0,1,0
	c0,0.1,0,0.2,0,0.4c0.2,0,0.4,0,0.6,0c0,0.1,0,0.2,0,0.4c0.3,0,0.6,0,1,0c0,0.1,0,0.2,0,0.4c0.2,0,0.4,0,0.6,0c0,0.1,0,0.2,0,0.4
	c0.3,0,0.6,0,1,0c0,0.1,0,0.2,0,0.4c0.5,0.1,1.1,0.2,1.6,0.4c0,0.1,0,0.2,0,0.4c0.2,0,0.4,0,0.6,0c0,0.1,0,0.2,0,0.4
	c0.3,0,0.6,0,1,0c0,0.1,0,0.2,0,0.4c0.5,0.1,1.1,0.2,1.6,0.4c0,0.1,0,0.2,0,0.4c0.4,0.1,0.9,0.2,1.3,0.4c0,0.1,0,0.2,0,0.4
	c0.3,0,0.6,0,1,0c0,0.1,0,0.2,0,0.4c0.2,0,0.4,0,0.6,0c0,0.1,0,0.2,0,0.4c0.3,0,0.6,0,1,0c0,0.1,0,0.2,0,0.4
	c0.4,0.1,0.9,0.2,1.3,0.4c0,0.1,0,0.2,0,0.4c0.3,0,0.6,0,1,0c0,0.1,0,0.2,0,0.4c0.2,0,0.4,0,0.6,0c0,0.1,0,0.2,0,0.4
	c0.3,0,0.6,0,1,0c0,0.1,0,0.2,0,0.4c0.4,0.1,0.9,0.2,1.3,0.4c0,0.1,0,0.2,0,0.4c0.3,0,0.6,0,1,0c0,0.1,0,0.2,0,0.4
	c0.4,0.1,0.9,0.2,1.3,0.4c0,0.1,0,0.2,0,0.4c0.3,0,0.6,0,1,0c0,0.1,0,0.2,0,0.4c0.2,0,0.4,0,0.6,0c0,0.1,0,0.2,0,0.4
	c0.2,0,0.4,0,0.6,0c0.1,0.2,0.2,0.5,0.3,0.7c0.6,0.2,1.3,0.5,1.9,0.7c0.1,0.2,0.2,0.5,0.3,0.7c0.2,0,0.4,0,0.6,0
	c0.1,0.2,0.2,0.5,0.3,0.7c0.2,0,0.4,0,0.6,0c0.2,0.4,0.4,0.7,0.6,1.1c0.2,0,0.4,0,0.6,0c0.4,0.6,0.9,1.2,1.3,1.8
	c0.9,0.8,1.7,1.7,2.6,2.5c0,0.2,0,0.5,0,0.7c0.3,0.2,0.6,0.5,1,0.7c0,0.2,0,0.5,0,0.7c0.2,0.1,0.4,0.2,0.6,0.4
	c0.1,0.5,0.2,1,0.3,1.4c0.2,0.1,0.4,0.2,0.6,0.4c0.2,0.7,0.4,1.4,0.6,2.1c0.1,0,0.2,0,0.3,0c0,0.2,0,0.5,0,0.7c0.1,0,0.2,0,0.3,0
	c0.2,0.7,0.4,1.4,0.6,2.1c0.1,0,0.2,0,0.3,0c0,0.4,0,0.7,0,1.1c0.1,0,0.2,0,0.3,0c0,0.2,0,0.5,0,0.7c0.1,0,0.2,0,0.3,0
	c0.1,0.7,0.2,1.4,0.3,2.1c0.1,0,0.2,0,0.3,0c0,0.4,0,0.7,0,1.1c0.1,0,0.2,0,0.3,0c0,0.4,0,0.7,0,1.1c0.1,0,0.2,0,0.3,0
	c0,0.4,0,0.7,0,1.1c0.1,0,0.2,0,0.3,0c0.2,1.2,0.4,2.4,0.6,3.6c0.1,0,0.2,0,0.3,0c0,0.2,0,0.5,0,0.7c0.1,0,0.2,0,0.3,0
	c0.1,0.7,0.2,1.4,0.3,2.1c0.1,0,0.2,0,0.3,0c0.1,0.5,0.2,1,0.3,1.4c0.1,0,0.2,0,0.3,0c0,0.4,0,0.7,0,1.1c0.1,0,0.2,0,0.3,0
	c0.2,0.7,0.4,1.4,0.6,2.1c0.1,0,0.2,0,0.3,0c0,0.2,0,0.5,0,0.7c0.1,0,0.2,0,0.3,0c0,0.2,0,0.5,0,0.7c0.1,0,0.2,0,0.3,0
	c0,0.2,0,0.5,0,0.7c0.1,0,0.2,0,0.3,0c0,0.2,0,0.5,0,0.7c0.1,0,0.2,0,0.3,0c0,0.2,0,0.5,0,0.7c0.1,0,0.2,0,0.3,0c0,0.2,0,0.5,0,0.7
	c0.2,0.1,0.4,0.2,0.6,0.4c0.1,0.5,0.2,1,0.3,1.4c0.2,0.1,0.4,0.2,0.6,0.4c0,0.2,0,0.5,0,0.7c0.1,0,0.2,0,0.3,0c0,0.2,0,0.5,0,0.7
	c0.2,0.1,0.4,0.2,0.6,0.4c0,0.2,0,0.5,0,0.7c0.2,0.1,0.4,0.2,0.6,0.4c0,0.2,0,0.5,0,0.7c0.3,0.2,0.6,0.5,1,0.7c0,0.2,0,0.5,0,0.7
	c0.3,0.2,0.6,0.5,1,0.7c0,0.2,0,0.5,0,0.7c0.3,0.2,0.6,0.5,1,0.7c0,0.2,0,0.5,0,0.7c0.4,0.4,0.9,0.7,1.3,1.1c0,0.2,0,0.5,0,0.7
	c0.6,0.6,1.3,1.2,1.9,1.8c0,0.2,0,0.5,0,0.7c1.1,1.1,2.1,2.1,3.2,3.2c1.7,2,3.4,4,5.2,6.1c0.2,0,0.4,0,0.6,0
	c0.6,0.8,1.3,1.7,1.9,2.5c0.2,0,0.4,0,0.6,0c0.5,0.7,1.1,1.4,1.6,2.1c0.2,0,0.4,0,0.6,0c0.3,0.5,0.6,1,1,1.4c0.2,0,0.4,0,0.6,0
	c0.3,0.5,0.6,1,1,1.4c0.2,0,0.4,0,0.6,0c0.1,0.2,0.2,0.5,0.3,0.7c0.3,0.1,0.6,0.2,1,0.4c0.3,0.5,0.6,1,1,1.4c0.2,0,0.4,0,0.6,0
	c0.2,0.4,0.4,0.7,0.6,1.1c0.2,0,0.4,0,0.6,0c0.2,0.4,0.4,0.7,0.6,1.1c0.2,0,0.4,0,0.6,0c0.2,0.4,0.4,0.7,0.6,1.1c0.2,0,0.4,0,0.6,0
	c0.1,0.2,0.2,0.5,0.3,0.7c0.2,0,0.4,0,0.6,0c0.1,0.2,0.2,0.5,0.3,0.7c0.3,0.1,0.6,0.2,1,0.4c0.2,0.4,0.4,0.7,0.6,1.1
	c0.2,0,0.4,0,0.6,0c0.1,0.2,0.2,0.5,0.3,0.7c0.2,0,0.4,0,0.6,0c0.2,0.4,0.4,0.7,0.6,1.1c0.2,0,0.4,0,0.6,0c0.1,0.2,0.2,0.5,0.3,0.7
	c0.2,0,0.4,0,0.6,0c0.2,0.4,0.4,0.7,0.6,1.1c0.2,0,0.4,0,0.6,0c0,0.1,0,0.2,0,0.4c0.3,0.1,0.6,0.2,1,0.4c0.1,0.2,0.2,0.5,0.3,0.7
	c0.2,0,0.4,0,0.6,0c0.2,0.4,0.4,0.7,0.6,1.1c0.2,0,0.4,0,0.6,0c0.1,0.2,0.2,0.5,0.3,0.7c0.2,0,0.4,0,0.6,0c0.2,0.4,0.4,0.7,0.6,1.1
	c0.2,0,0.4,0,0.6,0c0.1,0.2,0.2,0.5,0.3,0.7c0.2,0,0.4,0,0.6,0c0.2,0.4,0.4,0.7,0.6,1.1c0.2,0,0.4,0,0.6,0c0.2,0.4,0.4,0.7,0.6,1.1
	c0.4,0.1,0.9,0.2,1.3,0.4c0.1,0.2,0.2,0.5,0.3,0.7c0.4,0.1,0.9,0.2,1.3,0.4c0.1,0.2,0.2,0.5,0.3,0.7c0.4,0.1,0.9,0.2,1.3,0.4
	c0.1,0.2,0.2,0.5,0.3,0.7c0.4,0.1,0.9,0.2,1.3,0.4c0.1,0.2,0.2,0.5,0.3,0.7c0.4,0.1,0.9,0.2,1.3,0.4c0.1,0.2,0.2,0.5,0.3,0.7
	c0.2,0,0.4,0,0.6,0c0.1,0.2,0.2,0.5,0.3,0.7c0.2,0,0.4,0,0.6,0c0.2,0.4,0.4,0.7,0.6,1.1c0.2,0,0.4,0,0.6,0c0.4,0.6,0.9,1.2,1.3,1.8
	c0.2,0,0.4,0,0.6,0c0.3,0.5,0.6,1,1,1.4c0.1,0,0.2,0,0.3,0c0,0.2,0,0.5,0,0.7c0.2,0.1,0.4,0.2,0.6,0.4c0.5,0.6,0.9,1.3,1.3,2.1
	c-0.3,0-0.6,0-1,0c0-0.1,0-0.2,0-0.4c-1.5-0.2-3-0.5-4.5-0.7c0-0.1,0-0.2,0-0.4c-0.5,0-1.1,0-1.6,0c0-0.1,0-0.2,0-0.4
	c-0.9-0.1-1.7-0.2-2.6-0.4c0-0.1,0-0.2,0-0.4c-0.9-0.1-1.7-0.2-2.6-0.4c0-0.1,0-0.2,0-0.4c-0.3,0-0.6,0-1,0c0-0.1,0-0.2,0-0.4
	c-0.8-0.1-1.5-0.2-2.3-0.4c0-0.1,0-0.2,0-0.4c-1.1-0.2-2.1-0.5-3.2-0.7c0-0.1,0-0.2,0-0.4c-0.3,0-0.6,0-1,0c0-0.1,0-0.2,0-0.4
	c-0.3,0-0.6,0-1,0c0-0.1,0-0.2,0-0.4c-0.3,0-0.6,0-1,0c0-0.1,0-0.2,0-0.4c-0.3,0-0.6,0-1,0c0-0.1,0-0.2,0-0.4c-0.3,0-0.6,0-1,0
	c0-0.1,0-0.2,0-0.4c-0.6-0.1-1.3-0.2-1.9-0.4c0-0.1,0-0.2,0-0.4c-0.2,0-0.4,0-0.6,0c0-0.1,0-0.2,0-0.4c-0.3,0-0.6,0-1,0
	c0-0.1,0-0.2,0-0.4c-0.2,0-0.4,0-0.6,0c0-0.1,0-0.2,0-0.4c-0.3,0-0.6,0-1,0c0-0.1,0-0.2,0-0.4c-0.2,0-0.4,0-0.6,0c0-0.1,0-0.2,0-0.4
	c-0.3,0-0.6,0-1,0c0-0.1,0-0.2,0-0.4c-0.4-0.1-0.9-0.2-1.3-0.4c0-0.1,0-0.2,0-0.4c-0.3,0-0.6,0-1,0c0-0.1,0-0.2,0-0.4
	c-0.4-0.1-0.9-0.2-1.3-0.4c0-0.1,0-0.2,0-0.4c-0.5-0.1-1.1-0.2-1.6-0.4c0-0.1,0-0.2,0-0.4c-0.6-0.2-1.3-0.5-1.9-0.7
	c0-0.1,0-0.2,0-0.4c-0.2,0-0.4,0-0.6,0c0-0.1,0-0.2,0-0.4c-0.2,0-0.4,0-0.6,0c0-0.1,0-0.2,0-0.4c-0.2,0-0.4,0-0.6,0
	c0-0.1,0-0.2,0-0.4c-0.2,0-0.4,0-0.6,0c0-0.1,0-0.2,0-0.4c-0.2,0-0.4,0-0.6,0c0-0.1,0-0.2,0-0.4c-0.2,0-0.4,0-0.6,0
	c0-0.1,0-0.2,0-0.4c-0.2,0-0.4,0-0.6,0c-0.1-0.2-0.2-0.5-0.3-0.7c-0.2,0-0.4,0-0.6,0c0-0.1,0-0.2,0-0.4c-0.2,0-0.4,0-0.6,0
	c0-0.1,0-0.2,0-0.4c-0.2,0-0.4,0-0.6,0c0-0.1,0-0.2,0-0.4c-0.2,0-0.4,0-0.6,0c-0.1-0.2-0.2-0.5-0.3-0.7c-0.6-0.2-1.3-0.5-1.9-0.7
	c-0.1-0.2-0.2-0.5-0.3-0.7c-0.2,0-0.4,0-0.6,0c0-0.1,0-0.2,0-0.4c-0.2,0-0.4,0-0.6,0c-0.1-0.2-0.2-0.5-0.3-0.7c-0.2,0-0.4,0-0.6,0
	c-0.1-0.2-0.2-0.5-0.3-0.7c-0.2,0-0.4,0-0.6,0c-0.1-0.2-0.2-0.5-0.3-0.7c-0.4-0.1-0.9-0.2-1.3-0.4c-0.1-0.2-0.2-0.5-0.3-0.7
	c-0.2,0-0.4,0-0.6,0c-0.2-0.4-0.4-0.7-0.6-1.1c-0.2,0-0.4,0-0.6,0c0-0.1,0-0.2,0-0.4c-0.3-0.1-0.6-0.2-1-0.4
	c-0.1-0.2-0.2-0.5-0.3-0.7c-0.2,0-0.4,0-0.6,0c-0.2-0.4-0.4-0.7-0.6-1.1c-0.2,0-0.4,0-0.6,0c-0.2-0.4-0.4-0.7-0.6-1.1
	c-0.2,0-0.4,0-0.6,0c-0.2-0.4-0.4-0.7-0.6-1.1c-0.2,0-0.4,0-0.6,0c-0.2-0.4-0.4-0.7-0.6-1.1c-0.2,0-0.4,0-0.6,0
	c-0.3-0.5-0.6-1-1-1.4c-0.2,0-0.4,0-0.6,0c-0.2-0.4-0.4-0.7-0.6-1.1c-0.1,0-0.2,0-0.3,0c-0.1-0.2-0.2-0.5-0.3-0.7
	c-0.2,0-0.4,0-0.6,0c-0.5-0.7-1.1-1.4-1.6-2.1c-0.2,0-0.4,0-0.6,0c-1.2-1.4-2.4-2.9-3.5-4.3c-0.2,0-0.4,0-0.6,0
	c-0.8-1-1.5-1.9-2.3-2.9c-0.4-0.4-0.9-0.7-1.3-1.1c0-0.2,0-0.5,0-0.7c-1.3-1.3-2.6-2.6-3.9-3.9c0-0.2,0-0.5,0-0.7
	c-0.6-0.6-1.3-1.2-1.9-1.8c0-0.2,0-0.5,0-0.7c-0.6-0.6-1.3-1.2-1.9-1.8c0-0.2,0-0.5,0-0.7c-0.4-0.4-0.9-0.7-1.3-1.1
	c0-0.2,0-0.5,0-0.7c-0.3-0.2-0.6-0.5-1-0.7c0-0.2,0-0.5,0-0.7c-0.4-0.4-0.9-0.7-1.3-1.1c0-0.2,0-0.5,0-0.7c-0.3-0.2-0.6-0.5-1-0.7
	c-0.1-0.4-0.2-0.7-0.3-1.1c-0.2-0.1-0.4-0.2-0.6-0.4c0-0.2,0-0.5,0-0.7c-0.2-0.1-0.4-0.2-0.6-0.4c0-0.2,0-0.5,0-0.7
	c-0.3-0.2-0.6-0.5-1-0.7c0-0.2,0-0.5,0-0.7c-0.2-0.1-0.4-0.2-0.6-0.4c-0.1-0.4-0.2-0.7-0.3-1.1c-0.1,0-0.2,0-0.3,0
	c0-0.2,0-0.5,0-0.7c-0.2-0.1-0.4-0.2-0.6-0.4c0-0.2,0-0.5,0-0.7c-0.2-0.1-0.4-0.2-0.6-0.4c0-0.2,0-0.5,0-0.7
	c-0.2-0.1-0.4-0.2-0.6-0.4c0-0.2,0-0.5,0-0.7c-0.2-0.1-0.4-0.2-0.6-0.4c0-0.2,0-0.5,0-0.7c-0.2-0.1-0.4-0.2-0.6-0.4
	c0-0.2,0-0.5,0-0.7c-0.3-0.2-0.6-0.5-1-0.7c0-0.2,0-0.5,0-0.7c-0.2-0.1-0.4-0.2-0.6-0.4c0-0.2,0-0.5,0-0.7c-0.4-0.4-0.9-0.7-1.3-1.1
	c0-0.2,0-0.5,0-0.7c-0.9-0.8-1.7-1.7-2.6-2.5c-0.2-0.4-0.4-0.7-0.6-1.1c-0.2,0-0.4,0-0.6,0c-0.2-0.4-0.4-0.7-0.6-1.1
	c-0.2,0-0.4,0-0.6,0c-0.1-0.2-0.2-0.5-0.3-0.7c-0.2,0-0.4,0-0.6,0c0-0.1,0-0.2,0-0.4c-0.4-0.1-0.9-0.2-1.3-0.4c0-0.1,0-0.2,0-0.4
	c-0.6-0.1-1.3-0.2-1.9-0.4c0-0.1,0-0.2,0-0.4c-0.3,0-0.6,0-1,0c0-0.1,0-0.2,0-0.4c-1-0.2-1.9-0.5-2.9-0.7c0-0.1,0-0.2,0-0.4
	c-0.2,0-0.4,0-0.6,0c0-0.1,0-0.2,0-0.4c-0.3,0-0.6,0-1,0c0-0.1,0-0.2,0-0.4c-0.3,0-0.6,0-1,0c0-0.1,0-0.2,0-0.4c-0.3,0-0.6,0-1,0
	c0-0.1,0-0.2,0-0.4c-0.3,0-0.6,0-1,0c0-0.1,0-0.2,0-0.4c-0.3,0-0.6,0-1,0c0-0.1,0-0.2,0-0.4c-0.2,0-0.4,0-0.6,0c0-0.1,0-0.2,0-0.4
	c-0.6-0.1-1.3-0.2-1.9-0.4c0-0.1,0-0.2,0-0.4c-0.2,0-0.4,0-0.6,0c0-0.1,0-0.2,0-0.4c-1-0.2-1.9-0.5-2.9-0.7c0-0.1,0-0.2,0-0.4
	c-0.2,0-0.4,0-0.6,0c0-0.1,0-0.2,0-0.4c-0.6-0.1-1.3-0.2-1.9-0.4c0-0.1,0-0.2,0-0.4c-0.2,0-0.4,0-0.6,0c0-0.1,0-0.2,0-0.4
	c-0.6-0.1-1.3-0.2-1.9-0.4c0-0.1,0-0.2,0-0.4c-0.2,0-0.4,0-0.6,0c0-0.1,0-0.2,0-0.4c-0.6-0.1-1.3-0.2-1.9-0.4c0-0.1,0-0.2,0-0.4
	c-0.2,0-0.4,0-0.6,0c0-0.1,0-0.2,0-0.4c-0.3,0-0.6,0-1,0c0-0.1,0-0.2,0-0.4c-0.3,0-0.6,0-1,0c0-0.1,0-0.2,0-0.4c-0.2,0-0.4,0-0.6,0
	c0-0.1,0-0.2,0-0.4c-0.6-0.1-1.3-0.2-1.9-0.4c0-0.1,0-0.2,0-0.4c-0.2,0-0.4,0-0.6,0c0-0.1,0-0.2,0-0.4c-0.3,0-0.6,0-1,0
	c0-0.1,0-0.2,0-0.4c-0.3,0-0.6,0-1,0c0-0.1,0-0.2,0-0.4c-0.3,0-0.6,0-1,0c0-0.1,0-0.2,0-0.4c-0.3,0-0.6,0-1,0c0-0.1,0-0.2,0-0.4
	c-0.2,0-0.4,0-0.6,0c0-0.1,0-0.2,0-0.4c-0.6-0.1-1.3-0.2-1.9-0.4c0-0.1,0-0.2,0-0.4c-0.3,0-0.6,0-1,0c0-0.1,0-0.2,0-0.4
	c-0.3,0-0.6,0-1,0c0-0.1,0-0.2,0-0.4c-0.3,0-0.6,0-1,0c0-0.1,0-0.2,0-0.4c-0.3,0-0.6,0-1,0c0-0.1,0-0.2,0-0.4c-0.3,0-0.6,0-1,0
	c0-0.1,0-0.2,0-0.4c-0.3,0-0.6,0-1,0c0-0.1,0-0.2,0-0.4c-0.4,0-0.9,0-1.3,0c0-0.1,0-0.2,0-0.4c-0.4,0-0.9,0-1.3,0c0-0.1,0-0.2,0-0.4
	c-0.5,0-1.1,0-1.6,0c0-0.1,0-0.2,0-0.4c-0.5,0-1.1,0-1.6,0c0-0.1,0-0.2,0-0.4c-0.9,0-1.7,0-2.6,0c0-0.1,0-0.2,0-0.4
	c-1.4,0-2.8,0-4.2,0c-4.7,0-8,0.7-11.3,2.1c-0.3,0-0.6,0-1,0c-5.9,2.9-11.2,7.3-14.8,12.9c-0.4,0.4-0.9,0.7-1.3,1.1
	c0,0.2,0,0.5,0,0.7c-0.3,0.2-0.6,0.5-1,0.7c0,0.2,0,0.5,0,0.7c-0.3,0.2-0.6,0.5-1,0.7c0,0.2,0,0.5,0,0.7c-0.2,0.1-0.4,0.2-0.6,0.4
	c0,0.2,0,0.5,0,0.7c-0.2,0.1-0.4,0.2-0.6,0.4c0,0.2,0,0.5,0,0.7c-0.1,0-0.2,0-0.3,0c0,0.2,0,0.5,0,0.7c-0.2,0.1-0.4,0.2-0.6,0.4
	c-0.2,0.7-0.4,1.4-0.6,2.1c-0.2,0.1-0.4,0.2-0.6,0.4c-0.1,0.5-0.2,1-0.3,1.4c-0.2,0.1-0.4,0.2-0.6,0.4c-0.2,0.7-0.4,1.4-0.6,2.1
	c-0.2,0.1-0.4,0.2-0.6,0.4c-0.1,0.5-0.2,1-0.3,1.4c-0.1,0-0.2,0-0.3,0c0,0.2,0,0.5,0,0.7c-0.2,0.1-0.4,0.2-0.6,0.4
	c0,0.2,0,0.5,0,0.7c-0.1,0-0.2,0-0.3,0c0,0.2,0,0.5,0,0.7c-0.1,0-0.2,0-0.3,0c0,0.2,0,0.5,0,0.7c-0.1,0-0.2,0-0.3,0
	c0,0.2,0,0.5,0,0.7c-0.1,0-0.2,0-0.3,0c-0.1,0.5-0.2,1-0.3,1.4c-0.2,0.1-0.4,0.2-0.6,0.4c0,0.2,0,0.5,0,0.7c-0.1,0-0.2,0-0.3,0
	c0,0.2,0,0.5,0,0.7c-0.1,0-0.2,0-0.3,0c0,0.2,0,0.5,0,0.7c-0.1,0-0.2,0-0.3,0c0,0.2,0,0.5,0,0.7c-0.1,0-0.2,0-0.3,0
	c0,0.2,0,0.5,0,0.7c-0.1,0-0.2,0-0.3,0c0,0.2,0,0.5,0,0.7c-0.1,0-0.2,0-0.3,0c-0.1,0.5-0.2,1-0.3,1.4c-0.1,0-0.2,0-0.3,0
	c0,0.2,0,0.5,0,0.7c-0.1,0-0.2,0-0.3,0c0,0.2,0,0.5,0,0.7c-0.1,0-0.2,0-0.3,0c0,0.2,0,0.5,0,0.7c-0.1,0-0.2,0-0.3,0
	c0,0.2,0,0.5,0,0.7c-0.1,0-0.2,0-0.3,0c-0.1,0.5-0.2,1-0.3,1.4c-0.1,0-0.2,0-0.3,0c0,0.2,0,0.5,0,0.7c-0.1,0-0.2,0-0.3,0
	c0,0.4,0,0.7,0,1.1c-0.1,0-0.2,0-0.3,0c0,0.2,0,0.5,0,0.7c-0.1,0-0.2,0-0.3,0c-0.1,0.5-0.2,1-0.3,1.4c-0.1,0-0.2,0-0.3,0
	c0,0.4,0,0.7,0,1.1c-0.1,0-0.2,0-0.3,0c-0.1,0.5-0.2,1-0.3,1.4c-0.1,0-0.2,0-0.3,0c0,0.4,0,0.7,0,1.1c-0.1,0-0.2,0-0.3,0
	c0,0.2,0,0.5,0,0.7c-0.1,0-0.2,0-0.3,0c-0.1,0.6-0.2,1.2-0.3,1.8c-0.1,0-0.2,0-0.3,0c0,0.4,0,0.7,0,1.1c-0.1,0-0.2,0-0.3,0
	c0,0.2,0,0.5,0,0.7c-0.1,0-0.2,0-0.3,0c-0.1,0.7-0.2,1.4-0.3,2.1c-0.1,0-0.2,0-0.3,0c0,0.2,0,0.5,0,0.7c-0.1,0-0.2,0-0.3,0
	c0,0.4,0,0.7,0,1.1c-0.1,0-0.2,0-0.3,0c0,0.2,0,0.5,0,0.7c-0.1,0-0.2,0-0.3,0c0,0.2,0,0.5,0,0.7c-0.2,0.1-0.4,0.2-0.6,0.4
	c-0.1,0.5-0.2,1-0.3,1.4c-0.3,0.2-0.6,0.5-1,0.7c0,0.2,0,0.5,0,0.7c-0.2,0.1-0.4,0.2-0.6,0.4c0,0.1,0,0.2,0,0.4c-0.2,0-0.4,0-0.6,0
	c-0.2,0.4-0.4,0.7-0.6,1.1c-0.2,0-0.4,0-0.6,0c0,0.1,0,0.2,0,0.4c-0.2,0-0.4,0-0.6,0c0,0.1,0,0.2,0,0.4c-0.3,0-0.6,0-1,0
	c0,0.1,0,0.2,0,0.4c-0.5,0-1.1,0-1.6,0c0,0.1,0,0.2,0,0.4c-1,0-1.9,0-2.9,0c-2.8,0-6-0.1-8.4-0.4c-2.6,0-5.2,0-7.7,0
	c-3.3-1-8.6-0.4-12.6-0.4c-3.9,0.1-7.7,0.2-11.6,0.4c0,0.1,0,0.2,0,0.4c-1.3,0-2.6,0-3.9,0c0,0.1,0,0.2,0,0.4c-1,0-1.9,0-2.9,0
	c0,0.1,0,0.2,0,0.4c-2.9,0.4-5.8,0.7-8.7,1.1c-4.8,1.3-9.7,2.6-14.5,3.9c0,0.2,0,0.5,0,0.7c0.9,0.5,1.7,1,2.6,1.4c0,0.1,0,0.2,0,0.4
	c0.5,0.1,1.1,0.2,1.6,0.4c0,0.1,0,0.2,0,0.4c0.4,0.1,0.9,0.2,1.3,0.4c0,0.1,0,0.2,0,0.4c0.6,0.1,1.3,0.2,1.9,0.4c0,0.1,0,0.2,0,0.4
	c0.2,0,0.4,0,0.6,0c0,0.1,0,0.2,0,0.4c0.8,0.1,1.5,0.2,2.3,0.4c4.2,1.5,8.4,3.1,12.6,4.6c0,0.1,0,0.2,0,0.4c0.4,0.1,0.9,0.2,1.3,0.4
	c0,0.1,0,0.2,0,0.4c0.4,0.1,0.9,0.2,1.3,0.4c0.1,0.2,0.2,0.5,0.3,0.7c0.4,0.1,0.9,0.2,1.3,0.4c0.1,0.2,0.2,0.5,0.3,0.7
	c0.2,0,0.4,0,0.6,0c0.1,0.2,0.2,0.5,0.3,0.7c0.2,0,0.4,0,0.6,0c0,0.1,0,0.2,0,0.4c0.6,0.5,0.8,0.8,1.6,1.1c-0.4,0.4,0,0.1-0.6,0.4
	c-0.6,0.6-2.1,0.3-3.2,0.4c-1.9,0.1-3.9,0.2-5.8,0.4c0,0.1,0,0.2,0,0.4c-1.3,0-2.6,0-3.9,0c0,0.1,0,0.2,0,0.4c-1.1,0-2.1,0-3.2,0
	c0,0.1,0,0.2,0,0.4c-1.1,0-2.1,0-3.2,0c-2.1,0.7-5,0.8-7.1,1.4c-1.4,0.1-2.8,0.2-4.2,0.4c0,0.1,0,0.2,0,0.4c-0.5,0-1.1,0-1.6,0
	c0,0.1,0,0.2,0,0.4c-0.5,0-1.1,0-1.6,0c0,0.1,0,0.2,0,0.4c-0.5,0-1.1,0-1.6,0c0,0.1,0,0.2,0,0.4c-0.5,0-1.1,0-1.6,0
	c0,0.1,0,0.2,0,0.4c-0.4,0-0.9,0-1.3,0c0,0.1,0,0.2,0,0.4c-0.4,0-0.9,0-1.3,0c0,0.1,0,0.2,0,0.4c-0.9,0.1-1.7,0.2-2.6,0.4
	c0,0.1,0,0.2,0,0.4c-0.3,0-0.6,0-1,0c0,0.1,0,0.2,0,0.4c-0.3,0-0.6,0-1,0c0,0.1,0,0.2,0,0.4c-0.4,0-0.9,0-1.3,0c0,0.1,0,0.2,0,0.4
	c-0.3,0-0.6,0-1,0c0,0.1,0,0.2,0,0.4c-0.3,0-0.6,0-1,0c0,0.1,0,0.2,0,0.4c-0.3,0-0.6,0-1,0c0,0.1,0,0.2,0,0.4c-0.3,0-0.6,0-1,0
	c0,0.1,0,0.2,0,0.4c-0.2,0-0.4,0-0.6,0c0,0.1,0,0.2,0,0.4c-0.6,0.1-1.3,0.2-1.9,0.4c0,0.1,0,0.2,0,0.4c-0.2,0-0.4,0-0.6,0
	c0,0.1,0,0.2,0,0.4c-0.3,0-0.6,0-1,0c0,0.1,0,0.2,0,0.4c-0.2,0-0.4,0-0.6,0c0,0.1,0,0.2,0,0.4c-0.5,0.1-1.1,0.2-1.6,0.4
	c0,0.1,0,0.2,0,0.4c-0.6,0.2-1.3,0.5-1.9,0.7c0,0.1,0,0.2,0,0.4c-0.2,0-0.4,0-0.6,0c0,0.1,0,0.2,0,0.4c-0.2,0-0.4,0-0.6,0
	c0,0.1,0,0.2,0,0.4c-0.2,0-0.4,0-0.6,0c0,0.1,0,0.2,0,0.4c-0.2,0-0.4,0-0.6,0c0,0.1,0,0.2,0,0.4c-0.2,0-0.4,0-0.6,0
	c0,0.1,0,0.2,0,0.4c-0.2,0-0.4,0-0.6,0c-0.1,0.2-0.2,0.5-0.3,0.7c-0.6,0.2-1.3,0.5-1.9,0.7c0,0.1,0,0.2,0,0.4
	c-0.3,0.1-0.6,0.2-1,0.4c-0.1,0.2-0.2,0.5-0.3,0.7c-0.4,0.1-0.9,0.2-1.3,0.4c-0.1,0.2-0.2,0.5-0.3,0.7c-0.2,0-0.4,0-0.6,0
	c-0.2,0.4-0.4,0.7-0.6,1.1c-0.2,0-0.4,0-0.6,0c-0.1,0.2-0.2,0.5-0.3,0.7c-0.2,0-0.4,0-0.6,0c-0.2,0.4-0.4,0.7-0.6,1.1
	c-0.2,0-0.4,0-0.6,0c-0.3,0.5-0.6,1-1,1.4c-0.2,0-0.4,0-0.6,0c-0.4,0.6-0.9,1.2-1.3,1.8c-0.2,0-0.4,0-0.6,0
	c-1.2,1.4-2.4,2.9-3.5,4.3c-1.5,1.5-3,3.1-4.5,4.6c0,0.2,0,0.5,0,0.7c-0.5,0.5-1.1,1-1.6,1.4c0,0.2,0,0.5,0,0.7
	c-0.2,0.1-0.4,0.2-0.6,0.4c-0.4,0.7-0.9,1.4-1.3,2.1c0.6,0,1.3,0,1.9,0c0-0.1,0-0.2,0-0.4c0.6,0,1.3,0,1.9,0c0-0.1,0-0.2,0-0.4
	c0.5,0,1.1,0,1.6,0c0-0.1,0-0.2,0-0.4c0.4,0,0.9,0,1.3,0c0-0.1,0-0.2,0-0.4c0.4,0,0.9,0,1.3,0c0-0.1,0-0.2,0-0.4c0.4,0,0.9,0,1.3,0
	c3.1-1.2,6.8-2.1,10-3.2c1.5-0.1,3-0.2,4.5-0.4c0-0.1,0-0.2,0-0.4c1.6,0,3.2,0,4.8,0c1.3,0.4,3.2,0.8,4.5,1.1c0,0.1,0,0.2,0,0.4
	c-1.2,1.2-1.3,3.5-1.9,5.4c-0.1,0-0.2,0-0.3,0c0,0.4,0,0.7,0,1.1c-0.1,0-0.2,0-0.3,0c0,0.4,0,0.7,0,1.1c-1.8,5-3.2,10.9-3.2,17.9
	c0,2.5-0.2,5.9,0.3,7.9c0.1,1.4,0.2,2.9,0.3,4.3c0.6,2.5,1.3,5,1.9,7.5c0.1,0,0.2,0,0.3,0c0,0.2,0,0.5,0,0.7c0.1,0,0.2,0,0.3,0
	c0.1,0.6,0.2,1.2,0.3,1.8c0.1,0,0.2,0,0.3,0c0.2,0.7,0.4,1.4,0.6,2.1c0.1,0,0.2,0,0.3,0c0.2,0.7,0.4,1.4,0.6,2.1
	c0.2,0.1,0.4,0.2,0.6,0.4c0.1,0.5,0.2,1,0.3,1.4c0.3,0.2,0.6,0.5,1,0.7c0,0.2,0,0.5,0,0.7c0.3,0.2,0.6,0.5,1,0.7c0,0.2,0,0.5,0,0.7
	c0.8,0.7,1.5,1.4,2.3,2.1c1.1,1.3,2.1,2.6,3.2,3.9c0.2,0,0.4,0,0.6,0c0.2,0.4,0.4,0.7,0.6,1.1c0.3,0.1,0.6,0.2,1,0.4
	c0.1,0.2,0.2,0.5,0.3,0.7c0.2,0,0.4,0,0.6,0c0.1,0.2,0.2,0.5,0.3,0.7c0.3,0.1,0.6,0.2,1,0.4c0,0.1,0,0.2,0,0.4c0.2,0,0.4,0,0.6,0
	c0.1,0.2,0.2,0.5,0.3,0.7c0.4,0.1,0.9,0.2,1.3,0.4c0.1,0.2,0.2,0.5,0.3,0.7c0.4,0.1,0.9,0.2,1.3,0.4c0.1,0.2,0.2,0.5,0.3,0.7
	c0.2,0,0.4,0,0.6,0c0,0.1,0,0.2,0,0.4c0.2,0,0.4,0,0.6,0c0,0.1,0,0.2,0,0.4c0.2,0,0.4,0,0.6,0c0,0.1,0,0.2,0,0.4c0.2,0,0.4,0,0.6,0
	c0,0.1,0,0.2,0,0.4c0.2,0,0.4,0,0.6,0c0,0.1,0,0.2,0,0.4c0.2,0,0.4,0,0.6,0c0,0.1,0,0.2,0,0.4c0.2,0,0.4,0,0.6,0c0,0.1,0,0.2,0,0.4
	c0.2,0,0.4,0,0.6,0c0.1,0.2,0.2,0.5,0.3,0.7c0.6,0.2,1.3,0.5,1.9,0.7c0,0.1,0,0.2,0,0.4c0.3,0,0.6,0,1,0c0,0.1,0,0.2,0,0.4
	c0.6,0.2,1.3,0.5,1.9,0.7c0,0.1,0,0.2,0,0.4c0.2,0,0.4,0,0.6,0c0,0.1,0,0.2,0,0.4c0.2,0,0.4,0,0.6,0c0,0.1,0,0.2,0,0.4
	c0.2,0,0.4,0,0.6,0c0,0.1,0,0.2,0,0.4c0.2,0,0.4,0,0.6,0c0,0.1,0,0.2,0,0.4c0.2,0,0.4,0,0.6,0c0,0.1,0,0.2,0,0.4c0.2,0,0.4,0,0.6,0
	c0,0.1,0,0.2,0,0.4c0.2,0,0.4,0,0.6,0c0,0.1,0,0.2,0,0.4c0.2,0,0.4,0,0.6,0c0.1,0.2,0.2,0.5,0.3,0.7c0.4,0.1,0.9,0.2,1.3,0.4
	c0,0.1,0,0.2,0,0.4c0.4,0.1,0.9,0.2,1.3,0.4c0.8,0.5,1.2,1.1,2.3,1.4c0,0.1,0,0.2,0,0.4c-1.8,0.1-3.7,0.9-5.2,1.4
	c-1,0.1-1.9,0.2-2.9,0.4c0,0.1,0,0.2,0,0.4c-0.4,0-0.9,0-1.3,0c0,0.1,0,0.2,0,0.4c-0.4,0-0.9,0-1.3,0c0,0.1,0,0.2,0,0.4
	c-0.9,0.1-1.7,0.2-2.6,0.4c-1.4,0.6-3.4,1.2-4.8,1.8c-0.4,0-0.9,0-1.3,0c0,0.1,0,0.2,0,0.4c-1.5,0.4-3,0.7-4.5,1.1
	c0,0.1,0,0.2,0,0.4c-0.3,0-0.6,0-1,0c0,0.1,0,0.2,0,0.4c-1.1,0.2-2.1,0.5-3.2,0.7c0,0.1,0,0.2,0,0.4c-1.4,0.4-2.8,0.7-4.2,1.1
	c0,0.1,0,0.2,0,0.4c-0.8,0.1-1.5,0.2-2.3,0.4c0,0.1,0,0.2,0,0.4c-0.3,0-0.6,0-1,0c0,0.1,0,0.2,0,0.4c-0.3,0-0.6,0-1,0
	c0,0.1,0,0.2,0,0.4c-0.3,0-0.6,0-1,0c0,0.1,0,0.2,0,0.4c-0.3,0-0.6,0-1,0c0,0.1,0,0.2,0,0.4c-0.3,0-0.6,0-1,0c0,0.1,0,0.2,0,0.4
	c-0.6,0.1-1.3,0.2-1.9,0.4c0,0.1,0,0.2,0,0.4c-0.2,0-0.4,0-0.6,0c0,0.1,0,0.2,0,0.4c-1,0.2-1.9,0.5-2.9,0.7c0,0.1,0,0.2,0,0.4
	c-0.2,0-0.4,0-0.6,0c0,0.1,0,0.2,0,0.4c-1,0.2-1.9,0.5-2.9,0.7c0,0.1,0,0.2,0,0.4c-0.2,0-0.4,0-0.6,0c0,0.1,0,0.2,0,0.4
	c-0.3,0-0.6,0-1,0c0,0.1,0,0.2,0,0.4c-0.2,0-0.4,0-0.6,0c0,0.1,0,0.2,0,0.4c-0.5,0.1-1.1,0.2-1.6,0.4c0,0.1,0,0.2,0,0.4
	c-0.3,0-0.6,0-1,0c0,0.1,0,0.2,0,0.4c-0.2,0-0.4,0-0.6,0c0,0.1,0,0.2,0,0.4c-0.3,0-0.6,0-1,0c0,0.1,0,0.2,0,0.4c-0.2,0-0.4,0-0.6,0
	c0,0.1,0,0.2,0,0.4c-0.3,0-0.6,0-1,0c0,0.1,0,0.2,0,0.4c-0.4,0.1-0.9,0.2-1.3,0.4c0,0.1,0,0.2,0,0.4c-0.3,0-0.6,0-1,0
	c0,0.1,0,0.2,0,0.4c-0.4,0.1-0.9,0.2-1.3,0.4c0,0.1,0,0.2,0,0.4c-0.3,0-0.6,0-1,0c0,0.1,0,0.2,0,0.4c-0.2,0-0.4,0-0.6,0
	c0,0.1,0,0.2,0,0.4c-0.4,0.1-0.9,0.2-1.3,0.4c0,0.1,0,0.2,0,0.4c-0.3,0-0.6,0-1,0c0,0.1,0,0.2,0,0.4c-0.2,0-0.4,0-0.6,0
	c0,0.1,0,0.2,0,0.4c-0.2,0-0.4,0-0.6,0c0,0.1,0,0.2,0,0.4c-0.6,0.2-1.3,0.5-1.9,0.7c0,0.1,0,0.2,0,0.4c-0.3,0-0.6,0-1,0
	c0,0.1,0,0.2,0,0.4c-0.2,0-0.4,0-0.6,0c0,0.1,0,0.2,0,0.4c-0.2,0-0.4,0-0.6,0c0,0.1,0,0.2,0,0.4c-0.2,0-0.4,0-0.6,0
	c0,0.1,0,0.2,0,0.4c-0.2,0-0.4,0-0.6,0c0,0.1,0,0.2,0,0.4c-0.2,0-0.4,0-0.6,0c0,0.1,0,0.2,0,0.4c-0.2,0-0.4,0-0.6,0
	c0,0.1,0,0.2,0,0.4c-0.2,0-0.4,0-0.6,0c0,0.1,0,0.2,0,0.4c-0.2,0-0.4,0-0.6,0c0,0.1,0,0.2,0,0.4c-0.2,0-0.4,0-0.6,0
	c0,0.1,0,0.2,0,0.4c-0.2,0-0.4,0-0.6,0c0,0.1,0,0.2,0,0.4c-0.2,0-0.4,0-0.6,0c0,0.1,0,0.2,0,0.4c-0.2,0-0.4,0-0.6,0
	c-0.1,0.2-0.2,0.5-0.3,0.7c-0.4,0.1-0.9,0.2-1.3,0.4c0,0.1,0,0.2,0,0.4c-0.2,0-0.4,0-0.6,0c0,0.1,0,0.2,0,0.4c-0.2,0-0.4,0-0.6,0
	c0,0.1,0,0.2,0,0.4c-0.2,0-0.4,0-0.6,0c0,0.1,0,0.2,0,0.4c-0.2,0-0.4,0-0.6,0c-0.1,0.2-0.2,0.5-0.3,0.7c-0.6,0.2-1.3,0.5-1.9,0.7
	c-0.1,0.2-0.2,0.5-0.3,0.7c-0.6,0.2-1.3,0.5-1.9,0.7c-0.1,0.2-0.2,0.5-0.3,0.7c-0.2,0-0.4,0-0.6,0c0,0.1,0,0.2,0,0.4
	c-0.2,0-0.4,0-0.6,0c-0.1,0.2-0.2,0.5-0.3,0.7c-0.4,0.1-0.9,0.2-1.3,0.4c-0.1,0.2-0.2,0.5-0.3,0.7c-0.2,0-0.4,0-0.6,0
	c0,0.1,0,0.2,0,0.4c-0.2,0-0.4,0-0.6,0c-0.1,0.2-0.2,0.5-0.3,0.7c-0.2,0-0.4,0-0.6,0c-0.1,0.2-0.2,0.5-0.3,0.7c-0.2,0-0.4,0-0.6,0
	c-0.1,0.2-0.2,0.5-0.3,0.7c-0.4,0.1-0.9,0.2-1.3,0.4c0,0.1,0,0.2,0,0.4c-0.3,0.1-0.6,0.2-1,0.4c-0.1,0.2-0.2,0.5-0.3,0.7
	c-0.2,0-0.4,0-0.6,0c-0.1,0.2-0.2,0.5-0.3,0.7c-0.2,0-0.4,0-0.6,0c-0.2,0.4-0.4,0.7-0.6,1.1c-0.2,0-0.4,0-0.6,0c0,0.1,0,0.2,0,0.4
	c-0.3,0.1-0.6,0.2-1,0.4c-0.1,0.2-0.2,0.5-0.3,0.7c-0.2,0-0.4,0-0.6,0c-0.2,0.4-0.4,0.7-0.6,1.1c-0.2,0-0.4,0-0.6,0
	c-0.1,0.2-0.2,0.5-0.3,0.7c-0.2,0-0.4,0-0.6,0c-0.2,0.4-0.4,0.7-0.6,1.1c-0.2,0-0.4,0-0.6,0c-0.2,0.4-0.4,0.7-0.6,1.1
	c-0.2,0-0.4,0-0.6,0c-0.2,0.4-0.4,0.7-0.6,1.1c-0.2,0-0.4,0-0.6,0c-0.3,0.5-0.6,1-1,1.4c-0.3,0.1-0.6,0.2-1,0.4
	c-0.1,0.2-0.2,0.5-0.3,0.7c-0.2,0-0.4,0-0.6,0c-0.3,0.5-0.6,1-1,1.4c-0.2,0-0.4,0-0.6,0c-0.4,0.6-0.9,1.2-1.3,1.8
	c-0.2,0-0.4,0-0.6,0c-0.5,0.7-1.1,1.4-1.6,2.1c-0.2,0-0.4,0-0.6,0c-0.8,1-1.5,1.9-2.3,2.9c-0.2,0-0.4,0-0.6,0
	c-1.2,1.4-2.4,2.9-3.5,4.3c-0.1,0-0.2,0-0.3,0c-0.1,0.2-0.2,0.5-0.3,0.7c-0.2,0-0.4,0-0.6,0c-0.4,0.6-0.9,1.2-1.3,1.8
	c-1,1-1.9,1.9-2.9,2.9c0,0.2,0,0.5,0,0.7c-1.1,1.1-2.1,2.1-3.2,3.2c-0.3,0.5-0.6,1-1,1.4c-0.1,0-0.2,0-0.3,0c0,0.2,0,0.5,0,0.7
	c-0.9,0.8-1.7,1.7-2.6,2.5c0,0.2,0,0.5,0,0.7c-0.6,0.6-1.3,1.2-1.9,1.8c0,0.2,0,0.5,0,0.7c-0.2,0.1-0.4,0.2-0.6,0.4
	c0,0.1,0,0.2,0,0.4c-0.3,0.2-0.6,0.5-1,0.7c0,0.2,0,0.5,0,0.7c-0.4,0.4-0.9,0.7-1.3,1.1c0,0.2,0,0.5,0,0.7c-0.4,0.4-0.9,0.7-1.3,1.1
	c0,0.2,0,0.5,0,0.7c-0.3,0.2-0.6,0.5-1,0.7c0,0.2,0,0.5,0,0.7c-0.4,0.4-0.9,0.7-1.3,1.1c-0.6,0.9-0.7,1.9-1.6,2.5c0,0.1,0,0.2,0,0.4
	c0.2,0,0.4,0,0.6,0c0.7,0.8,5.2,1.7,7.1,1.1c4-1.3,8.5-4.6,13.5-2.5c0,0.2,0,0.5,0,0.7c-1.3,0.9-2.2,2.4-3.2,3.6
	c-1.1,1.1-2.1,2.1-3.2,3.2c0,0.2,0,0.5,0,0.7c-0.1,0-0.2,0-0.3,0c-0.2,0.4-0.4,0.7-0.6,1.1c-0.8,0.7-1.5,1.4-2.3,2.1
	c0,0.2,0,0.5,0,0.7c-0.8,0.7-1.5,1.4-2.3,2.1c0,0.2,0,0.5,0,0.7c-0.5,0.5-1.1,1-1.6,1.4c0,0.2,0,0.5,0,0.7c-0.5,0.5-1.1,1-1.6,1.4
	c0,0.2,0,0.5,0,0.7c-0.4,0.4-0.9,0.7-1.3,1.1c0,0.2,0,0.5,0,0.7c-0.3,0.2-0.6,0.5-1,0.7c0,0.2,0,0.5,0,0.7c-0.3,0.2-0.6,0.5-1,0.7
	c0,0.2,0,0.5,0,0.7c-0.3,0.2-0.6,0.5-1,0.7c0,0.2,0,0.5,0,0.7c-0.3,0.2-0.6,0.5-1,0.7c0,0.2,0,0.5,0,0.7c-0.1,0-0.2,0-0.3,0
	c-0.1,0.4-0.2,0.7-0.3,1.1c-0.2,0.1-0.4,0.2-0.6,0.4c0,0.2,0,0.5,0,0.7c-0.3,0.2-0.6,0.5-1,0.7c0,0.2,0,0.5,0,0.7
	c-0.2,0.1-0.4,0.2-0.6,0.4c-0.1,0.4-0.2,0.7-0.3,1.1c-0.1,0-0.2,0-0.3,0c-0.1,0.5-0.2,1-0.3,1.4c-0.1,0-0.2,0-0.3,0
	c-0.1,0.4-0.2,0.7-0.3,1.1c-0.2,0.1-0.4,0.2-0.6,0.4c-0.1,0.5-0.2,1-0.3,1.4c-0.2,0.1-0.4,0.2-0.6,0.4c-0.2,0.7-0.4,1.4-0.6,2.1
	c-0.2,0.1-0.4,0.2-0.6,0.4c0,0.2,0,0.5,0,0.7c-0.1,0-0.2,0-0.3,0c0,0.2,0,0.5,0,0.7c-0.1,0-0.2,0-0.3,0c0,0.2,0,0.5,0,0.7
	c-0.1,0-0.2,0-0.3,0c0,0.2,0,0.5,0,0.7c-0.2,0.1-0.4,0.2-0.6,0.4c-0.2,0.7-0.4,1.4-0.6,2.1c-0.1,0-0.2,0-0.3,0c0,0.2,0,0.5,0,0.7
	c-0.1,0-0.2,0-0.3,0c-0.2,0.7-0.4,1.4-0.6,2.1c-0.1,0-0.2,0-0.3,0c0,0.4,0,0.7,0,1.1c-0.1,0-0.2,0-0.3,0c0,0.2,0,0.5,0,0.7
	c-0.1,0-0.2,0-0.3,0c-0.2,0.7-0.4,1.4-0.6,2.1c-0.1,0-0.2,0-0.3,0c0,0.4,0,0.7,0,1.1c-0.1,0-0.2,0-0.3,0c0,0.2,0,0.5,0,0.7
	c-0.1,0-0.2,0-0.3,0c-0.1,0.6-0.2,1.2-0.3,1.8c-0.1,0-0.2,0-0.3,0c0,0.4,0,0.7,0,1.1c-0.1,0-0.2,0-0.3,0c0,0.2,0,0.5,0,0.7
	c-0.1,0-0.2,0-0.3,0c0,0.4,0,0.7,0,1.1c-0.1,0-0.2,0-0.3,0c0,0.4,0,0.7,0,1.1c-0.1,0-0.2,0-0.3,0c-0.6,1.3-0.8,2.4-2.3,2.9
	c-0.5,0.5-1.9,0.4-2.9,0.4c-0.7-0.8-2.3-1.4-3.2-2.1c-0.5-0.7-1.1-1.4-1.6-2.1c-1.2-1.2-2.4-2.4-3.5-3.6c0-0.2,0-0.5,0-0.7
	c-1.7-1.8-3.4-3.6-5.2-5.4c0-0.2,0-0.5,0-0.7c-1.1-1.1-2.1-2.1-3.2-3.2c0-0.2,0-0.5,0-0.7c-0.8-0.7-1.5-1.4-2.3-2.1
	c0-0.2,0-0.5,0-0.7c-0.6-0.6-1.3-1.2-1.9-1.8c0-0.2,0-0.5,0-0.7c-0.5-0.5-1.1-1-1.6-1.4c0-0.2,0-0.5,0-0.7c-0.5-0.5-1.1-1-1.6-1.4
	c0-0.2,0-0.5,0-0.7c-0.4-0.4-0.9-0.7-1.3-1.1c0-0.2,0-0.5,0-0.7c-0.4-0.4-0.9-0.7-1.3-1.1c0-0.2,0-0.5,0-0.7
	c-0.4-0.4-0.9-0.7-1.3-1.1c0-0.2,0-0.5,0-0.7c-0.3-0.2-0.6-0.5-1-0.7c0-0.2,0-0.5,0-0.7c-0.3-0.2-0.6-0.5-1-0.7c0-0.2,0-0.5,0-0.7
	c-0.3-0.2-0.6-0.5-1-0.7c0-0.2,0-0.5,0-0.7c-0.3-0.2-0.6-0.5-1-0.7c0-0.2,0-0.5,0-0.7c-0.3-0.2-0.6-0.5-1-0.7c0-0.2,0-0.5,0-0.7
	c-0.2-0.1-0.4-0.2-0.6-0.4c0-0.2,0-0.5,0-0.7c-0.3-0.2-0.6-0.5-1-0.7c0-0.2,0-0.5,0-0.7c-0.2-0.1-0.4-0.2-0.6-0.4
	c-0.1-0.4-0.2-0.7-0.3-1.1c-0.1,0-0.2,0-0.3,0c0-0.2,0-0.5,0-0.7c-0.2-0.1-0.4-0.2-0.6-0.4c0-0.2,0-0.5,0-0.7
	c-0.2-0.1-0.4-0.2-0.6-0.4c0-0.2,0-0.5,0-0.7c-0.2-0.1-0.4-0.2-0.6-0.4c0-0.2,0-0.5,0-0.7c-0.2-0.1-0.4-0.2-0.6-0.4
	c0-0.2,0-0.5,0-0.7c-0.2-0.1-0.4-0.2-0.6-0.4c0-0.2,0-0.5,0-0.7c-0.2-0.1-0.4-0.2-0.6-0.4c0-0.2,0-0.5,0-0.7
	c-0.2-0.1-0.4-0.2-0.6-0.4c-0.1-0.5-0.2-1-0.3-1.4c-0.2-0.1-0.4-0.2-0.6-0.4c-0.1-0.5-0.2-1-0.3-1.4c-0.2-0.1-0.4-0.2-0.6-0.4
	c-0.1-0.5-0.2-1-0.3-1.4c-0.2-0.1-0.4-0.2-0.6-0.4c-0.1-0.5-0.2-1-0.3-1.4c-0.2-0.1-0.4-0.2-0.6-0.4c0-0.2,0-0.5,0-0.7
	c-0.1,0-0.2,0-0.3,0c0-0.2,0-0.5,0-0.7c-0.1,0-0.2,0-0.3,0c0-0.2,0-0.5,0-0.7c-0.1,0-0.2,0-0.3,0c0-0.2,0-0.5,0-0.7
	c-0.2-0.1-0.4-0.2-0.6-0.4c0-0.2,0-0.5,0-0.7c-0.1,0-0.2,0-0.3,0c0-0.2,0-0.5,0-0.7c-0.1,0-0.2,0-0.3,0c0-0.2,0-0.5,0-0.7
	c-0.1,0-0.2,0-0.3,0c0-0.2,0-0.5,0-0.7c-0.1,0-0.2,0-0.3,0c-0.1-0.5-0.2-1-0.3-1.4c-0.2-0.1-0.4-0.2-0.6-0.4c-0.1-0.5-0.2-1-0.3-1.4
	c-0.1,0-0.2,0-0.3,0c0-0.2,0-0.5,0-0.7c-0.1,0-0.2,0-0.3,0c-0.2-0.7-0.4-1.4-0.6-2.1c-0.1,0-0.2,0-0.3,0c0-0.4,0-0.7,0-1.1
	c-0.1,0-0.2,0-0.3,0c0-0.2,0-0.5,0-0.7c-0.1,0-0.2,0-0.3,0c0-0.2,0-0.5,0-0.7c-0.1,0-0.2,0-0.3,0c-0.2-0.7-0.4-1.4-0.6-2.1
	c-0.1,0-0.2,0-0.3,0c0-0.4,0-0.7,0-1.1c-0.1,0-0.2,0-0.3,0c0-0.2,0-0.5,0-0.7c-0.1,0-0.2,0-0.3,0c0-0.2,0-0.5,0-0.7
	c-0.1,0-0.2,0-0.3,0c0-0.2,0-0.5,0-0.7c-0.1,0-0.2,0-0.3,0c0-0.4,0-0.7,0-1.1c-0.1,0-0.2,0-0.3,0c0-0.2,0-0.5,0-0.7
	c-0.1,0-0.2,0-0.3,0c0-0.4,0-0.7,0-1.1c-0.1,0-0.2,0-0.3,0c0-0.2,0-0.5,0-0.7c-0.1,0-0.2,0-0.3,0c-1.7-5.5-3.4-11-5.2-16.4
	c-0.1-1-0.2-1.9-0.3-2.9c-0.1,0-0.2,0-0.3,0c0-0.4,0-0.7,0-1.1c-0.1,0-0.2,0-0.3,0c0-0.5,0-1,0-1.4c-0.1,0-0.2,0-0.3,0
	c0-0.5,0-1,0-1.4c-0.1,0-0.2,0-0.3,0c0-0.5,0-1,0-1.4c-0.1,0-0.2,0-0.3,0c-0.1-1.1-0.2-2.1-0.3-3.2c-0.1,0-0.2,0-0.3,0
	c0-0.6,0-1.2,0-1.8c-0.1,0-0.2,0-0.3,0c-0.1-1.2-0.2-2.4-0.3-3.6c-0.5-1.7-1.1-4-1.6-5.7c0-0.6,0-1.2,0-1.8c-0.1,0-0.2,0-0.3,0
	c-0.1-1.2-0.2-2.4-0.3-3.6c-0.5-1.6-0.8-4-1.3-5.7c0-0.8,0-1.7,0-2.5c-0.1,0-0.2,0-0.3,0c0-0.8,0-1.7,0-2.5c-0.1,0-0.2,0-0.3,0
	c0-1.1,0-2.1,0-3.2c-0.1,0-0.2,0-0.3,0c-0.2-4.6-0.4-9.3-0.6-13.9c0.1-5.5,0.2-11,0.3-16.4c0.1,0,0.2,0,0.3,0c0-1.2,0-2.4,0-3.6
	c0.1,0,0.2,0,0.3,0c0-1.1,0-2.1,0-3.2c0.1,0,0.2,0,0.3,0c0-0.8,0-1.7,0-2.5c0.9-4.8,1.7-9.5,2.6-14.3c-1.1-0.1-2.1-0.2-3.2-0.4
	c0,0.1,0,0.2,0,0.4c-1.1,0.1-2.1,0.2-3.2,0.4c0,0.1,0,0.2,0,0.4c-0.3,0-0.6,0-1,0c0,0.1,0,0.2,0,0.4c-0.3,0-0.6,0-1,0
	c0,0.1,0,0.2,0,0.4c-0.3,0-0.6,0-1,0c0,0.1,0,0.2,0,0.4c-0.3,0-0.6,0-1,0c0,0.1,0,0.2,0,0.4c-0.4,0.1-0.9,0.2-1.3,0.4
	c0,0.1,0,0.2,0,0.4c-0.3,0-0.6,0-1,0c0,0.1,0,0.2,0,0.4c-0.2,0-0.4,0-0.6,0c0,0.1,0,0.2,0,0.4c-0.5,0.1-1.1,0.2-1.6,0.4
	c0,0.1,0,0.2,0,0.4c-0.3,0-0.6,0-1,0c0,0.1,0,0.2,0,0.4c-0.2,0-0.4,0-0.6,0c0,0.1,0,0.2,0,0.4c-0.6,0.1-1.3,0.2-1.9,0.4
	c-0.8,0.3-3.1,1.2-4.5,0.7c0-0.1,0-0.2,0-0.4c-0.5-0.1-1.1-0.2-1.6-0.4c-0.3-0.5-0.6-1-1-1.4c-0.1,0-0.2,0-0.3,0c0-0.2,0-0.5,0-0.7
	c-0.2-0.1-0.4-0.2-0.6-0.4c-0.1-0.5-0.2-1-0.3-1.4c-0.1,0-0.2,0-0.3,0c0-0.5,0-1,0-1.4c-0.1,0-0.2,0-0.3,0c-0.4-1.6,0.6-6.5,1-7.5
	c0.1,0,0.2,0,0.3,0c0-0.2,0-0.5,0-0.7c0.1,0,0.2,0,0.3,0c0-0.2,0-0.5,0-0.7c0.1,0,0.2,0,0.3,0c0-0.2,0-0.5,0-0.7c0.1,0,0.2,0,0.3,0
	c0-0.2,0-0.5,0-0.7c0.1,0,0.2,0,0.3,0c0-0.2,0-0.5,0-0.7c0.2-0.1,0.4-0.2,0.6-0.4c0.2-0.7,0.4-1.4,0.6-2.1c0.2-0.1,0.4-0.2,0.6-0.4
	c0.1-0.5,0.2-1,0.3-1.4c0.2-0.1,0.4-0.2,0.6-0.4c0.1-0.5,0.2-1,0.3-1.4c0.2-0.1,0.4-0.2,0.6-0.4c0.2-0.7,0.4-1.4,0.6-2.1
	c0.2-0.1,0.4-0.2,0.6-0.4c0.3-1.1,0.6-2.1,1-3.2c0.1,0,0.2,0,0.3,0c0.2-0.7,0.4-1.4,0.6-2.1c0.1,0,0.2,0,0.3,0c0-0.2,0-0.5,0-0.7
	c0.1,0,0.2,0,0.3,0c0.8-1.9,1.5-3.8,2.3-5.7c0.2-0.1,0.4-0.2,0.6-0.4c0-0.2,0-0.5,0-0.7c0.1,0,0.2,0,0.3,0c0-0.2,0-0.5,0-0.7
	c0.1,0,0.2,0,0.3,0c0.2-0.7,0.4-1.4,0.6-2.1c0.2-0.1,0.4-0.2,0.6-0.4c0-0.2,0-0.5,0-0.7c0.1,0,0.2,0,0.3,0c0-0.2,0-0.5,0-0.7
	c0.1,0,0.2,0,0.3,0c0-0.2,0-0.5,0-0.7c0.1,0,0.2,0,0.3,0c0-0.2,0-0.5,0-0.7c0.2-0.1,0.4-0.2,0.6-0.4c0.2-0.7,0.4-1.4,0.6-2.1
	c0.2-0.1,0.4-0.2,0.6-0.4c0.1-0.5,0.2-1,0.3-1.4c0.2-0.1,0.4-0.2,0.6-0.4c0.2-0.7,0.4-1.4,0.6-2.1c0.1,0,0.2,0,0.3,0
	c0.1-0.4,0.2-0.7,0.3-1.1c0.2-0.1,0.4-0.2,0.6-0.4c0-0.2,0-0.5,0-0.7c0.1,0,0.2,0,0.3,0c0-0.2,0-0.5,0-0.7c0.2-0.1,0.4-0.2,0.6-0.4
	c0.1-0.5,0.2-1,0.3-1.4c0.2-0.1,0.4-0.2,0.6-0.4c0-0.2,0-0.5,0-0.7c0.2-0.1,0.4-0.2,0.6-0.4c0-0.2,0-0.5,0-0.7
	c0.2-0.1,0.4-0.2,0.6-0.4c0-0.2,0-0.5,0-0.7c0.2-0.1,0.4-0.2,0.6-0.4c0.1-0.5,0.2-1,0.3-1.4c0.2-0.1,0.4-0.2,0.6-0.4
	c0-0.2,0-0.5,0-0.7c0.2-0.1,0.4-0.2,0.6-0.4c0-0.2,0-0.5,0-0.7c0.3-0.2,0.6-0.5,1-0.7c0-0.2,0-0.5,0-0.7c0.2-0.1,0.4-0.2,0.6-0.4
	c0-0.2,0-0.5,0-0.7c0.1,0,0.2,0,0.3,0c0.1-0.4,0.2-0.7,0.3-1.1c0.2-0.1,0.4-0.2,0.6-0.4c0-0.2,0-0.5,0-0.7c0.3-0.2,0.6-0.5,1-0.7
	c0-0.2,0-0.5,0-0.7c0.2-0.1,0.4-0.2,0.6-0.4c0-0.2,0-0.5,0-0.7c0.3-0.2,0.6-0.5,1-0.7c0-0.2,0-0.5,0-0.7c0.3-0.2,0.6-0.5,1-0.7
	c0-0.2,0-0.5,0-0.7c0.3-0.2,0.6-0.5,1-0.7c0-0.2,0-0.5,0-0.7c0.4-0.4,0.9-0.7,1.3-1.1c0.1-0.4,0.2-0.7,0.3-1.1
	c0.2-0.1,0.4-0.2,0.6-0.4c0-0.2,0-0.5,0-0.7c0.4-0.4,0.9-0.7,1.3-1.1c0-0.2,0-0.5,0-0.7c0.3-0.2,0.6-0.5,1-0.7c0-0.1,0-0.2,0-0.4
	c0.2-0.1,0.4-0.2,0.6-0.4c0-0.2,0-0.5,0-0.7c0.6-0.6,1.3-1.2,1.9-1.8c0-0.2,0-0.5,0-0.7c0.8-0.7,1.5-1.4,2.3-2.1c0-0.2,0-0.5,0-0.7
	c1.3-1.3,2.6-2.6,3.9-3.9c0-0.2,0-0.5,0-0.7c0.5-0.5,1.1-1,1.6-1.4c1-1.2,1.9-2.4,2.9-3.6c0.2,0,0.4,0,0.6,0
	c1.1-1.3,2.1-2.6,3.2-3.9c0.6-0.6,1.4-0.8,1.9-1.4c0.3-0.5,0.6-1,1-1.4c0.2,0,0.4,0,0.6,0c0.1-0.2,0.2-0.5,0.3-0.7
	c0.3-0.2,0.6-0.5,1-0.7c0-0.1,0-0.2,0-0.4c0.2,0,0.4,0,0.6,0c0.4-0.6,0.9-1.2,1.3-1.8c0.2,0,0.4,0,0.6,0c0.3-0.5,0.6-1,1-1.4
	c0.2,0,0.4,0,0.6,0c0.2-0.4,0.4-0.7,0.6-1.1c0.2,0,0.4,0,0.6,0c0.2-0.4,0.4-0.7,0.6-1.1c0.2,0,0.4,0,0.6,0c0.2-0.4,0.4-0.7,0.6-1.1
	c0.2,0,0.4,0,0.6,0c0.1-0.2,0.2-0.5,0.3-0.7c0.2,0,0.4,0,0.6,0c0.2-0.4,0.4-0.7,0.6-1.1c0.2,0,0.4,0,0.6,0c0.1-0.2,0.2-0.5,0.3-0.7
	c0.3-0.1,0.6-0.2,1-0.4c0-0.1,0-0.2,0-0.4c0.2,0,0.4,0,0.6,0c0.1-0.2,0.2-0.5,0.3-0.7c0.2,0,0.4,0,0.6,0c0.1-0.2,0.2-0.5,0.3-0.7
	c0.2,0,0.4,0,0.6,0c0.1-0.2,0.2-0.5,0.3-0.7c0.2,0,0.4,0,0.6,0c0.1-0.2,0.2-0.5,0.3-0.7c0.5-0.1,1.1-0.2,1.6-0.4
	c0.1-0.2,0.2-0.5,0.3-0.7c0.2,0,0.4,0,0.6,0c0.2-0.4,0.4-0.7,0.6-1.1c0.2,0,0.4,0,0.6,0c0.5-0.7,1.1-1.4,1.6-2.1
	c0.8-0.8,1.2-0.2,1.6-1.8c-1.2-0.1-2-0.7-2.9-1.1c-0.4,0-0.9,0-1.3,0c0-0.1,0-0.2,0-0.4c-1.4-0.1-2.8-0.2-4.2-0.4c0-0.1,0-0.2,0-0.4
	c-1.2,0-2.4,0-3.5,0c0,0.1,0,0.2,0,0.4c-1.2,0-2.4,0-3.5,0c-1.2,0.4-2.6,0.7-4.2,0.7c0-0.1,0-0.2,0-0.4c0.1,0,0.2,0,0.3,0
	c0.3-0.5,0.6-1,1-1.4c0.2,0,0.4,0,0.6,0c0.6-0.8,1.3-1.7,1.9-2.5c0.2,0,0.4,0,0.6,0c0.4-0.6,0.9-1.2,1.3-1.8c0.2,0,0.4,0,0.6,0
	c0.4-0.6,0.9-1.2,1.3-1.8c0.2,0,0.4,0,0.6,0c0.3-0.5,0.6-1,1-1.4c0.2,0,0.4,0,0.6,0c0.3-0.5,0.6-1,1-1.4c0.2,0,0.4,0,0.6,0
	c0.3-0.5,0.6-1,1-1.4c0.2,0,0.4,0,0.6,0c0.2-0.4,0.4-0.7,0.6-1.1c0.2,0,0.4,0,0.6,0c0.2-0.4,0.4-0.7,0.6-1.1c0.2,0,0.4,0,0.6,0
	c0.2-0.4,0.4-0.7,0.6-1.1c0.2,0,0.4,0,0.6,0c0.1-0.2,0.2-0.5,0.3-0.7c0.2,0,0.4,0,0.6,0c0.2-0.4,0.4-0.7,0.6-1.1c0.2,0,0.4,0,0.6,0
	c0.1-0.2,0.2-0.5,0.3-0.7c0.2,0,0.4,0,0.6,0c0.1-0.2,0.2-0.5,0.3-0.7c0.2,0,0.4,0,0.6,0c0.2-0.4,0.4-0.7,0.6-1.1c0.2,0,0.4,0,0.6,0
	c0.1-0.2,0.2-0.5,0.3-0.7c0.2,0,0.4,0,0.6,0c0.1-0.2,0.2-0.5,0.3-0.7c0.2,0,0.4,0,0.6,0c0.1-0.2,0.2-0.5,0.3-0.7c0.2,0,0.4,0,0.6,0
	c0.1-0.2,0.2-0.5,0.3-0.7c0.4-0.1,0.9-0.2,1.3-0.4c0.1-0.2,0.2-0.5,0.3-0.7c0.2,0,0.4,0,0.6,0c0.1-0.2,0.2-0.5,0.3-0.7
	c0.2,0,0.4,0,0.6,0c0.1-0.2,0.2-0.5,0.3-0.7c0.4-0.1,0.9-0.2,1.3-0.4c0.1-0.2,0.2-0.5,0.3-0.7c0.4-0.1,0.9-0.2,1.3-0.4
	c0.1-0.2,0.2-0.5,0.3-0.7c0.4-0.1,0.9-0.2,1.3-0.4c0.1-0.2,0.2-0.5,0.3-0.7c0.4-0.1,0.9-0.2,1.3-0.4c0.1-0.2,0.2-0.5,0.3-0.7
	c0.6-0.2,1.3-0.5,1.9-0.7c0.1-0.2,0.2-0.5,0.3-0.7c0.2,0,0.4,0,0.6,0c0-0.1,0-0.2,0-0.4c0.2,0,0.4,0,0.6,0c0-0.1,0-0.2,0-0.4
	c0.2,0,0.4,0,0.6,0c0-0.1,0-0.2,0-0.4c0.2,0,0.4,0,0.6,0c0.1-0.2,0.2-0.5,0.3-0.7c0.6-0.2,1.3-0.5,1.9-0.7c0-0.1,0-0.2,0-0.4
	c0.4-0.1,0.9-0.2,1.3-0.4c0-0.1,0-0.2,0-0.4c0.4-0.1,0.9-0.2,1.3-0.4c0-0.1,0-0.2,0-0.4c0.2,0,0.4,0,0.6,0c0-0.1,0-0.2,0-0.4
	c0.2,0,0.4,0,0.6,0c0-0.1,0-0.2,0-0.4c0.2,0,0.4,0,0.6,0c0-0.1,0-0.2,0-0.4c0.2,0,0.4,0,0.6,0c0-0.1,0-0.2,0-0.4c0.2,0,0.4,0,0.6,0
	c0-0.1,0-0.2,0-0.4c0.6-0.2,1.3-0.5,1.9-0.7c0-0.1,0-0.2,0-0.4c0.2,0,0.4,0,0.6,0c0-0.1,0-0.2,0-0.4c0.2,0,0.4,0,0.6,0
	c0-0.1,0-0.2,0-0.4c0.2,0,0.4,0,0.6,0c0-0.1,0-0.2,0-0.4c0.2,0,0.4,0,0.6,0c0-0.1,0-0.2,0-0.4c0.6-0.2,1.3-0.5,1.9-0.7
	c0-0.1,0-0.2,0-0.4c0.3,0,0.6,0,1,0c0-0.1,0-0.2,0-0.4c0.2,0,0.4,0,0.6,0c0-0.1,0-0.2,0-0.4c0.6-0.2,1.3-0.5,1.9-0.7
	c0-0.1,0-0.2,0-0.4c0.3,0,0.6,0,1,0c0-0.1,0-0.2,0-0.4c0.4-0.1,0.9-0.2,1.3-0.4c0-0.1,0-0.2,0-0.4c0.3,0,0.6,0,1,0
	c0-0.1,0-0.2,0-0.4c0.4-0.1,0.9-0.2,1.3-0.4c0-0.1,0-0.2,0-0.4c0.3,0,0.6,0,1,0c0-0.1,0-0.2,0-0.4c0.2,0,0.4,0,0.6,0
	c0-0.1,0-0.2,0-0.4c0.3,0,0.6,0,1,0c0-0.1,0-0.2,0-0.4c0.4-0.1,0.9-0.2,1.3-0.4c0-0.1,0-0.2,0-0.4c0.3,0,0.6,0,1,0
	c0-0.1,0-0.2,0-0.4c0.2,0,0.4,0,0.6,0c0-0.1,0-0.2,0-0.4c0.6-0.1,1.3-0.2,1.9-0.4c0-0.1,0-0.2,0-0.4c0.2,0,0.4,0,0.6,0
	c0-0.1,0-0.2,0-0.4c0.5-0.1,1.1-0.2,1.6-0.4c0-0.1,0-0.2,0-0.4c0.6-0.1,1.3-0.2,1.9-0.4c0-0.1,0-0.2,0-0.4c0.2,0,0.4,0,0.6,0
	c0-0.1,0-0.2,0-0.4c1-0.2,1.9-0.5,2.9-0.7c0-0.1,0-0.2,0-0.4c0.2,0,0.4,0,0.6,0c0-0.1,0-0.2,0-0.4c1-0.2,1.9-0.5,2.9-0.7
	c0-0.1,0-0.2,0-0.4c0.3,0,0.6,0,1,0c0-0.1,0-0.2,0-0.4c0.3,0,0.6,0,1,0c0-0.1,0-0.2,0-0.4c0.3,0,0.6,0,1,0c0-0.1,0-0.2,0-0.4
	c0.3,0,0.6,0,1,0c0-0.1,0-0.2,0-0.4c0.3,0,0.6,0,1,0c0-0.1,0-0.2,0-0.4c0.6-0.1,1.3-0.2,1.9-0.4c0-0.1,0-0.2,0-0.4
	c0.6-0.1,1.3-0.2,1.9-0.4c0-0.1,0-0.2,0-0.4c0.4,0,0.9,0,1.3,0c0-0.1,0-0.2,0-0.4c0.3,0,0.6,0,1,0c0-0.1,0-0.2,0-0.4
	c0.3,0,0.6,0,1,0c0-0.1,0-0.2,0-0.4c0.4,0,0.9,0,1.3,0c0-0.1,0-0.2,0-0.4c0.3,0,0.6,0,1,0c0-0.1,0-0.2,0-0.4
	c1.1-0.2,2.1-0.5,3.2-0.7c0-0.1,0-0.2,0-0.4c0.3,0,0.6,0,1,0c0-0.1,0-0.2,0-0.4c0.3,0,0.6,0,1,0c0-0.1,0-0.2,0-0.4c0.3,0,0.6,0,1,0
	c0-0.1,0-0.2,0-0.4c0.6-0.1,1.3-0.2,1.9-0.4c0-0.1,0-0.2,0-0.4c1.1-0.2,2.1-0.5,3.2-0.7c0-0.1,0-0.2,0-0.4c0.2,0,0.4,0,0.6,0
	c0-0.1,0-0.2,0-0.4c0.3,0,0.6,0,1,0c0-0.1,0-0.2,0-0.4c0.3,0,0.6,0,1,0c0-0.1,0-0.2,0-0.4c0.3,0,0.6,0,1,0c0-0.1,0-0.2,0-0.4
	c0.3,0,0.6,0,1,0c0-0.1,0-0.2,0-0.4c0.3,0,0.6,0,1,0c0-0.1,0-0.2,0-0.4c0.2,0,0.4,0,0.6,0c0-0.1,0-0.2,0-0.4c0.3,0,0.6,0,1,0
	c0-0.1,0-0.2,0-0.4c0.2,0,0.4,0,0.6,0c0-0.1,0-0.2,0-0.4c0.5-0.1,1.1-0.2,1.6-0.4c0-0.1,0-0.2,0-0.4c0.3,0,0.6,0,1,0
	c0-0.1,0-0.2,0-0.4c0.2,0,0.4,0,0.6,0c0-0.1,0-0.2,0-0.4c0.3,0,0.6,0,1,0c0-0.1,0-0.2,0-0.4c0.6-0.2,1.3-0.5,1.9-0.7
	c0-0.1,0-0.2,0-0.4c0.2,0,0.4,0,0.6,0c0-0.1,0-0.2,0-0.4c0.3,0,0.6,0,1,0c0-0.1,0-0.2,0-0.4c0.6-0.2,1.3-0.5,1.9-0.7
	c0-0.1,0-0.2,0-0.4c0.2,0,0.4,0,0.6,0c0-0.1,0-0.2,0-0.4c0.4-0.1,0.9-0.2,1.3-0.4c0.1-0.2,0.2-0.5,0.3-0.7c0.6-0.2,1.3-0.5,1.9-0.7
	c0.1-0.2,0.2-0.5,0.3-0.7c0.4-0.1,0.9-0.2,1.3-0.4c0.1-0.2,0.2-0.5,0.3-0.7c0.4-0.1,0.9-0.2,1.3-0.4c0-0.1,0-0.2,0-0.4
	c0.3-0.1,0.6-0.2,1-0.4c0.1-0.2,0.2-0.5,0.3-0.7c0.2,0,0.4,0,0.6,0c0.2-0.4,0.4-0.7,0.6-1.1c0.2,0,0.4,0,0.6,0
	c0.1-0.2,0.2-0.5,0.3-0.7c0.3-0.1,0.6-0.2,1-0.4c0.3-0.5,0.6-1,1-1.4c0.2,0,0.4,0,0.6,0c0.5-0.7,1.1-1.4,1.6-2.1c0.2,0,0.4,0,0.6,0
	c0.9-1.1,1.7-2.1,2.6-3.2c0.4-0.4,0.9-0.7,1.3-1.1c0-0.2,0-0.5,0-0.7c0.6-0.6,1.3-1.2,1.9-1.8c0-0.2,0-0.5,0-0.7
	c0.4-0.4,0.9-0.7,1.3-1.1c0-0.2,0-0.5,0-0.7c0.3-0.2,0.6-0.5,1-0.7c0-0.2,0-0.5,0-0.7c0.2-0.1,0.4-0.2,0.6-0.4
	c0.1-0.4,0.2-0.7,0.3-1.1c0.1,0,0.2,0,0.3,0c0-0.2,0-0.5,0-0.7c0.2-0.1,0.4-0.2,0.6-0.4c0.1-0.4,0.2-0.7,0.3-1.1c0.1,0,0.2,0,0.3,0
	c0.1-0.5,0.2-1,0.3-1.4c0.2-0.1,0.4-0.2,0.6-0.4c0-0.2,0-0.5,0-0.7c0.1,0,0.2,0,0.3,0c0-0.2,0-0.5,0-0.7c0.1,0,0.2,0,0.3,0
	c0-0.2,0-0.5,0-0.7c0.1,0,0.2,0,0.3,0c0-0.2,0-0.5,0-0.7c0.2-0.1,0.4-0.2,0.6-0.4c0-0.2,0-0.5,0-0.7c0.1,0,0.2,0,0.3,0
	c0-0.2,0-0.5,0-0.7c0.1,0,0.2,0,0.3,0c0-0.4,0-0.7,0-1.1c0.1,0,0.2,0,0.3,0c0-0.2,0-0.5,0-0.7c0.1,0,0.2,0,0.3,0
	c0.2-0.7,0.4-1.4,0.6-2.1c0.1,0,0.2,0,0.3,0c0-0.4,0-0.7,0-1.1c0.1,0,0.2,0,0.3,0c0-0.2,0-0.5,0-0.7c0.1,0,0.2,0,0.3,0
	c0-0.4,0-0.7,0-1.1c0.1,0,0.2,0,0.3,0c0.1-0.5,0.2-1,0.3-1.4c0.1,0,0.2,0,0.3,0c0-0.2,0-0.5,0-0.7c0.2-0.1,0.4-0.2,0.6-0.4
	c0.1-0.5,0.2-1,0.3-1.4c0.2-0.1,0.4-0.2,0.6-0.4c0.1-0.5,0.2-1,0.3-1.4c0.3-0.2,0.6-0.5,1-0.7c0-0.2,0-0.5,0-0.7
	c0.2-0.1,0.4-0.2,0.6-0.4c0-0.2,0-0.5,0-0.7c0.4-0.4,0.9-0.7,1.3-1.1c0-0.2,0-0.5,0-0.7c0.6-0.6,1.3-1.2,1.9-1.8
	c0.1-0.4,0.2-0.7,0.3-1.1c1.2-1.2,2.4-2.4,3.5-3.6c0.4-0.6,0.9-1.2,1.3-1.8c0.2,0,0.4,0,0.6,0c1-1.2,1.9-2.4,2.9-3.6
	c0.2,0,0.4,0,0.6,0c0.6-0.8,1.3-1.7,1.9-2.5c0.2,0,0.4,0,0.6,0c0.6-0.8,1.3-1.7,1.9-2.5c0.2,0,0.4,0,0.6,0c0.6-0.8,1.3-1.7,1.9-2.5
	c0.2,0,0.4,0,0.6,0c0.9-1.1,1.7-2.1,2.6-3.2c0.2,0,0.4,0,0.6,0c0.4-0.6,0.9-1.2,1.3-1.8c0.9-0.8,1.7-1.7,2.6-2.5c0-0.2,0-0.5,0-0.7
	c0.2-0.1,0.4-0.2,0.6-0.4c0-0.1,0-0.2,0-0.4c0.5-0.5,1.1-1,1.6-1.4c0-0.2,0-0.5,0-0.7c0.5-0.5,1.1-1,1.6-1.4c0-0.2,0-0.5,0-0.7
	c0.5-0.5,1.1-1,1.6-1.4c0-0.2,0-0.5,0-0.7c0.4-0.4,0.9-0.7,1.3-1.1c0-0.2,0-0.5,0-0.7c0.4-0.4,0.9-0.7,1.3-1.1c0-0.2,0-0.5,0-0.7
	c0.4-0.4,0.9-0.7,1.3-1.1c0-0.2,0-0.5,0-0.7c0.2-0.1,0.4-0.2,0.6-0.4c0.1-0.4,0.2-0.7,0.3-1.1c0.4-0.4,0.9-0.7,1.3-1.1
	c0-0.2,0-0.5,0-0.7c0.3-0.2,0.6-0.5,1-0.7c0.1-0.4,0.2-0.7,0.3-1.1c0.2-0.1,0.4-0.2,0.6-0.4c0-0.2,0-0.5,0-0.7
	c0.2-0.1,0.4-0.2,0.6-0.4c0-0.2,0-0.5,0-0.7c0.3-0.2,0.6-0.5,1-0.7c0-0.2,0-0.5,0-0.7c0.2-0.1,0.4-0.2,0.6-0.4c0-0.2,0-0.5,0-0.7
	c0.3-0.2,0.6-0.5,1-0.7c0-0.2,0-0.5,0-0.7c0.2-0.1,0.4-0.2,0.6-0.4c0.1-0.4,0.2-0.7,0.3-1.1c0.1,0,0.2,0,0.3,0c0-0.2,0-0.5,0-0.7
	c0.2-0.1,0.4-0.2,0.6-0.4c0-0.2,0-0.5,0-0.7c0.2-0.1,0.4-0.2,0.6-0.4c0-0.2,0-0.5,0-0.7c0.1,0,0.2,0,0.3,0c0.1-0.4,0.2-0.7,0.3-1.1
	c0.2-0.1,0.4-0.2,0.6-0.4c0-0.2,0-0.5,0-0.7c0.2-0.1,0.4-0.2,0.6-0.4c0.1-0.4,0.2-0.7,0.3-1.1c0.1,0,0.2,0,0.3,0
	c0.1-0.5,0.2-1,0.3-1.4c0.2-0.1,0.4-0.2,0.6-0.4c0.1-0.5,0.2-1,0.3-1.4c0.2-0.1,0.4-0.2,0.6-0.4c0.1-0.5,0.2-1,0.3-1.4
	c0.2-0.1,0.4-0.2,0.6-0.4c0.1-0.5,0.2-1,0.3-1.4c0.2-0.1,0.4-0.2,0.6-0.4c0-0.2,0-0.5,0-0.7c0.1,0,0.2,0,0.3,0c0-0.2,0-0.5,0-0.7
	c0.1,0,0.2,0,0.3,0c0-0.2,0-0.5,0-0.7c0.1,0,0.2,0,0.3,0c0-0.2,0-0.5,0-0.7c0.2-0.1,0.4-0.2,0.6-0.4c0-0.2,0-0.5,0-0.7
	c0.1,0,0.2,0,0.3,0c0-0.2,0-0.5,0-0.7c0.1,0,0.2,0,0.3,0c0-0.2,0-0.5,0-0.7c0.1,0,0.2,0,0.3,0c0-0.2,0-0.5,0-0.7c0.1,0,0.2,0,0.3,0
	c0-0.2,0-0.5,0-0.7c0.1,0,0.2,0,0.3,0c0-0.2,0-0.5,0-0.7c0.1,0,0.2,0,0.3,0c0-0.2,0-0.5,0-0.7c0.1,0,0.2,0,0.3,0c0-0.2,0-0.5,0-0.7
	c0.2-0.1,0.4-0.2,0.6-0.4c0.2-0.8,0.4-1.7,0.6-2.5c0.1,0,0.2,0,0.3,0c0-0.2,0-0.5,0-0.7c0.1,0,0.2,0,0.3,0c0-0.2,0-0.5,0-0.7
	c0.1,0,0.2,0,0.3,0c0-0.2,0-0.5,0-0.7c0.1,0,0.2,0,0.3,0c0.2-0.7,0.4-1.4,0.6-2.1c0.1,0,0.2,0,0.3,0c0-0.4,0-0.7,0-1.1
	c0.1,0,0.2,0,0.3,0c0.1-0.5,0.2-1,0.3-1.4c0.1,0,0.2,0,0.3,0c0-0.4,0-0.7,0-1.1c0.1,0,0.2,0,0.3,0c0.1-0.5,0.2-1,0.3-1.4
	c0.1,0,0.2,0,0.3,0c1.4-3.4,1-9.8,5.2-10c0.7-0.7,1.8-0.1,2.9,0c0.5,0.9,0.9,0.5,1.3,1.1c0,0.2,0,0.5,0,0.7c0.2,0.1,0.4,0.2,0.6,0.4
	c0,0.2,0,0.5,0,0.7c0.1,0,0.2,0,0.3,0c0,0.2,0,0.5,0,0.7c0.1,0,0.2,0,0.3,0c0,0.2,0,0.5,0,0.7c0.1,0,0.2,0,0.3,0c0,0.2,0,0.5,0,0.7
	c0.2,0.1,0.4,0.2,0.6,0.4c0,0.2,0,0.5,0,0.7c0.3,0.2,0.6,0.5,1,0.7c0,0.2,0,0.5,0,0.7c0.2,0.1,0.4,0.2,0.6,0.4
	c0.1,0.5,0.2,1,0.3,1.4c0.2,0.1,0.4,0.2,0.6,0.4c0.2,0.7,0.4,1.4,0.6,2.1c0.2,0.1,0.4,0.2,0.6,0.4c0,0.2,0,0.5,0,0.7
	c0.1,0,0.2,0,0.3,0c0,0.2,0,0.5,0,0.7c0.1,0,0.2,0,0.3,0c0,0.4,0,0.7,0,1.1c0.1,0,0.2,0,0.3,0c0.1,0.5,0.2,1,0.3,1.4
	c0.1,0,0.2,0,0.3,0c0.1,0.6,0.2,1.2,0.3,1.8c0.1,0,0.2,0,0.3,0c0.9,3.5,1.7,6.9,2.6,10.4c0.1,1.5,0.2,3.1,0.3,4.6c0.1,0,0.2,0,0.3,0
	c0,1.1,0,2.1,0,3.2c0.1,0,0.2,0,0.3,0c0.1,4.4,0.2,8.8,0.3,13.2c0,3.2-0.3,7.4,0.3,10c0,4.5,0,9.1,0,13.6c-0.1,0.6-0.6,2.5-0.3,3.6
	c0.1,0,0.2,0,0.3,0c0,0.4,0,0.7,0,1.1c0.1,0,0.2,0,0.3,0c0,0.2,0,0.5,0,0.7c0.1,0,0.2,0,0.3,0c0,0.2,0,0.5,0,0.7
	c0.2,0.1,0.4,0.2,0.6,0.4c0.7,1.1,0.6,1.8,1.9,2.1c0,0.1,0,0.2,0,0.4c0.1,0,0.2,0,0.3,0c0.1-0.4,0.2-0.7,0.3-1.1c0.1,0,0.2,0,0.3,0
	c0-0.2,0-0.5,0-0.7c0.2-0.1,0.4-0.2,0.6-0.4c0-0.2,0-0.5,0-0.7c0.2-0.1,0.4-0.2,0.6-0.4c0-0.2,0-0.5,0-0.7c0.2-0.1,0.4-0.2,0.6-0.4
	c0.1-0.5,0.2-1,0.3-1.4c0.1,0,0.2,0,0.3,0c0.1-0.4,0.2-0.7,0.3-1.1c0.2-0.1,0.4-0.2,0.6-0.4c0.1-0.5,0.2-1,0.3-1.4
	c0.2-0.1,0.4-0.2,0.6-0.4c0.1-0.5,0.2-1,0.3-1.4c0.2-0.1,0.4-0.2,0.6-0.4c0.2-0.7,0.4-1.4,0.6-2.1c0.2-0.1,0.4-0.2,0.6-0.4
	c0.2-0.7,0.4-1.4,0.6-2.1c0.2-0.1,0.4-0.2,0.6-0.4c0-0.2,0-0.5,0-0.7c0.1,0,0.2,0,0.3,0c0-0.2,0-0.5,0-0.7c0.1,0,0.2,0,0.3,0
	c0-0.2,0-0.5,0-0.7c0.1,0,0.2,0,0.3,0c0-0.2,0-0.5,0-0.7c0.1,0,0.2,0,0.3,0c0-0.2,0-0.5,0-0.7c0.1,0,0.2,0,0.3,0c0-0.2,0-0.5,0-0.7
	c0.1,0,0.2,0,0.3,0c0-0.2,0-0.5,0-0.7c0.1,0,0.2,0,0.3,0c0-0.2,0-0.5,0-0.7c0.2-0.1,0.4-0.2,0.6-0.4c0-0.2,0-0.5,0-0.7
	c0.1,0,0.2,0,0.3,0c0-0.2,0-0.5,0-0.7c0.1,0,0.2,0,0.3,0c0-0.4,0-0.7,0-1.1c0.1,0,0.2,0,0.3,0c0.1-0.5,0.2-1,0.3-1.4
	c0.1,0,0.2,0,0.3,0c0-0.2,0-0.5,0-0.7c0.1,0,0.2,0,0.3,0c0-0.2,0-0.5,0-0.7c0.1,0,0.2,0,0.3,0c0.2-0.7,0.4-1.4,0.6-2.1
	c0.1,0,0.2,0,0.3,0c0-0.4,0-0.7,0-1.1c0.1,0,0.2,0,0.3,0c0.1-0.5,0.2-1,0.3-1.4c0.1,0,0.2,0,0.3,0c0-0.4,0-0.7,0-1.1
	c0.1,0,0.2,0,0.3,0c0.1-0.5,0.2-1,0.3-1.4c0.1,0,0.2,0,0.3,0c0-0.4,0-0.7,0-1.1c0.1,0,0.2,0,0.3,0c0-0.2,0-0.5,0-0.7
	c0.1,0,0.2,0,0.3,0c0-0.4,0-0.7,0-1.1c0.1,0,0.2,0,0.3,0c0-0.2,0-0.5,0-0.7c0.1,0,0.2,0,0.3,0c0.1-0.7,0.2-1.4,0.3-2.1
	c0.1,0,0.2,0,0.3,0c0-0.2,0-0.5,0-0.7c0.1,0,0.2,0,0.3,0c0.2-1.1,0.4-2.1,0.6-3.2c0.1,0,0.2,0,0.3,0c0-0.4,0-0.7,0-1.1
	c0.1,0,0.2,0,0.3,0c0-0.4,0-0.7,0-1.1c0.1,0,0.2,0,0.3,0c0-0.4,0-0.7,0-1.1c0.1,0,0.2,0,0.3,0c0-0.4,0-0.7,0-1.1c0.1,0,0.2,0,0.3,0
	c0-0.4,0-0.7,0-1.1c0.1,0,0.2,0,0.3,0c0-0.4,0-0.7,0-1.1c0.1,0,0.2,0,0.3,0c0-0.5,0-1,0-1.4c0.1,0,0.2,0,0.3,0c0-0.4,0-0.7,0-1.1
	c0.1,0,0.2,0,0.3,0c0-0.5,0-1,0-1.4c0.1,0,0.2,0,0.3,0C335.7,23.4,336.6,19,337.4,14.6z"/>
<path class="st0" d="M238.6,158.3c1.1-0.2,1.6-0.8,2.3-1.4c0-0.1,0-0.2,0-0.4c0.3-0.1,0.6-0.2,1-0.4c0.2-0.4,0.4-0.7,0.6-1.1
	c0.2,0,0.4,0,0.6,0c0.3-0.5,0.6-1,1-1.4c0.2,0,0.4,0,0.6,0c0.3-0.5,0.6-1,1-1.4c0.2,0,0.4,0,0.6,0c0.3-0.5,0.6-1,1-1.4
	c0.2,0,0.4,0,0.6,0c0.2-0.4,0.4-0.7,0.6-1.1c0.2,0,0.4,0,0.6,0c0.2-0.4,0.4-0.7,0.6-1.1c0.2,0,0.4,0,0.6,0c0.1-0.2,0.2-0.5,0.3-0.7
	c0.2,0,0.4,0,0.6,0c0.2-0.4,0.4-0.7,0.6-1.1c0.2,0,0.4,0,0.6,0c0.1-0.2,0.2-0.5,0.3-0.7c0.2,0,0.4,0,0.6,0c0.1-0.2,0.2-0.5,0.3-0.7
	c0.2,0,0.4,0,0.6,0c0.1-0.2,0.2-0.5,0.3-0.7c0.2,0,0.4,0,0.6,0c0.1-0.2,0.2-0.5,0.3-0.7c0.4-0.1,0.9-0.2,1.3-0.4
	c0.1-0.2,0.2-0.5,0.3-0.7c0.4-0.1,0.9-0.2,1.3-0.4c0.1-0.2,0.2-0.5,0.3-0.7c0.2,0,0.4,0,0.6,0c0-0.1,0-0.2,0-0.4c0.2,0,0.4,0,0.6,0
	c0-0.1,0-0.2,0-0.4c0.2,0,0.4,0,0.6,0c0-0.1,0-0.2,0-0.4c0.2,0,0.4,0,0.6,0c0-0.1,0-0.2,0-0.4c0.2,0,0.4,0,0.6,0c0-0.1,0-0.2,0-0.4
	c0.2,0,0.4,0,0.6,0c0-0.1,0-0.2,0-0.4c0.2,0,0.4,0,0.6,0c0-0.1,0-0.2,0-0.4c0.6-0.2,1.3-0.5,1.9-0.7c0-0.1,0-0.2,0-0.4
	c0.3,0,0.6,0,1,0c0-0.1,0-0.2,0-0.4c0.2,0,0.4,0,0.6,0c0-0.1,0-0.2,0-0.4c0.6-0.1,1.3-0.2,1.9-0.4c0-0.1,0-0.2,0-0.4
	c3.2-0.8,6.4-1.7,9.7-2.5c0.5-1.4,1.1-2.9,1.6-4.3c0-0.4,0-0.7,0-1.1c0.1,0,0.2,0,0.3,0c0-0.4,0-0.7,0-1.1c0.1,0,0.2,0,0.3,0
	c0.1-1,0.2-1.9,0.3-2.9c0.7-2.2,1.3-5,1.9-7.1c0.2-1.5,0.4-3.1,0.6-4.6c1-3.6,1.6-8.1,2.6-11.8c0.1-1.4,0.2-2.9,0.3-4.3
	c0.8-2.9,0.8-7,1.6-10c0-1.1,0-2.1,0-3.2c0.5-1.8,0.6-4.5,0.6-6.8c0-1.3,0-2.6,0-3.9c0.1,0,0.2,0,0.3,0c0.4-1.6,0-8.5-0.3-9.6
	c0-2.1,0-4.3,0-6.4c-0.1,0-0.2,0-0.3,0c0-1.2,0-2.4,0-3.6c-0.1,0-0.2,0-0.3,0c0-1,0-1.9,0-2.9c-0.4-2.5-0.9-5-1.3-7.5
	c-0.4,0.3,0,0-0.3,0.4c-0.1,0-0.2,0-0.3,0c0,0.4,0,0.7,0,1.1c-0.1,0-0.2,0-0.3,0c0,0.2,0,0.5,0,0.7c-0.1,0-0.2,0-0.3,0
	c0,0.2,0,0.5,0,0.7c-0.1,0-0.2,0-0.3,0c-0.1,0.5-0.2,1-0.3,1.4c-0.1,0-0.2,0-0.3,0c-0.1,0.5-0.2,1-0.3,1.4c-0.1,0-0.2,0-0.3,0
	c0,0.2,0,0.5,0,0.7c-0.1,0-0.2,0-0.3,0c0,0.2,0,0.5,0,0.7c-0.1,0-0.2,0-0.3,0c0,0.2,0,0.5,0,0.7c-0.1,0-0.2,0-0.3,0
	c0,0.2,0,0.5,0,0.7c-0.1,0-0.2,0-0.3,0c0,0.2,0,0.5,0,0.7c-0.1,0-0.2,0-0.3,0c0,0.2,0,0.5,0,0.7c-0.1,0-0.2,0-0.3,0
	c0,0.2,0,0.5,0,0.7c-0.1,0-0.2,0-0.3,0c0,0.2,0,0.5,0,0.7c-0.2,0.1-0.4,0.2-0.6,0.4c0,0.2,0,0.5,0,0.7c-0.1,0-0.2,0-0.3,0
	c0,0.2,0,0.5,0,0.7c-0.1,0-0.2,0-0.3,0c0,0.2,0,0.5,0,0.7c-0.1,0-0.2,0-0.3,0c0,0.2,0,0.5,0,0.7c-0.2,0.1-0.4,0.2-0.6,0.4
	c-0.2,0.7-0.4,1.4-0.6,2.1c-0.2,0.1-0.4,0.2-0.6,0.4c-0.1,0.5-0.2,1-0.3,1.4c-0.2,0.1-0.4,0.2-0.6,0.4c-0.1,0.5-0.2,1-0.3,1.4
	c-0.2,0.1-0.4,0.2-0.6,0.4c-0.1,0.5-0.2,1-0.3,1.4c-0.1,0-0.2,0-0.3,0c-0.1,0.4-0.2,0.7-0.3,1.1c-0.2,0.1-0.4,0.2-0.6,0.4
	c-0.1,0.5-0.2,1-0.3,1.4c-0.2,0.1-0.4,0.2-0.6,0.4c0,0.2,0,0.5,0,0.7c-0.2,0.1-0.4,0.2-0.6,0.4c0,0.2,0,0.5,0,0.7
	c-0.2,0.1-0.4,0.2-0.6,0.4c-0.1,0.5-0.2,1-0.3,1.4c-0.1,0-0.2,0-0.3,0c-0.1,0.4-0.2,0.7-0.3,1.1c-0.2,0.1-0.4,0.2-0.6,0.4
	c0,0.2,0,0.5,0,0.7c-0.2,0.1-0.4,0.2-0.6,0.4c0,0.2,0,0.5,0,0.7c-0.2,0.1-0.4,0.2-0.6,0.4c-0.1,0.4-0.2,0.7-0.3,1.1
	c-0.1,0-0.2,0-0.3,0c-0.1,0.5-0.2,1-0.3,1.4c-0.2,0.1-0.4,0.2-0.6,0.4c0,0.2,0,0.5,0,0.7c-0.2,0.1-0.4,0.2-0.6,0.4
	c0,0.2,0,0.5,0,0.7c-0.2,0.1-0.4,0.2-0.6,0.4c0,0.2,0,0.5,0,0.7c-0.1,0-0.2,0-0.3,0c-0.1,0.4-0.2,0.7-0.3,1.1
	c-0.2,0.1-0.4,0.2-0.6,0.4c0,0.2,0,0.5,0,0.7c-0.2,0.1-0.4,0.2-0.6,0.4c-0.1,0.4-0.2,0.7-0.3,1.1c-0.1,0-0.2,0-0.3,0
	c-0.1,0.5-0.2,1-0.3,1.4c-0.2,0.1-0.4,0.2-0.6,0.4c0,0.2,0,0.5,0,0.7c-0.2,0.1-0.4,0.2-0.6,0.4c0,0.2,0,0.5,0,0.7
	c-0.2,0.1-0.4,0.2-0.6,0.4c0,0.2,0,0.5,0,0.7c-0.2,0.1-0.4,0.2-0.6,0.4c-0.1,0.5-0.2,1-0.3,1.4c-0.1,0-0.2,0-0.3,0
	c-0.1,0.4-0.2,0.7-0.3,1.1c-0.2,0.1-0.4,0.2-0.6,0.4c-0.1,0.5-0.2,1-0.3,1.4c-0.1,0-0.2,0-0.3,0c-0.1,0.4-0.2,0.7-0.3,1.1
	c-0.2,0.1-0.4,0.2-0.6,0.4c-0.1,0.5-0.2,1-0.3,1.4c-0.2,0.1-0.4,0.2-0.6,0.4c-0.1,0.5-0.2,1-0.3,1.4c-0.2,0.1-0.4,0.2-0.6,0.4
	c-0.1,0.5-0.2,1-0.3,1.4c-0.2,0.1-0.4,0.2-0.6,0.4c-0.1,0.5-0.2,1-0.3,1.4c-0.2,0.1-0.4,0.2-0.6,0.4c0,0.2,0,0.5,0,0.7
	c-0.1,0-0.2,0-0.3,0c0,0.2,0,0.5,0,0.7c-0.1,0-0.2,0-0.3,0c0,0.2,0,0.5,0,0.7c-0.1,0-0.2,0-0.3,0c0,0.2,0,0.5,0,0.7
	c-4.4,7.8-7.9,17-10.9,26.4c0,0.5,0,1,0,1.4c-0.1,0-0.2,0-0.3,0c0,0.4,0,0.7,0,1.1c-0.1,0-0.2,0-0.3,0c0,0.5,0,1,0,1.4
	c-0.1,0-0.2,0-0.3,0c0,0.5,0,1,0,1.4c-0.1,0-0.2,0-0.3,0c0,0.5,0,1,0,1.4c-0.1,0-0.2,0-0.3,0c0,0.5,0,1,0,1.4c-0.1,0-0.2,0-0.3,0
	c0,0.6,0,1.2,0,1.8c-0.1,0-0.2,0-0.3,0c0,0.6,0,1.2,0,1.8c-0.1,0-0.2,0-0.3,0c0,0.7,0,1.4,0,2.1c-0.1,0-0.2,0-0.3,0
	c0,0.8,0,1.7,0,2.5c-0.1,0-0.2,0-0.3,0C239,152.1,238.8,155.2,238.6,158.3z"/>
<path class="st0" d="M451.1,250.4c-1.7,0.2-3.4,0.9-4.8,1.4c-0.5,0-1.1,0-1.6,0c0,0.1,0,0.2,0,0.4c-0.6,0-1.3,0-1.9,0
	c0,0.1,0,0.2,0,0.4c-0.8,0-1.5,0-2.3,0c0,0.1,0,0.2,0,0.4c-1.6,0-3.2,0-4.8,0c-5,0-8.7-0.4-12.2-1.8c-0.4,0-0.9,0-1.3,0
	c0-0.1,0-0.2,0-0.4c-0.3,0-0.6,0-1,0c0-0.1,0-0.2,0-0.4c-0.3,0-0.6,0-1,0c0-0.1,0-0.2,0-0.4c-0.3,0-0.6,0-1,0c0-0.1,0-0.2,0-0.4
	c-0.2,0-0.4,0-0.6,0c0-0.1,0-0.2,0-0.4c-0.3,0-0.6,0-1,0c0-0.1,0-0.2,0-0.4c-0.6-0.2-1.3-0.5-1.9-0.7c0-0.1,0-0.2,0-0.4
	c-0.2,0-0.4,0-0.6,0c0-0.1,0-0.2,0-0.4c-0.2,0-0.4,0-0.6,0c0-0.1,0-0.2,0-0.4c-0.2,0-0.4,0-0.6,0c0-0.1,0-0.2,0-0.4
	c-0.2,0-0.4,0-0.6,0c0-0.1,0-0.2,0-0.4c-0.2,0-0.4,0-0.6,0c0-0.1,0-0.2,0-0.4c-0.2,0-0.4,0-0.6,0c-0.1-0.2-0.2-0.5-0.3-0.7
	c-0.4-0.1-0.9-0.2-1.3-0.4c-0.1-0.2-0.2-0.5-0.3-0.7c-0.2,0-0.4,0-0.6,0c-0.1-0.2-0.2-0.5-0.3-0.7c-0.2,0-0.4,0-0.6,0
	c-0.2-0.4-0.4-0.7-0.6-1.1c-0.2,0-0.4,0-0.6,0c-0.2-0.4-0.4-0.7-0.6-1.1c-0.2,0-0.4,0-0.6,0c-0.2-0.4-0.4-0.7-0.6-1.1
	c-0.2,0-0.4,0-0.6,0c-0.4-0.6-0.9-1.2-1.3-1.8c-0.2,0-0.4,0-0.6,0c-1-1.2-1.9-2.4-2.9-3.6c-1.4-1.4-2.8-2.9-4.2-4.3
	c0-0.2,0-0.5,0-0.7c-0.6-0.6-1.3-1.2-1.9-1.8c0-0.2,0-0.5,0-0.7c-0.4-0.4-0.9-0.7-1.3-1.1c0-0.2,0-0.5,0-0.7
	c-0.4-0.4-0.9-0.7-1.3-1.1c0-0.2,0-0.5,0-0.7c-0.3-0.2-0.6-0.5-1-0.7c0-0.2,0-0.5,0-0.7c-0.1,0-0.2,0-0.3,0
	c-0.2-0.4-0.4-0.7-0.6-1.1c1.8-0.2,3.4-0.9,4.8-1.4c0.6,0,1.3,0,1.9,0c0-0.1,0-0.2,0-0.4c0.6,0,1.3,0,1.9,0c0-0.1,0-0.2,0-0.4
	c1,0,1.9,0,2.9,0c0-0.1,0-0.2,0-0.4c1.3,0,2.6,0,3.9,0c3.5,0,6.7,0.2,9.3,1.1c0.5,0,1.1,0,1.6,0c0,0.1,0,0.2,0,0.4
	c0.9,0.1,1.7,0.2,2.6,0.4c0,0.1,0,0.2,0,0.4c0.3,0,0.6,0,1,0c0,0.1,0,0.2,0,0.4c0.3,0,0.6,0,1,0c0,0.1,0,0.2,0,0.4c0.3,0,0.6,0,1,0
	c0,0.1,0,0.2,0,0.4c0.3,0,0.6,0,1,0c0,0.1,0,0.2,0,0.4c0.2,0,0.4,0,0.6,0c0,0.1,0,0.2,0,0.4c0.3,0,0.6,0,1,0c0,0.1,0,0.2,0,0.4
	c0.6,0.2,1.3,0.5,1.9,0.7c0,0.1,0,0.2,0,0.4c0.2,0,0.4,0,0.6,0c0,0.1,0,0.2,0,0.4c0.2,0,0.4,0,0.6,0c0,0.1,0,0.2,0,0.4
	c0.6,0.2,1.3,0.5,1.9,0.7c0.1,0.2,0.2,0.5,0.3,0.7c0.4,0.1,0.9,0.2,1.3,0.4c0.1,0.2,0.2,0.5,0.3,0.7c0.2,0,0.4,0,0.6,0
	c0.1,0.2,0.2,0.5,0.3,0.7c0.2,0,0.4,0,0.6,0c0.1,0.2,0.2,0.5,0.3,0.7c0.2,0,0.4,0,0.6,0c0.1,0.2,0.2,0.5,0.3,0.7c0.2,0,0.4,0,0.6,0
	c0.2,0.4,0.4,0.7,0.6,1.1c0.2,0,0.4,0,0.6,0c0.2,0.4,0.4,0.7,0.6,1.1c0.3,0.1,0.6,0.2,1,0.4c0.6,0.8,1.3,1.7,1.9,2.5
	c0.2,0,0.4,0,0.6,0c1,1.2,1.9,2.4,2.9,3.6c0.5,0.5,1.1,1,1.6,1.4c0,0.2,0,0.5,0,0.7c0.8,0.7,1.5,1.4,2.3,2.1c0,0.2,0,0.5,0,0.7
	c0.5,0.5,1.1,1,1.6,1.4c0,0.2,0,0.5,0,0.7c0.4,0.4,0.9,0.7,1.3,1.1c0,0.2,0,0.5,0,0.7c0.3,0.2,0.6,0.5,1,0.7
	C450.6,248.7,450.9,249.5,451.1,250.4z"/>
<path class="st0" d="M398.9,605.2c0.2,0.9,0.3,0.8,0.6,1.4c-1.1,0.4-2.1,0.7-3.2,1.1c0,0.1,0,0.2,0,0.4c-0.2,0-0.4,0-0.6,0
	c0,0.1,0,0.2,0,0.4c-1,0.2-1.9,0.5-2.9,0.7c0,0.1,0,0.2,0,0.4c-3.2,0.7-6.4,1.4-9.7,2.1c-1.5,0-3,0-4.5,0c0,0.1,0,0.2,0,0.4
	c-1.8,0-3.6,0-5.5,0c0-0.1,0-0.2,0-0.4c-1.6,0-3.2,0-4.8,0c0-0.1,0-0.2,0-0.4c-2.6-0.2-5.2-0.5-7.7-0.7c0-0.1,0-0.2,0-0.4
	c-1.3-0.1-2.6-0.2-3.9-0.4c-4.3-1.4-9.6-1.7-13.8-3.2c-3.1-0.6-6.2-1.2-9.3-1.8c-6.8-2.4-14.2-4-20.6-6.8c-0.3,0-0.6,0-1,0
	c0-0.1,0-0.2,0-0.4c-0.3,0-0.6,0-1,0c0-0.1,0-0.2,0-0.4c-0.3,0-0.6,0-1,0c0-0.1,0-0.2,0-0.4c-0.3,0-0.6,0-1,0c0-0.1,0-0.2,0-0.4
	c-0.3,0-0.6,0-1,0c0-0.1,0-0.2,0-0.4c-0.2,0-0.4,0-0.6,0c0-0.1,0-0.2,0-0.4c-0.6-0.1-1.3-0.2-1.9-0.4c0-0.1,0-0.2,0-0.4
	c-0.2,0-0.4,0-0.6,0c0-0.1,0-0.2,0-0.4c-0.6-0.1-1.3-0.2-1.9-0.4c0-0.1,0-0.2,0-0.4c-0.2,0-0.4,0-0.6,0c0-0.1,0-0.2,0-0.4
	c-0.3,0-0.6,0-1,0c0-0.1,0-0.2,0-0.4c-0.2,0-0.4,0-0.6,0c0-0.1,0-0.2,0-0.4c-0.5-0.1-1.1-0.2-1.6-0.4c0-0.1,0-0.2,0-0.4
	c-0.3,0-0.6,0-1,0c0-0.1,0-0.2,0-0.4c-0.2,0-0.4,0-0.6,0c0-0.1,0-0.2,0-0.4c-0.3,0-0.6,0-1,0c0-0.1,0-0.2,0-0.4c-0.2,0-0.4,0-0.6,0
	c0-0.1,0-0.2,0-0.4c-0.2,0-0.4,0-0.6,0c0-0.1,0-0.2,0-0.4c-0.2,0-0.4,0-0.6,0c0-0.1,0-0.2,0-0.4c-0.3,0-0.6,0-1,0c0-0.1,0-0.2,0-0.4
	c-0.2,0-0.4,0-0.6,0c0-0.1,0-0.2,0-0.4c-0.4-0.1-0.9-0.2-1.3-0.4c0-0.1,0-0.2,0-0.4c-0.3,0-0.6,0-1,0c0-0.1,0-0.2,0-0.4
	c-0.2,0-0.4,0-0.6,0c0-0.1,0-0.2,0-0.4c-0.4-0.1-0.9-0.2-1.3-0.4c0-0.1,0-0.2,0-0.4c-0.4-0.1-0.9-0.2-1.3-0.4c0-0.1,0-0.2,0-0.4
	c-0.2,0-0.4,0-0.6,0c0-0.1,0-0.2,0-0.4c-0.2,0-0.4,0-0.6,0c0-0.1,0-0.2,0-0.4c-0.2,0-0.4,0-0.6,0c0-0.1,0-0.2,0-0.4
	c-0.2,0-0.4,0-0.6,0c0-0.1,0-0.2,0-0.4c-0.2,0-0.4,0-0.6,0c0-0.1,0-0.2,0-0.4c-0.2,0-0.4,0-0.6,0c0-0.1,0-0.2,0-0.4
	c-0.2,0-0.4,0-0.6,0c0-0.1,0-0.2,0-0.4c-0.2,0-0.4,0-0.6,0c0-0.1,0-0.2,0-0.4c-0.2,0-0.4,0-0.6,0c0-0.1,0-0.2,0-0.4
	c-0.2,0-0.4,0-0.6,0c0-0.1,0-0.2,0-0.4c-0.2,0-0.4,0-0.6,0c0-0.1,0-0.2,0-0.4c-0.2,0-0.4,0-0.6,0c-0.1-0.2-0.2-0.5-0.3-0.7
	c-0.2,0-0.4,0-0.6,0c0-0.1,0-0.2,0-0.4c-0.2,0-0.4,0-0.6,0c0-0.1,0-0.2,0-0.4c-0.2,0-0.4,0-0.6,0c0-0.1,0-0.2,0-0.4
	c-0.2,0-0.4,0-0.6,0c-0.1-0.2-0.2-0.5-0.3-0.7c-0.6-0.2-1.3-0.5-1.9-0.7c-0.1-0.2-0.2-0.5-0.3-0.7c-0.4-0.1-0.9-0.2-1.3-0.4
	c-0.1-0.2-0.2-0.5-0.3-0.7c-0.4-0.1-0.9-0.2-1.3-0.4c-0.1-0.2-0.2-0.5-0.3-0.7c-0.4-0.1-0.9-0.2-1.3-0.4c-0.1-0.2-0.2-0.5-0.3-0.7
	c-0.2,0-0.4,0-0.6,0c-0.1-0.2-0.2-0.5-0.3-0.7c-0.2,0-0.4,0-0.6,0c-0.1-0.2-0.2-0.5-0.3-0.7c-0.4-0.1-0.9-0.2-1.3-0.4
	c0-0.1,0-0.2,0-0.4c-0.3-0.1-0.6-0.2-1-0.4c-0.1-0.2-0.2-0.5-0.3-0.7c-0.2,0-0.4,0-0.6,0c-0.1-0.2-0.2-0.5-0.3-0.7
	c-0.2,0-0.4,0-0.6,0c-0.2-0.4-0.4-0.7-0.6-1.1c-0.2,0-0.4,0-0.6,0c-0.1-0.2-0.2-0.5-0.3-0.7c-0.2,0-0.4,0-0.6,0
	c-0.2-0.4-0.4-0.7-0.6-1.1c-0.2,0-0.4,0-0.6,0c-0.3-0.5-0.6-1-1-1.4c-0.2,0-0.4,0-0.6,0c-0.3-0.5-0.6-1-1-1.4c-0.2,0-0.4,0-0.6,0
	c-0.4-0.6-0.9-1.2-1.3-1.8c-0.2,0-0.4,0-0.6,0c-0.8-1-1.5-1.9-2.3-2.9c-0.2,0-0.4,0-0.6,0c-0.9-1.1-1.7-2.1-2.6-3.2
	c-0.4-0.4-0.9-0.7-1.3-1.1c0-0.2,0-0.5,0-0.7c-0.9-0.8-1.7-1.7-2.6-2.5c0-0.2,0-0.5,0-0.7c-0.2-0.1-0.4-0.2-0.6-0.4
	c0-0.1,0-0.2,0-0.4c-0.3-0.2-0.6-0.5-1-0.7c0-0.2,0-0.5,0-0.7c-0.3-0.2-0.6-0.5-1-0.7c-0.1-0.4-0.2-0.7-0.3-1.1
	c-0.2-0.1-0.4-0.2-0.6-0.4c0-0.2,0-0.5,0-0.7c-0.2-0.1-0.4-0.2-0.6-0.4c-0.1-0.4-0.2-0.7-0.3-1.1c-0.1,0-0.2,0-0.3,0
	c0-0.2,0-0.5,0-0.7c-0.2-0.1-0.4-0.2-0.6-0.4c0-0.2,0-0.5,0-0.7c-0.2-0.1-0.4-0.2-0.6-0.4c-0.1-0.5-0.2-1-0.3-1.4
	c-0.2-0.1-0.4-0.2-0.6-0.4c-0.2-0.7-0.4-1.4-0.6-2.1c-0.2-0.1-0.4-0.2-0.6-0.4c-0.3-1.1-0.6-2.1-1-3.2c-0.1,0-0.2,0-0.3,0
	c0-0.2,0-0.5,0-0.7c-0.1,0-0.2,0-0.3,0c-0.1-0.5-0.2-1-0.3-1.4c-0.1,0-0.2,0-0.3,0c-0.1-0.7-0.2-1.4-0.3-2.1c-0.1,0-0.2,0-0.3,0
	c0-0.2,0-0.5,0-0.7c-0.1,0-0.2,0-0.3,0c0-0.4,0-0.7,0-1.1c-0.1,0-0.2,0-0.3,0c0-0.4,0-0.7,0-1.1c-0.1,0-0.2,0-0.3,0c0-0.5,0-1,0-1.4
	c-0.1,0-0.2,0-0.3,0c0-0.5,0-1,0-1.4c-0.1,0-0.2,0-0.3,0c0-0.5,0-1,0-1.4c-0.1,0-0.2,0-0.3,0c0-0.6,0-1.2,0-1.8
	c-1.4-5.2-1.4-14.8,0-20c0-0.6,0-1.2,0-1.8c0.1,0,0.2,0,0.3,0c0.1-1,0.2-1.9,0.3-2.9c0.1,0,0.2,0,0.3,0c0-0.5,0-1,0-1.4
	c0.1,0,0.2,0,0.3,0c0-0.4,0-0.7,0-1.1c0.1,0,0.2,0,0.3,0c0-0.4,0-0.7,0-1.1c0.1,0,0.2,0,0.3,0c0-0.4,0-0.7,0-1.1c0.1,0,0.2,0,0.3,0
	c0-0.4,0-0.7,0-1.1c0.1,0,0.2,0,0.3,0c0.1-0.6,0.2-1.2,0.3-1.8c0.1,0,0.2,0,0.3,0c0-0.2,0-0.5,0-0.7c0.1,0,0.2,0,0.3,0
	c0-0.4,0-0.7,0-1.1c0.1,0,0.2,0,0.3,0c0.2-0.7,0.4-1.4,0.6-2.1c0.1,0,0.2,0,0.3,0c0-0.2,0-0.5,0-0.7c0.1,0,0.2,0,0.3,0
	c0-0.2,0-0.5,0-0.7c0.1,0,0.2,0,0.3,0c0.2-0.7,0.4-1.4,0.6-2.1c0.2-0.1,0.4-0.2,0.6-0.4c0.2-0.7,0.4-1.4,0.6-2.1c0.1,0,0.2,0,0.3,0
	c0.1-0.4,0.2-0.7,0.3-1.1c0.2-0.1,0.4-0.2,0.6-0.4c0.1-0.5,0.2-1,0.3-1.4c0.2-0.1,0.4-0.2,0.6-0.4c0-0.2,0-0.5,0-0.7
	c0.3-0.2,0.6-0.5,1-0.7c0-0.2,0-0.5,0-0.7c0.2-0.1,0.4-0.2,0.6-0.4c0-0.2,0-0.5,0-0.7c0.3-0.2,0.6-0.5,1-0.7c0-0.2,0-0.5,0-0.7
	c0.3-0.2,0.6-0.5,1-0.7c0-0.2,0-0.5,0-0.7c0.4-0.4,0.9-0.7,1.3-1.1c0-0.2,0-0.5,0-0.7c0.5-0.5,1.1-1,1.6-1.4c0-0.2,0-0.5,0-0.7
	c0.6-0.6,1.3-1.2,1.9-1.8c0-0.1,0-0.2,0-0.4c0.2-0.1,0.4-0.2,0.6-0.4c0-0.2,0-0.5,0-0.7c1-1,1.9-1.9,2.9-2.9
	c0.5-0.7,1.1-1.4,1.6-2.1c0.2,0,0.4,0,0.6,0c0.6-0.8,1.3-1.7,1.9-2.5c0.2,0,0.4,0,0.6,0c0.6-0.8,1.3-1.7,1.9-2.5c0.2,0,0.4,0,0.6,0
	c0.5-0.7,1.1-1.4,1.6-2.1c0.2,0,0.4,0,0.6,0c0.5-0.7,1.1-1.4,1.6-2.1c0.2,0,0.4,0,0.6,0c0.4-0.6,0.9-1.2,1.3-1.8c0.2,0,0.4,0,0.6,0
	c0.4-0.6,0.9-1.2,1.3-1.8c0.2,0,0.4,0,0.6,0c0.3-0.5,0.6-1,1-1.4c0.2,0,0.4,0,0.6,0c0.1-0.2,0.2-0.5,0.3-0.7c0.1,0,0.2,0,0.3,0
	c0.1-0.2,0.2-0.5,0.3-0.7c0.2,0,0.4,0,0.6,0c0.4-0.6,0.9-1.2,1.3-1.8c0.2,0,0.4,0,0.6,0c0.3-0.5,0.6-1,1-1.4c0.2,0,0.4,0,0.6,0
	c0.2-0.4,0.4-0.7,0.6-1.1c0.2,0,0.4,0,0.6,0c0.3-0.5,0.6-1,1-1.4c0.2,0,0.4,0,0.6,0c0.3-0.5,0.6-1,1-1.4c0.2,0,0.4,0,0.6,0
	c0.3-0.5,0.6-1,1-1.4c0.3-0.1,0.6-0.2,1-0.4c0.1-0.2,0.2-0.5,0.3-0.7c0.2,0,0.4,0,0.6,0c0.3-0.5,0.6-1,1-1.4c0.2,0,0.4,0,0.6,0
	c0.2-0.4,0.4-0.7,0.6-1.1c0.2,0,0.4,0,0.6,0c0.3-0.5,0.6-1,1-1.4c0.2,0,0.4,0,0.6,0c0.2-0.4,0.4-0.7,0.6-1.1c0.3-0.1,0.6-0.2,1-0.4
	c0-0.2,0-0.5,0-0.7c-10.6-0.2-19.9,1-27.4,4.3c-1,0.2-1.9,0.5-2.9,0.7c0,0.1,0,0.2,0,0.4c-0.3,0-0.6,0-1,0c0,0.1,0,0.2,0,0.4
	c-0.3,0-0.6,0-1,0c0,0.1,0,0.2,0,0.4c-0.3,0-0.6,0-1,0c0,0.1,0,0.2,0,0.4c-0.2,0-0.4,0-0.6,0c0,0.1,0,0.2,0,0.4
	c-0.6,0.1-1.3,0.2-1.9,0.4c0,0.1,0,0.2,0,0.4c-0.2,0-0.4,0-0.6,0c0,0.1,0,0.2,0,0.4c-0.3,0-0.6,0-1,0c0,0.1,0,0.2,0,0.4
	c-0.2,0-0.4,0-0.6,0c0,0.1,0,0.2,0,0.4c-0.3,0-0.6,0-1,0c0,0.1,0,0.2,0,0.4c-1.3,0.5-2.6,1-3.9,1.4c0-0.1,0-0.2,0-0.4
	c0.1,0,0.2,0,0.3,0c1.4-1.7,2.8-3.3,4.2-5c0.2,0,0.4,0,0.6,0c0.6-0.8,1.3-1.7,1.9-2.5c0.2,0,0.4,0,0.6,0c0.4-0.6,0.9-1.2,1.3-1.8
	c0.2,0,0.4,0,0.6,0c0.3-0.5,0.6-1,1-1.4c0.2,0,0.4,0,0.6,0c0.3-0.5,0.6-1,1-1.4c0.2,0,0.4,0,0.6,0c0.2-0.4,0.4-0.7,0.6-1.1
	c0.2,0,0.4,0,0.6,0c0.2-0.4,0.4-0.7,0.6-1.1c0.2,0,0.4,0,0.6,0c0.2-0.4,0.4-0.7,0.6-1.1c0.2,0,0.4,0,0.6,0c0.1-0.2,0.2-0.5,0.3-0.7
	c0.2,0,0.4,0,0.6,0c0.2-0.4,0.4-0.7,0.6-1.1c0.2,0,0.4,0,0.6,0c0.1-0.2,0.2-0.5,0.3-0.7c0.3-0.1,0.6-0.2,1-0.4c0-0.1,0-0.2,0-0.4
	c0.2,0,0.4,0,0.6,0c0.1-0.2,0.2-0.5,0.3-0.7c0.2,0,0.4,0,0.6,0c0.1-0.2,0.2-0.5,0.3-0.7c0.2,0,0.4,0,0.6,0c0.1-0.2,0.2-0.5,0.3-0.7
	c0.2,0,0.4,0,0.6,0c0.1-0.2,0.2-0.5,0.3-0.7c0.4-0.1,0.9-0.2,1.3-0.4c0-0.1,0-0.2,0-0.4c0.3-0.1,0.6-0.2,1-0.4
	c0.1-0.2,0.2-0.5,0.3-0.7c0.4-0.1,0.9-0.2,1.3-0.4c0.1-0.2,0.2-0.5,0.3-0.7c0.4-0.1,0.9-0.2,1.3-0.4c0.1-0.2,0.2-0.5,0.3-0.7
	c0.4-0.1,0.9-0.2,1.3-0.4c0.1-0.2,0.2-0.5,0.3-0.7c0.6-0.2,1.3-0.5,1.9-0.7c8.9-6.2,19.3-10.8,29.9-15c0.4,0,0.9,0,1.3,0
	c0-0.1,0-0.2,0-0.4c0.3,0,0.6,0,1,0c0-0.1,0-0.2,0-0.4c0.3,0,0.6,0,1,0c0-0.1,0-0.2,0-0.4c0.8-0.1,1.5-0.2,2.3-0.4
	c0-0.1,0-0.2,0-0.4c1.2-0.2,2.4-0.5,3.5-0.7c0-0.1,0-0.2,0-0.4c0.9-0.1,1.7-0.2,2.6-0.4c0-0.1,0-0.2,0-0.4c0.5,0,1.1,0,1.6,0
	c0-0.1,0-0.2,0-0.4c0.4,0,0.9,0,1.3,0c0-0.1,0-0.2,0-0.4c0.4,0,0.9,0,1.3,0c0-0.1,0-0.2,0-0.4c0.5,0,1.1,0,1.6,0c0-0.1,0-0.2,0-0.4
	c0.5,0,1.1,0,1.6,0c0-0.1,0-0.2,0-0.4c0.5,0,1.1,0,1.6,0c0-0.1,0-0.2,0-0.4c0.6,0,1.3,0,1.9,0c3-1,7.2-1.1,10.3-2.1
	c0.9,0,1.7,0,2.6,0c0-0.1,0-0.2,0-0.4c1,0,1.9,0,2.9,0c0-0.1,0-0.2,0-0.4c1.2,0,2.4,0,3.5,0c0-0.1,0-0.2,0-0.4c3-0.1,6-0.2,9-0.4
	c0-0.1,0-0.2,0-0.4c2.8,0,5.6,0,8.4,0c2.8-0.9,7.3-0.4,10.6-0.4c2,0,4.6-0.1,6.1,0.4c1.6,0,3.2,0,4.8,0c3.8,0.1,7.5,0.2,11.3,0.4
	c0,0.1,0,0.2,0,0.4c1.8,0,3.6,0,5.5,0c0,0.1,0,0.2,0,0.4c1.6,0,3.2,0,4.8,0c0,0.1,0,0.2,0,0.4c0.4,0,0.9,0,1.3,0c1.1,0,2.1,0,3.2,0
	c0,0.1,0,0.2,0,0.4c1.7,0,3.4,0,5.2,0c0,0.1,0,0.2,0,0.4c2,0.6,5-0.2,6.8,0.4c2.8,0,5.6,0,8.4,0c0,0.1,0,0.2,0,0.4
	c7.1,0.1,14.2,0.2,21.2,0.4c0.9,0,1.7,0,2.6,0c0,0.1,0,0.2,0,0.4c3.5,0,7.1,0,10.6,0c0,0.1,0,0.2,0,0.4c2.8,0,5.6,0,8.4,0
	c0,0.1,0,0.2,0,0.4c1.2,0,2.4,0,3.5,0c2.6,0.1,5.2,0.2,7.7,0.4c0,0.1,0,0.2,0,0.4c1.5,0,3,0,4.5,0c0,0.1,0,0.2,0,0.4
	c1.3,0,2.6,0,3.9,0c0,0.1,0,0.2,0,0.4c1.2,0,2.4,0,3.5,0c0,0.1,0,0.2,0,0.4c1.1,0,2.1,0,3.2,0c0,0.1,0,0.2,0,0.4c2,0,4.1,0,6.1,0
	c6,0,11.2-0.5,15.8-2.1c0.9-0.1,1.7-0.2,2.6-0.4c0-0.1,0-0.2,0-0.4c0.8-0.1,1.5-0.2,2.3-0.4c0-0.1,0-0.2,0-0.4c0.3,0,0.6,0,1,0
	c0-0.1,0-0.2,0-0.4c0.3,0,0.6,0,1,0c0-0.1,0-0.2,0-0.4c0.3,0,0.6,0,1,0c0-0.1,0-0.2,0-0.4c0.6-0.1,1.3-0.2,1.9-0.4
	c0-0.1,0-0.2,0-0.4c0.2,0,0.4,0,0.6,0c0-0.1,0-0.2,0-0.4c0.6-0.1,1.3-0.2,1.9-0.4c0-0.1,0-0.2,0-0.4c0.4-0.1,0.9-0.2,1.3-0.4
	c0-0.1,0-0.2,0-0.4c0.3,0,0.6,0,1,0c0-0.1,0-0.2,0-0.4c0.2,0,0.4,0,0.6,0c0-0.1,0-0.2,0-0.4c0.4-0.1,0.9-0.2,1.3-0.4
	c0-0.1,0-0.2,0-0.4c0.3,0,0.6,0,1,0c0-0.1,0-0.2,0-0.4c0.6-0.2,1.3-0.5,1.9-0.7c0-0.1,0-0.2,0-0.4c0.4-0.1,0.9-0.2,1.3-0.4
	c0.1-0.2,0.2-0.5,0.3-0.7c0.2,0,0.4,0,0.6,0c0-0.1,0-0.2,0-0.4c0.2,0,0.4,0,0.6,0c0-0.1,0-0.2,0-0.4c0.2,0,0.4,0,0.6,0
	c0-0.1,0-0.2,0-0.4c0.2,0,0.4,0,0.6,0c0-0.1,0-0.2,0-0.4c0.2,0,0.4,0,0.6,0c0.1-0.2,0.2-0.5,0.3-0.7c0.2,0,0.4,0,0.6,0
	c0-0.1,0-0.2,0-0.4c0.2,0,0.4,0,0.6,0c0.1-0.2,0.2-0.5,0.3-0.7c0.4-0.1,0.9-0.2,1.3-0.4c0.1-0.2,0.2-0.5,0.3-0.7
	c0.4-0.1,0.9-0.2,1.3-0.4c0.1-0.2,0.2-0.5,0.3-0.7c0.2,0,0.4,0,0.6,0c0.1-0.2,0.2-0.5,0.3-0.7c0.2,0,0.4,0,0.6,0
	c0.1-0.2,0.2-0.5,0.3-0.7c0.2,0,0.4,0,0.6,0c0.1-0.2,0.2-0.5,0.3-0.7c0.2,0,0.4,0,0.6,0c0.2-0.4,0.4-0.7,0.6-1.1c0.2,0,0.4,0,0.6,0
	c0.1-0.2,0.2-0.5,0.3-0.7c0.2,0,0.4,0,0.6,0c0.2-0.4,0.4-0.7,0.6-1.1c0.2,0,0.4,0,0.6,0c0.2-0.4,0.4-0.7,0.6-1.1c0.2,0,0.4,0,0.6,0
	c0.3-0.5,0.6-1,1-1.4c0.2,0,0.4,0,0.6,0c0.8-1,1.5-1.9,2.3-2.9c0.2,0,0.4,0,0.6,0c0.5-0.7,1.1-1.4,1.6-2.1c0.2-0.1,0.4-0.2,0.6-0.4
	c0-0.2,0-0.5,0-0.7c0.8-0.7,1.5-1.4,2.3-2.1c0-0.2,0-0.5,0-0.7c0.4-0.4,0.9-0.7,1.3-1.1c0-0.2,0-0.5,0-0.7c0.3-0.2,0.6-0.5,1-0.7
	c0-0.2,0-0.5,0-0.7c0.2-0.1,0.4-0.2,0.6-0.4c0.1-0.4,0.2-0.7,0.3-1.1c0.1,0,0.2,0,0.3,0c0.1-0.5,0.2-1,0.3-1.4
	c0.2-0.1,0.4-0.2,0.6-0.4c0.1-0.5,0.2-1,0.3-1.4c0.1,0,0.2,0,0.3,0c0-0.2,0-0.5,0-0.7c0.1,0,0.2,0,0.3,0c0.2-0.7,0.4-1.4,0.6-2.1
	c0.1,0,0.2,0,0.3,0c0-0.4,0-0.7,0-1.1c0.1,0,0.2,0,0.3,0c0-0.2,0-0.5,0-0.7c0.1,0,0.2,0,0.3,0c0-0.4,0-0.7,0-1.1c0.1,0,0.2,0,0.3,0
	c0-0.4,0-0.7,0-1.1c0.1,0,0.2,0,0.3,0c0-0.5,0-1,0-1.4c0.1,0,0.2,0,0.3,0c0-0.5,0-1,0-1.4c0.1,0,0.2,0,0.3,0c0-0.6,0-1.2,0-1.8
	c0.3-1.3,1.1-6.2,0.6-8.2c-0.1,0-0.2,0-0.3,0c-0.1-1.5-0.2-3.1-0.3-4.6c-0.1,0-0.2,0-0.3,0c0-0.5,0-1,0-1.4c-0.1,0-0.2,0-0.3,0
	c0-0.4,0-0.7,0-1.1c-0.1,0-0.2,0-0.3,0c0-0.4,0-0.7,0-1.1c-0.1,0-0.2,0-0.3,0c0-0.4,0-0.7,0-1.1c-0.1,0-0.2,0-0.3,0
	c-0.1-0.5-0.2-1-0.3-1.4c-0.1,0-0.2,0-0.3,0c-0.3-1.1-0.6-2.1-1-3.2c-0.2-0.1-0.4-0.2-0.6-0.4c-0.2-0.7-0.4-1.4-0.6-2.1
	c-0.2-0.1-0.4-0.2-0.6-0.4c0-0.2,0-0.5,0-0.7c-0.3-0.2-0.6-0.5-1-0.7c0-0.2,0-0.5,0-0.7c-0.2-0.1-0.4-0.2-0.6-0.4c0-0.2,0-0.5,0-0.7
	c-0.5-0.5-1.1-1-1.6-1.4c0-0.2,0-0.5,0-0.7c-1.1-1.1-2.1-2.1-3.2-3.2c-1-1.2-1.9-2.4-2.9-3.6c-0.2,0-0.4,0-0.6,0
	c-0.4-0.6-0.9-1.2-1.3-1.8c-0.3-0.1-0.6-0.2-1-0.4c0-0.2,0-0.5,0-0.7c1.9-1.2,3.9-2.4,5.8-3.6c0.6-0.1,1.3-0.2,1.9-0.4
	c0-0.1,0-0.2,0-0.4c0.3,0,0.6,0,1,0c0-0.1,0-0.2,0-0.4c1.5,0,3,0,4.5,0c0,0.1,0,0.2,0,0.4c0.3,0,0.6,0,1,0c0,0.1,0,0.2,0,0.4
	c0.4,0.1,0.9,0.2,1.3,0.4c0.1,0.2,0.2,0.5,0.3,0.7c0.2,0,0.4,0,0.6,0c0.2,0.4,0.4,0.7,0.6,1.1c0.2,0,0.4,0,0.6,0c0,0.1,0,0.2,0,0.4
	c0.4,0.4,0.9,0.7,1.3,1.1c0,0.2,0,0.5,0,0.7c0.2,0.1,0.4,0.2,0.6,0.4c0.4,0.6,0.9,1.2,1.3,1.8c0.4,0.1,0.9,0.2,1.3,0.4
	c0,0.1,0,0.2,0,0.4c0.6,0.2,1.3,0.5,1.9,0.7c0,0.1,0,0.2,0,0.4c0.3,0,0.6,0,1,0c0,0.1,0,0.2,0,0.4c0.3,0,0.6,0,1,0
	c0,0.1,0,0.2,0,0.4c0.4,0,0.9,0,1.3,0c0,0.1,0,0.2,0,0.4c0.4,0,0.9,0,1.3,0c0,0.1,0,0.2,0,0.4c0.9,0.1,1.7,0.2,2.6,0.4
	c0,0.1,0,0.2,0,0.4c0.2,0,0.4,0,0.6,0c0,0.1,0,0.2,0,0.4c0.6,0.1,1.3,0.2,1.9,0.4c0,0.1,0,0.2,0,0.4c0.2,0,0.4,0,0.6,0
	c0,0.1,0,0.2,0,0.4c0.3,0,0.6,0,1,0c0,0.1,0,0.2,0,0.4c0.2,0,0.4,0,0.6,0c0,0.1,0,0.2,0,0.4c0.3,0,0.6,0,1,0c0,0.1,0,0.2,0,0.4
	c0.4,0.1,0.9,0.2,1.3,0.4c0,0.1,0,0.2,0,0.4c1,0.4,1.9,0.7,2.9,1.1c0.1,0.2,0.2,0.5,0.3,0.7c0.4,0.1,0.9,0.2,1.3,0.4
	c0.2,0.4,0.4,0.7,0.6,1.1c0.2,0,0.4,0,0.6,0c0.1,0.4,0.2,0.7,0.3,1.1c0.2,0.1,0.4,0.2,0.6,0.4c0.4,0.6,0,0.8,0.6,1.4
	c0.1,5.9-1.5,8.5-3.2,12.1c0,0.2,0,0.5,0,0.7c-0.1,0-0.2,0-0.3,0c0,0.2,0,0.5,0,0.7c-0.1,0-0.2,0-0.3,0c0,0.2,0,0.5,0,0.7
	c-0.1,0-0.2,0-0.3,0c0,0.2,0,0.5,0,0.7c-0.1,0-0.2,0-0.3,0c0,0.2,0,0.5,0,0.7c-0.1,0-0.2,0-0.3,0c-0.8,1.9-1.5,3.8-2.3,5.7
	c-0.2,0.1-0.4,0.2-0.6,0.4c-0.1,0.5-0.2,1-0.3,1.4c-0.1,0-0.2,0-0.3,0c0,0.2,0,0.5,0,0.7c-0.1,0-0.2,0-0.3,0c0,0.2,0,0.5,0,0.7
	c-0.1,0-0.2,0-0.3,0c0,0.2,0,0.5,0,0.7c-0.1,0-0.2,0-0.3,0c0,0.2,0,0.5,0,0.7c-0.2,0.1-0.4,0.2-0.6,0.4c0,0.2,0,0.5,0,0.7
	c-0.1,0-0.2,0-0.3,0c0,0.2,0,0.5,0,0.7c-0.1,0-0.2,0-0.3,0c0,0.2,0,0.5,0,0.7c-0.1,0-0.2,0-0.3,0c0,0.2,0,0.5,0,0.7
	c-0.2,0.1-0.4,0.2-0.6,0.4c-0.2,0.7-0.4,1.4-0.6,2.1c-0.2,0.1-0.4,0.2-0.6,0.4c-0.1,0.5-0.2,1-0.3,1.4c-0.2,0.1-0.4,0.2-0.6,0.4
	c-0.1,0.5-0.2,1-0.3,1.4c-0.2,0.1-0.4,0.2-0.6,0.4c-0.1,0.5-0.2,1-0.3,1.4c-0.2,0.1-0.4,0.2-0.6,0.4c-0.1,0.5-0.2,1-0.3,1.4
	c-0.2,0.1-0.4,0.2-0.6,0.4c-0.1,0.5-0.2,1-0.3,1.4c-0.2,0.1-0.4,0.2-0.6,0.4c-0.1,0.5-0.2,1-0.3,1.4c-0.2,0.1-0.4,0.2-0.6,0.4
	c0,0.2,0,0.5,0,0.7c-0.2,0.1-0.4,0.2-0.6,0.4c0,0.2,0,0.5,0,0.7c-0.1,0-0.2,0-0.3,0c0,0.2,0,0.5,0,0.7c-0.2,0.1-0.4,0.2-0.6,0.4
	c0,0.2,0,0.5,0,0.7c-0.2,0.1-0.4,0.2-0.6,0.4c0,0.2,0,0.5,0,0.7c-0.2,0.1-0.4,0.2-0.6,0.4c0,0.2,0,0.5,0,0.7
	c-0.2,0.1-0.4,0.2-0.6,0.4c-0.1,0.5-0.2,1-0.3,1.4c-0.2,0.1-0.4,0.2-0.6,0.4c0,0.2,0,0.5,0,0.7c-0.2,0.1-0.4,0.2-0.6,0.4
	c0,0.2,0,0.5,0,0.7c-0.2,0.1-0.4,0.2-0.6,0.4c0,0.2,0,0.5,0,0.7c-0.2,0.1-0.4,0.2-0.6,0.4c0,0.2,0,0.5,0,0.7
	c-0.2,0.1-0.4,0.2-0.6,0.4c0,0.2,0,0.5,0,0.7c-0.2,0.1-0.4,0.2-0.6,0.4c0,0.2,0,0.5,0,0.7c-0.2,0.1-0.4,0.2-0.6,0.4
	c0,0.2,0,0.5,0,0.7c-0.2,0.1-0.4,0.2-0.6,0.4c0,0.2,0,0.5,0,0.7c-0.2,0.1-0.4,0.2-0.6,0.4c0,0.2,0,0.5,0,0.7c-0.1,0-0.2,0-0.3,0
	c-0.1,0.4-0.2,0.7-0.3,1.1c-0.2,0.1-0.4,0.2-0.6,0.4c0,0.2,0,0.5,0,0.7c-0.3,0.2-0.6,0.5-1,0.7c0,0.2,0,0.5,0,0.7
	c-0.2,0.1-0.4,0.2-0.6,0.4c0,0.2,0,0.5,0,0.7c-0.1,0-0.2,0-0.3,0c-0.1,0.4-0.2,0.7-0.3,1.1c-0.2,0.1-0.4,0.2-0.6,0.4
	c0,0.2,0,0.5,0,0.7c-0.3,0.2-0.6,0.5-1,0.7c0,0.2,0,0.5,0,0.7c-0.3,0.2-0.6,0.5-1,0.7c0,0.2,0,0.5,0,0.7c-0.5,0.5-1.1,1-1.6,1.4
	c0,0.2,0,0.5,0,0.7c-1.3,1.3-2.6,2.6-3.9,3.9c-0.8,1-1.5,1.9-2.3,2.9c-0.2,0-0.4,0-0.6,0c-0.3,0.5-0.6,1-1,1.4c-0.2,0-0.4,0-0.6,0
	c-0.2,0.4-0.4,0.7-0.6,1.1c-0.2,0-0.4,0-0.6,0c-0.2,0.4-0.4,0.7-0.6,1.1c-0.2,0-0.4,0-0.6,0c-0.1,0.2-0.2,0.5-0.3,0.7
	c-0.2,0-0.4,0-0.6,0c-0.1,0.2-0.2,0.5-0.3,0.7c-0.3,0.1-0.6,0.2-1,0.4c0,0.1,0,0.2,0,0.4c-0.4,0.1-0.9,0.2-1.3,0.4
	c-0.1,0.2-0.2,0.5-0.3,0.7c-0.2,0-0.4,0-0.6,0c0,0.1,0,0.2,0,0.4c-0.2,0-0.4,0-0.6,0c0,0.1,0,0.2,0,0.4c-0.2,0-0.4,0-0.6,0
	c0,0.1,0,0.2,0,0.4c-0.2,0-0.4,0-0.6,0c0,0.1,0,0.2,0,0.4c-0.2,0-0.4,0-0.6,0c0,0.1,0,0.2,0,0.4c-0.2,0-0.4,0-0.6,0
	c0,0.1,0,0.2,0,0.4c-0.6,0.2-1.3,0.5-1.9,0.7c0,0.1,0,0.2,0,0.4c-0.3,0-0.6,0-1,0c0,0.1,0,0.2,0,0.4c-0.4,0.1-0.9,0.2-1.3,0.4
	c0,0.1,0,0.2,0,0.4c-0.6,0.1-1.3,0.2-1.9,0.4c0,0.1,0,0.2,0,0.4c-0.2,0-0.4,0-0.6,0c0,0.1,0,0.2,0,0.4c-1.1,0.2-2.1,0.5-3.2,0.7
	c0,0.1,0,0.2,0,0.4c-0.3,0-0.6,0-1,0c0,0.1,0,0.2,0,0.4c-0.8,0.1-1.5,0.2-2.3,0.4c0,0.1,0,0.2,0,0.4c-1,0.1-1.9,0.2-2.9,0.4
	c-1.5,0.5-3.6,0.9-5.2,1.4c-0.8,0-1.5,0-2.3,0c0,0.1,0,0.2,0,0.4c-0.9,0-1.7,0-2.6,0c0,0.1,0,0.2,0,0.4c-1.1,0-2.1,0-3.2,0
	c0,0.1,0,0.2,0,0.4c-1.2,0-2.4,0-3.5,0c0,0.1,0,0.2,0,0.4c-1.3,0-2.6,0-3.9,0c0,0.1,0,0.2,0,0.4c-1.2,0-2.4,0-3.5,0
	c0,0.1,0,0.2,0,0.4c-1.3,0-2.6,0-3.9,0c0,0.1,0,0.2,0,0.4c-1.3,0-2.6,0-3.9,0c0,0.1,0,0.2,0,0.4c-1.4,0-2.8,0-4.2,0
	c0,0,0,0.3-0.6,0.4c-1.2,0-2.4,0-3.5,0c0,0.1,0,0.2,0,0.4c-4.5,0.2-9,0.5-13.5,0.7c0,0.1,0,0.2,0,0.4c-2.3,0.1-4.5,0.2-6.8,0.4
	c-1.1,0-2.1,0-3.2,0c0,0.1,0,0.2,0,0.4c-1.8,0-3.6,0-5.5,0c0,0.1,0,0.2,0,0.4c-1.8,0-3.6,0-5.5,0c0,0.1,0,0.2,0,0.4
	c-1.8,0.6-4.6-0.1-6.1,0.4c-1.9,0.6-5-0.2-6.8,0.4c-1.5,0-3,0-4.5,0c-0.9,0-1.7,0-2.6,0c0,0.1,0,0.2,0,0.4c-2.7,0-5.4,0-8,0
	c0,0.1,0,0.2,0,0.4c-5.7,0.1-11.4,0.2-17.1,0.4c0,0.1,0,0.2,0,0.4c-1.5,0-3,0-4.5,0c0,0,0,0.3-0.6,0.4c-1.1,0-2.1,0-3.2,0
	c0,0.1,0,0.2,0,0.4c-1,0-1.9,0-2.9,0c0,0.1,0,0.2,0,0.4c-1,0-1.9,0-2.9,0c-3.6,1.2-8.1,1.3-11.6,2.5c-1.1,0.1-2.1,0.2-3.2,0.4
	c0,0.1,0,0.2,0,0.4c-1,0.1-1.9,0.2-2.9,0.4c0,0.1,0,0.2,0,0.4c-0.4,0-0.9,0-1.3,0c0,0.1,0,0.2,0,0.4c-1.2,0.2-2.4,0.5-3.5,0.7
	c0,0.1,0,0.2,0,0.4c-0.3,0-0.6,0-1,0c0,0.1,0,0.2,0,0.4c-0.4,0-0.9,0-1.3,0c0,0.1,0,0.2,0,0.4c-0.3,0-0.6,0-1,0c0,0.1,0,0.2,0,0.4
	c-0.3,0-0.6,0-1,0c0,0.1,0,0.2,0,0.4c-0.3,0-0.6,0-1,0c0,0.1,0,0.2,0,0.4c-0.3,0-0.6,0-1,0c0,0.1,0,0.2,0,0.4c-0.3,0-0.6,0-1,0
	c0,0.1,0,0.2,0,0.4c-0.3,0-0.6,0-1,0c0,0.1,0,0.2,0,0.4c-0.6,0.1-1.3,0.2-1.9,0.4c0,0.1,0,0.2,0,0.4c-0.2,0-0.4,0-0.6,0
	c0,0.1,0,0.2,0,0.4c-0.6,0.1-1.3,0.2-1.9,0.4c0,0.1,0,0.2,0,0.4c-0.2,0-0.4,0-0.6,0c0,0.1,0,0.2,0,0.4c-0.3,0-0.6,0-1,0
	c0,0.1,0,0.2,0,0.4c-0.4,0.1-0.9,0.2-1.3,0.4c0,0.1,0,0.2,0,0.4c-0.3,0-0.6,0-1,0c0,0.1,0,0.2,0,0.4c-0.4,0.1-0.9,0.2-1.3,0.4
	c0,0.1,0,0.2,0,0.4c-0.3,0-0.6,0-1,0c0,0.1,0,0.2,0,0.4c-0.6,0.2-1.3,0.5-1.9,0.7c0,0.1,0,0.2,0,0.4c-0.2,0-0.4,0-0.6,0
	c0,0.1,0,0.2,0,0.4c-0.2,0-0.4,0-0.6,0c0,0.1,0,0.2,0,0.4c-0.2,0-0.4,0-0.6,0c0,0.1,0,0.2,0,0.4c-0.2,0-0.4,0-0.6,0
	c0,0.1,0,0.2,0,0.4c-0.2,0-0.4,0-0.6,0c0,0.1,0,0.2,0,0.4c-0.2,0-0.4,0-0.6,0c0,0.1,0,0.2,0,0.4c-0.2,0-0.4,0-0.6,0
	c0,0.1,0,0.2,0,0.4c-0.2,0-0.4,0-0.6,0c-0.1,0.2-0.2,0.5-0.3,0.7c-0.2,0-0.4,0-0.6,0c0,0.1,0,0.2,0,0.4c-0.2,0-0.4,0-0.6,0
	c0,0.1,0,0.2,0,0.4c-0.2,0-0.4,0-0.6,0c0,0.1,0,0.2,0,0.4c-0.2,0-0.4,0-0.6,0c-0.1,0.2-0.2,0.5-0.3,0.7c-0.4,0.1-0.9,0.2-1.3,0.4
	c-0.1,0.2-0.2,0.5-0.3,0.7c-0.2,0-0.4,0-0.6,0c0,0.1,0,0.2,0,0.4c-0.2,0-0.4,0-0.6,0c-0.1,0.2-0.2,0.5-0.3,0.7c-0.2,0-0.4,0-0.6,0
	c-0.1,0.2-0.2,0.5-0.3,0.7c-0.2,0-0.4,0-0.6,0c-0.1,0.2-0.2,0.5-0.3,0.7c-0.2,0-0.4,0-0.6,0c-0.1,0.2-0.2,0.5-0.3,0.7
	c-0.2,0-0.4,0-0.6,0c-0.1,0.2-0.2,0.5-0.3,0.7c-0.2,0-0.4,0-0.6,0c-0.1,0.2-0.2,0.5-0.3,0.7c-0.2,0-0.4,0-0.6,0
	c-0.2,0.4-0.4,0.7-0.6,1.1c-0.2,0-0.4,0-0.6,0c-0.2,0.4-0.4,0.7-0.6,1.1c-0.2,0-0.4,0-0.6,0c-0.2,0.4-0.4,0.7-0.6,1.1
	c-0.2,0-0.4,0-0.6,0c-0.3,0.5-0.6,1-1,1.4c-0.2,0-0.4,0-0.6,0c-0.3,0.5-0.6,1-1,1.4c-0.2,0-0.4,0-0.6,0c-0.5,0.7-1.1,1.4-1.6,2.1
	c-0.2,0-0.4,0-0.6,0c-1.2,1.4-2.4,2.9-3.5,4.3c-0.2,0-0.4,0-0.6,0c-0.6,0.8-1.3,1.7-1.9,2.5c-0.2,0.1-0.4,0.2-0.6,0.4
	c0,0.2,0,0.5,0,0.7c-0.9,0.8-1.7,1.7-2.6,2.5c0,0.2,0,0.5,0,0.7c-0.4,0.4-0.9,0.7-1.3,1.1c0,0.2,0,0.5,0,0.7c-0.3,0.2-0.6,0.5-1,0.7
	c0,0.2,0,0.5,0,0.7c-0.3,0.2-0.6,0.5-1,0.7c0,0.2,0,0.5,0,0.7c-0.2,0.1-0.4,0.2-0.6,0.4c-0.1,0.5-0.2,1-0.3,1.4
	c-0.2,0.1-0.4,0.2-0.6,0.4c-0.2,0.7-0.4,1.4-0.6,2.1c-0.2,0.1-0.4,0.2-0.6,0.4c-1.2,3.2-2.4,6.4-3.5,9.6c-0.2,1.4-0.4,2.9-0.6,4.3
	c-3.2,11.6-0.2,27.3,3.2,36.1c0.1,0.7,0.2,1.4,0.3,2.1c0.1,0,0.2,0,0.3,0c0,0.2,0,0.5,0,0.7c0.1,0,0.2,0,0.3,0c0,0.4,0,0.7,0,1.1
	c0.1,0,0.2,0,0.3,0c0.1,0.6,0.2,1.2,0.3,1.8c0.1,0,0.2,0,0.3,0c0,0.2,0,0.5,0,0.7c0.1,0,0.2,0,0.3,0c0,0.4,0,0.7,0,1.1
	c0.1,0,0.2,0,0.3,0c0.1,0.5,0.2,1,0.3,1.4c0.1,0,0.2,0,0.3,0c0.1,0.6,0.2,1.2,0.3,1.8c0.1,0,0.2,0,0.3,0c0.2,0.7,0.4,1.4,0.6,2.1
	c0.1,0,0.2,0,0.3,0c0,0.2,0,0.5,0,0.7c0.1,0,0.2,0,0.3,0c0,0.2,0,0.5,0,0.7c0.1,0,0.2,0,0.3,0c0,0.2,0,0.5,0,0.7c0.1,0,0.2,0,0.3,0
	c0,0.2,0,0.5,0,0.7c0.1,0,0.2,0,0.3,0c0,0.2,0,0.5,0,0.7c0.1,0,0.2,0,0.3,0c0,0.2,0,0.5,0,0.7c0.1,0,0.2,0,0.3,0c0,0.2,0,0.5,0,0.7
	c0.1,0,0.2,0,0.3,0c0,0.2,0,0.5,0,0.7c0.2,0.1,0.4,0.2,0.6,0.4c0,0.2,0,0.5,0,0.7c0.1,0,0.2,0,0.3,0c0,0.2,0,0.5,0,0.7
	c0.1,0,0.2,0,0.3,0c0,0.2,0,0.5,0,0.7c0.1,0,0.2,0,0.3,0c0,0.2,0,0.5,0,0.7c0.2,0.1,0.4,0.2,0.6,0.4c0.1,0.5,0.2,1,0.3,1.4
	c0.2,0.1,0.4,0.2,0.6,0.4c0.1,0.5,0.2,1,0.3,1.4c0.2,0.1,0.4,0.2,0.6,0.4c0,0.2,0,0.5,0,0.7c0.2,0.1,0.4,0.2,0.6,0.4
	c0,0.2,0,0.5,0,0.7c0.2,0.1,0.4,0.2,0.6,0.4c0,0.2,0,0.5,0,0.7c0.2,0.1,0.4,0.2,0.6,0.4c0,0.2,0,0.5,0,0.7c0.2,0.1,0.4,0.2,0.6,0.4
	c0,0.2,0,0.5,0,0.7c0.3,0.2,0.6,0.5,1,0.7c0,0.2,0,0.5,0,0.7c0.2,0.1,0.4,0.2,0.6,0.4c0,0.2,0,0.5,0,0.7c0.3,0.2,0.6,0.5,1,0.7
	c0,0.2,0,0.5,0,0.7c0.4,0.4,0.9,0.7,1.3,1.1c0,0.2,0,0.5,0,0.7c0.4,0.4,0.9,0.7,1.3,1.1c0,0.2,0,0.5,0,0.7c0.3,0.2,0.6,0.5,1,0.7
	c0,0.1,0,0.2,0,0.4c0.2,0.1,0.4,0.2,0.6,0.4c0,0.2,0,0.5,0,0.7c0.9,0.8,1.7,1.7,2.6,2.5c0,0.2,0,0.5,0,0.7c1.1,1.1,2.1,2.1,3.2,3.2
	c1.1,1.3,2.1,2.6,3.2,3.9c0.2,0,0.4,0,0.6,0c0.8,1,1.5,1.9,2.3,2.9c0.2,0,0.4,0,0.6,0c0.5,0.7,1.1,1.4,1.6,2.1c0.2,0,0.4,0,0.6,0
	c0.3,0.5,0.6,1,1,1.4c0.2,0,0.4,0,0.6,0c0.2,0.4,0.4,0.7,0.6,1.1c0.2,0,0.4,0,0.6,0c0.2,0.4,0.4,0.7,0.6,1.1c0.2,0,0.4,0,0.6,0
	c0.2,0.4,0.4,0.7,0.6,1.1c0.3,0.1,0.6,0.2,1,0.4c0.1,0.2,0.2,0.5,0.3,0.7c0.2,0,0.4,0,0.6,0c0.1,0.2,0.2,0.5,0.3,0.7
	c0.3,0.1,0.6,0.2,1,0.4c0,0.1,0,0.2,0,0.4c0.2,0,0.4,0,0.6,0c0.1,0.2,0.2,0.5,0.3,0.7c0.2,0,0.4,0,0.6,0c0.1,0.2,0.2,0.5,0.3,0.7
	c0.2,0,0.4,0,0.6,0c0.1,0.2,0.2,0.5,0.3,0.7c0.4,0.1,0.9,0.2,1.3,0.4c0,0.1,0,0.2,0,0.4c0.3,0.1,0.6,0.2,1,0.4
	c0.1,0.2,0.2,0.5,0.3,0.7c0.4,0.1,0.9,0.2,1.3,0.4c0.1,0.2,0.2,0.5,0.3,0.7c0.6,0.2,1.3,0.5,1.9,0.7c0.1,0.2,0.2,0.5,0.3,0.7
	c0.2,0,0.4,0,0.6,0c0,0.1,0,0.2,0,0.4c0.2,0,0.4,0,0.6,0c0,0.1,0,0.2,0,0.4c0.2,0,0.4,0,0.6,0c0,0.1,0,0.2,0,0.4c0.2,0,0.4,0,0.6,0
	c0,0.1,0,0.2,0,0.4c0.4,0.1,0.9,0.2,1.3,0.4c0.1,0.2,0.2,0.5,0.3,0.7c0.4,0.1,0.9,0.2,1.3,0.4c0,0.1,0,0.2,0,0.4
	c0.6,0.2,1.3,0.5,1.9,0.7c0,0.1,0,0.2,0,0.4c0.3,0,0.6,0,1,0c0,0.1,0,0.2,0,0.4c0.2,0,0.4,0,0.6,0c0,0.1,0,0.2,0,0.4
	c0.2,0,0.4,0,0.6,0c0,0.1,0,0.2,0,0.4c0.6,0.2,1.3,0.5,1.9,0.7c0,0.1,0,0.2,0,0.4c0.3,0,0.6,0,1,0c0,0.1,0,0.2,0,0.4
	c0.4,0.1,0.9,0.2,1.3,0.4c0,0.1,0,0.2,0,0.4c0.3,0,0.6,0,1,0c0,0.1,0,0.2,0,0.4c0.4,0.1,0.9,0.2,1.3,0.4c0,0.1,0,0.2,0,0.4
	c0.3,0,0.6,0,1,0c0,0.1,0,0.2,0,0.4c0.2,0,0.4,0,0.6,0c0,0.1,0,0.2,0,0.4c0.3,0,0.6,0,1,0c0,0.1,0,0.2,0,0.4c0.2,0,0.4,0,0.6,0
	c0,0.1,0,0.2,0,0.4C395,604.3,396.8,605,398.9,605.2z"/>
</svg>
